{
	"patcher" : 	{
		"fileversion" : 1,
		"appversion" : 		{
			"major" : 6,
			"minor" : 1,
			"revision" : 6,
			"architecture" : "x86"
		}
,
		"rect" : [ 180.0, 219.0, 1130.0, 722.0 ],
		"bglocked" : 0,
		"openinpresentation" : 0,
		"default_fontsize" : 10.0,
		"default_fontface" : 0,
		"default_fontname" : "Arial Bold",
		"gridonopen" : 0,
		"gridsize" : [ 15.0, 15.0 ],
		"gridsnaponopen" : 0,
		"statusbarvisible" : 2,
		"toolbarvisible" : 1,
		"boxanimatetime" : 200,
		"imprint" : 0,
		"enablehscroll" : 1,
		"enablevscroll" : 1,
		"devicewidth" : 0.0,
		"description" : "",
		"digest" : "",
		"tags" : "",
		"boxes" : [ 			{
				"box" : 				{
					"fontname" : "Arial Bold",
					"fontsize" : 10.0,
					"id" : "obj-9",
					"maxclass" : "newobj",
					"numinlets" : 5,
					"numoutlets" : 2,
					"outlettype" : [ "", "" ],
					"patcher" : 					{
						"fileversion" : 1,
						"appversion" : 						{
							"major" : 6,
							"minor" : 1,
							"revision" : 6,
							"architecture" : "x86"
						}
,
						"rect" : [ 88.0, 44.0, 834.0, 732.0 ],
						"bglocked" : 0,
						"openinpresentation" : 0,
						"default_fontsize" : 10.0,
						"default_fontface" : 0,
						"default_fontname" : "Arial Bold",
						"gridonopen" : 0,
						"gridsize" : [ 15.0, 15.0 ],
						"gridsnaponopen" : 0,
						"statusbarvisible" : 2,
						"toolbarvisible" : 1,
						"boxanimatetime" : 200,
						"imprint" : 0,
						"enablehscroll" : 1,
						"enablevscroll" : 1,
						"devicewidth" : 0.0,
						"description" : "",
						"digest" : "",
						"tags" : "",
						"boxes" : [ 							{
								"box" : 								{
									"fontname" : "Arial Bold",
									"fontsize" : 10.0,
									"id" : "obj-43",
									"maxclass" : "newobj",
									"numinlets" : 1,
									"numoutlets" : 1,
									"outlettype" : [ "" ],
									"patching_rect" : [ 547.0, 552.5, 19.0, 18.0 ],
									"text" : "t l"
								}

							}
, 							{
								"box" : 								{
									"fontname" : "Arial Bold",
									"fontsize" : 10.0,
									"id" : "obj-42",
									"maxclass" : "newobj",
									"numinlets" : 1,
									"numoutlets" : 2,
									"outlettype" : [ "bang", "bang" ],
									"patching_rect" : [ 547.0, 95.0, 100.0, 18.0 ],
									"text" : "b"
								}

							}
, 							{
								"box" : 								{
									"fontname" : "Arial Bold",
									"fontsize" : 10.0,
									"frgb" : 0.0,
									"id" : "obj-41",
									"maxclass" : "comment",
									"numinlets" : 1,
									"numoutlets" : 0,
									"patching_rect" : [ 547.0, 22.0, 36.0, 18.0 ],
									"text" : "Clear"
								}

							}
, 							{
								"box" : 								{
									"fontname" : "Arial Bold",
									"fontsize" : 10.0,
									"frgb" : 0.0,
									"id" : "obj-40",
									"linecount" : 2,
									"maxclass" : "comment",
									"numinlets" : 1,
									"numoutlets" : 0,
									"patching_rect" : [ 457.0, 11.0, 86.0, 29.0 ],
									"text" : "Polybuffer Reading done"
								}

							}
, 							{
								"box" : 								{
									"fontname" : "Arial Bold",
									"fontsize" : 10.0,
									"frgb" : 0.0,
									"id" : "obj-32",
									"linecount" : 2,
									"maxclass" : "comment",
									"numinlets" : 1,
									"numoutlets" : 0,
									"patching_rect" : [ 319.0, 11.0, 62.0, 29.0 ],
									"text" : "Polybuffer Dumpout"
								}

							}
, 							{
								"box" : 								{
									"fontname" : "Arial Bold",
									"fontsize" : 10.0,
									"frgb" : 0.0,
									"id" : "obj-31",
									"maxclass" : "comment",
									"numinlets" : 1,
									"numoutlets" : 0,
									"patching_rect" : [ 187.0, 22.0, 62.0, 18.0 ],
									"text" : "From Drop"
								}

							}
, 							{
								"box" : 								{
									"fontname" : "Arial Bold",
									"fontsize" : 10.0,
									"frgb" : 0.0,
									"id" : "obj-30",
									"maxclass" : "comment",
									"numinlets" : 1,
									"numoutlets" : 0,
									"patching_rect" : [ 547.0, 617.0, 77.0, 18.0 ],
									"text" : "to coll"
								}

							}
, 							{
								"box" : 								{
									"fontname" : "Arial Bold",
									"fontsize" : 10.0,
									"frgb" : 0.0,
									"id" : "obj-26",
									"maxclass" : "comment",
									"numinlets" : 1,
									"numoutlets" : 0,
									"patching_rect" : [ 187.0, 617.0, 77.0, 18.0 ],
									"text" : "to polybuffer~"
								}

							}
, 							{
								"box" : 								{
									"fontname" : "Arial Bold",
									"fontsize" : 10.0,
									"id" : "obj-22",
									"maxclass" : "message",
									"numinlets" : 2,
									"numoutlets" : 1,
									"outlettype" : [ "" ],
									"patching_rect" : [ 628.0, 512.0, 50.0, 16.0 ],
									"text" : "clear"
								}

							}
, 							{
								"box" : 								{
									"comment" : "",
									"id" : "obj-14",
									"maxclass" : "inlet",
									"numinlets" : 0,
									"numoutlets" : 1,
									"outlettype" : [ "" ],
									"patching_rect" : [ 547.0, 40.0, 25.0, 25.0 ]
								}

							}
, 							{
								"box" : 								{
									"color" : [ 1.0, 0.5, 0.0, 1.0 ],
									"fontname" : "Arial Bold",
									"fontsize" : 10.0,
									"id" : "obj-10",
									"maxclass" : "newobj",
									"numinlets" : 1,
									"numoutlets" : 4,
									"outlettype" : [ "", "", "", "" ],
									"patching_rect" : [ 598.0, 592.0, 100.0, 18.0 ],
									"presentation" : 1,
									"presentation_rect" : [ 189.666656, 91.5, 100.0, 18.0 ],
									"saved_object_attributes" : 									{
										"embed" : 0
									}
,
									"text" : "coll ALL.BUFFERS"
								}

							}
, 							{
								"box" : 								{
									"fontname" : "Arial Bold",
									"fontsize" : 10.0,
									"id" : "obj-19",
									"linecount" : 2,
									"maxclass" : "message",
									"numinlets" : 2,
									"numoutlets" : 1,
									"outlettype" : [ "" ],
									"patching_rect" : [ 222.0, 548.0, 50.0, 27.0 ],
									"text" : "getshortname"
								}

							}
, 							{
								"box" : 								{
									"id" : "obj-13",
									"maxclass" : "button",
									"numinlets" : 1,
									"numoutlets" : 1,
									"outlettype" : [ "bang" ],
									"patching_rect" : [ 457.0, 349.0, 20.0, 20.0 ]
								}

							}
, 							{
								"box" : 								{
									"color" : [ 1.0, 0.0, 0.0, 1.0 ],
									"fontname" : "Arial Bold",
									"fontsize" : 10.0,
									"id" : "obj-9",
									"linecount" : 3,
									"maxclass" : "newobj",
									"numinlets" : 1,
									"numoutlets" : 0,
									"patching_rect" : [ 457.0, 381.0, 100.0, 40.0 ],
									"text" : "s ALL.updateBuffersColl"
								}

							}
, 							{
								"box" : 								{
									"color" : [ 1.0, 0.0, 0.0, 1.0 ],
									"fontname" : "Arial Bold",
									"fontsize" : 10.0,
									"id" : "obj-79",
									"linecount" : 3,
									"maxclass" : "newobj",
									"numinlets" : 0,
									"numoutlets" : 1,
									"outlettype" : [ "" ],
									"patching_rect" : [ 222.0, 490.0, 100.0, 40.0 ],
									"text" : "r ALL.updateBuffersColl"
								}

							}
, 							{
								"box" : 								{
									"fontname" : "Arial Bold",
									"fontsize" : 10.0,
									"id" : "obj-7",
									"maxclass" : "newobj",
									"numinlets" : 1,
									"numoutlets" : 1,
									"outlettype" : [ "" ],
									"patching_rect" : [ 531.0, 253.0, 52.0, 18.0 ],
									"text" : "deferlow"
								}

							}
, 							{
								"box" : 								{
									"fontname" : "Arial Bold",
									"fontsize" : 10.0,
									"id" : "obj-3",
									"maxclass" : "newobj",
									"numinlets" : 2,
									"numoutlets" : 1,
									"outlettype" : [ "bang" ],
									"patching_rect" : [ 531.0, 221.0, 61.0, 18.0 ],
									"text" : "delay 5000"
								}

							}
, 							{
								"box" : 								{
									"fontname" : "Arial Bold",
									"fontsize" : 10.0,
									"id" : "obj-2",
									"maxclass" : "newobj",
									"numinlets" : 1,
									"numoutlets" : 1,
									"outlettype" : [ "" ],
									"patching_rect" : [ 531.0, 192.0, 52.0, 18.0 ],
									"text" : "deferlow"
								}

							}
, 							{
								"box" : 								{
									"fontname" : "Arial Bold",
									"fontsize" : 10.0,
									"id" : "obj-1",
									"maxclass" : "newobj",
									"numinlets" : 1,
									"numoutlets" : 1,
									"outlettype" : [ "bang" ],
									"patching_rect" : [ 531.0, 165.0, 55.0, 18.0 ],
									"text" : "loadbang"
								}

							}
, 							{
								"box" : 								{
									"fontname" : "Arial Bold",
									"fontsize" : 10.0,
									"id" : "obj-29",
									"maxclass" : "newobj",
									"numinlets" : 2,
									"numoutlets" : 2,
									"outlettype" : [ "", "" ],
									"patching_rect" : [ 369.0, 480.0, 36.0, 18.0 ],
									"text" : "zl rev"
								}

							}
, 							{
								"box" : 								{
									"fontname" : "Arial Bold",
									"fontsize" : 10.0,
									"id" : "obj-28",
									"maxclass" : "newobj",
									"numinlets" : 2,
									"numoutlets" : 2,
									"outlettype" : [ "", "" ],
									"patching_rect" : [ 319.0, 428.0, 89.0, 18.0 ],
									"text" : "route shortname"
								}

							}
, 							{
								"box" : 								{
									"fontname" : "Arial Bold",
									"fontsize" : 10.0,
									"id" : "obj-27",
									"maxclass" : "newobj",
									"numinlets" : 1,
									"numoutlets" : 1,
									"outlettype" : [ "" ],
									"patching_rect" : [ 369.0, 512.0, 77.0, 18.0 ],
									"text" : "prepend store"
								}

							}
, 							{
								"box" : 								{
									"fontname" : "Arial Bold",
									"fontsize" : 10.0,
									"id" : "obj-17",
									"maxclass" : "newobj",
									"numinlets" : 1,
									"numoutlets" : 3,
									"outlettype" : [ "", "", "bang" ],
									"patching_rect" : [ 50.0, 187.0, 46.0, 18.0 ],
									"text" : "t l l b"
								}

							}
, 							{
								"box" : 								{
									"id" : "obj-8",
									"maxclass" : "button",
									"numinlets" : 1,
									"numoutlets" : 1,
									"outlettype" : [ "bang" ],
									"patching_rect" : [ 457.0, 282.0, 20.0, 20.0 ]
								}

							}
, 							{
								"box" : 								{
									"fontname" : "Arial Bold",
									"fontsize" : 10.0,
									"id" : "obj-6",
									"maxclass" : "newobj",
									"numinlets" : 2,
									"numoutlets" : 2,
									"outlettype" : [ "", "" ],
									"patching_rect" : [ 319.0, 456.0, 69.0, 18.0 ],
									"text" : "route done"
								}

							}
, 							{
								"box" : 								{
									"fontname" : "Arial Bold",
									"fontsize" : 10.0,
									"id" : "obj-5",
									"maxclass" : "newobj",
									"numinlets" : 2,
									"numoutlets" : 1,
									"outlettype" : [ "bang" ],
									"patching_rect" : [ 457.0, 253.0, 56.0, 18.0 ],
									"text" : "delay 100"
								}

							}
, 							{
								"box" : 								{
									"fontname" : "Arial Bold",
									"fontsize" : 10.0,
									"id" : "obj-4",
									"maxclass" : "newobj",
									"numinlets" : 1,
									"numoutlets" : 2,
									"outlettype" : [ "bang", "clear" ],
									"patching_rect" : [ 457.0, 310.0, 109.0, 18.0 ],
									"text" : "t b clear"
								}

							}
, 							{
								"box" : 								{
									"fontname" : "Arial Bold",
									"fontsize" : 10.0,
									"id" : "obj-35",
									"linecount" : 3,
									"maxclass" : "newobj",
									"numinlets" : 2,
									"numoutlets" : 2,
									"outlettype" : [ "", "" ],
									"patching_rect" : [ 63.5, 299.0, 97.5, 40.0 ],
									"text" : "combine path/ filename @triggers 1"
								}

							}
, 							{
								"box" : 								{
									"fontname" : "Arial Bold",
									"fontsize" : 10.0,
									"id" : "obj-25",
									"maxclass" : "newobj",
									"numinlets" : 2,
									"numoutlets" : 2,
									"outlettype" : [ "", "" ],
									"patching_rect" : [ 50.0, 275.0, 74.0, 18.0 ],
									"text" : "route append"
								}

							}
, 							{
								"box" : 								{
									"fontname" : "Arial Bold",
									"fontsize" : 10.0,
									"id" : "obj-24",
									"maxclass" : "newobj",
									"numinlets" : 1,
									"numoutlets" : 1,
									"outlettype" : [ "" ],
									"patching_rect" : [ 77.0, 214.0, 110.0, 18.0 ],
									"text" : "loadmess types AIFF"
								}

							}
, 							{
								"box" : 								{
									"fontname" : "Arial Bold",
									"fontsize" : 10.0,
									"id" : "obj-21",
									"maxclass" : "newobj",
									"numinlets" : 1,
									"numoutlets" : 2,
									"outlettype" : [ "", "int" ],
									"patching_rect" : [ 50.0, 243.0, 38.0, 18.0 ],
									"text" : "folder"
								}

							}
, 							{
								"box" : 								{
									"fontname" : "Arial Bold",
									"fontsize" : 10.0,
									"id" : "obj-18",
									"maxclass" : "newobj",
									"numinlets" : 1,
									"numoutlets" : 1,
									"outlettype" : [ "" ],
									"patching_rect" : [ 187.0, 349.0, 88.0, 18.0 ],
									"text" : "prepend append"
								}

							}
, 							{
								"box" : 								{
									"fontname" : "Arial Bold",
									"fontsize" : 10.0,
									"id" : "obj-16",
									"maxclass" : "newobj",
									"numinlets" : 1,
									"numoutlets" : 1,
									"outlettype" : [ "int" ],
									"patching_rect" : [ 267.0, 111.0, 22.0, 18.0 ],
									"text" : "t 2"
								}

							}
, 							{
								"box" : 								{
									"fontname" : "Arial Bold",
									"fontsize" : 10.0,
									"id" : "obj-15",
									"maxclass" : "newobj",
									"numinlets" : 1,
									"numoutlets" : 1,
									"outlettype" : [ "int" ],
									"patching_rect" : [ 228.0, 111.0, 22.0, 18.0 ],
									"text" : "t 1"
								}

							}
, 							{
								"box" : 								{
									"fontname" : "Arial Bold",
									"fontsize" : 10.0,
									"id" : "obj-12",
									"maxclass" : "newobj",
									"numinlets" : 2,
									"numoutlets" : 2,
									"outlettype" : [ "", "" ],
									"patching_rect" : [ 50.0, 159.0, 156.0, 18.0 ],
									"text" : "gate 2"
								}

							}
, 							{
								"box" : 								{
									"fontname" : "Arial Bold",
									"fontsize" : 10.0,
									"id" : "obj-11",
									"maxclass" : "newobj",
									"numinlets" : 2,
									"numoutlets" : 2,
									"outlettype" : [ "bang", "" ],
									"patching_rect" : [ 228.0, 83.0, 58.0, 18.0 ],
									"text" : "sel fold"
								}

							}
, 							{
								"box" : 								{
									"comment" : "",
									"id" : "obj-33",
									"maxclass" : "inlet",
									"numinlets" : 0,
									"numoutlets" : 1,
									"outlettype" : [ "" ],
									"patching_rect" : [ 228.0, 40.0, 25.0, 25.0 ]
								}

							}
, 							{
								"box" : 								{
									"comment" : "",
									"id" : "obj-34",
									"maxclass" : "inlet",
									"numinlets" : 0,
									"numoutlets" : 1,
									"outlettype" : [ "" ],
									"patching_rect" : [ 187.0, 40.0, 25.0, 25.0 ]
								}

							}
, 							{
								"box" : 								{
									"comment" : "",
									"id" : "obj-36",
									"maxclass" : "inlet",
									"numinlets" : 0,
									"numoutlets" : 1,
									"outlettype" : [ "" ],
									"patching_rect" : [ 319.0, 40.0, 25.0, 25.0 ]
								}

							}
, 							{
								"box" : 								{
									"comment" : "",
									"id" : "obj-37",
									"maxclass" : "inlet",
									"numinlets" : 0,
									"numoutlets" : 1,
									"outlettype" : [ "bang" ],
									"patching_rect" : [ 457.0, 40.0, 25.0, 25.0 ]
								}

							}
, 							{
								"box" : 								{
									"comment" : "",
									"id" : "obj-38",
									"maxclass" : "outlet",
									"numinlets" : 1,
									"numoutlets" : 0,
									"patching_rect" : [ 187.0, 592.0, 25.0, 25.0 ]
								}

							}
, 							{
								"box" : 								{
									"comment" : "",
									"id" : "obj-39",
									"maxclass" : "outlet",
									"numinlets" : 1,
									"numoutlets" : 0,
									"patching_rect" : [ 547.0, 592.0, 25.0, 25.0 ]
								}

							}
 ],
						"lines" : [ 							{
								"patchline" : 								{
									"destination" : [ "obj-2", 0 ],
									"disabled" : 0,
									"hidden" : 0,
									"source" : [ "obj-1", 0 ]
								}

							}
, 							{
								"patchline" : 								{
									"destination" : [ "obj-15", 0 ],
									"disabled" : 0,
									"hidden" : 0,
									"source" : [ "obj-11", 0 ]
								}

							}
, 							{
								"patchline" : 								{
									"destination" : [ "obj-16", 0 ],
									"disabled" : 0,
									"hidden" : 0,
									"source" : [ "obj-11", 1 ]
								}

							}
, 							{
								"patchline" : 								{
									"destination" : [ "obj-17", 0 ],
									"disabled" : 0,
									"hidden" : 0,
									"source" : [ "obj-12", 0 ]
								}

							}
, 							{
								"patchline" : 								{
									"destination" : [ "obj-18", 0 ],
									"disabled" : 0,
									"hidden" : 0,
									"source" : [ "obj-12", 1 ]
								}

							}
, 							{
								"patchline" : 								{
									"destination" : [ "obj-9", 0 ],
									"disabled" : 0,
									"hidden" : 0,
									"source" : [ "obj-13", 0 ]
								}

							}
, 							{
								"patchline" : 								{
									"destination" : [ "obj-42", 0 ],
									"disabled" : 0,
									"hidden" : 0,
									"source" : [ "obj-14", 0 ]
								}

							}
, 							{
								"patchline" : 								{
									"destination" : [ "obj-12", 0 ],
									"disabled" : 0,
									"hidden" : 0,
									"source" : [ "obj-15", 0 ]
								}

							}
, 							{
								"patchline" : 								{
									"destination" : [ "obj-12", 0 ],
									"disabled" : 0,
									"hidden" : 0,
									"source" : [ "obj-16", 0 ]
								}

							}
, 							{
								"patchline" : 								{
									"destination" : [ "obj-21", 0 ],
									"disabled" : 0,
									"hidden" : 0,
									"source" : [ "obj-17", 0 ]
								}

							}
, 							{
								"patchline" : 								{
									"destination" : [ "obj-24", 0 ],
									"disabled" : 0,
									"hidden" : 0,
									"source" : [ "obj-17", 2 ]
								}

							}
, 							{
								"patchline" : 								{
									"destination" : [ "obj-35", 0 ],
									"disabled" : 0,
									"hidden" : 0,
									"source" : [ "obj-17", 1 ]
								}

							}
, 							{
								"patchline" : 								{
									"destination" : [ "obj-38", 0 ],
									"disabled" : 0,
									"hidden" : 0,
									"source" : [ "obj-18", 0 ]
								}

							}
, 							{
								"patchline" : 								{
									"destination" : [ "obj-38", 0 ],
									"disabled" : 0,
									"hidden" : 0,
									"source" : [ "obj-19", 0 ]
								}

							}
, 							{
								"patchline" : 								{
									"destination" : [ "obj-3", 0 ],
									"disabled" : 0,
									"hidden" : 0,
									"source" : [ "obj-2", 0 ]
								}

							}
, 							{
								"patchline" : 								{
									"destination" : [ "obj-25", 0 ],
									"disabled" : 0,
									"hidden" : 0,
									"source" : [ "obj-21", 0 ]
								}

							}
, 							{
								"patchline" : 								{
									"destination" : [ "obj-38", 0 ],
									"disabled" : 0,
									"hidden" : 0,
									"source" : [ "obj-22", 0 ]
								}

							}
, 							{
								"patchline" : 								{
									"destination" : [ "obj-21", 0 ],
									"disabled" : 0,
									"hidden" : 0,
									"source" : [ "obj-24", 0 ]
								}

							}
, 							{
								"patchline" : 								{
									"destination" : [ "obj-35", 1 ],
									"disabled" : 0,
									"hidden" : 0,
									"source" : [ "obj-25", 0 ]
								}

							}
, 							{
								"patchline" : 								{
									"destination" : [ "obj-43", 0 ],
									"disabled" : 0,
									"hidden" : 0,
									"source" : [ "obj-27", 0 ]
								}

							}
, 							{
								"patchline" : 								{
									"destination" : [ "obj-6", 0 ],
									"disabled" : 0,
									"hidden" : 0,
									"source" : [ "obj-28", 0 ]
								}

							}
, 							{
								"patchline" : 								{
									"destination" : [ "obj-27", 0 ],
									"disabled" : 0,
									"hidden" : 0,
									"source" : [ "obj-29", 0 ]
								}

							}
, 							{
								"patchline" : 								{
									"destination" : [ "obj-7", 0 ],
									"disabled" : 0,
									"hidden" : 0,
									"source" : [ "obj-3", 0 ]
								}

							}
, 							{
								"patchline" : 								{
									"destination" : [ "obj-11", 0 ],
									"disabled" : 0,
									"hidden" : 0,
									"source" : [ "obj-33", 0 ]
								}

							}
, 							{
								"patchline" : 								{
									"destination" : [ "obj-12", 1 ],
									"disabled" : 0,
									"hidden" : 0,
									"source" : [ "obj-34", 0 ]
								}

							}
, 							{
								"patchline" : 								{
									"destination" : [ "obj-18", 0 ],
									"disabled" : 0,
									"hidden" : 0,
									"source" : [ "obj-35", 0 ]
								}

							}
, 							{
								"patchline" : 								{
									"destination" : [ "obj-28", 0 ],
									"disabled" : 0,
									"hidden" : 0,
									"source" : [ "obj-36", 0 ]
								}

							}
, 							{
								"patchline" : 								{
									"destination" : [ "obj-5", 0 ],
									"disabled" : 0,
									"hidden" : 0,
									"source" : [ "obj-37", 0 ]
								}

							}
, 							{
								"patchline" : 								{
									"destination" : [ "obj-13", 0 ],
									"disabled" : 0,
									"hidden" : 0,
									"source" : [ "obj-4", 0 ]
								}

							}
, 							{
								"patchline" : 								{
									"destination" : [ "obj-43", 0 ],
									"disabled" : 0,
									"hidden" : 0,
									"source" : [ "obj-4", 1 ]
								}

							}
, 							{
								"patchline" : 								{
									"destination" : [ "obj-22", 0 ],
									"disabled" : 0,
									"hidden" : 0,
									"source" : [ "obj-42", 1 ]
								}

							}
, 							{
								"patchline" : 								{
									"destination" : [ "obj-5", 0 ],
									"disabled" : 0,
									"hidden" : 0,
									"source" : [ "obj-42", 0 ]
								}

							}
, 							{
								"patchline" : 								{
									"destination" : [ "obj-10", 0 ],
									"disabled" : 0,
									"hidden" : 0,
									"source" : [ "obj-43", 0 ]
								}

							}
, 							{
								"patchline" : 								{
									"destination" : [ "obj-39", 0 ],
									"disabled" : 0,
									"hidden" : 0,
									"source" : [ "obj-43", 0 ]
								}

							}
, 							{
								"patchline" : 								{
									"destination" : [ "obj-8", 0 ],
									"disabled" : 0,
									"hidden" : 0,
									"source" : [ "obj-5", 0 ]
								}

							}
, 							{
								"patchline" : 								{
									"destination" : [ "obj-29", 0 ],
									"disabled" : 0,
									"hidden" : 0,
									"source" : [ "obj-6", 1 ]
								}

							}
, 							{
								"patchline" : 								{
									"destination" : [ "obj-8", 0 ],
									"disabled" : 0,
									"hidden" : 0,
									"source" : [ "obj-7", 0 ]
								}

							}
, 							{
								"patchline" : 								{
									"destination" : [ "obj-19", 0 ],
									"disabled" : 0,
									"hidden" : 0,
									"source" : [ "obj-79", 0 ]
								}

							}
, 							{
								"patchline" : 								{
									"destination" : [ "obj-4", 0 ],
									"disabled" : 0,
									"hidden" : 0,
									"source" : [ "obj-8", 0 ]
								}

							}
 ]
					}
,
					"patching_rect" : [ 747.5, 456.0, 264.000061, 18.0 ],
					"saved_object_attributes" : 					{
						"default_fontface" : 0,
						"default_fontname" : "Arial Bold",
						"default_fontsize" : 10.0,
						"description" : "",
						"digest" : "",
						"fontface" : 0,
						"fontname" : "Arial Bold",
						"fontsize" : 10.0,
						"globalpatchername" : "",
						"tags" : ""
					}
,
					"text" : "p managePolybuffer&Colls"
				}

			}
, 			{
				"box" : 				{
					"fontname" : "Arial Bold",
					"fontsize" : 10.0,
					"id" : "obj-34",
					"maxclass" : "textbutton",
					"numinlets" : 1,
					"numoutlets" : 3,
					"outlettype" : [ "", "", "int" ],
					"parameter_enable" : 0,
					"patching_rect" : [ 992.5, 422.0, 51.0, 20.0 ],
					"presentation" : 1,
					"presentation_rect" : [ 189.666656, 38.5, 51.0, 20.0 ],
					"text" : "clear"
				}

			}
, 			{
				"box" : 				{
					"fontname" : "Arial Bold",
					"fontsize" : 10.0,
					"frgb" : 0.0,
					"id" : "obj-35",
					"linecount" : 2,
					"maxclass" : "comment",
					"numinlets" : 1,
					"numoutlets" : 0,
					"patching_rect" : [ 757.0, 401.0, 95.666664, 29.0 ],
					"presentation" : 1,
					"presentation_linecount" : 2,
					"presentation_rect" : [ 72.333344, 59.0, 95.666664, 29.0 ],
					"text" : "Drop Files or Folders here !"
				}

			}
, 			{
				"box" : 				{
					"color" : [ 1.0, 0.5, 0.0, 1.0 ],
					"fontname" : "Arial Bold",
					"fontsize" : 10.0,
					"id" : "obj-36",
					"maxclass" : "newobj",
					"numinlets" : 1,
					"numoutlets" : 4,
					"outlettype" : [ "", "", "", "" ],
					"patching_rect" : [ 992.5, 482.0, 106.0, 18.0 ],
					"presentation" : 1,
					"presentation_linecount" : 2,
					"presentation_rect" : [ 189.666656, 91.5, 100.0, 29.0 ],
					"saved_object_attributes" : 					{
						"embed" : 0
					}
,
					"text" : "coll PIGEONS.COLL"
				}

			}
, 			{
				"box" : 				{
					"id" : "obj-37",
					"maxclass" : "dropfile",
					"numinlets" : 1,
					"numoutlets" : 2,
					"outlettype" : [ "", "" ],
					"patching_rect" : [ 747.5, 381.0, 114.666725, 69.0 ],
					"presentation" : 1,
					"presentation_rect" : [ 42.333336, 38.5, 140.666672, 71.0 ]
				}

			}
, 			{
				"box" : 				{
					"embed_buffers" : 					{
						"PIGEONS.1" : "AILE-Detector-1.aif",
						"PIGEONS.2" : "AILE-Detector-10.aif",
						"PIGEONS.3" : "AILE-Detector-100.aif",
						"PIGEONS.4" : "AILE-Detector-101.aif",
						"PIGEONS.5" : "AILE-Detector-102.aif",
						"PIGEONS.6" : "AILE-Detector-103.aif",
						"PIGEONS.7" : "AILE-Detector-104.aif",
						"PIGEONS.8" : "AILE-Detector-105.aif",
						"PIGEONS.9" : "AILE-Detector-106.aif",
						"PIGEONS.10" : "AILE-Detector-107.aif",
						"PIGEONS.11" : "AILE-Detector-108.aif",
						"PIGEONS.12" : "AILE-Detector-109.aif",
						"PIGEONS.13" : "AILE-Detector-11.aif",
						"PIGEONS.14" : "AILE-Detector-110.aif",
						"PIGEONS.15" : "AILE-Detector-111.aif",
						"PIGEONS.16" : "AILE-Detector-112.aif",
						"PIGEONS.17" : "AILE-Detector-113.aif",
						"PIGEONS.18" : "AILE-Detector-114.aif",
						"PIGEONS.19" : "AILE-Detector-115.aif",
						"PIGEONS.20" : "AILE-Detector-116.aif",
						"PIGEONS.21" : "AILE-Detector-117.aif",
						"PIGEONS.22" : "AILE-Detector-118.aif",
						"PIGEONS.23" : "AILE-Detector-119.aif",
						"PIGEONS.24" : "AILE-Detector-12.aif",
						"PIGEONS.25" : "AILE-Detector-120.aif",
						"PIGEONS.26" : "AILE-Detector-121.aif",
						"PIGEONS.27" : "AILE-Detector-122.aif",
						"PIGEONS.28" : "AILE-Detector-123.aif",
						"PIGEONS.29" : "AILE-Detector-124.aif",
						"PIGEONS.30" : "AILE-Detector-125.aif",
						"PIGEONS.31" : "AILE-Detector-126.aif",
						"PIGEONS.32" : "AILE-Detector-127.aif",
						"PIGEONS.33" : "AILE-Detector-128.aif",
						"PIGEONS.34" : "AILE-Detector-129.aif",
						"PIGEONS.35" : "AILE-Detector-13.aif",
						"PIGEONS.36" : "AILE-Detector-130.aif",
						"PIGEONS.37" : "AILE-Detector-131.aif",
						"PIGEONS.38" : "AILE-Detector-132.aif",
						"PIGEONS.39" : "AILE-Detector-133.aif",
						"PIGEONS.40" : "AILE-Detector-134.aif",
						"PIGEONS.41" : "AILE-Detector-135.aif",
						"PIGEONS.42" : "AILE-Detector-136.aif",
						"PIGEONS.43" : "AILE-Detector-137.aif",
						"PIGEONS.44" : "AILE-Detector-138.aif",
						"PIGEONS.45" : "AILE-Detector-139.aif",
						"PIGEONS.46" : "AILE-Detector-14.aif",
						"PIGEONS.47" : "AILE-Detector-140.aif",
						"PIGEONS.48" : "AILE-Detector-141.aif",
						"PIGEONS.49" : "AILE-Detector-142.aif",
						"PIGEONS.50" : "AILE-Detector-143.aif",
						"PIGEONS.51" : "AILE-Detector-144.aif",
						"PIGEONS.52" : "AILE-Detector-145.aif",
						"PIGEONS.53" : "AILE-Detector-146.aif",
						"PIGEONS.54" : "AILE-Detector-147.aif",
						"PIGEONS.55" : "AILE-Detector-148.aif",
						"PIGEONS.56" : "AILE-Detector-149.aif",
						"PIGEONS.57" : "AILE-Detector-15.aif",
						"PIGEONS.58" : "AILE-Detector-150.aif",
						"PIGEONS.59" : "AILE-Detector-151.aif",
						"PIGEONS.60" : "AILE-Detector-152.aif",
						"PIGEONS.61" : "AILE-Detector-153.aif",
						"PIGEONS.62" : "AILE-Detector-154.aif",
						"PIGEONS.63" : "AILE-Detector-155.aif",
						"PIGEONS.64" : "AILE-Detector-156.aif",
						"PIGEONS.65" : "AILE-Detector-16.aif",
						"PIGEONS.66" : "AILE-Detector-17.aif",
						"PIGEONS.67" : "AILE-Detector-18.aif",
						"PIGEONS.68" : "AILE-Detector-19.aif",
						"PIGEONS.69" : "AILE-Detector-2.aif",
						"PIGEONS.70" : "AILE-Detector-20.aif",
						"PIGEONS.71" : "AILE-Detector-21.aif",
						"PIGEONS.72" : "AILE-Detector-22.aif",
						"PIGEONS.73" : "AILE-Detector-23.aif",
						"PIGEONS.74" : "AILE-Detector-24.aif",
						"PIGEONS.75" : "AILE-Detector-25.aif",
						"PIGEONS.76" : "AILE-Detector-26.aif",
						"PIGEONS.77" : "AILE-Detector-27.aif",
						"PIGEONS.78" : "AILE-Detector-28.aif",
						"PIGEONS.79" : "AILE-Detector-29.aif",
						"PIGEONS.80" : "AILE-Detector-3.aif",
						"PIGEONS.81" : "AILE-Detector-30.aif",
						"PIGEONS.82" : "AILE-Detector-31.aif",
						"PIGEONS.83" : "AILE-Detector-32.aif",
						"PIGEONS.84" : "AILE-Detector-33.aif",
						"PIGEONS.85" : "AILE-Detector-34.aif",
						"PIGEONS.86" : "AILE-Detector-35.aif",
						"PIGEONS.87" : "AILE-Detector-36.aif",
						"PIGEONS.88" : "AILE-Detector-37.aif",
						"PIGEONS.89" : "AILE-Detector-38.aif",
						"PIGEONS.90" : "AILE-Detector-39.aif",
						"PIGEONS.91" : "AILE-Detector-4.aif",
						"PIGEONS.92" : "AILE-Detector-40.aif",
						"PIGEONS.93" : "AILE-Detector-41.aif",
						"PIGEONS.94" : "AILE-Detector-42.aif",
						"PIGEONS.95" : "AILE-Detector-43.aif",
						"PIGEONS.96" : "AILE-Detector-44.aif",
						"PIGEONS.97" : "AILE-Detector-45.aif",
						"PIGEONS.98" : "AILE-Detector-46.aif",
						"PIGEONS.99" : "AILE-Detector-47.aif",
						"PIGEONS.100" : "AILE-Detector-48.aif",
						"PIGEONS.101" : "AILE-Detector-49.aif",
						"PIGEONS.102" : "AILE-Detector-5.aif",
						"PIGEONS.103" : "AILE-Detector-50.aif",
						"PIGEONS.104" : "AILE-Detector-51.aif",
						"PIGEONS.105" : "AILE-Detector-52.aif",
						"PIGEONS.106" : "AILE-Detector-53.aif",
						"PIGEONS.107" : "AILE-Detector-54.aif",
						"PIGEONS.108" : "AILE-Detector-55.aif",
						"PIGEONS.109" : "AILE-Detector-56.aif",
						"PIGEONS.110" : "AILE-Detector-57.aif",
						"PIGEONS.111" : "AILE-Detector-58.aif",
						"PIGEONS.112" : "AILE-Detector-59.aif",
						"PIGEONS.113" : "AILE-Detector-6.aif",
						"PIGEONS.114" : "AILE-Detector-60.aif",
						"PIGEONS.115" : "AILE-Detector-61.aif",
						"PIGEONS.116" : "AILE-Detector-62.aif",
						"PIGEONS.117" : "AILE-Detector-63.aif",
						"PIGEONS.118" : "AILE-Detector-64.aif",
						"PIGEONS.119" : "AILE-Detector-65.aif",
						"PIGEONS.120" : "AILE-Detector-66.aif",
						"PIGEONS.121" : "AILE-Detector-67.aif",
						"PIGEONS.122" : "AILE-Detector-68.aif",
						"PIGEONS.123" : "AILE-Detector-69.aif",
						"PIGEONS.124" : "AILE-Detector-7.aif",
						"PIGEONS.125" : "AILE-Detector-70.aif",
						"PIGEONS.126" : "AILE-Detector-71.aif",
						"PIGEONS.127" : "AILE-Detector-72.aif",
						"PIGEONS.128" : "AILE-Detector-73.aif",
						"PIGEONS.129" : "AILE-Detector-74.aif",
						"PIGEONS.130" : "AILE-Detector-75.aif",
						"PIGEONS.131" : "AILE-Detector-76.aif",
						"PIGEONS.132" : "AILE-Detector-77.aif",
						"PIGEONS.133" : "AILE-Detector-78.aif",
						"PIGEONS.134" : "AILE-Detector-79.aif",
						"PIGEONS.135" : "AILE-Detector-8.aif",
						"PIGEONS.136" : "AILE-Detector-80.aif",
						"PIGEONS.137" : "AILE-Detector-81.aif",
						"PIGEONS.138" : "AILE-Detector-82.aif",
						"PIGEONS.139" : "AILE-Detector-83.aif",
						"PIGEONS.140" : "AILE-Detector-84.aif",
						"PIGEONS.141" : "AILE-Detector-85.aif",
						"PIGEONS.142" : "AILE-Detector-86.aif",
						"PIGEONS.143" : "AILE-Detector-87.aif",
						"PIGEONS.144" : "AILE-Detector-88.aif",
						"PIGEONS.145" : "AILE-Detector-89.aif",
						"PIGEONS.146" : "AILE-Detector-9.aif",
						"PIGEONS.147" : "AILE-Detector-90.aif",
						"PIGEONS.148" : "AILE-Detector-91.aif",
						"PIGEONS.149" : "AILE-Detector-92.aif",
						"PIGEONS.150" : "AILE-Detector-93.aif",
						"PIGEONS.151" : "AILE-Detector-94.aif",
						"PIGEONS.152" : "AILE-Detector-95.aif",
						"PIGEONS.153" : "AILE-Detector-96.aif",
						"PIGEONS.154" : "AILE-Detector-97.aif",
						"PIGEONS.155" : "AILE-Detector-98.aif",
						"PIGEONS.156" : "AILE-Detector-99.aif"
					}
,
					"fontname" : "Arial Bold",
					"fontsize" : 10.0,
					"id" : "obj-38",
					"linecount" : 2,
					"maxclass" : "newobj",
					"numinlets" : 1,
					"numoutlets" : 2,
					"outlettype" : [ "", "bang" ],
					"patching_rect" : [ 870.0, 417.5, 110.666687, 29.0 ],
					"presentation" : 1,
					"presentation_rect" : [ 189.666656, 65.0, 203.0, 18.0 ],
					"saved_object_attributes" : 					{
						"embed" : 1
					}
,
					"text" : "polybuffer~ PIGEONS @embed 1"
				}

			}
, 			{
				"box" : 				{
					"fontname" : "Arial Bold",
					"fontsize" : 10.0,
					"id" : "obj-54",
					"linecount" : 2,
					"maxclass" : "message",
					"numinlets" : 2,
					"numoutlets" : 1,
					"outlettype" : [ "" ],
					"patching_rect" : [ 803.0, 621.0, 153.0, 27.0 ],
					"text" : ";\r1sogs buffer PIGEONS.144"
				}

			}
, 			{
				"box" : 				{
					"fontname" : "Arial Bold",
					"fontsize" : 10.0,
					"id" : "obj-53",
					"linecount" : 2,
					"maxclass" : "message",
					"numinlets" : 2,
					"numoutlets" : 1,
					"outlettype" : [ "" ],
					"patching_rect" : [ 803.0, 577.5, 153.0, 27.0 ],
					"text" : ";\r1sogs buffer PIGEONS.143"
				}

			}
, 			{
				"box" : 				{
					"fontname" : "Arial Bold",
					"fontsize" : 10.0,
					"id" : "obj-42",
					"linecount" : 2,
					"maxclass" : "message",
					"numinlets" : 2,
					"numoutlets" : 1,
					"outlettype" : [ "" ],
					"patching_rect" : [ 803.0, 536.5, 153.0, 27.0 ],
					"text" : ";\r1sogs buffer AILE-Detector-87"
				}

			}
, 			{
				"box" : 				{
					"fontname" : "Arial Bold",
					"fontsize" : 10.0,
					"id" : "obj-51",
					"linecount" : 2,
					"maxclass" : "message",
					"numinlets" : 2,
					"numoutlets" : 1,
					"outlettype" : [ "" ],
					"patching_rect" : [ 475.0, 382.5, 153.0, 27.0 ],
					"text" : ";\r1sogs buffer 1buf.BUFFERS.1"
				}

			}
, 			{
				"box" : 				{
					"fontname" : "Arial Bold",
					"fontsize" : 10.0,
					"frgb" : 0.0,
					"id" : "obj-50",
					"maxclass" : "comment",
					"numinlets" : 1,
					"numoutlets" : 0,
					"patching_rect" : [ 327.0, 572.5, 51.0, 18.0 ],
					"text" : "example"
				}

			}
, 			{
				"box" : 				{
					"fontname" : "Arial Bold",
					"fontsize" : 10.0,
					"frgb" : 0.0,
					"id" : "obj-48",
					"maxclass" : "comment",
					"numinlets" : 1,
					"numoutlets" : 0,
					"patching_rect" : [ 307.0, 507.5, 48.0, 18.0 ],
					"text" : "trig"
				}

			}
, 			{
				"box" : 				{
					"fontname" : "Arial Bold",
					"fontsize" : 10.0,
					"frgb" : 0.0,
					"id" : "obj-47",
					"maxclass" : "comment",
					"numinlets" : 1,
					"numoutlets" : 0,
					"patching_rect" : [ 307.0, 456.0, 48.0, 18.0 ],
					"text" : "Outgain"
				}

			}
, 			{
				"box" : 				{
					"fontname" : "Arial Bold",
					"fontsize" : 10.0,
					"id" : "obj-46",
					"linecount" : 2,
					"maxclass" : "message",
					"numinlets" : 2,
					"numoutlets" : 1,
					"outlettype" : [ "" ],
					"patching_rect" : [ 307.0, 471.5, 131.0, 27.0 ],
					"text" : ";\r1sogs Outgain 0"
				}

			}
, 			{
				"box" : 				{
					"id" : "obj-43",
					"maxclass" : "button",
					"numinlets" : 1,
					"numoutlets" : 1,
					"outlettype" : [ "bang" ],
					"patching_rect" : [ 307.0, 572.5, 20.0, 20.0 ]
				}

			}
, 			{
				"box" : 				{
					"fontname" : "Arial Bold",
					"fontsize" : 10.0,
					"id" : "obj-44",
					"maxclass" : "newobj",
					"numinlets" : 2,
					"numoutlets" : 1,
					"outlettype" : [ "bang" ],
					"patching_rect" : [ 307.0, 601.0, 50.0, 18.0 ],
					"text" : "delay 10"
				}

			}
, 			{
				"box" : 				{
					"fontname" : "Arial Bold",
					"fontsize" : 10.0,
					"id" : "obj-41",
					"linecount" : 2,
					"maxclass" : "message",
					"numinlets" : 2,
					"numoutlets" : 1,
					"outlettype" : [ "" ],
					"patching_rect" : [ 307.0, 525.5, 131.0, 27.0 ],
					"text" : ";\r1sogs trig 1"
				}

			}
, 			{
				"box" : 				{
					"fontname" : "Arial Bold",
					"fontsize" : 10.0,
					"id" : "obj-39",
					"linecount" : 5,
					"maxclass" : "message",
					"numinlets" : 2,
					"numoutlets" : 1,
					"outlettype" : [ "" ],
					"patching_rect" : [ 307.0, 627.0, 131.0, 60.0 ],
					"text" : ";\r1sogs Outgain 0, buffer PIGEONS.2, Direction 4, stretch 4, duration 4000, trig 1"
				}

			}
, 			{
				"box" : 				{
					"fontname" : "Arial Bold",
					"fontsize" : 10.0,
					"id" : "obj-33",
					"maxclass" : "newobj",
					"numinlets" : 1,
					"numoutlets" : 0,
					"patching_rect" : [ 475.0, 695.5, 100.0, 18.0 ],
					"text" : "s 1sogs.NOTE"
				}

			}
, 			{
				"box" : 				{
					"fontname" : "Arial Bold",
					"fontsize" : 10.0,
					"id" : "obj-65",
					"linecount" : 2,
					"maxclass" : "message",
					"numinlets" : 2,
					"numoutlets" : 1,
					"outlettype" : [ "" ],
					"patching_rect" : [ 600.0, 659.5, 164.0, 27.0 ],
					"text" : "0 1buf.BUFFERS.1 1000 1000 10 1. 20"
				}

			}
, 			{
				"box" : 				{
					"fontname" : "Arial Bold",
					"fontsize" : 10.0,
					"id" : "obj-64",
					"linecount" : 2,
					"maxclass" : "message",
					"numinlets" : 2,
					"numoutlets" : 1,
					"outlettype" : [ "" ],
					"patching_rect" : [ 560.5, 621.0, 158.0, 27.0 ],
					"text" : "0 1buf.BUFFERS.1 1000 5000 0.9 1. 20"
				}

			}
, 			{
				"box" : 				{
					"id" : "obj-63",
					"maxclass" : "button",
					"numinlets" : 1,
					"numoutlets" : 1,
					"outlettype" : [ "bang" ],
					"patching_rect" : [ 686.0, 471.5, 20.0, 20.0 ]
				}

			}
, 			{
				"box" : 				{
					"fontname" : "Arial Bold",
					"fontsize" : 10.0,
					"id" : "obj-59",
					"linecount" : 2,
					"maxclass" : "message",
					"numinlets" : 2,
					"numoutlets" : 1,
					"outlettype" : [ "" ],
					"patching_rect" : [ 543.5, 577.5, 152.0, 27.0 ],
					"text" : "0 1buf.BUFFERS.1 1000 1000 1. 1. 0.2"
				}

			}
, 			{
				"box" : 				{
					"fontname" : "Arial Bold",
					"fontsize" : 10.0,
					"id" : "obj-57",
					"linecount" : 2,
					"maxclass" : "message",
					"numinlets" : 2,
					"numoutlets" : 1,
					"outlettype" : [ "" ],
					"patching_rect" : [ 519.5, 520.0, 152.0, 27.0 ],
					"text" : "0 1buf.BUFFERS.1 1000 1000 1. 1. 2."
				}

			}
, 			{
				"box" : 				{
					"fontname" : "Arial Bold",
					"fontsize" : 10.0,
					"id" : "obj-49",
					"linecount" : 2,
					"maxclass" : "message",
					"numinlets" : 2,
					"numoutlets" : 1,
					"outlettype" : [ "" ],
					"patching_rect" : [ 475.0, 471.5, 152.0, 27.0 ],
					"text" : "0 1buf.BUFFERS.1 1000 1000 1. 1. 1"
				}

			}
, 			{
				"box" : 				{
					"id" : "obj-31",
					"maxclass" : "ezdac~",
					"numinlets" : 2,
					"numoutlets" : 0,
					"patching_rect" : [ 144.0, 556.0, 45.0, 45.0 ]
				}

			}
, 			{
				"box" : 				{
					"id" : "obj-32",
					"maxclass" : "live.gain~",
					"numinlets" : 2,
					"numoutlets" : 5,
					"outlettype" : [ "signal", "signal", "", "float", "list" ],
					"parameter_enable" : 1,
					"patching_rect" : [ 144.0, 412.0, 48.0, 136.0 ],
					"saved_attribute_attributes" : 					{
						"valueof" : 						{
							"parameter_longname" : "live.gain~",
							"parameter_shortname" : "live.gain~",
							"parameter_type" : 0,
							"parameter_mmin" : -70.0,
							"parameter_mmax" : 6.0,
							"parameter_initial" : [ 0.0 ],
							"parameter_unitstyle" : 4
						}

					}
,
					"varname" : "live.gain~"
				}

			}
, 			{
				"box" : 				{
					"fontname" : "Arial Bold",
					"fontsize" : 10.0,
					"frgb" : 0.0,
					"id" : "obj-25",
					"maxclass" : "comment",
					"numinlets" : 1,
					"numoutlets" : 0,
					"patching_rect" : [ 307.0, 401.5, 34.0, 18.0 ],
					"text" : "reset"
				}

			}
, 			{
				"box" : 				{
					"fontname" : "Arial Bold",
					"fontsize" : 10.0,
					"frgb" : 0.0,
					"id" : "obj-28",
					"maxclass" : "comment",
					"numinlets" : 1,
					"numoutlets" : 0,
					"patching_rect" : [ 307.0, 357.0, 34.0, 18.0 ],
					"text" : "open"
				}

			}
, 			{
				"box" : 				{
					"bgcolor" : [ 1.0, 0.0, 0.0, 1.0 ],
					"fontname" : "Arial Bold",
					"fontsize" : 10.0,
					"id" : "obj-29",
					"linecount" : 2,
					"maxclass" : "message",
					"numinlets" : 2,
					"numoutlets" : 1,
					"outlettype" : [ "" ],
					"patching_rect" : [ 307.0, 419.5, 109.0, 27.0 ],
					"text" : ";\r1sogs.INIT bang"
				}

			}
, 			{
				"box" : 				{
					"bgcolor" : [ 1.0, 1.0, 0.0, 1.0 ],
					"fontname" : "Arial Bold",
					"fontsize" : 10.0,
					"id" : "obj-30",
					"linecount" : 2,
					"maxclass" : "message",
					"numinlets" : 2,
					"numoutlets" : 1,
					"outlettype" : [ "" ],
					"patching_rect" : [ 307.0, 370.5, 109.0, 27.0 ],
					"text" : ";\r1sogs.interface open"
				}

			}
, 			{
				"box" : 				{
					"fontname" : "Arial Bold",
					"fontsize" : 10.0,
					"id" : "obj-18",
					"linecount" : 3,
					"maxclass" : "newobj",
					"numinlets" : 1,
					"numoutlets" : 1,
					"outlettype" : [ "signal" ],
					"patching_rect" : [ 144.0, 364.0, 152.0, 40.0 ],
					"text" : "poly~ tg.sogsSampler.0.1.Poly args 1sogs",
					"varname" : "tg.recordbuffers1a.1.1[1]"
				}

			}
, 			{
				"box" : 				{
					"fontname" : "Arial Bold",
					"fontsize" : 10.0,
					"frgb" : 0.0,
					"id" : "obj-2",
					"maxclass" : "comment",
					"numinlets" : 1,
					"numoutlets" : 0,
					"patching_rect" : [ 307.0, 277.5, 40.0, 18.0 ],
					"text" : "Ingain"
				}

			}
, 			{
				"box" : 				{
					"fontname" : "Arial Bold",
					"fontsize" : 10.0,
					"id" : "obj-11",
					"linecount" : 2,
					"maxclass" : "message",
					"numinlets" : 2,
					"numoutlets" : 1,
					"outlettype" : [ "" ],
					"patching_rect" : [ 307.0, 295.5, 80.0, 27.0 ],
					"text" : ";\r1buf Ingain 0"
				}

			}
, 			{
				"box" : 				{
					"fontname" : "Arial Bold",
					"fontsize" : 10.0,
					"id" : "obj-40",
					"maxclass" : "newobj",
					"numinlets" : 1,
					"numoutlets" : 4,
					"outlettype" : [ "", "", "", "" ],
					"patching_rect" : [ 437.0, 288.5, 100.0, 18.0 ],
					"saved_object_attributes" : 					{
						"embed" : 0
					}
,
					"text" : "coll 1buf.COLL"
				}

			}
, 			{
				"box" : 				{
					"id" : "obj-27",
					"maxclass" : "button",
					"numinlets" : 1,
					"numoutlets" : 1,
					"outlettype" : [ "bang" ],
					"patching_rect" : [ 626.0, 59.5, 20.0, 20.0 ]
				}

			}
, 			{
				"box" : 				{
					"fontname" : "Arial Bold",
					"fontsize" : 10.0,
					"id" : "obj-24",
					"linecount" : 2,
					"maxclass" : "message",
					"numinlets" : 2,
					"numoutlets" : 1,
					"outlettype" : [ "" ],
					"patching_rect" : [ 626.0, 288.5, 80.0, 27.0 ],
					"text" : ";\r1buf record 0"
				}

			}
, 			{
				"box" : 				{
					"fontname" : "Arial Bold",
					"fontsize" : 10.0,
					"id" : "obj-23",
					"linecount" : 3,
					"maxclass" : "message",
					"numinlets" : 2,
					"numoutlets" : 1,
					"outlettype" : [ "" ],
					"patching_rect" : [ 644.0, 210.0, 80.0, 38.0 ],
					"text" : ";\r1buf record 0;\r1buf record 2"
				}

			}
, 			{
				"box" : 				{
					"fontname" : "Arial Bold",
					"fontsize" : 10.0,
					"id" : "obj-22",
					"linecount" : 2,
					"maxclass" : "message",
					"numinlets" : 2,
					"numoutlets" : 1,
					"outlettype" : [ "" ],
					"patching_rect" : [ 644.0, 119.0, 80.0, 27.0 ],
					"text" : ";\r1buf record 1"
				}

			}
, 			{
				"box" : 				{
					"fontname" : "Arial Bold",
					"fontsize" : 10.0,
					"id" : "obj-21",
					"maxclass" : "newobj",
					"numinlets" : 2,
					"numoutlets" : 1,
					"outlettype" : [ "bang" ],
					"patching_rect" : [ 626.0, 260.5, 61.0, 18.0 ],
					"text" : "delay 1000"
				}

			}
, 			{
				"box" : 				{
					"fontname" : "Arial Bold",
					"fontsize" : 10.0,
					"id" : "obj-20",
					"maxclass" : "newobj",
					"numinlets" : 2,
					"numoutlets" : 1,
					"outlettype" : [ "bang" ],
					"patching_rect" : [ 626.0, 183.5, 61.0, 18.0 ],
					"text" : "delay 1000"
				}

			}
, 			{
				"box" : 				{
					"fontname" : "Arial Bold",
					"fontsize" : 10.0,
					"id" : "obj-19",
					"maxclass" : "newobj",
					"numinlets" : 2,
					"numoutlets" : 1,
					"outlettype" : [ "bang" ],
					"patching_rect" : [ 626.0, 88.0, 50.0, 18.0 ],
					"text" : "delay 10"
				}

			}
, 			{
				"box" : 				{
					"fontname" : "Arial Bold",
					"fontsize" : 10.0,
					"frgb" : 0.0,
					"id" : "obj-16",
					"maxclass" : "comment",
					"numinlets" : 1,
					"numoutlets" : 0,
					"patching_rect" : [ 437.0, 228.0, 81.0, 18.0 ],
					"text" : "record buffer 2"
				}

			}
, 			{
				"box" : 				{
					"fontname" : "Arial Bold",
					"fontsize" : 10.0,
					"id" : "obj-17",
					"linecount" : 2,
					"maxclass" : "message",
					"numinlets" : 2,
					"numoutlets" : 1,
					"outlettype" : [ "" ],
					"patching_rect" : [ 437.0, 246.0, 80.0, 27.0 ],
					"text" : ";\r1buf record 2"
				}

			}
, 			{
				"box" : 				{
					"fontname" : "Arial Bold",
					"fontsize" : 10.0,
					"frgb" : 0.0,
					"id" : "obj-14",
					"maxclass" : "comment",
					"numinlets" : 1,
					"numoutlets" : 0,
					"patching_rect" : [ 527.0, 169.0, 81.0, 18.0 ],
					"text" : "stop record"
				}

			}
, 			{
				"box" : 				{
					"fontname" : "Arial Bold",
					"fontsize" : 10.0,
					"id" : "obj-15",
					"linecount" : 2,
					"maxclass" : "message",
					"numinlets" : 2,
					"numoutlets" : 1,
					"outlettype" : [ "" ],
					"patching_rect" : [ 527.0, 187.0, 80.0, 27.0 ],
					"text" : ";\r1buf record 0"
				}

			}
, 			{
				"box" : 				{
					"fontname" : "Arial Bold",
					"fontsize" : 10.0,
					"frgb" : 0.0,
					"id" : "obj-13",
					"maxclass" : "comment",
					"numinlets" : 1,
					"numoutlets" : 0,
					"patching_rect" : [ 437.0, 169.0, 81.0, 18.0 ],
					"text" : "record buffer 1"
				}

			}
, 			{
				"box" : 				{
					"fontname" : "Arial Bold",
					"fontsize" : 10.0,
					"id" : "obj-12",
					"linecount" : 2,
					"maxclass" : "message",
					"numinlets" : 2,
					"numoutlets" : 1,
					"outlettype" : [ "" ],
					"patching_rect" : [ 437.0, 187.0, 80.0, 27.0 ],
					"text" : ";\r1buf record 1"
				}

			}
, 			{
				"box" : 				{
					"id" : "obj-10",
					"maxclass" : "toggle",
					"numinlets" : 1,
					"numoutlets" : 1,
					"outlettype" : [ "int" ],
					"parameter_enable" : 0,
					"patching_rect" : [ 37.0, 104.0, 20.0, 20.0 ]
				}

			}
, 			{
				"box" : 				{
					"fontname" : "Arial Bold",
					"fontsize" : 10.0,
					"id" : "obj-8",
					"maxclass" : "newobj",
					"numinlets" : 2,
					"numoutlets" : 1,
					"outlettype" : [ "signal" ],
					"patching_rect" : [ 65.0, 75.0, 61.0, 18.0 ],
					"text" : "cycle~ 440"
				}

			}
, 			{
				"box" : 				{
					"fontname" : "Arial Bold",
					"fontsize" : 10.0,
					"id" : "obj-6",
					"maxclass" : "newobj",
					"numinlets" : 2,
					"numoutlets" : 1,
					"outlettype" : [ "signal" ],
					"patching_rect" : [ 37.0, 142.0, 47.0, 18.0 ],
					"text" : "*~"
				}

			}
, 			{
				"box" : 				{
					"fontname" : "Arial Bold",
					"fontsize" : 10.0,
					"id" : "obj-5",
					"maxclass" : "newobj",
					"numinlets" : 2,
					"numoutlets" : 1,
					"outlettype" : [ "signal" ],
					"patching_rect" : [ 65.0, 104.0, 37.0, 18.0 ],
					"text" : "*~ 0.1"
				}

			}
, 			{
				"box" : 				{
					"fontname" : "Arial Bold",
					"fontsize" : 10.0,
					"frgb" : 0.0,
					"id" : "obj-4",
					"maxclass" : "comment",
					"numinlets" : 1,
					"numoutlets" : 0,
					"patching_rect" : [ 307.0, 228.0, 34.0, 18.0 ],
					"text" : "reset"
				}

			}
, 			{
				"box" : 				{
					"fontname" : "Arial Bold",
					"fontsize" : 10.0,
					"frgb" : 0.0,
					"id" : "obj-3",
					"maxclass" : "comment",
					"numinlets" : 1,
					"numoutlets" : 0,
					"patching_rect" : [ 307.0, 183.5, 34.0, 18.0 ],
					"text" : "open"
				}

			}
, 			{
				"box" : 				{
					"bgcolor" : [ 1.0, 0.0, 0.0, 1.0 ],
					"fontname" : "Arial Bold",
					"fontsize" : 10.0,
					"id" : "obj-45",
					"linecount" : 2,
					"maxclass" : "message",
					"numinlets" : 2,
					"numoutlets" : 1,
					"outlettype" : [ "" ],
					"patching_rect" : [ 307.0, 246.0, 109.0, 27.0 ],
					"text" : ";\r1buf.INIT bang"
				}

			}
, 			{
				"box" : 				{
					"bgcolor" : [ 1.0, 1.0, 0.0, 1.0 ],
					"fontname" : "Arial Bold",
					"fontsize" : 10.0,
					"id" : "obj-26",
					"linecount" : 2,
					"maxclass" : "message",
					"numinlets" : 2,
					"numoutlets" : 1,
					"outlettype" : [ "" ],
					"patching_rect" : [ 307.0, 197.0, 109.0, 27.0 ],
					"text" : ";\r1buf.interface open"
				}

			}
, 			{
				"box" : 				{
					"fontname" : "Arial Bold",
					"fontsize" : 10.0,
					"id" : "obj-1",
					"linecount" : 3,
					"maxclass" : "newobj",
					"numinlets" : 1,
					"numoutlets" : 0,
					"patching_rect" : [ 144.0, 197.0, 150.0, 40.0 ],
					"text" : "poly~ tg.recordbuffers1a.1.0.Poly args 1buf",
					"varname" : "tg.recordbuffers1a.1.1"
				}

			}
, 			{
				"box" : 				{
					"args" : [ "@File", "cherokee.aif" ],
					"id" : "obj-7",
					"maxclass" : "bpatcher",
					"name" : "FMA.SoundPlayer~.maxpat",
					"numinlets" : 1,
					"numoutlets" : 3,
					"outlettype" : [ "signal", "signal", "" ],
					"patching_rect" : [ 144.0, 24.0, 272.0, 136.0 ],
					"varname" : "Fma.SoundPlayer~"
				}

			}
, 			{
				"box" : 				{
					"fontname" : "Arial Bold",
					"fontsize" : 10.0,
					"frgb" : 0.0,
					"id" : "obj-52",
					"linecount" : 3,
					"maxclass" : "comment",
					"numinlets" : 1,
					"numoutlets" : 0,
					"patching_rect" : [ 475.0, 419.5, 209.0, 40.0 ],
					"text" : "messages, samplor style :\nlist <bang sample offset dur transp amp stretch >"
				}

			}
 ],
		"lines" : [ 			{
				"patchline" : 				{
					"destination" : [ "obj-6", 0 ],
					"disabled" : 0,
					"hidden" : 0,
					"source" : [ "obj-10", 0 ]
				}

			}
, 			{
				"patchline" : 				{
					"destination" : [ "obj-32", 1 ],
					"disabled" : 0,
					"hidden" : 0,
					"source" : [ "obj-18", 0 ]
				}

			}
, 			{
				"patchline" : 				{
					"destination" : [ "obj-32", 0 ],
					"disabled" : 0,
					"hidden" : 0,
					"source" : [ "obj-18", 0 ]
				}

			}
, 			{
				"patchline" : 				{
					"destination" : [ "obj-20", 0 ],
					"disabled" : 0,
					"hidden" : 0,
					"source" : [ "obj-19", 0 ]
				}

			}
, 			{
				"patchline" : 				{
					"destination" : [ "obj-22", 0 ],
					"disabled" : 0,
					"hidden" : 0,
					"source" : [ "obj-19", 0 ]
				}

			}
, 			{
				"patchline" : 				{
					"destination" : [ "obj-21", 0 ],
					"disabled" : 0,
					"hidden" : 0,
					"source" : [ "obj-20", 0 ]
				}

			}
, 			{
				"patchline" : 				{
					"destination" : [ "obj-23", 0 ],
					"disabled" : 0,
					"hidden" : 0,
					"source" : [ "obj-20", 0 ]
				}

			}
, 			{
				"patchline" : 				{
					"destination" : [ "obj-24", 0 ],
					"disabled" : 0,
					"hidden" : 0,
					"source" : [ "obj-21", 0 ]
				}

			}
, 			{
				"patchline" : 				{
					"destination" : [ "obj-19", 0 ],
					"disabled" : 0,
					"hidden" : 0,
					"source" : [ "obj-27", 0 ]
				}

			}
, 			{
				"patchline" : 				{
					"destination" : [ "obj-31", 1 ],
					"disabled" : 0,
					"hidden" : 0,
					"source" : [ "obj-32", 1 ]
				}

			}
, 			{
				"patchline" : 				{
					"destination" : [ "obj-31", 0 ],
					"disabled" : 0,
					"hidden" : 0,
					"source" : [ "obj-32", 0 ]
				}

			}
, 			{
				"patchline" : 				{
					"destination" : [ "obj-9", 4 ],
					"disabled" : 0,
					"hidden" : 0,
					"source" : [ "obj-34", 0 ]
				}

			}
, 			{
				"patchline" : 				{
					"destination" : [ "obj-9", 1 ],
					"disabled" : 0,
					"hidden" : 0,
					"source" : [ "obj-37", 1 ]
				}

			}
, 			{
				"patchline" : 				{
					"destination" : [ "obj-9", 0 ],
					"disabled" : 0,
					"hidden" : 0,
					"source" : [ "obj-37", 0 ]
				}

			}
, 			{
				"patchline" : 				{
					"destination" : [ "obj-9", 3 ],
					"disabled" : 0,
					"hidden" : 0,
					"source" : [ "obj-38", 1 ]
				}

			}
, 			{
				"patchline" : 				{
					"destination" : [ "obj-9", 2 ],
					"disabled" : 0,
					"hidden" : 0,
					"source" : [ "obj-38", 0 ]
				}

			}
, 			{
				"patchline" : 				{
					"destination" : [ "obj-44", 0 ],
					"disabled" : 0,
					"hidden" : 0,
					"source" : [ "obj-43", 0 ]
				}

			}
, 			{
				"patchline" : 				{
					"destination" : [ "obj-39", 0 ],
					"disabled" : 0,
					"hidden" : 0,
					"source" : [ "obj-44", 0 ]
				}

			}
, 			{
				"patchline" : 				{
					"destination" : [ "obj-33", 0 ],
					"disabled" : 0,
					"hidden" : 0,
					"source" : [ "obj-49", 0 ]
				}

			}
, 			{
				"patchline" : 				{
					"destination" : [ "obj-6", 1 ],
					"disabled" : 0,
					"hidden" : 0,
					"source" : [ "obj-5", 0 ]
				}

			}
, 			{
				"patchline" : 				{
					"destination" : [ "obj-33", 0 ],
					"disabled" : 0,
					"hidden" : 0,
					"source" : [ "obj-57", 0 ]
				}

			}
, 			{
				"patchline" : 				{
					"destination" : [ "obj-33", 0 ],
					"disabled" : 0,
					"hidden" : 0,
					"source" : [ "obj-59", 0 ]
				}

			}
, 			{
				"patchline" : 				{
					"destination" : [ "obj-1", 0 ],
					"disabled" : 0,
					"hidden" : 0,
					"source" : [ "obj-6", 0 ]
				}

			}
, 			{
				"patchline" : 				{
					"destination" : [ "obj-49", 0 ],
					"disabled" : 0,
					"hidden" : 0,
					"source" : [ "obj-63", 0 ]
				}

			}
, 			{
				"patchline" : 				{
					"destination" : [ "obj-57", 0 ],
					"disabled" : 0,
					"hidden" : 0,
					"source" : [ "obj-63", 0 ]
				}

			}
, 			{
				"patchline" : 				{
					"destination" : [ "obj-59", 0 ],
					"disabled" : 0,
					"hidden" : 0,
					"source" : [ "obj-63", 0 ]
				}

			}
, 			{
				"patchline" : 				{
					"destination" : [ "obj-64", 0 ],
					"disabled" : 0,
					"hidden" : 0,
					"source" : [ "obj-63", 0 ]
				}

			}
, 			{
				"patchline" : 				{
					"destination" : [ "obj-33", 0 ],
					"disabled" : 0,
					"hidden" : 0,
					"source" : [ "obj-64", 0 ]
				}

			}
, 			{
				"patchline" : 				{
					"destination" : [ "obj-33", 0 ],
					"disabled" : 0,
					"hidden" : 0,
					"source" : [ "obj-65", 0 ]
				}

			}
, 			{
				"patchline" : 				{
					"destination" : [ "obj-1", 0 ],
					"disabled" : 0,
					"hidden" : 0,
					"source" : [ "obj-7", 0 ]
				}

			}
, 			{
				"patchline" : 				{
					"destination" : [ "obj-5", 0 ],
					"disabled" : 0,
					"hidden" : 0,
					"source" : [ "obj-8", 0 ]
				}

			}
, 			{
				"patchline" : 				{
					"destination" : [ "obj-36", 0 ],
					"disabled" : 0,
					"hidden" : 0,
					"source" : [ "obj-9", 1 ]
				}

			}
, 			{
				"patchline" : 				{
					"destination" : [ "obj-38", 0 ],
					"disabled" : 0,
					"hidden" : 0,
					"source" : [ "obj-9", 0 ]
				}

			}
 ],
		"parameters" : 		{
			"obj-18.1::obj-1::obj-42" : [ "FilterMode", "FilterMode", 0 ],
			"obj-1.1::obj-1::obj-12" : [ "clear[1]", "clear", 0 ],
			"obj-18.1::obj-1::obj-77" : [ "OnsetVar", "OnsetVar", 0 ],
			"obj-18.1::obj-1::obj-82" : [ "transp", "transp", 0 ],
			"obj-7::obj-65" : [ "Transp", "Transp", 0 ],
			"obj-18.1::obj-1::obj-89" : [ "trig", "trig", 0 ],
			"obj-18.1::obj-1::obj-25" : [ "offset", "offset", 0 ],
			"obj-18.1::obj-1::obj-53" : [ "Release", "Release", 0 ],
			"obj-18.1::obj-1::obj-10" : [ "steal", "steal", 0 ],
			"obj-1.1::obj-1::obj-18" : [ "record", "record", 0 ],
			"obj-18.1::obj-1::obj-72" : [ "FilterQ", "FilterQ", 0 ],
			"obj-1.1::obj-1::obj-25" : [ "attack", "attack", 0 ],
			"obj-1.1::obj-1::obj-29" : [ "clear[2]", "clear", 0 ],
			"obj-18.1::obj-1::obj-80" : [ "PRESET[1]", "PRESET", 0 ],
			"obj-1.1::obj-1::obj-80" : [ "PRESET", "PRESET", 0 ],
			"obj-7::obj-6" : [ "Folder", "Folder", 0 ],
			"obj-1.1::obj-1::obj-72" : [ "clear", "clear", 0 ],
			"obj-18.1::obj-1::obj-61" : [ "Overlap", "Overlap", 0 ],
			"obj-1.1::obj-1::obj-48" : [ "buffersDuration", "buffersDuration", 0 ],
			"obj-1.1::obj-1::obj-8" : [ "Ingain", "Ingain", 0 ],
			"obj-18.1::obj-1::obj-54" : [ "Attack", "Attack", 0 ],
			"obj-7::obj-82" : [ "Gain", "Gain", 0 ],
			"obj-18.1::obj-1::obj-91" : [ "PitchVar", "PitchVar", 0 ],
			"obj-32" : [ "live.gain~", "live.gain~", 0 ],
			"obj-18.1::obj-1::obj-21" : [ "clear[3]", "clear", 0 ],
			"obj-18.1::obj-1::obj-84" : [ "amp", "amp", 0 ],
			"obj-1.1::obj-1::obj-47" : [ "nbBuffers", "nbBuffers", 0 ],
			"obj-18.1::obj-1::obj-70" : [ "FilterFreq", "FilterFreq", 0 ],
			"obj-18.1::obj-1::obj-14" : [ "Outgain", "Outgain", 0 ],
			"obj-1.1::obj-1::obj-26" : [ "release", "release", 0 ],
			"obj-18.1::obj-1::obj-73" : [ "Direction", "Direction", 0 ],
			"obj-7::obj-39" : [ "Loop", "Loop", 0 ],
			"obj-18.1::obj-1::obj-88" : [ "stretch", "stretch", 0 ],
			"obj-18.1::obj-1::obj-8" : [ "duration", "duration", 0 ],
			"obj-18.1::obj-1::obj-67" : [ "FilterGain", "FilterGain", 0 ],
			"obj-18.1::obj-1::obj-68" : [ "buffer", "buffer", 0 ],
			"obj-18.1::obj-1::obj-76" : [ "GrainSize", "GrainSize", 0 ],
			"obj-7::obj-50" : [ "Play", "Play", 0 ]
		}
,
		"dependency_cache" : [ 			{
				"name" : "FMA.SoundPlayer~.maxpat",
				"bootpath" : "/Users/goepfer/Documents/MAX-LIBRARY/IRCAM/ForumMaxApps-All/Utilities",
				"patcherrelativepath" : "../../../../IRCAM/ForumMaxApps-All/Utilities",
				"type" : "JSON",
				"implicit" : 1
			}
, 			{
				"name" : "tg.recordbuffers1a.1.0.Poly.maxpat",
				"bootpath" : "/Users/goepfer/Documents/MAX-LIBRARY/TG.tools/_MODULES/EFFECTS/RecordBuffer",
				"patcherrelativepath" : "../RecordBuffer",
				"type" : "JSON",
				"implicit" : 1
			}
, 			{
				"name" : "tg.recordbuffers1a.1.0.maxpat",
				"bootpath" : "/Users/goepfer/Documents/MAX-LIBRARY/TG.tools/_MODULES/EFFECTS/RecordBuffer",
				"patcherrelativepath" : "../RecordBuffer",
				"type" : "JSON",
				"implicit" : 1
			}
, 			{
				"name" : "recordbuffers1aPreset.json",
				"bootpath" : "/Users/goepfer/Documents/MAX-LIBRARY/TG.tools/_MODULES/JSON",
				"patcherrelativepath" : "../../JSON",
				"type" : "JSON",
				"implicit" : 1
			}
, 			{
				"name" : "tg.m.preset.maxpat",
				"bootpath" : "/Users/goepfer/Documents/MAX-LIBRARY/TG.tools/_MODULES/CTRL",
				"patcherrelativepath" : "../../CTRL",
				"type" : "JSON",
				"implicit" : 1
			}
, 			{
				"name" : "tg.sogsSampler.0.1.Poly.maxpat",
				"bootpath" : "/Users/goepfer/Documents/MAX-LIBRARY/TG.tools/_MODULES/EFFECTS/Sogs",
				"patcherrelativepath" : ".",
				"type" : "JSON",
				"implicit" : 1
			}
, 			{
				"name" : "tg.MuteThispoly1.maxpat",
				"bootpath" : "/Users/goepfer/Documents/MAX-LIBRARY/TG.tools/_MODULES/CTRL",
				"patcherrelativepath" : "../../CTRL",
				"type" : "JSON",
				"implicit" : 1
			}
, 			{
				"name" : "tg.sogsSampler.0.1.maxpat",
				"bootpath" : "/Users/goepfer/Documents/MAX-LIBRARY/TG.tools/_MODULES/EFFECTS/Sogs",
				"patcherrelativepath" : ".",
				"type" : "JSON",
				"implicit" : 1
			}
, 			{
				"name" : "sogsSamplerPreset.json",
				"bootpath" : "/Users/goepfer/Documents/MAX-LIBRARY/TG.tools/_MODULES/JSON",
				"patcherrelativepath" : "../../JSON",
				"type" : "JSON",
				"implicit" : 1
			}
, 			{
				"name" : "tg.m.fgraph.maxpat",
				"bootpath" : "/Users/goepfer/Documents/MAX-LIBRARY/TG.tools/_MODULES/CTRL",
				"patcherrelativepath" : "../../CTRL",
				"type" : "JSON",
				"implicit" : 1
			}
, 			{
				"name" : "polySogsSampler1.maxpat",
				"bootpath" : "/Users/goepfer/Documents/MAX-LIBRARY/TG.tools/_MODULES/EFFECTS/Sogs",
				"patcherrelativepath" : ".",
				"type" : "JSON",
				"implicit" : 1
			}
, 			{
				"name" : "sogs~.mxo",
				"type" : "iLaX"
			}
 ]
	}

}
