{
	"patcher" : 	{
		"fileversion" : 1,
		"appversion" : 		{
			"major" : 6,
			"minor" : 1,
			"revision" : 6,
			"architecture" : "x86"
		}
,
		"rect" : [ 436.0, 274.0, 693.0, 683.0 ],
		"bglocked" : 0,
		"openinpresentation" : 0,
		"default_fontsize" : 10.0,
		"default_fontface" : 0,
		"default_fontname" : "Arial Bold",
		"gridonopen" : 0,
		"gridsize" : [ 15.0, 15.0 ],
		"gridsnaponopen" : 0,
		"statusbarvisible" : 2,
		"toolbarvisible" : 1,
		"boxanimatetime" : 200,
		"imprint" : 0,
		"enablehscroll" : 1,
		"enablevscroll" : 1,
		"devicewidth" : 0.0,
		"description" : "",
		"digest" : "",
		"tags" : "",
		"boxes" : [ 			{
				"box" : 				{
					"fontname" : "Arial Bold",
					"fontsize" : 10.0,
					"frgb" : 0.0,
					"id" : "obj-11",
					"maxclass" : "comment",
					"numinlets" : 1,
					"numoutlets" : 0,
					"patching_rect" : [ 185.0, 318.0, 34.0, 18.0 ],
					"presentation_rect" : [ 185.0, 319.5, 0.0, 0.0 ],
					"text" : "init"
				}

			}
, 			{
				"box" : 				{
					"fontname" : "Arial Bold",
					"fontsize" : 10.0,
					"frgb" : 0.0,
					"id" : "obj-10",
					"maxclass" : "comment",
					"numinlets" : 1,
					"numoutlets" : 0,
					"patching_rect" : [ 185.0, 260.5, 34.0, 18.0 ],
					"text" : "open"
				}

			}
, 			{
				"box" : 				{
					"fontname" : "Arial Bold",
					"fontsize" : 10.0,
					"id" : "obj-15",
					"maxclass" : "flonum",
					"numinlets" : 1,
					"numoutlets" : 2,
					"outlettype" : [ "float", "bang" ],
					"parameter_enable" : 0,
					"patching_rect" : [ 185.0, 371.0, 50.0, 18.0 ]
				}

			}
, 			{
				"box" : 				{
					"fontname" : "Arial Bold",
					"fontsize" : 10.0,
					"id" : "obj-16",
					"linecount" : 2,
					"maxclass" : "message",
					"numinlets" : 2,
					"numoutlets" : 1,
					"outlettype" : [ "" ],
					"patching_rect" : [ 185.0, 401.0, 113.0, 27.0 ],
					"text" : ";\r1SVPt Transpose $1"
				}

			}
, 			{
				"box" : 				{
					"bgcolor" : [ 1.0, 0.0, 0.0, 1.0 ],
					"fontname" : "Arial Bold",
					"fontsize" : 10.0,
					"id" : "obj-9",
					"linecount" : 2,
					"maxclass" : "message",
					"numinlets" : 2,
					"numoutlets" : 1,
					"outlettype" : [ "" ],
					"patching_rect" : [ 185.0, 336.0, 113.0, 27.0 ],
					"text" : ";\r1SVPt.INIT bang"
				}

			}
, 			{
				"box" : 				{
					"fontname" : "Arial Bold",
					"fontsize" : 10.0,
					"id" : "obj-5",
					"linecount" : 2,
					"maxclass" : "message",
					"numinlets" : 2,
					"numoutlets" : 1,
					"outlettype" : [ "" ],
					"patching_rect" : [ 590.0, 105.5, 56.0, 27.0 ],
					"text" : "setrange 0 1200"
				}

			}
, 			{
				"box" : 				{
					"bgcolor" : [ 1.0, 1.0, 0.0, 1.0 ],
					"fontname" : "Arial Bold",
					"fontsize" : 10.0,
					"id" : "obj-8",
					"linecount" : 2,
					"maxclass" : "message",
					"numinlets" : 2,
					"numoutlets" : 1,
					"outlettype" : [ "" ],
					"patching_rect" : [ 185.0, 278.5, 113.0, 27.0 ],
					"text" : ";\r1SVPt.interface open"
				}

			}
, 			{
				"box" : 				{
					"fontname" : "Arial Bold",
					"fontsize" : 10.0,
					"id" : "obj-6",
					"maxclass" : "message",
					"numinlets" : 2,
					"numoutlets" : 1,
					"outlettype" : [ "" ],
					"patching_rect" : [ 412.0, 81.5, 50.0, 16.0 ],
					"text" : "clear"
				}

			}
, 			{
				"box" : 				{
					"fontname" : "Arial Bold",
					"fontsize" : 10.0,
					"id" : "obj-43",
					"maxclass" : "newobj",
					"numinlets" : 1,
					"numoutlets" : 1,
					"outlettype" : [ "float" ],
					"patcher" : 					{
						"fileversion" : 1,
						"appversion" : 						{
							"major" : 6,
							"minor" : 1,
							"revision" : 6,
							"architecture" : "x86"
						}
,
						"rect" : [ 25.0, 69.0, 202.0, 228.0 ],
						"bglocked" : 0,
						"openinpresentation" : 0,
						"default_fontsize" : 10.0,
						"default_fontface" : 0,
						"default_fontname" : "Arial Bold",
						"gridonopen" : 0,
						"gridsize" : [ 8.0, 8.0 ],
						"gridsnaponopen" : 0,
						"statusbarvisible" : 2,
						"toolbarvisible" : 1,
						"boxanimatetime" : 200,
						"imprint" : 0,
						"enablehscroll" : 1,
						"enablevscroll" : 1,
						"devicewidth" : 0.0,
						"description" : "",
						"digest" : "",
						"tags" : "",
						"boxes" : [ 							{
								"box" : 								{
									"fontname" : "Arial Bold",
									"fontsize" : 10.0,
									"id" : "obj-1",
									"maxclass" : "newobj",
									"numinlets" : 2,
									"numoutlets" : 1,
									"outlettype" : [ "bang" ],
									"patching_rect" : [ 72.0, 96.0, 39.0, 18.0 ],
									"text" : "del 10"
								}

							}
, 							{
								"box" : 								{
									"fontname" : "Arial Bold",
									"fontsize" : 10.0,
									"id" : "obj-27",
									"maxclass" : "newobj",
									"numinlets" : 1,
									"numoutlets" : 2,
									"outlettype" : [ "", "int" ],
									"patching_rect" : [ 40.0, 48.0, 32.5, 18.0 ],
									"text" : "t l 1"
								}

							}
, 							{
								"box" : 								{
									"fontname" : "Arial Bold",
									"fontsize" : 10.0,
									"id" : "obj-25",
									"maxclass" : "message",
									"numinlets" : 2,
									"numoutlets" : 1,
									"outlettype" : [ "" ],
									"patching_rect" : [ 72.0, 120.0, 24.0, 16.0 ],
									"text" : "0"
								}

							}
, 							{
								"box" : 								{
									"fontname" : "Arial Bold",
									"fontsize" : 10.0,
									"id" : "obj-23",
									"maxclass" : "newobj",
									"numinlets" : 2,
									"numoutlets" : 1,
									"outlettype" : [ "float" ],
									"patching_rect" : [ 40.0, 152.0, 118.0, 18.0 ],
									"text" : "snapshot~ 5 @active 0"
								}

							}
, 							{
								"box" : 								{
									"fontname" : "Arial Bold",
									"fontsize" : 10.0,
									"id" : "obj-22",
									"maxclass" : "newobj",
									"numinlets" : 3,
									"numoutlets" : 2,
									"outlettype" : [ "signal", "bang" ],
									"patching_rect" : [ 40.0, 72.0, 51.0, 18.0 ],
									"text" : "curve~"
								}

							}
, 							{
								"box" : 								{
									"comment" : "",
									"id" : "obj-41",
									"maxclass" : "inlet",
									"numinlets" : 0,
									"numoutlets" : 1,
									"outlettype" : [ "" ],
									"patching_rect" : [ 40.0, 16.0, 18.0, 18.0 ]
								}

							}
, 							{
								"box" : 								{
									"comment" : "",
									"id" : "obj-42",
									"maxclass" : "outlet",
									"numinlets" : 1,
									"numoutlets" : 0,
									"patching_rect" : [ 40.0, 184.0, 18.0, 18.0 ]
								}

							}
 ],
						"lines" : [ 							{
								"patchline" : 								{
									"destination" : [ "obj-25", 0 ],
									"disabled" : 0,
									"hidden" : 0,
									"source" : [ "obj-1", 0 ]
								}

							}
, 							{
								"patchline" : 								{
									"destination" : [ "obj-1", 0 ],
									"disabled" : 0,
									"hidden" : 0,
									"source" : [ "obj-22", 1 ]
								}

							}
, 							{
								"patchline" : 								{
									"destination" : [ "obj-23", 0 ],
									"disabled" : 0,
									"hidden" : 0,
									"source" : [ "obj-22", 0 ]
								}

							}
, 							{
								"patchline" : 								{
									"destination" : [ "obj-42", 0 ],
									"disabled" : 0,
									"hidden" : 0,
									"source" : [ "obj-23", 0 ]
								}

							}
, 							{
								"patchline" : 								{
									"destination" : [ "obj-23", 0 ],
									"disabled" : 0,
									"hidden" : 0,
									"source" : [ "obj-25", 0 ]
								}

							}
, 							{
								"patchline" : 								{
									"destination" : [ "obj-22", 0 ],
									"disabled" : 0,
									"hidden" : 0,
									"source" : [ "obj-27", 0 ]
								}

							}
, 							{
								"patchline" : 								{
									"destination" : [ "obj-23", 0 ],
									"disabled" : 0,
									"hidden" : 0,
									"source" : [ "obj-27", 1 ]
								}

							}
, 							{
								"patchline" : 								{
									"destination" : [ "obj-27", 0 ],
									"disabled" : 0,
									"hidden" : 0,
									"source" : [ "obj-41", 0 ]
								}

							}
 ]
					}
,
					"patching_rect" : [ 412.0, 254.5, 64.0, 18.0 ],
					"saved_object_attributes" : 					{
						"default_fontface" : 0,
						"default_fontname" : "Arial Bold",
						"default_fontsize" : 10.0,
						"description" : "",
						"digest" : "",
						"fontface" : 0,
						"fontname" : "Arial Bold",
						"fontsize" : 10.0,
						"globalpatchername" : "",
						"tags" : ""
					}
,
					"text" : "p Envelope"
				}

			}
, 			{
				"box" : 				{
					"fontname" : "Arial Bold",
					"fontsize" : 10.0,
					"frgb" : 0.0,
					"id" : "obj-40",
					"maxclass" : "comment",
					"numinlets" : 1,
					"numoutlets" : 0,
					"patching_rect" : [ 386.0, 111.5, 152.0, 18.0 ],
					"text" : "< Play transposition envelope"
				}

			}
, 			{
				"box" : 				{
					"fontname" : "Arial",
					"fontsize" : 10.0,
					"frgb" : 0.0,
					"id" : "obj-38",
					"maxclass" : "comment",
					"numinlets" : 1,
					"numoutlets" : 0,
					"patching_rect" : [ 460.0, 278.5, 19.0, 18.0 ],
					"text" : "ct"
				}

			}
, 			{
				"box" : 				{
					"fontname" : "Arial Bold",
					"fontsize" : 10.0,
					"id" : "obj-37",
					"maxclass" : "flonum",
					"numinlets" : 1,
					"numoutlets" : 2,
					"outlettype" : [ "float", "bang" ],
					"parameter_enable" : 0,
					"patching_rect" : [ 412.0, 278.5, 48.0, 18.0 ],
					"prototypename" : "Live",
					"triscale" : 0.75
				}

			}
, 			{
				"box" : 				{
					"fontname" : "Arial Bold",
					"fontsize" : 10.0,
					"id" : "obj-35",
					"linecount" : 2,
					"maxclass" : "message",
					"numinlets" : 2,
					"numoutlets" : 1,
					"outlettype" : [ "" ],
					"patching_rect" : [ 412.0, 302.5, 106.0, 27.0 ],
					"text" : ";\r1SVPt Transpose $1"
				}

			}
, 			{
				"box" : 				{
					"blinkcolor" : [ 0.921569, 0.94902, 0.05098, 1.0 ],
					"id" : "obj-21",
					"maxclass" : "button",
					"numinlets" : 1,
					"numoutlets" : 1,
					"outlettype" : [ "bang" ],
					"patching_rect" : [ 360.0, 107.5, 24.0, 24.0 ]
				}

			}
, 			{
				"box" : 				{
					"addpoints_with_curve" : [ 10.638297, -12.121212, 0, 0.0, 2925.531982, 1200.0, 0, 0.395, 3776.595703, 544.0, 0, 0.0, 5904.255371, 1056.0, 0, 0.0, 7180.851074, 256.0, 0, -0.345, 10000.0, 0.0, 0, -0.7 ],
					"domain" : 10000.0,
					"id" : "obj-19",
					"linecolor" : [ 0.333333, 0.333333, 0.333333, 1.0 ],
					"maxclass" : "function",
					"mode" : 1,
					"numinlets" : 1,
					"numoutlets" : 4,
					"outlettype" : [ "float", "", "", "bang" ],
					"parameter_enable" : 0,
					"patching_rect" : [ 360.0, 139.5, 200.0, 100.0 ],
					"pointcolor" : [ 0.290196, 0.611765, 0.380392, 1.0 ],
					"range" : [ 0.0, 1200.0 ]
				}

			}
, 			{
				"box" : 				{
					"id" : "obj-4",
					"maxclass" : "ezdac~",
					"numinlets" : 2,
					"numoutlets" : 0,
					"patching_rect" : [ 18.0, 569.0, 45.0, 45.0 ]
				}

			}
, 			{
				"box" : 				{
					"id" : "obj-3",
					"maxclass" : "live.gain~",
					"numinlets" : 2,
					"numoutlets" : 5,
					"outlettype" : [ "signal", "signal", "", "float", "list" ],
					"parameter_enable" : 1,
					"patching_rect" : [ 18.0, 389.0, 48.0, 136.0 ],
					"saved_attribute_attributes" : 					{
						"valueof" : 						{
							"parameter_longname" : "live.gain~",
							"parameter_shortname" : "live.gain~",
							"parameter_type" : 0,
							"parameter_mmin" : -70.0,
							"parameter_mmax" : 6.0,
							"parameter_initial" : [ 0.0 ],
							"parameter_unitstyle" : 4
						}

					}
,
					"varname" : "live.gain~"
				}

			}
, 			{
				"box" : 				{
					"args" : [ "@File", "cherokee.aif" ],
					"id" : "obj-7",
					"maxclass" : "bpatcher",
					"name" : "FMA.SoundPlayer~.maxpat",
					"numinlets" : 1,
					"numoutlets" : 3,
					"outlettype" : [ "signal", "signal", "" ],
					"patching_rect" : [ 18.0, 62.0, 272.0, 136.0 ],
					"varname" : "Fma.SoundPlayer~"
				}

			}
, 			{
				"box" : 				{
					"fontname" : "Arial Bold",
					"fontsize" : 10.0,
					"id" : "obj-1",
					"linecount" : 2,
					"maxclass" : "newobj",
					"numinlets" : 1,
					"numoutlets" : 1,
					"outlettype" : [ "signal" ],
					"patching_rect" : [ 18.0, 218.0, 171.0, 29.0 ],
					"text" : "poly~ tg.supervp.trans.1.1.Poly 1 args 1SVPt",
					"varname" : "poly~"
				}

			}
 ],
		"lines" : [ 			{
				"patchline" : 				{
					"destination" : [ "obj-3", 1 ],
					"disabled" : 0,
					"hidden" : 0,
					"source" : [ "obj-1", 0 ]
				}

			}
, 			{
				"patchline" : 				{
					"destination" : [ "obj-3", 0 ],
					"disabled" : 0,
					"hidden" : 0,
					"source" : [ "obj-1", 0 ]
				}

			}
, 			{
				"patchline" : 				{
					"destination" : [ "obj-16", 0 ],
					"disabled" : 0,
					"hidden" : 0,
					"source" : [ "obj-15", 0 ]
				}

			}
, 			{
				"patchline" : 				{
					"destination" : [ "obj-43", 0 ],
					"disabled" : 0,
					"hidden" : 0,
					"source" : [ "obj-19", 1 ]
				}

			}
, 			{
				"patchline" : 				{
					"destination" : [ "obj-19", 0 ],
					"disabled" : 0,
					"hidden" : 0,
					"source" : [ "obj-21", 0 ]
				}

			}
, 			{
				"patchline" : 				{
					"destination" : [ "obj-4", 1 ],
					"disabled" : 0,
					"hidden" : 0,
					"source" : [ "obj-3", 1 ]
				}

			}
, 			{
				"patchline" : 				{
					"destination" : [ "obj-4", 0 ],
					"disabled" : 0,
					"hidden" : 0,
					"source" : [ "obj-3", 0 ]
				}

			}
, 			{
				"patchline" : 				{
					"destination" : [ "obj-35", 0 ],
					"disabled" : 0,
					"hidden" : 0,
					"source" : [ "obj-37", 0 ]
				}

			}
, 			{
				"patchline" : 				{
					"destination" : [ "obj-37", 0 ],
					"disabled" : 0,
					"hidden" : 0,
					"source" : [ "obj-43", 0 ]
				}

			}
, 			{
				"patchline" : 				{
					"destination" : [ "obj-19", 0 ],
					"disabled" : 0,
					"hidden" : 0,
					"source" : [ "obj-5", 0 ]
				}

			}
, 			{
				"patchline" : 				{
					"destination" : [ "obj-19", 0 ],
					"disabled" : 0,
					"hidden" : 0,
					"source" : [ "obj-6", 0 ]
				}

			}
, 			{
				"patchline" : 				{
					"destination" : [ "obj-1", 0 ],
					"disabled" : 0,
					"hidden" : 0,
					"source" : [ "obj-7", 1 ]
				}

			}
, 			{
				"patchline" : 				{
					"destination" : [ "obj-1", 0 ],
					"disabled" : 0,
					"hidden" : 0,
					"source" : [ "obj-7", 0 ]
				}

			}
 ],
		"parameters" : 		{
			"obj-1.1::obj-1::obj-114" : [ "RemixError", "RemixError", 0 ],
			"obj-1.1::obj-1::obj-116" : [ "RemixTransients", "RemixTransients", 0 ],
			"obj-1.1::obj-1::obj-124" : [ "EnvPreserve", "EnvPreserve", 1 ],
			"obj-1.1::obj-1::obj-111" : [ "PreserveStereo", "PreserveStereo", 1 ],
			"obj-1.1::obj-1::obj-67" : [ "FilterGain[26]", "FilterGain", 0 ],
			"obj-1.1::obj-1::obj-163" : [ "Transpose", "Transpose", 0 ],
			"obj-7::obj-50" : [ "Play", "Play", 0 ],
			"obj-1.1::obj-1::obj-96" : [ "Oversampling", "Oversampling", 0 ],
			"obj-3" : [ "live.gain~", "live.gain~", 0 ],
			"obj-1.1::obj-1::obj-120" : [ "RemixMode", "RemixMode", 0 ],
			"obj-1.1::obj-1::obj-133" : [ "EnvScale", "EnvScale", 0 ],
			"obj-1.1::obj-1::obj-164" : [ "PreserveWaveform", "PreserveWaveform", 1 ],
			"obj-1.1::obj-1::obj-105" : [ "WindowSize", "WindowSize", 0 ],
			"obj-1.1::obj-1::obj-70" : [ "FilterFreq[26]", "FilterFreq", 0 ],
			"obj-7::obj-65" : [ "Transp", "Transp", 0 ],
			"obj-1.1::obj-1::obj-42" : [ "FilterMode[26]", "FilterMode", 0 ],
			"obj-1.1::obj-1::obj-148" : [ "EnvLpcOrder", "EnvLpcOrder", 0 ],
			"obj-1.1::obj-1::obj-117" : [ "RemixNoise", "RemixNoise", 0 ],
			"obj-1.1::obj-1::obj-156" : [ "EnvTransp", "EnvTransp", 0 ],
			"obj-7::obj-6" : [ "Folder", "Folder", 0 ],
			"obj-1.1::obj-1::obj-157" : [ "TranspMode[8]", "TranspMode", 0 ],
			"obj-1.1::obj-1::obj-72" : [ "FilterQ[26]", "FilterQ", 0 ],
			"obj-1.1::obj-1::obj-146" : [ "EnvScaleEnable", "EnvScaleEnable", 0 ],
			"obj-1.1::obj-1::obj-150" : [ "EnvMaxFreq", "EnvMaxFreq", 0 ],
			"obj-1.1::obj-1::obj-115" : [ "RemixRelax", "RemixRelax", 0 ],
			"obj-1.1::obj-1::obj-147" : [ "EnvTranspEnable", "EnvTranspEnable", 0 ],
			"obj-1.1::obj-1::obj-122" : [ "RemixEnable", "RemixEnable", 0 ],
			"obj-7::obj-82" : [ "Gain", "Gain", 0 ],
			"obj-1.1::obj-1::obj-14" : [ "Outgain[27]", "Outgain", 0 ],
			"obj-1.1::obj-1::obj-12" : [ "Dry/wet[26]", "Dry/wet", 0 ],
			"obj-1.1::obj-1::obj-112" : [ "PreserveTransients", "PreserveTransients", 1 ],
			"obj-1.1::obj-1::obj-153" : [ "EnvMode", "EnvMode", 0 ],
			"obj-1.1::obj-1::obj-119" : [ "RemixSinus", "RemixSinus", 0 ],
			"obj-1.1::obj-1::obj-90" : [ "FFTOversamp", "FFTOversamp", 0 ],
			"obj-1.1::obj-1::obj-162" : [ "TranspEnable", "TranspEnable", 0 ],
			"obj-7::obj-39" : [ "Loop", "Loop", 0 ],
			"obj-1.1::obj-1::obj-80" : [ "PRESET[7]", "PRESET", 0 ],
			"obj-1.1::obj-1::obj-8" : [ "Ingain[28]", "Ingain", 0 ]
		}
,
		"dependency_cache" : [ 			{
				"name" : "tg.supervp.trans.1.1.Poly.maxpat",
				"bootpath" : "/Users/goepfer/Documents/MAX-LIBRARY/TG.tools/_MODULES/EFFECTS/SuperVP",
				"patcherrelativepath" : ".",
				"type" : "JSON",
				"implicit" : 1
			}
, 			{
				"name" : "tg.MuteThispoly1.maxpat",
				"bootpath" : "/Users/goepfer/Documents/MAX-LIBRARY/TG.tools/_MODULES/CTRL",
				"patcherrelativepath" : "../../CTRL",
				"type" : "JSON",
				"implicit" : 1
			}
, 			{
				"name" : "tg.supervp.trans.1.1.maxpat",
				"bootpath" : "/Users/goepfer/Documents/MAX-LIBRARY/TG.tools/_MODULES/EFFECTS/SuperVP",
				"patcherrelativepath" : ".",
				"type" : "JSON",
				"implicit" : 1
			}
, 			{
				"name" : "M4L.bal1~.maxpat",
				"bootpath" : "/Applications/Max 6.1.6/patches/m4l-patches/Tools resources",
				"patcherrelativepath" : "../../../../../../../../Applications/Max 6.1.6/patches/m4l-patches/Tools resources",
				"type" : "JSON",
				"implicit" : 1
			}
, 			{
				"name" : "SupervpTransPreset.json",
				"bootpath" : "/Users/goepfer/Documents/MAX-LIBRARY/TG.tools/_MODULES/JSON",
				"patcherrelativepath" : "../../JSON",
				"type" : "JSON",
				"implicit" : 1
			}
, 			{
				"name" : "tg.m.fgraph.maxpat",
				"bootpath" : "/Users/goepfer/Documents/MAX-LIBRARY/TG.tools/_MODULES/CTRL",
				"patcherrelativepath" : "../../CTRL",
				"type" : "JSON",
				"implicit" : 1
			}
, 			{
				"name" : "tg.m.preset.maxpat",
				"bootpath" : "/Users/goepfer/Documents/MAX-LIBRARY/TG.tools/_MODULES/CTRL",
				"patcherrelativepath" : "../../CTRL",
				"type" : "JSON",
				"implicit" : 1
			}
, 			{
				"name" : "FMA.SoundPlayer~.maxpat",
				"bootpath" : "/Users/goepfer/Documents/MAX-LIBRARY/IRCAM/ForumMaxApps-All/Utilities",
				"patcherrelativepath" : "../../../../IRCAM/ForumMaxApps-All/Utilities",
				"type" : "JSON",
				"implicit" : 1
			}
, 			{
				"name" : "supervp.trans~.mxo",
				"type" : "iLaX"
			}
 ]
	}

}
