{
	"patcher" : 	{
		"fileversion" : 1,
		"rect" : [ 298.0, 376.0, 504.0, 299.0 ],
		"bglocked" : 0,
		"defrect" : [ 298.0, 376.0, 504.0, 299.0 ],
		"openrect" : [ 0.0, 0.0, 0.0, 0.0 ],
		"openinpresentation" : 0,
		"default_fontsize" : 10.0,
		"default_fontface" : 0,
		"default_fontname" : "Arial Bold",
		"gridonopen" : 0,
		"gridsize" : [ 8.0, 8.0 ],
		"gridsnaponopen" : 0,
		"toolbarvisible" : 1,
		"boxanimatetime" : 200,
		"imprint" : 0,
		"enablehscroll" : 1,
		"enablevscroll" : 1,
		"boxes" : [ 			{
				"box" : 				{
					"maxclass" : "newobj",
					"text" : "*~ 1",
					"id" : "obj-12",
					"numoutlets" : 1,
					"patching_rect" : [ 208.0, 120.0, 32.5, 18.0 ],
					"outlettype" : [ "signal" ],
					"fontsize" : 10.0,
					"numinlets" : 2,
					"fontname" : "Arial Bold"
				}

			}
, 			{
				"box" : 				{
					"maxclass" : "inlet",
					"id" : "obj-13",
					"numoutlets" : 1,
					"patching_rect" : [ 208.0, 48.0, 25.0, 25.0 ],
					"outlettype" : [ "" ],
					"numinlets" : 0,
					"comment" : ""
				}

			}
, 			{
				"box" : 				{
					"maxclass" : "outlet",
					"id" : "obj-14",
					"numoutlets" : 0,
					"patching_rect" : [ 208.0, 168.0, 25.0, 25.0 ],
					"numinlets" : 1,
					"comment" : ""
				}

			}
, 			{
				"box" : 				{
					"maxclass" : "newobj",
					"text" : "*~ 1",
					"id" : "obj-9",
					"numoutlets" : 1,
					"patching_rect" : [ 160.0, 120.0, 32.5, 18.0 ],
					"outlettype" : [ "signal" ],
					"fontsize" : 10.0,
					"numinlets" : 2,
					"fontname" : "Arial Bold"
				}

			}
, 			{
				"box" : 				{
					"maxclass" : "inlet",
					"id" : "obj-10",
					"numoutlets" : 1,
					"patching_rect" : [ 160.0, 48.0, 25.0, 25.0 ],
					"outlettype" : [ "" ],
					"numinlets" : 0,
					"comment" : ""
				}

			}
, 			{
				"box" : 				{
					"maxclass" : "outlet",
					"id" : "obj-11",
					"numoutlets" : 0,
					"patching_rect" : [ 160.0, 168.0, 25.0, 25.0 ],
					"numinlets" : 1,
					"comment" : ""
				}

			}
, 			{
				"box" : 				{
					"maxclass" : "newobj",
					"text" : "*~ 1",
					"id" : "obj-6",
					"numoutlets" : 1,
					"patching_rect" : [ 112.0, 120.0, 32.5, 18.0 ],
					"outlettype" : [ "signal" ],
					"fontsize" : 10.0,
					"presentation_rect" : [ 110.0, 120.0, 0.0, 0.0 ],
					"numinlets" : 2,
					"fontname" : "Arial Bold"
				}

			}
, 			{
				"box" : 				{
					"maxclass" : "inlet",
					"id" : "obj-7",
					"numoutlets" : 1,
					"patching_rect" : [ 112.0, 48.0, 25.0, 25.0 ],
					"outlettype" : [ "" ],
					"presentation_rect" : [ 110.0, 48.0, 0.0, 0.0 ],
					"numinlets" : 0,
					"comment" : ""
				}

			}
, 			{
				"box" : 				{
					"maxclass" : "outlet",
					"id" : "obj-8",
					"numoutlets" : 0,
					"patching_rect" : [ 112.0, 168.0, 25.0, 25.0 ],
					"presentation_rect" : [ 110.0, 168.0, 0.0, 0.0 ],
					"numinlets" : 1,
					"comment" : ""
				}

			}
, 			{
				"box" : 				{
					"maxclass" : "newobj",
					"text" : "*~ 0",
					"id" : "obj-1",
					"numoutlets" : 1,
					"patching_rect" : [ 16.0, 120.0, 32.5, 18.0 ],
					"outlettype" : [ "signal" ],
					"fontsize" : 10.0,
					"numinlets" : 2,
					"fontname" : "Arial Bold"
				}

			}
, 			{
				"box" : 				{
					"maxclass" : "inlet",
					"id" : "obj-2",
					"numoutlets" : 1,
					"patching_rect" : [ 16.0, 48.0, 25.0, 25.0 ],
					"outlettype" : [ "" ],
					"numinlets" : 0,
					"comment" : ""
				}

			}
, 			{
				"box" : 				{
					"maxclass" : "newobj",
					"text" : "!-~ 1",
					"id" : "obj-94",
					"numoutlets" : 1,
					"patching_rect" : [ 296.0, 88.0, 32.5, 18.0 ],
					"outlettype" : [ "signal" ],
					"fontsize" : 10.0,
					"numinlets" : 2,
					"fontname" : "Arial Bold"
				}

			}
, 			{
				"box" : 				{
					"maxclass" : "newobj",
					"text" : "*~ 1",
					"id" : "obj-90",
					"numoutlets" : 1,
					"patching_rect" : [ 64.0, 120.0, 32.5, 18.0 ],
					"outlettype" : [ "signal" ],
					"fontsize" : 10.0,
					"numinlets" : 2,
					"fontname" : "Arial Bold"
				}

			}
, 			{
				"box" : 				{
					"maxclass" : "inlet",
					"id" : "obj-32",
					"numoutlets" : 1,
					"patching_rect" : [ 64.0, 48.0, 25.0, 25.0 ],
					"outlettype" : [ "" ],
					"numinlets" : 0,
					"comment" : ""
				}

			}
, 			{
				"box" : 				{
					"maxclass" : "inlet",
					"id" : "obj-35",
					"numoutlets" : 1,
					"patching_rect" : [ 296.0, 48.0, 25.0, 25.0 ],
					"outlettype" : [ "" ],
					"numinlets" : 0,
					"comment" : ""
				}

			}
, 			{
				"box" : 				{
					"maxclass" : "outlet",
					"id" : "obj-37",
					"numoutlets" : 0,
					"patching_rect" : [ 64.0, 168.0, 25.0, 25.0 ],
					"numinlets" : 1,
					"comment" : ""
				}

			}
 ],
		"lines" : [ 			{
				"patchline" : 				{
					"source" : [ "obj-94", 0 ],
					"destination" : [ "obj-1", 1 ],
					"hidden" : 0,
					"midpoints" : [  ]
				}

			}
, 			{
				"patchline" : 				{
					"source" : [ "obj-35", 0 ],
					"destination" : [ "obj-90", 1 ],
					"hidden" : 0,
					"midpoints" : [  ]
				}

			}
, 			{
				"patchline" : 				{
					"source" : [ "obj-35", 0 ],
					"destination" : [ "obj-6", 1 ],
					"hidden" : 0,
					"midpoints" : [  ]
				}

			}
, 			{
				"patchline" : 				{
					"source" : [ "obj-35", 0 ],
					"destination" : [ "obj-9", 1 ],
					"hidden" : 0,
					"midpoints" : [  ]
				}

			}
, 			{
				"patchline" : 				{
					"source" : [ "obj-35", 0 ],
					"destination" : [ "obj-12", 1 ],
					"hidden" : 0,
					"midpoints" : [  ]
				}

			}
, 			{
				"patchline" : 				{
					"source" : [ "obj-1", 0 ],
					"destination" : [ "obj-14", 0 ],
					"hidden" : 0,
					"midpoints" : [ 25.5, 152.5, 217.5, 152.5 ]
				}

			}
, 			{
				"patchline" : 				{
					"source" : [ "obj-1", 0 ],
					"destination" : [ "obj-11", 0 ],
					"hidden" : 0,
					"midpoints" : [ 25.5, 152.5, 169.5, 152.5 ]
				}

			}
, 			{
				"patchline" : 				{
					"source" : [ "obj-1", 0 ],
					"destination" : [ "obj-8", 0 ],
					"hidden" : 0,
					"midpoints" : [ 25.5, 152.5, 121.5, 152.5 ]
				}

			}
, 			{
				"patchline" : 				{
					"source" : [ "obj-1", 0 ],
					"destination" : [ "obj-37", 0 ],
					"hidden" : 0,
					"midpoints" : [ 25.5, 152.5, 73.5, 152.5 ]
				}

			}
, 			{
				"patchline" : 				{
					"source" : [ "obj-12", 0 ],
					"destination" : [ "obj-14", 0 ],
					"hidden" : 0,
					"midpoints" : [  ]
				}

			}
, 			{
				"patchline" : 				{
					"source" : [ "obj-13", 0 ],
					"destination" : [ "obj-12", 0 ],
					"hidden" : 0,
					"midpoints" : [  ]
				}

			}
, 			{
				"patchline" : 				{
					"source" : [ "obj-10", 0 ],
					"destination" : [ "obj-9", 0 ],
					"hidden" : 0,
					"midpoints" : [  ]
				}

			}
, 			{
				"patchline" : 				{
					"source" : [ "obj-9", 0 ],
					"destination" : [ "obj-11", 0 ],
					"hidden" : 0,
					"midpoints" : [  ]
				}

			}
, 			{
				"patchline" : 				{
					"source" : [ "obj-6", 0 ],
					"destination" : [ "obj-8", 0 ],
					"hidden" : 0,
					"midpoints" : [  ]
				}

			}
, 			{
				"patchline" : 				{
					"source" : [ "obj-7", 0 ],
					"destination" : [ "obj-6", 0 ],
					"hidden" : 0,
					"midpoints" : [  ]
				}

			}
, 			{
				"patchline" : 				{
					"source" : [ "obj-2", 0 ],
					"destination" : [ "obj-1", 0 ],
					"hidden" : 0,
					"midpoints" : [  ]
				}

			}
, 			{
				"patchline" : 				{
					"source" : [ "obj-32", 0 ],
					"destination" : [ "obj-90", 0 ],
					"hidden" : 0,
					"midpoints" : [  ]
				}

			}
, 			{
				"patchline" : 				{
					"source" : [ "obj-35", 0 ],
					"destination" : [ "obj-94", 0 ],
					"hidden" : 0,
					"midpoints" : [  ]
				}

			}
, 			{
				"patchline" : 				{
					"source" : [ "obj-90", 0 ],
					"destination" : [ "obj-37", 0 ],
					"hidden" : 0,
					"midpoints" : [  ]
				}

			}
 ]
	}

}
