{
	"patcher" : 	{
		"fileversion" : 1,
		"rect" : [ 343.0, 529.0, 903.0, 566.0 ],
		"bglocked" : 0,
		"defrect" : [ 343.0, 529.0, 903.0, 566.0 ],
		"openrect" : [ 0.0, 0.0, 0.0, 0.0 ],
		"openinpresentation" : 0,
		"default_fontsize" : 10.0,
		"default_fontface" : 0,
		"default_fontname" : "Arial Bold",
		"gridonopen" : 0,
		"gridsize" : [ 8.0, 8.0 ],
		"gridsnaponopen" : 0,
		"toolbarvisible" : 1,
		"boxanimatetime" : 200,
		"imprint" : 0,
		"boxes" : [ 			{
				"box" : 				{
					"maxclass" : "newobj",
					"text" : "zl nth 2",
					"patching_rect" : [ 56.0, 272.0, 45.0, 18.0 ],
					"numinlets" : 2,
					"id" : "obj-17",
					"fontname" : "Arial Bold",
					"numoutlets" : 2,
					"outlettype" : [ "", "" ],
					"fontsize" : 10.0
				}

			}
, 			{
				"box" : 				{
					"maxclass" : "newobj",
					"text" : "zl slice 2",
					"patching_rect" : [ 56.0, 240.0, 52.0, 18.0 ],
					"numinlets" : 2,
					"id" : "obj-4",
					"fontname" : "Arial Bold",
					"numoutlets" : 2,
					"outlettype" : [ "", "" ],
					"fontsize" : 10.0
				}

			}
, 			{
				"box" : 				{
					"maxclass" : "newobj",
					"text" : "prepend set",
					"presentation_rect" : [ 569.0, 195.0, 0.0, 0.0 ],
					"patching_rect" : [ 568.0, 192.0, 67.0, 18.0 ],
					"numinlets" : 1,
					"id" : "obj-16",
					"fontname" : "Arial Bold",
					"numoutlets" : 1,
					"outlettype" : [ "" ],
					"fontsize" : 10.0
				}

			}
, 			{
				"box" : 				{
					"maxclass" : "newobj",
					"text" : "p TheBigShame",
					"patching_rect" : [ 496.0, 56.0, 86.0, 18.0 ],
					"numinlets" : 0,
					"id" : "obj-14",
					"fontname" : "Arial Bold",
					"numoutlets" : 1,
					"outlettype" : [ "" ],
					"fontsize" : 10.0,
					"patcher" : 					{
						"fileversion" : 1,
						"rect" : [ 0.0, 0.0, 640.0, 480.0 ],
						"bglocked" : 0,
						"defrect" : [ 0.0, 0.0, 640.0, 480.0 ],
						"openrect" : [ 0.0, 0.0, 0.0, 0.0 ],
						"openinpresentation" : 0,
						"default_fontsize" : 10.0,
						"default_fontface" : 0,
						"default_fontname" : "Arial Bold",
						"gridonopen" : 0,
						"gridsize" : [ 8.0, 8.0 ],
						"gridsnaponopen" : 0,
						"toolbarvisible" : 1,
						"boxanimatetime" : 200,
						"imprint" : 0,
						"boxes" : [ 							{
								"box" : 								{
									"maxclass" : "newobj",
									"text" : "sprintf %s-%s",
									"linecount" : 2,
									"patching_rect" : [ 50.0, 172.0, 59.0, 29.0 ],
									"numinlets" : 2,
									"id" : "obj-8",
									"fontname" : "Arial Bold",
									"numoutlets" : 1,
									"outlettype" : [ "" ],
									"fontsize" : 10.0
								}

							}
, 							{
								"box" : 								{
									"maxclass" : "newobj",
									"text" : "b",
									"patching_rect" : [ 50.0, 124.0, 58.5, 18.0 ],
									"numinlets" : 1,
									"id" : "obj-7",
									"fontname" : "Arial Bold",
									"numoutlets" : 2,
									"outlettype" : [ "bang", "bang" ],
									"fontsize" : 10.0
								}

							}
, 							{
								"box" : 								{
									"maxclass" : "message",
									"text" : "#2",
									"patching_rect" : [ 90.0, 148.0, 48.0, 16.0 ],
									"numinlets" : 2,
									"id" : "obj-6",
									"fontname" : "Arial Bold",
									"numoutlets" : 1,
									"outlettype" : [ "" ],
									"fontsize" : 10.0
								}

							}
, 							{
								"box" : 								{
									"maxclass" : "message",
									"text" : "#1",
									"patching_rect" : [ 50.0, 148.0, 32.5, 16.0 ],
									"numinlets" : 2,
									"id" : "obj-5",
									"fontname" : "Arial Bold",
									"numoutlets" : 1,
									"outlettype" : [ "" ],
									"fontsize" : 10.0
								}

							}
, 							{
								"box" : 								{
									"maxclass" : "newobj",
									"text" : "loadbang",
									"patching_rect" : [ 50.0, 100.0, 55.0, 18.0 ],
									"numinlets" : 1,
									"id" : "obj-3",
									"fontname" : "Arial Bold",
									"numoutlets" : 1,
									"outlettype" : [ "bang" ],
									"fontsize" : 10.0
								}

							}
, 							{
								"box" : 								{
									"maxclass" : "outlet",
									"patching_rect" : [ 50.0, 261.0, 25.0, 25.0 ],
									"numinlets" : 1,
									"id" : "obj-1",
									"numoutlets" : 0,
									"comment" : ""
								}

							}
 ],
						"lines" : [ 							{
								"patchline" : 								{
									"source" : [ "obj-8", 0 ],
									"destination" : [ "obj-1", 0 ],
									"hidden" : 0,
									"midpoints" : [  ]
								}

							}
, 							{
								"patchline" : 								{
									"source" : [ "obj-3", 0 ],
									"destination" : [ "obj-7", 0 ],
									"hidden" : 0,
									"midpoints" : [  ]
								}

							}
, 							{
								"patchline" : 								{
									"source" : [ "obj-7", 1 ],
									"destination" : [ "obj-6", 0 ],
									"hidden" : 0,
									"midpoints" : [  ]
								}

							}
, 							{
								"patchline" : 								{
									"source" : [ "obj-7", 0 ],
									"destination" : [ "obj-5", 0 ],
									"hidden" : 0,
									"midpoints" : [  ]
								}

							}
, 							{
								"patchline" : 								{
									"source" : [ "obj-5", 0 ],
									"destination" : [ "obj-8", 0 ],
									"hidden" : 0,
									"midpoints" : [  ]
								}

							}
, 							{
								"patchline" : 								{
									"source" : [ "obj-6", 0 ],
									"destination" : [ "obj-8", 1 ],
									"hidden" : 0,
									"midpoints" : [  ]
								}

							}
 ]
					}
,
					"saved_object_attributes" : 					{
						"default_fontname" : "Arial Bold",
						"default_fontsize" : 10.0,
						"fontname" : "Arial Bold",
						"globalpatchername" : "",
						"fontface" : 0,
						"fontsize" : 10.0,
						"default_fontface" : 0
					}

				}

			}
, 			{
				"box" : 				{
					"maxclass" : "newobj",
					"text" : "prepend send",
					"patching_rect" : [ 384.0, 256.0, 76.0, 18.0 ],
					"numinlets" : 1,
					"id" : "obj-12",
					"fontname" : "Arial Bold",
					"numoutlets" : 1,
					"outlettype" : [ "" ],
					"fontsize" : 10.0
				}

			}
, 			{
				"box" : 				{
					"maxclass" : "newobj",
					"text" : "sprintf %s~",
					"patching_rect" : [ 384.0, 232.0, 65.0, 18.0 ],
					"numinlets" : 1,
					"id" : "obj-15",
					"fontname" : "Arial Bold",
					"numoutlets" : 1,
					"outlettype" : [ "" ],
					"fontsize" : 10.0
				}

			}
, 			{
				"box" : 				{
					"maxclass" : "newobj",
					"text" : "prepend send",
					"patching_rect" : [ 496.0, 232.0, 76.0, 18.0 ],
					"numinlets" : 1,
					"id" : "obj-11",
					"fontname" : "Arial Bold",
					"numoutlets" : 1,
					"outlettype" : [ "" ],
					"fontsize" : 10.0
				}

			}
, 			{
				"box" : 				{
					"maxclass" : "newobj",
					"text" : "prepend set",
					"patching_rect" : [ 152.0, 176.0, 67.0, 18.0 ],
					"numinlets" : 1,
					"id" : "obj-13",
					"fontname" : "Arial Bold",
					"numoutlets" : 1,
					"outlettype" : [ "" ],
					"fontsize" : 10.0
				}

			}
, 			{
				"box" : 				{
					"maxclass" : "outlet",
					"patching_rect" : [ 568.0, 424.0, 25.0, 25.0 ],
					"numinlets" : 1,
					"id" : "obj-7",
					"numoutlets" : 0,
					"comment" : ""
				}

			}
, 			{
				"box" : 				{
					"maxclass" : "newobj",
					"text" : "forward",
					"patching_rect" : [ 472.0, 272.0, 47.0, 18.0 ],
					"numinlets" : 1,
					"id" : "obj-6",
					"fontname" : "Arial Bold",
					"numoutlets" : 0,
					"color" : [ 0.0, 1.0, 0.0, 1.0 ],
					"fontsize" : 10.0
				}

			}
, 			{
				"box" : 				{
					"maxclass" : "inlet",
					"patching_rect" : [ 472.0, 192.0, 25.0, 25.0 ],
					"numinlets" : 0,
					"id" : "obj-5",
					"numoutlets" : 1,
					"outlettype" : [ "" ],
					"comment" : ""
				}

			}
, 			{
				"box" : 				{
					"maxclass" : "newobj",
					"varname" : "func[3]",
					"text" : "tg.atodb",
					"patching_rect" : [ 304.0, 360.0, 50.0, 18.0 ],
					"numinlets" : 1,
					"id" : "obj-235",
					"fontname" : "Arial",
					"numoutlets" : 1,
					"outlettype" : [ "" ],
					"color" : [ 1.0, 0.9, 0.0, 1.0 ],
					"fontface" : 1,
					"fontsize" : 10.0
				}

			}
, 			{
				"box" : 				{
					"maxclass" : "newobj",
					"text" : "zl reg",
					"patching_rect" : [ 152.0, 280.0, 37.0, 18.0 ],
					"numinlets" : 2,
					"id" : "obj-1",
					"fontname" : "Arial Bold",
					"numoutlets" : 2,
					"outlettype" : [ "", "" ],
					"fontsize" : 10.0
				}

			}
, 			{
				"box" : 				{
					"maxclass" : "newobj",
					"text" : "patcherargs",
					"patching_rect" : [ 56.0, 208.0, 68.0, 18.0 ],
					"numinlets" : 1,
					"id" : "obj-3",
					"fontname" : "Arial Bold",
					"numoutlets" : 2,
					"outlettype" : [ "", "" ],
					"fontsize" : 10.0
				}

			}
, 			{
				"box" : 				{
					"maxclass" : "newobj",
					"text" : "prepend name",
					"patching_rect" : [ 56.0, 352.0, 79.0, 18.0 ],
					"numinlets" : 1,
					"id" : "obj-2",
					"fontname" : "Arial Bold",
					"numoutlets" : 1,
					"outlettype" : [ "" ],
					"fontsize" : 10.0
				}

			}
, 			{
				"box" : 				{
					"maxclass" : "newobj",
					"text" : "forward",
					"patching_rect" : [ 336.0, 296.0, 47.0, 18.0 ],
					"numinlets" : 1,
					"id" : "obj-302",
					"fontname" : "Arial Bold",
					"numoutlets" : 0,
					"color" : [ 0.0, 1.0, 0.0, 1.0 ],
					"fontsize" : 10.0
				}

			}
, 			{
				"box" : 				{
					"maxclass" : "newobj",
					"text" : "receive",
					"patching_rect" : [ 152.0, 200.0, 45.0, 18.0 ],
					"numinlets" : 1,
					"id" : "obj-303",
					"fontname" : "Arial Bold",
					"numoutlets" : 1,
					"outlettype" : [ "" ],
					"color" : [ 0.0, 0.984314, 1.0, 1.0 ],
					"fontsize" : 10.0
				}

			}
, 			{
				"box" : 				{
					"maxclass" : "newobj",
					"varname" : "u578000075[5]",
					"text" : "zl change 0.",
					"patching_rect" : [ 208.0, 344.0, 67.0, 18.0 ],
					"numinlets" : 2,
					"id" : "obj-264",
					"fontname" : "Arial Bold",
					"numoutlets" : 2,
					"outlettype" : [ "", "" ],
					"fontsize" : 10.0
				}

			}
, 			{
				"box" : 				{
					"maxclass" : "newobj",
					"text" : "route default",
					"patching_rect" : [ 152.0, 224.0, 75.0, 18.0 ],
					"numinlets" : 1,
					"id" : "obj-266",
					"fontname" : "Arial Bold",
					"numoutlets" : 2,
					"outlettype" : [ "", "" ],
					"fontsize" : 10.0
				}

			}
, 			{
				"box" : 				{
					"maxclass" : "newobj",
					"text" : "tg.line-db 0. 10",
					"patching_rect" : [ 304.0, 208.0, 81.0, 18.0 ],
					"numinlets" : 1,
					"id" : "obj-273",
					"fontname" : "Arial Bold",
					"numoutlets" : 2,
					"outlettype" : [ "", "" ],
					"fontsize" : 10.0
				}

			}
, 			{
				"box" : 				{
					"maxclass" : "newobj",
					"text" : "prepend set",
					"patching_rect" : [ 304.0, 392.0, 67.0, 18.0 ],
					"numinlets" : 1,
					"id" : "obj-274",
					"fontname" : "Arial Bold",
					"numoutlets" : 1,
					"outlettype" : [ "" ],
					"fontsize" : 10.0
				}

			}
, 			{
				"box" : 				{
					"maxclass" : "newobj",
					"varname" : "u578000075[6]",
					"text" : "speedlim 100",
					"patching_rect" : [ 304.0, 328.0, 73.0, 18.0 ],
					"numinlets" : 2,
					"id" : "obj-275",
					"fontname" : "Arial Bold",
					"numoutlets" : 1,
					"outlettype" : [ "" ],
					"fontsize" : 10.0
				}

			}
, 			{
				"box" : 				{
					"maxclass" : "inlet",
					"patching_rect" : [ 304.0, 176.0, 25.0, 25.0 ],
					"numinlets" : 0,
					"id" : "obj-304",
					"numoutlets" : 1,
					"outlettype" : [ "" ],
					"comment" : ""
				}

			}
, 			{
				"box" : 				{
					"maxclass" : "outlet",
					"patching_rect" : [ 152.0, 416.0, 25.0, 25.0 ],
					"numinlets" : 1,
					"id" : "obj-305",
					"numoutlets" : 0,
					"comment" : ""
				}

			}
, 			{
				"box" : 				{
					"maxclass" : "outlet",
					"patching_rect" : [ 304.0, 424.0, 25.0, 25.0 ],
					"numinlets" : 1,
					"id" : "obj-306",
					"numoutlets" : 0,
					"comment" : ""
				}

			}
 ],
		"lines" : [ 			{
				"patchline" : 				{
					"source" : [ "obj-17", 0 ],
					"destination" : [ "obj-2", 0 ],
					"hidden" : 0,
					"midpoints" : [  ]
				}

			}
, 			{
				"patchline" : 				{
					"source" : [ "obj-4", 1 ],
					"destination" : [ "obj-1", 0 ],
					"hidden" : 0,
					"midpoints" : [  ]
				}

			}
, 			{
				"patchline" : 				{
					"source" : [ "obj-3", 0 ],
					"destination" : [ "obj-4", 0 ],
					"hidden" : 0,
					"midpoints" : [  ]
				}

			}
, 			{
				"patchline" : 				{
					"source" : [ "obj-4", 0 ],
					"destination" : [ "obj-17", 0 ],
					"hidden" : 0,
					"midpoints" : [  ]
				}

			}
, 			{
				"patchline" : 				{
					"source" : [ "obj-13", 0 ],
					"destination" : [ "obj-303", 0 ],
					"hidden" : 0,
					"midpoints" : [  ]
				}

			}
, 			{
				"patchline" : 				{
					"source" : [ "obj-303", 0 ],
					"destination" : [ "obj-266", 0 ],
					"hidden" : 0,
					"midpoints" : [  ]
				}

			}
, 			{
				"patchline" : 				{
					"source" : [ "obj-12", 0 ],
					"destination" : [ "obj-302", 0 ],
					"hidden" : 0,
					"midpoints" : [  ]
				}

			}
, 			{
				"patchline" : 				{
					"source" : [ "obj-273", 0 ],
					"destination" : [ "obj-302", 0 ],
					"hidden" : 0,
					"midpoints" : [  ]
				}

			}
, 			{
				"patchline" : 				{
					"source" : [ "obj-5", 0 ],
					"destination" : [ "obj-6", 0 ],
					"hidden" : 0,
					"midpoints" : [  ]
				}

			}
, 			{
				"patchline" : 				{
					"source" : [ "obj-11", 0 ],
					"destination" : [ "obj-6", 0 ],
					"hidden" : 0,
					"midpoints" : [  ]
				}

			}
, 			{
				"patchline" : 				{
					"source" : [ "obj-16", 0 ],
					"destination" : [ "obj-7", 0 ],
					"hidden" : 0,
					"midpoints" : [  ]
				}

			}
, 			{
				"patchline" : 				{
					"source" : [ "obj-14", 0 ],
					"destination" : [ "obj-16", 0 ],
					"hidden" : 0,
					"midpoints" : [  ]
				}

			}
, 			{
				"patchline" : 				{
					"source" : [ "obj-15", 0 ],
					"destination" : [ "obj-12", 0 ],
					"hidden" : 0,
					"midpoints" : [  ]
				}

			}
, 			{
				"patchline" : 				{
					"source" : [ "obj-14", 0 ],
					"destination" : [ "obj-13", 0 ],
					"hidden" : 0,
					"midpoints" : [  ]
				}

			}
, 			{
				"patchline" : 				{
					"source" : [ "obj-14", 0 ],
					"destination" : [ "obj-11", 0 ],
					"hidden" : 0,
					"midpoints" : [  ]
				}

			}
, 			{
				"patchline" : 				{
					"source" : [ "obj-14", 0 ],
					"destination" : [ "obj-15", 0 ],
					"hidden" : 0,
					"midpoints" : [  ]
				}

			}
, 			{
				"patchline" : 				{
					"source" : [ "obj-274", 0 ],
					"destination" : [ "obj-306", 0 ],
					"hidden" : 0,
					"midpoints" : [  ]
				}

			}
, 			{
				"patchline" : 				{
					"source" : [ "obj-264", 0 ],
					"destination" : [ "obj-305", 0 ],
					"hidden" : 0,
					"midpoints" : [  ]
				}

			}
, 			{
				"patchline" : 				{
					"source" : [ "obj-266", 1 ],
					"destination" : [ "obj-264", 0 ],
					"hidden" : 0,
					"midpoints" : [  ]
				}

			}
, 			{
				"patchline" : 				{
					"source" : [ "obj-2", 0 ],
					"destination" : [ "obj-305", 0 ],
					"hidden" : 0,
					"midpoints" : [  ]
				}

			}
, 			{
				"patchline" : 				{
					"source" : [ "obj-273", 0 ],
					"destination" : [ "obj-275", 0 ],
					"hidden" : 0,
					"midpoints" : [  ]
				}

			}
, 			{
				"patchline" : 				{
					"source" : [ "obj-304", 0 ],
					"destination" : [ "obj-273", 0 ],
					"hidden" : 0,
					"midpoints" : [  ]
				}

			}
, 			{
				"patchline" : 				{
					"source" : [ "obj-275", 0 ],
					"destination" : [ "obj-235", 0 ],
					"hidden" : 0,
					"midpoints" : [  ]
				}

			}
, 			{
				"patchline" : 				{
					"source" : [ "obj-235", 0 ],
					"destination" : [ "obj-274", 0 ],
					"hidden" : 0,
					"midpoints" : [  ]
				}

			}
, 			{
				"patchline" : 				{
					"source" : [ "obj-1", 0 ],
					"destination" : [ "obj-305", 0 ],
					"hidden" : 0,
					"midpoints" : [  ]
				}

			}
, 			{
				"patchline" : 				{
					"source" : [ "obj-1", 0 ],
					"destination" : [ "obj-264", 1 ],
					"hidden" : 0,
					"midpoints" : [  ]
				}

			}
, 			{
				"patchline" : 				{
					"source" : [ "obj-266", 0 ],
					"destination" : [ "obj-1", 0 ],
					"hidden" : 0,
					"midpoints" : [  ]
				}

			}
, 			{
				"patchline" : 				{
					"source" : [ "obj-304", 0 ],
					"destination" : [ "obj-264", 1 ],
					"hidden" : 0,
					"midpoints" : [  ]
				}

			}
 ]
	}

}
