{
	"patcher" : 	{
		"fileversion" : 1,
		"rect" : [ 316.0, 158.0, 443.0, 560.0 ],
		"bglocked" : 0,
		"defrect" : [ 316.0, 158.0, 443.0, 560.0 ],
		"openrect" : [ 0.0, 0.0, 0.0, 0.0 ],
		"openinpresentation" : 0,
		"default_fontsize" : 10.0,
		"default_fontface" : 0,
		"default_fontname" : "Arial Bold",
		"gridonopen" : 0,
		"gridsize" : [ 8.0, 8.0 ],
		"gridsnaponopen" : 0,
		"toolbarvisible" : 1,
		"boxanimatetime" : 200,
		"imprint" : 0,
		"boxes" : [ 			{
				"box" : 				{
					"maxclass" : "outlet",
					"numoutlets" : 0,
					"patching_rect" : [ 56.0, 512.0, 25.0, 25.0 ],
					"id" : "obj-2",
					"numinlets" : 1,
					"comment" : ""
				}

			}
, 			{
				"box" : 				{
					"maxclass" : "inlet",
					"numoutlets" : 1,
					"patching_rect" : [ 88.0, 40.0, 25.0, 25.0 ],
					"id" : "obj-1",
					"outlettype" : [ "" ],
					"numinlets" : 0,
					"comment" : ""
				}

			}
, 			{
				"box" : 				{
					"maxclass" : "newobj",
					"text" : "route int speed bang",
					"numoutlets" : 4,
					"patching_rect" : [ 88.0, 80.0, 331.0, 17.0 ],
					"fontname" : "Arial Bold",
					"id" : "obj-3",
					"outlettype" : [ "", "", "", "" ],
					"fontsize" : 9.0,
					"numinlets" : 1
				}

			}
, 			{
				"box" : 				{
					"maxclass" : "newobj",
					"text" : "f",
					"numoutlets" : 1,
					"patching_rect" : [ 56.0, 472.0, 32.5, 17.0 ],
					"fontname" : "Arial Bold",
					"id" : "obj-4",
					"outlettype" : [ "float" ],
					"fontsize" : 9.0,
					"numinlets" : 2
				}

			}
, 			{
				"box" : 				{
					"maxclass" : "newobj",
					"text" : "metro 1000",
					"numoutlets" : 1,
					"patching_rect" : [ 88.0, 122.0, 63.0, 17.0 ],
					"fontname" : "Arial Bold",
					"id" : "obj-7",
					"outlettype" : [ "bang" ],
					"fontsize" : 9.0,
					"numinlets" : 2
				}

			}
, 			{
				"box" : 				{
					"maxclass" : "toggle",
					"numoutlets" : 1,
					"patching_rect" : [ 88.0, 101.0, 15.0, 15.0 ],
					"id" : "obj-8",
					"outlettype" : [ "int" ],
					"numinlets" : 1
				}

			}
, 			{
				"box" : 				{
					"maxclass" : "newobj",
					"text" : "t b l",
					"numoutlets" : 2,
					"patching_rect" : [ 40.0, 218.0, 35.0, 18.0 ],
					"fontname" : "Arial Bold",
					"id" : "obj-38",
					"outlettype" : [ "bang", "" ],
					"fontsize" : 10.0,
					"numinlets" : 1
				}

			}
, 			{
				"box" : 				{
					"maxclass" : "newobj",
					"text" : "zl slice 1",
					"numoutlets" : 2,
					"patching_rect" : [ 40.0, 162.0, 52.0, 18.0 ],
					"fontname" : "Arial Bold",
					"id" : "obj-39",
					"outlettype" : [ "", "" ],
					"fontsize" : 10.0,
					"numinlets" : 2
				}

			}
, 			{
				"box" : 				{
					"maxclass" : "newobj",
					"text" : "route range interv",
					"numoutlets" : 3,
					"patching_rect" : [ 152.0, 186.0, 131.0, 18.0 ],
					"fontname" : "Arial Bold",
					"id" : "obj-34",
					"outlettype" : [ "", "", "" ],
					"fontsize" : 10.0,
					"numinlets" : 1
				}

			}
, 			{
				"box" : 				{
					"maxclass" : "newobj",
					"text" : "zl reg",
					"numoutlets" : 2,
					"patching_rect" : [ 88.0, 266.0, 37.0, 18.0 ],
					"fontname" : "Arial Bold",
					"id" : "obj-35",
					"outlettype" : [ "", "" ],
					"fontsize" : 10.0,
					"numinlets" : 2
				}

			}
, 			{
				"box" : 				{
					"maxclass" : "newobj",
					"text" : "p interv",
					"numoutlets" : 1,
					"patching_rect" : [ 208.0, 218.0, 51.0, 18.0 ],
					"fontname" : "Arial Bold",
					"id" : "obj-36",
					"outlettype" : [ "" ],
					"fontsize" : 10.0,
					"numinlets" : 1,
					"patcher" : 					{
						"fileversion" : 1,
						"rect" : [ 20.0, 74.0, 360.0, 482.0 ],
						"bglocked" : 0,
						"defrect" : [ 20.0, 74.0, 360.0, 482.0 ],
						"openrect" : [ 0.0, 0.0, 0.0, 0.0 ],
						"openinpresentation" : 0,
						"default_fontsize" : 10.0,
						"default_fontface" : 0,
						"default_fontname" : "Arial Bold",
						"gridonopen" : 0,
						"gridsize" : [ 8.0, 8.0 ],
						"gridsnaponopen" : 0,
						"toolbarvisible" : 1,
						"boxanimatetime" : 200,
						"imprint" : 0,
						"boxes" : [ 							{
								"box" : 								{
									"maxclass" : "newobj",
									"text" : "pack 1 0. 1. 1.",
									"numoutlets" : 1,
									"patching_rect" : [ 25.0, 64.0, 75.0, 17.0 ],
									"fontname" : "Arial Bold",
									"id" : "obj-1",
									"outlettype" : [ "" ],
									"fontsize" : 9.0,
									"numinlets" : 4
								}

							}
, 							{
								"box" : 								{
									"maxclass" : "inlet",
									"numoutlets" : 1,
									"patching_rect" : [ 25.0, 22.0, 15.0, 15.0 ],
									"id" : "obj-2",
									"outlettype" : [ "" ],
									"numinlets" : 0,
									"comment" : ""
								}

							}
, 							{
								"box" : 								{
									"maxclass" : "outlet",
									"numoutlets" : 0,
									"patching_rect" : [ 40.0, 389.0, 15.0, 15.0 ],
									"id" : "obj-3",
									"numinlets" : 1,
									"comment" : ""
								}

							}
, 							{
								"box" : 								{
									"maxclass" : "newobj",
									"text" : "zl group",
									"numoutlets" : 2,
									"patching_rect" : [ 40.0, 347.0, 45.0, 17.0 ],
									"fontname" : "Arial Bold",
									"id" : "obj-4",
									"outlettype" : [ "", "" ],
									"fontsize" : 9.0,
									"numinlets" : 2
								}

							}
, 							{
								"box" : 								{
									"maxclass" : "newobj",
									"text" : "loadmess 1.",
									"numoutlets" : 1,
									"patching_rect" : [ 256.0, 256.0, 63.0, 17.0 ],
									"fontname" : "Arial Bold",
									"id" : "obj-5",
									"outlettype" : [ "" ],
									"fontsize" : 9.0,
									"numinlets" : 1
								}

							}
, 							{
								"box" : 								{
									"maxclass" : "newobj",
									"text" : "scale 0. 1. 0. 1.",
									"numoutlets" : 1,
									"patching_rect" : [ 55.0, 314.0, 150.0, 17.0 ],
									"fontname" : "Arial Bold",
									"id" : "obj-6",
									"outlettype" : [ "float" ],
									"fontsize" : 9.0,
									"numinlets" : 6
								}

							}
, 							{
								"box" : 								{
									"maxclass" : "newobj",
									"text" : "expr pow($f1\\, max($f2\\, 0.000001))",
									"numoutlets" : 1,
									"patching_rect" : [ 55.0, 293.0, 193.0, 17.0 ],
									"fontname" : "Arial Bold",
									"id" : "obj-7",
									"outlettype" : [ "" ],
									"fontsize" : 9.0,
									"numinlets" : 2
								}

							}
, 							{
								"box" : 								{
									"maxclass" : "newobj",
									"text" : "scale 0. 1. 0. 1.",
									"numoutlets" : 1,
									"patching_rect" : [ 55.0, 272.0, 80.0, 17.0 ],
									"fontname" : "Arial Bold",
									"id" : "obj-8",
									"outlettype" : [ "float" ],
									"fontsize" : 9.0,
									"numinlets" : 6
								}

							}
, 							{
								"box" : 								{
									"maxclass" : "newobj",
									"text" : "unpack 1 0. 1. 1.",
									"numoutlets" : 4,
									"patching_rect" : [ 25.0, 85.0, 224.0, 17.0 ],
									"fontname" : "Arial Bold",
									"id" : "obj-9",
									"outlettype" : [ "int", "float", "float", "float" ],
									"fontsize" : 9.0,
									"numinlets" : 1
								}

							}
, 							{
								"box" : 								{
									"maxclass" : "newobj",
									"text" : "+ 0.",
									"numoutlets" : 1,
									"patching_rect" : [ 55.0, 251.0, 51.0, 17.0 ],
									"fontname" : "Arial Bold",
									"id" : "obj-10",
									"outlettype" : [ "float" ],
									"fontsize" : 9.0,
									"numinlets" : 2
								}

							}
, 							{
								"box" : 								{
									"maxclass" : "newobj",
									"text" : "* 1.",
									"numoutlets" : 1,
									"patching_rect" : [ 55.0, 230.0, 27.0, 17.0 ],
									"fontname" : "Arial Bold",
									"id" : "obj-11",
									"outlettype" : [ "float" ],
									"fontsize" : 9.0,
									"numinlets" : 2
								}

							}
, 							{
								"box" : 								{
									"maxclass" : "newobj",
									"text" : "- 1",
									"numoutlets" : 1,
									"patching_rect" : [ 55.0, 209.0, 27.0, 17.0 ],
									"fontname" : "Arial Bold",
									"id" : "obj-12",
									"outlettype" : [ "int" ],
									"fontsize" : 9.0,
									"numinlets" : 2
								}

							}
, 							{
								"box" : 								{
									"maxclass" : "newobj",
									"text" : "uzi",
									"numoutlets" : 3,
									"patching_rect" : [ 25.0, 188.0, 40.0, 17.0 ],
									"fontname" : "Arial Bold",
									"id" : "obj-13",
									"outlettype" : [ "bang", "bang", "int" ],
									"fontsize" : 9.0,
									"numinlets" : 2
								}

							}
, 							{
								"box" : 								{
									"maxclass" : "newobj",
									"text" : "expr int($f2/$f1+0.5)+1",
									"numoutlets" : 1,
									"patching_rect" : [ 25.0, 146.0, 125.0, 17.0 ],
									"fontname" : "Arial Bold",
									"id" : "obj-14",
									"outlettype" : [ "" ],
									"fontsize" : 9.0,
									"numinlets" : 2
								}

							}
, 							{
								"box" : 								{
									"maxclass" : "newobj",
									"text" : "t b i",
									"numoutlets" : 2,
									"patching_rect" : [ 25.0, 167.0, 40.0, 17.0 ],
									"fontname" : "Arial Bold",
									"id" : "obj-15",
									"outlettype" : [ "bang", "int" ],
									"fontsize" : 9.0,
									"numinlets" : 1
								}

							}
, 							{
								"box" : 								{
									"maxclass" : "newobj",
									"text" : "expr abs($f2-$f1)",
									"numoutlets" : 1,
									"patching_rect" : [ 140.0, 125.0, 92.0, 17.0 ],
									"fontname" : "Arial Bold",
									"id" : "obj-16",
									"outlettype" : [ "" ],
									"fontsize" : 9.0,
									"numinlets" : 2
								}

							}
 ],
						"lines" : [ 							{
								"patchline" : 								{
									"source" : [ "obj-2", 0 ],
									"destination" : [ "obj-1", 0 ],
									"hidden" : 0,
									"midpoints" : [  ]
								}

							}
, 							{
								"patchline" : 								{
									"source" : [ "obj-1", 0 ],
									"destination" : [ "obj-9", 0 ],
									"hidden" : 0,
									"midpoints" : [  ]
								}

							}
, 							{
								"patchline" : 								{
									"source" : [ "obj-9", 0 ],
									"destination" : [ "obj-14", 0 ],
									"hidden" : 0,
									"midpoints" : [  ]
								}

							}
, 							{
								"patchline" : 								{
									"source" : [ "obj-14", 0 ],
									"destination" : [ "obj-15", 0 ],
									"hidden" : 0,
									"midpoints" : [  ]
								}

							}
, 							{
								"patchline" : 								{
									"source" : [ "obj-15", 0 ],
									"destination" : [ "obj-13", 0 ],
									"hidden" : 0,
									"midpoints" : [  ]
								}

							}
, 							{
								"patchline" : 								{
									"source" : [ "obj-6", 0 ],
									"destination" : [ "obj-4", 0 ],
									"hidden" : 0,
									"midpoints" : [  ]
								}

							}
, 							{
								"patchline" : 								{
									"source" : [ "obj-13", 1 ],
									"destination" : [ "obj-4", 0 ],
									"hidden" : 0,
									"midpoints" : [  ]
								}

							}
, 							{
								"patchline" : 								{
									"source" : [ "obj-4", 0 ],
									"destination" : [ "obj-3", 0 ],
									"hidden" : 0,
									"midpoints" : [  ]
								}

							}
, 							{
								"patchline" : 								{
									"source" : [ "obj-15", 1 ],
									"destination" : [ "obj-13", 1 ],
									"hidden" : 0,
									"midpoints" : [  ]
								}

							}
, 							{
								"patchline" : 								{
									"source" : [ "obj-13", 2 ],
									"destination" : [ "obj-12", 0 ],
									"hidden" : 0,
									"midpoints" : [  ]
								}

							}
, 							{
								"patchline" : 								{
									"source" : [ "obj-12", 0 ],
									"destination" : [ "obj-11", 0 ],
									"hidden" : 0,
									"midpoints" : [  ]
								}

							}
, 							{
								"patchline" : 								{
									"source" : [ "obj-11", 0 ],
									"destination" : [ "obj-10", 0 ],
									"hidden" : 0,
									"midpoints" : [  ]
								}

							}
, 							{
								"patchline" : 								{
									"source" : [ "obj-10", 0 ],
									"destination" : [ "obj-8", 0 ],
									"hidden" : 0,
									"midpoints" : [  ]
								}

							}
, 							{
								"patchline" : 								{
									"source" : [ "obj-8", 0 ],
									"destination" : [ "obj-7", 0 ],
									"hidden" : 0,
									"midpoints" : [  ]
								}

							}
, 							{
								"patchline" : 								{
									"source" : [ "obj-7", 0 ],
									"destination" : [ "obj-6", 0 ],
									"hidden" : 0,
									"midpoints" : [  ]
								}

							}
, 							{
								"patchline" : 								{
									"source" : [ "obj-9", 1 ],
									"destination" : [ "obj-8", 1 ],
									"hidden" : 0,
									"midpoints" : [  ]
								}

							}
, 							{
								"patchline" : 								{
									"source" : [ "obj-9", 0 ],
									"destination" : [ "obj-11", 1 ],
									"hidden" : 0,
									"midpoints" : [  ]
								}

							}
, 							{
								"patchline" : 								{
									"source" : [ "obj-9", 2 ],
									"destination" : [ "obj-8", 2 ],
									"hidden" : 0,
									"midpoints" : [  ]
								}

							}
, 							{
								"patchline" : 								{
									"source" : [ "obj-9", 1 ],
									"destination" : [ "obj-10", 1 ],
									"hidden" : 0,
									"midpoints" : [  ]
								}

							}
, 							{
								"patchline" : 								{
									"source" : [ "obj-9", 1 ],
									"destination" : [ "obj-6", 3 ],
									"hidden" : 0,
									"midpoints" : [  ]
								}

							}
, 							{
								"patchline" : 								{
									"source" : [ "obj-9", 1 ],
									"destination" : [ "obj-16", 0 ],
									"hidden" : 0,
									"midpoints" : [  ]
								}

							}
, 							{
								"patchline" : 								{
									"source" : [ "obj-16", 0 ],
									"destination" : [ "obj-14", 1 ],
									"hidden" : 0,
									"midpoints" : [  ]
								}

							}
, 							{
								"patchline" : 								{
									"source" : [ "obj-9", 2 ],
									"destination" : [ "obj-6", 4 ],
									"hidden" : 0,
									"midpoints" : [  ]
								}

							}
, 							{
								"patchline" : 								{
									"source" : [ "obj-9", 2 ],
									"destination" : [ "obj-16", 1 ],
									"hidden" : 0,
									"midpoints" : [  ]
								}

							}
, 							{
								"patchline" : 								{
									"source" : [ "obj-5", 0 ],
									"destination" : [ "obj-7", 1 ],
									"hidden" : 0,
									"midpoints" : [  ]
								}

							}
, 							{
								"patchline" : 								{
									"source" : [ "obj-9", 3 ],
									"destination" : [ "obj-7", 1 ],
									"hidden" : 0,
									"midpoints" : [  ]
								}

							}
 ]
					}
,
					"saved_object_attributes" : 					{
						"default_fontface" : 0,
						"default_fontname" : "Arial Bold",
						"fontname" : "Arial Bold",
						"default_fontsize" : 10.0,
						"globalpatchername" : "",
						"fontface" : 0,
						"fontsize" : 10.0
					}

				}

			}
, 			{
				"box" : 				{
					"maxclass" : "newobj",
					"text" : "p range",
					"numoutlets" : 1,
					"patching_rect" : [ 152.0, 218.0, 48.0, 18.0 ],
					"fontname" : "Arial Bold",
					"id" : "obj-37",
					"outlettype" : [ "" ],
					"fontsize" : 10.0,
					"numinlets" : 1,
					"patcher" : 					{
						"fileversion" : 1,
						"rect" : [ 20.0, 74.0, 367.0, 462.0 ],
						"bglocked" : 0,
						"defrect" : [ 20.0, 74.0, 367.0, 462.0 ],
						"openrect" : [ 0.0, 0.0, 0.0, 0.0 ],
						"openinpresentation" : 0,
						"default_fontsize" : 10.0,
						"default_fontface" : 0,
						"default_fontname" : "Arial Bold",
						"gridonopen" : 0,
						"gridsize" : [ 8.0, 8.0 ],
						"gridsnaponopen" : 0,
						"toolbarvisible" : 1,
						"boxanimatetime" : 200,
						"imprint" : 0,
						"boxes" : [ 							{
								"box" : 								{
									"maxclass" : "newobj",
									"text" : "pack 1 0. 1. 1.",
									"numoutlets" : 1,
									"patching_rect" : [ 56.0, 85.0, 75.0, 17.0 ],
									"fontname" : "Arial Bold",
									"id" : "obj-1",
									"outlettype" : [ "" ],
									"fontsize" : 9.0,
									"numinlets" : 4
								}

							}
, 							{
								"box" : 								{
									"maxclass" : "inlet",
									"numoutlets" : 1,
									"patching_rect" : [ 26.0, 22.0, 15.0, 15.0 ],
									"id" : "obj-2",
									"outlettype" : [ "" ],
									"numinlets" : 0,
									"comment" : ""
								}

							}
, 							{
								"box" : 								{
									"maxclass" : "outlet",
									"numoutlets" : 0,
									"patching_rect" : [ 41.0, 376.0, 15.0, 15.0 ],
									"id" : "obj-3",
									"numinlets" : 1,
									"comment" : ""
								}

							}
, 							{
								"box" : 								{
									"maxclass" : "newobj",
									"text" : "zl group",
									"numoutlets" : 2,
									"patching_rect" : [ 41.0, 334.0, 45.0, 17.0 ],
									"fontname" : "Arial Bold",
									"id" : "obj-4",
									"outlettype" : [ "", "" ],
									"fontsize" : 9.0,
									"numinlets" : 2
								}

							}
, 							{
								"box" : 								{
									"maxclass" : "newobj",
									"text" : "loadmess 1.",
									"numoutlets" : 1,
									"patching_rect" : [ 257.0, 241.0, 63.0, 17.0 ],
									"fontname" : "Arial Bold",
									"id" : "obj-5",
									"outlettype" : [ "" ],
									"fontsize" : 9.0,
									"numinlets" : 1
								}

							}
, 							{
								"box" : 								{
									"maxclass" : "newobj",
									"text" : "scale 0. 1. 0. 1.",
									"numoutlets" : 1,
									"patching_rect" : [ 56.0, 301.0, 160.0, 17.0 ],
									"fontname" : "Arial Bold",
									"id" : "obj-6",
									"outlettype" : [ "float" ],
									"fontsize" : 9.0,
									"numinlets" : 6
								}

							}
, 							{
								"box" : 								{
									"maxclass" : "newobj",
									"text" : "expr pow($f1\\, max($f2\\, 0.000001))",
									"numoutlets" : 1,
									"patching_rect" : [ 56.0, 280.0, 190.0, 17.0 ],
									"fontname" : "Arial Bold",
									"id" : "obj-7",
									"outlettype" : [ "" ],
									"fontsize" : 9.0,
									"numinlets" : 2
								}

							}
, 							{
								"box" : 								{
									"maxclass" : "newobj",
									"text" : "scale 0. 1. 0. 1.",
									"numoutlets" : 1,
									"patching_rect" : [ 56.0, 259.0, 80.0, 17.0 ],
									"fontname" : "Arial Bold",
									"id" : "obj-8",
									"outlettype" : [ "float" ],
									"fontsize" : 9.0,
									"numinlets" : 6
								}

							}
, 							{
								"box" : 								{
									"maxclass" : "newobj",
									"text" : "unpack 1 0. 1. 1.",
									"numoutlets" : 4,
									"patching_rect" : [ 56.0, 106.0, 190.0, 17.0 ],
									"fontname" : "Arial Bold",
									"id" : "obj-9",
									"outlettype" : [ "int", "float", "float", "float" ],
									"fontsize" : 9.0,
									"numinlets" : 1
								}

							}
, 							{
								"box" : 								{
									"maxclass" : "newobj",
									"text" : "- 0.",
									"numoutlets" : 1,
									"patching_rect" : [ 56.0, 238.0, 56.0, 17.0 ],
									"fontname" : "Arial Bold",
									"id" : "obj-10",
									"outlettype" : [ "float" ],
									"fontsize" : 9.0,
									"numinlets" : 2
								}

							}
, 							{
								"box" : 								{
									"maxclass" : "newobj",
									"text" : "- 1",
									"numoutlets" : 1,
									"patching_rect" : [ 73.0, 141.0, 27.0, 17.0 ],
									"fontname" : "Arial Bold",
									"id" : "obj-11",
									"outlettype" : [ "int" ],
									"fontsize" : 9.0,
									"numinlets" : 2
								}

							}
, 							{
								"box" : 								{
									"maxclass" : "newobj",
									"text" : "+ 0.",
									"numoutlets" : 1,
									"patching_rect" : [ 56.0, 217.0, 70.0, 17.0 ],
									"fontname" : "Arial Bold",
									"id" : "obj-12",
									"outlettype" : [ "float" ],
									"fontsize" : 9.0,
									"numinlets" : 2
								}

							}
, 							{
								"box" : 								{
									"maxclass" : "newobj",
									"text" : "* 1.",
									"numoutlets" : 1,
									"patching_rect" : [ 56.0, 196.0, 27.0, 17.0 ],
									"fontname" : "Arial Bold",
									"id" : "obj-13",
									"outlettype" : [ "float" ],
									"fontsize" : 9.0,
									"numinlets" : 2
								}

							}
, 							{
								"box" : 								{
									"maxclass" : "newobj",
									"text" : "expr $f2/$f1",
									"numoutlets" : 1,
									"patching_rect" : [ 73.0, 162.0, 71.0, 17.0 ],
									"fontname" : "Arial Bold",
									"id" : "obj-14",
									"outlettype" : [ "" ],
									"fontsize" : 9.0,
									"numinlets" : 2
								}

							}
, 							{
								"box" : 								{
									"maxclass" : "newobj",
									"text" : "expr abs($f2-$f1)",
									"numoutlets" : 1,
									"patching_rect" : [ 134.0, 141.0, 93.0, 17.0 ],
									"fontname" : "Arial Bold",
									"id" : "obj-15",
									"outlettype" : [ "" ],
									"fontsize" : 9.0,
									"numinlets" : 2
								}

							}
, 							{
								"box" : 								{
									"maxclass" : "newobj",
									"text" : "t b l",
									"numoutlets" : 2,
									"patching_rect" : [ 26.0, 64.0, 40.0, 17.0 ],
									"fontname" : "Arial Bold",
									"id" : "obj-16",
									"outlettype" : [ "bang", "" ],
									"fontsize" : 9.0,
									"numinlets" : 1
								}

							}
, 							{
								"box" : 								{
									"maxclass" : "newobj",
									"text" : "uzi 1",
									"numoutlets" : 3,
									"patching_rect" : [ 26.0, 141.0, 40.0, 17.0 ],
									"fontname" : "Arial Bold",
									"id" : "obj-17",
									"outlettype" : [ "bang", "bang", "int" ],
									"fontsize" : 9.0,
									"numinlets" : 2
								}

							}
 ],
						"lines" : [ 							{
								"patchline" : 								{
									"source" : [ "obj-2", 0 ],
									"destination" : [ "obj-16", 0 ],
									"hidden" : 0,
									"midpoints" : [  ]
								}

							}
, 							{
								"patchline" : 								{
									"source" : [ "obj-16", 0 ],
									"destination" : [ "obj-17", 0 ],
									"hidden" : 0,
									"midpoints" : [  ]
								}

							}
, 							{
								"patchline" : 								{
									"source" : [ "obj-6", 0 ],
									"destination" : [ "obj-4", 0 ],
									"hidden" : 0,
									"midpoints" : [  ]
								}

							}
, 							{
								"patchline" : 								{
									"source" : [ "obj-17", 1 ],
									"destination" : [ "obj-4", 0 ],
									"hidden" : 0,
									"midpoints" : [  ]
								}

							}
, 							{
								"patchline" : 								{
									"source" : [ "obj-4", 0 ],
									"destination" : [ "obj-3", 0 ],
									"hidden" : 0,
									"midpoints" : [  ]
								}

							}
, 							{
								"patchline" : 								{
									"source" : [ "obj-16", 1 ],
									"destination" : [ "obj-1", 0 ],
									"hidden" : 0,
									"midpoints" : [  ]
								}

							}
, 							{
								"patchline" : 								{
									"source" : [ "obj-1", 0 ],
									"destination" : [ "obj-9", 0 ],
									"hidden" : 0,
									"midpoints" : [  ]
								}

							}
, 							{
								"patchline" : 								{
									"source" : [ "obj-9", 0 ],
									"destination" : [ "obj-17", 1 ],
									"hidden" : 0,
									"midpoints" : [  ]
								}

							}
, 							{
								"patchline" : 								{
									"source" : [ "obj-17", 2 ],
									"destination" : [ "obj-13", 0 ],
									"hidden" : 0,
									"midpoints" : [  ]
								}

							}
, 							{
								"patchline" : 								{
									"source" : [ "obj-13", 0 ],
									"destination" : [ "obj-12", 0 ],
									"hidden" : 0,
									"midpoints" : [  ]
								}

							}
, 							{
								"patchline" : 								{
									"source" : [ "obj-12", 0 ],
									"destination" : [ "obj-10", 0 ],
									"hidden" : 0,
									"midpoints" : [  ]
								}

							}
, 							{
								"patchline" : 								{
									"source" : [ "obj-10", 0 ],
									"destination" : [ "obj-8", 0 ],
									"hidden" : 0,
									"midpoints" : [  ]
								}

							}
, 							{
								"patchline" : 								{
									"source" : [ "obj-8", 0 ],
									"destination" : [ "obj-7", 0 ],
									"hidden" : 0,
									"midpoints" : [  ]
								}

							}
, 							{
								"patchline" : 								{
									"source" : [ "obj-7", 0 ],
									"destination" : [ "obj-6", 0 ],
									"hidden" : 0,
									"midpoints" : [  ]
								}

							}
, 							{
								"patchline" : 								{
									"source" : [ "obj-9", 1 ],
									"destination" : [ "obj-8", 1 ],
									"hidden" : 0,
									"midpoints" : [  ]
								}

							}
, 							{
								"patchline" : 								{
									"source" : [ "obj-9", 0 ],
									"destination" : [ "obj-11", 0 ],
									"hidden" : 0,
									"midpoints" : [  ]
								}

							}
, 							{
								"patchline" : 								{
									"source" : [ "obj-11", 0 ],
									"destination" : [ "obj-14", 0 ],
									"hidden" : 0,
									"midpoints" : [  ]
								}

							}
, 							{
								"patchline" : 								{
									"source" : [ "obj-14", 0 ],
									"destination" : [ "obj-13", 1 ],
									"hidden" : 0,
									"midpoints" : [  ]
								}

							}
, 							{
								"patchline" : 								{
									"source" : [ "obj-9", 2 ],
									"destination" : [ "obj-8", 2 ],
									"hidden" : 0,
									"midpoints" : [  ]
								}

							}
, 							{
								"patchline" : 								{
									"source" : [ "obj-14", 0 ],
									"destination" : [ "obj-10", 1 ],
									"hidden" : 0,
									"midpoints" : [  ]
								}

							}
, 							{
								"patchline" : 								{
									"source" : [ "obj-9", 1 ],
									"destination" : [ "obj-12", 1 ],
									"hidden" : 0,
									"midpoints" : [  ]
								}

							}
, 							{
								"patchline" : 								{
									"source" : [ "obj-9", 1 ],
									"destination" : [ "obj-15", 0 ],
									"hidden" : 0,
									"midpoints" : [  ]
								}

							}
, 							{
								"patchline" : 								{
									"source" : [ "obj-15", 0 ],
									"destination" : [ "obj-14", 1 ],
									"hidden" : 0,
									"midpoints" : [  ]
								}

							}
, 							{
								"patchline" : 								{
									"source" : [ "obj-9", 1 ],
									"destination" : [ "obj-6", 3 ],
									"hidden" : 0,
									"midpoints" : [  ]
								}

							}
, 							{
								"patchline" : 								{
									"source" : [ "obj-9", 2 ],
									"destination" : [ "obj-6", 4 ],
									"hidden" : 0,
									"midpoints" : [  ]
								}

							}
, 							{
								"patchline" : 								{
									"source" : [ "obj-9", 2 ],
									"destination" : [ "obj-15", 1 ],
									"hidden" : 0,
									"midpoints" : [  ]
								}

							}
, 							{
								"patchline" : 								{
									"source" : [ "obj-9", 3 ],
									"destination" : [ "obj-7", 1 ],
									"hidden" : 0,
									"midpoints" : [  ]
								}

							}
, 							{
								"patchline" : 								{
									"source" : [ "obj-5", 0 ],
									"destination" : [ "obj-7", 1 ],
									"hidden" : 0,
									"midpoints" : [  ]
								}

							}
 ]
					}
,
					"saved_object_attributes" : 					{
						"default_fontface" : 0,
						"default_fontname" : "Arial Bold",
						"fontname" : "Arial Bold",
						"default_fontsize" : 10.0,
						"globalpatchername" : "",
						"fontface" : 0,
						"fontsize" : 10.0
					}

				}

			}
, 			{
				"box" : 				{
					"maxclass" : "message",
					"text" : "7",
					"numoutlets" : 1,
					"patching_rect" : [ 248.0, 330.0, 23.5, 16.0 ],
					"fontname" : "Arial Bold",
					"id" : "obj-33",
					"outlettype" : [ "" ],
					"fontsize" : 10.0,
					"numinlets" : 2
				}

			}
, 			{
				"box" : 				{
					"maxclass" : "message",
					"text" : "6",
					"numoutlets" : 1,
					"patching_rect" : [ 216.0, 330.0, 23.5, 16.0 ],
					"fontname" : "Arial Bold",
					"id" : "obj-32",
					"outlettype" : [ "" ],
					"fontsize" : 10.0,
					"numinlets" : 2
				}

			}
, 			{
				"box" : 				{
					"maxclass" : "message",
					"text" : "5",
					"numoutlets" : 1,
					"patching_rect" : [ 184.0, 330.0, 23.5, 16.0 ],
					"fontname" : "Arial Bold",
					"id" : "obj-31",
					"outlettype" : [ "" ],
					"fontsize" : 10.0,
					"numinlets" : 2
				}

			}
, 			{
				"box" : 				{
					"maxclass" : "message",
					"text" : "4",
					"numoutlets" : 1,
					"patching_rect" : [ 152.0, 330.0, 23.5, 16.0 ],
					"fontname" : "Arial Bold",
					"id" : "obj-30",
					"outlettype" : [ "" ],
					"fontsize" : 10.0,
					"numinlets" : 2
				}

			}
, 			{
				"box" : 				{
					"maxclass" : "message",
					"text" : "3",
					"numoutlets" : 1,
					"patching_rect" : [ 120.0, 330.0, 23.5, 16.0 ],
					"fontname" : "Arial Bold",
					"id" : "obj-29",
					"outlettype" : [ "" ],
					"fontsize" : 10.0,
					"numinlets" : 2
				}

			}
, 			{
				"box" : 				{
					"maxclass" : "message",
					"text" : "2",
					"numoutlets" : 1,
					"patching_rect" : [ 88.0, 330.0, 23.5, 16.0 ],
					"fontname" : "Arial Bold",
					"id" : "obj-28",
					"outlettype" : [ "" ],
					"fontsize" : 10.0,
					"numinlets" : 2
				}

			}
, 			{
				"box" : 				{
					"maxclass" : "message",
					"text" : "1",
					"numoutlets" : 1,
					"patching_rect" : [ 56.0, 330.0, 23.5, 16.0 ],
					"fontname" : "Arial Bold",
					"id" : "obj-27",
					"outlettype" : [ "" ],
					"fontsize" : 10.0,
					"numinlets" : 2
				}

			}
, 			{
				"box" : 				{
					"maxclass" : "newobj",
					"text" : "sel random urn seq> seq< seq>< neigh other reset",
					"numoutlets" : 9,
					"patching_rect" : [ 56.0, 306.0, 275.0, 18.0 ],
					"fontname" : "Arial Bold",
					"id" : "obj-25",
					"outlettype" : [ "bang", "bang", "bang", "bang", "bang", "bang", "bang", "bang", "" ],
					"fontsize" : 10.0,
					"numinlets" : 1
				}

			}
, 			{
				"box" : 				{
					"maxclass" : "newobj",
					"text" : "gate 7",
					"numoutlets" : 7,
					"patching_rect" : [ 56.0, 368.0, 259.0, 18.0 ],
					"fontname" : "Arial Bold",
					"id" : "obj-24",
					"outlettype" : [ "", "", "", "", "", "", "" ],
					"fontsize" : 10.0,
					"numinlets" : 2
				}

			}
, 			{
				"box" : 				{
					"maxclass" : "newobj",
					"text" : "t b",
					"numoutlets" : 1,
					"patching_rect" : [ 296.0, 168.0, 21.0, 17.0 ],
					"fontname" : "Arial Bold",
					"id" : "obj-9",
					"outlettype" : [ "bang" ],
					"fontsize" : 9.0,
					"numinlets" : 1
				}

			}
, 			{
				"box" : 				{
					"maxclass" : "newobj",
					"text" : "p other",
					"numoutlets" : 1,
					"patching_rect" : [ 296.0, 392.0, 44.0, 18.0 ],
					"fontname" : "Arial Bold",
					"id" : "obj-18",
					"outlettype" : [ "" ],
					"fontsize" : 10.0,
					"numinlets" : 1,
					"patcher" : 					{
						"fileversion" : 1,
						"rect" : [ 20.0, 74.0, 151.0, 216.0 ],
						"bglocked" : 0,
						"defrect" : [ 20.0, 74.0, 151.0, 216.0 ],
						"openrect" : [ 0.0, 0.0, 0.0, 0.0 ],
						"openinpresentation" : 0,
						"default_fontsize" : 10.0,
						"default_fontface" : 0,
						"default_fontname" : "Arial Bold",
						"gridonopen" : 0,
						"gridsize" : [ 8.0, 8.0 ],
						"gridsnaponopen" : 0,
						"toolbarvisible" : 1,
						"boxanimatetime" : 200,
						"imprint" : 0,
						"boxes" : [ 							{
								"box" : 								{
									"maxclass" : "outlet",
									"numoutlets" : 0,
									"patching_rect" : [ 14.0, 166.0, 25.0, 25.0 ],
									"id" : "obj-9",
									"numinlets" : 1,
									"comment" : ""
								}

							}
, 							{
								"box" : 								{
									"maxclass" : "inlet",
									"numoutlets" : 1,
									"patching_rect" : [ 24.0, 16.0, 25.0, 25.0 ],
									"id" : "obj-8",
									"outlettype" : [ "" ],
									"numinlets" : 0,
									"comment" : ""
								}

							}
, 							{
								"box" : 								{
									"maxclass" : "newobj",
									"text" : "t b",
									"numoutlets" : 1,
									"patching_rect" : [ 26.0, 77.0, 21.0, 17.0 ],
									"fontname" : "Arial Bold",
									"id" : "obj-1",
									"outlettype" : [ "bang" ],
									"fontsize" : 9.0,
									"numinlets" : 1
								}

							}
, 							{
								"box" : 								{
									"maxclass" : "newobj",
									"text" : "route bang",
									"numoutlets" : 2,
									"patching_rect" : [ 26.0, 56.0, 57.0, 17.0 ],
									"fontname" : "Arial Bold",
									"id" : "obj-2",
									"outlettype" : [ "", "" ],
									"fontsize" : 9.0,
									"numinlets" : 1
								}

							}
, 							{
								"box" : 								{
									"maxclass" : "newobj",
									"text" : "zl reg",
									"numoutlets" : 2,
									"patching_rect" : [ 24.0, 128.0, 34.0, 17.0 ],
									"fontname" : "Arial Bold",
									"id" : "obj-3",
									"outlettype" : [ "", "" ],
									"fontsize" : 9.0,
									"numinlets" : 2
								}

							}
, 							{
								"box" : 								{
									"maxclass" : "comment",
									"text" : "trigger",
									"numoutlets" : 0,
									"patching_rect" : [ 42.0, 78.0, 42.0, 17.0 ],
									"fontname" : "Arial Bold",
									"id" : "obj-6",
									"fontsize" : 9.0,
									"numinlets" : 1
								}

							}
, 							{
								"box" : 								{
									"maxclass" : "comment",
									"text" : "data",
									"numoutlets" : 0,
									"patching_rect" : [ 82.0, 131.0, 29.0, 17.0 ],
									"fontname" : "Arial Bold",
									"id" : "obj-7",
									"fontsize" : 9.0,
									"numinlets" : 1
								}

							}
 ],
						"lines" : [ 							{
								"patchline" : 								{
									"source" : [ "obj-1", 0 ],
									"destination" : [ "obj-3", 0 ],
									"hidden" : 0,
									"midpoints" : [  ]
								}

							}
, 							{
								"patchline" : 								{
									"source" : [ "obj-2", 1 ],
									"destination" : [ "obj-3", 1 ],
									"hidden" : 0,
									"midpoints" : [  ]
								}

							}
, 							{
								"patchline" : 								{
									"source" : [ "obj-3", 0 ],
									"destination" : [ "obj-9", 0 ],
									"hidden" : 0,
									"midpoints" : [  ]
								}

							}
, 							{
								"patchline" : 								{
									"source" : [ "obj-8", 0 ],
									"destination" : [ "obj-2", 0 ],
									"hidden" : 0,
									"midpoints" : [  ]
								}

							}
, 							{
								"patchline" : 								{
									"source" : [ "obj-2", 0 ],
									"destination" : [ "obj-1", 0 ],
									"hidden" : 0,
									"midpoints" : [  ]
								}

							}
 ]
					}
,
					"saved_object_attributes" : 					{
						"default_fontface" : 0,
						"default_fontname" : "Arial Bold",
						"fontname" : "Arial Bold",
						"default_fontsize" : 10.0,
						"globalpatchername" : "",
						"fontface" : 0,
						"fontsize" : 10.0
					}

				}

			}
, 			{
				"box" : 				{
					"maxclass" : "newobj",
					"text" : "p neigh",
					"numoutlets" : 1,
					"patching_rect" : [ 272.0, 416.0, 46.0, 18.0 ],
					"fontname" : "Arial Bold",
					"id" : "obj-19",
					"outlettype" : [ "" ],
					"fontsize" : 10.0,
					"numinlets" : 1,
					"patcher" : 					{
						"fileversion" : 1,
						"rect" : [ 359.0, 452.0, 276.0, 369.0 ],
						"bglocked" : 0,
						"defrect" : [ 359.0, 452.0, 276.0, 369.0 ],
						"openrect" : [ 0.0, 0.0, 0.0, 0.0 ],
						"openinpresentation" : 0,
						"default_fontsize" : 10.0,
						"default_fontface" : 0,
						"default_fontname" : "Arial Bold",
						"gridonopen" : 0,
						"gridsize" : [ 8.0, 8.0 ],
						"gridsnaponopen" : 0,
						"toolbarvisible" : 1,
						"boxanimatetime" : 200,
						"imprint" : 0,
						"boxes" : [ 							{
								"box" : 								{
									"maxclass" : "outlet",
									"numoutlets" : 0,
									"patching_rect" : [ 40.0, 312.0, 25.0, 25.0 ],
									"id" : "obj-19",
									"numinlets" : 1,
									"comment" : ""
								}

							}
, 							{
								"box" : 								{
									"maxclass" : "inlet",
									"numoutlets" : 1,
									"patching_rect" : [ 56.0, 16.0, 25.0, 25.0 ],
									"id" : "obj-18",
									"outlettype" : [ "" ],
									"numinlets" : 0,
									"comment" : ""
								}

							}
, 							{
								"box" : 								{
									"maxclass" : "newobj",
									"text" : "expr ($i1+$i2+1)%($i3+1)",
									"numoutlets" : 1,
									"patching_rect" : [ 62.0, 195.0, 132.0, 17.0 ],
									"fontname" : "Arial Bold",
									"id" : "obj-1",
									"outlettype" : [ "" ],
									"fontsize" : 9.0,
									"numinlets" : 3
								}

							}
, 							{
								"box" : 								{
									"maxclass" : "number",
									"triscale" : 0.9,
									"numoutlets" : 2,
									"patching_rect" : [ 64.0, 216.0, 35.0, 17.0 ],
									"fontname" : "Arial Bold",
									"id" : "obj-2",
									"outlettype" : [ "int", "bang" ],
									"htextcolor" : [ 0.870588, 0.870588, 0.870588, 1.0 ],
									"fontsize" : 9.0,
									"bgcolor" : [ 0.866667, 0.866667, 0.866667, 1.0 ],
									"numinlets" : 1
								}

							}
, 							{
								"box" : 								{
									"maxclass" : "newobj",
									"text" : "random",
									"numoutlets" : 1,
									"patching_rect" : [ 62.0, 173.0, 74.0, 17.0 ],
									"fontname" : "Arial Bold",
									"id" : "obj-3",
									"outlettype" : [ "int" ],
									"fontsize" : 9.0,
									"numinlets" : 2
								}

							}
, 							{
								"box" : 								{
									"maxclass" : "newobj",
									"text" : "- 1",
									"numoutlets" : 1,
									"patching_rect" : [ 126.0, 148.0, 27.0, 17.0 ],
									"fontname" : "Arial Bold",
									"id" : "obj-4",
									"outlettype" : [ "int" ],
									"fontsize" : 9.0,
									"numinlets" : 2
								}

							}
, 							{
								"box" : 								{
									"maxclass" : "comment",
									"text" : "ordered profile data",
									"numoutlets" : 0,
									"patching_rect" : [ 130.0, 280.0, 100.0, 17.0 ],
									"fontname" : "Arial Bold",
									"id" : "obj-5",
									"fontsize" : 9.0,
									"numinlets" : 1
								}

							}
, 							{
								"box" : 								{
									"maxclass" : "comment",
									"text" : "profile index",
									"numoutlets" : 0,
									"patching_rect" : [ 98.0, 216.0, 67.0, 17.0 ],
									"fontname" : "Arial Bold",
									"id" : "obj-6",
									"fontsize" : 9.0,
									"numinlets" : 1
								}

							}
, 							{
								"box" : 								{
									"maxclass" : "comment",
									"text" : "profile length",
									"numoutlets" : 0,
									"patching_rect" : [ 162.0, 129.0, 70.0, 17.0 ],
									"fontname" : "Arial Bold",
									"id" : "obj-7",
									"fontsize" : 9.0,
									"numinlets" : 1
								}

							}
, 							{
								"box" : 								{
									"maxclass" : "comment",
									"text" : "profile data",
									"numoutlets" : 0,
									"patching_rect" : [ 137.0, 87.0, 62.0, 17.0 ],
									"fontname" : "Arial Bold",
									"id" : "obj-8",
									"fontsize" : 9.0,
									"numinlets" : 1
								}

							}
, 							{
								"box" : 								{
									"maxclass" : "newobj",
									"text" : "route bang",
									"numoutlets" : 2,
									"patching_rect" : [ 62.0, 64.0, 57.0, 17.0 ],
									"fontname" : "Arial Bold",
									"id" : "obj-10",
									"outlettype" : [ "", "" ],
									"fontsize" : 9.0,
									"numinlets" : 1
								}

							}
, 							{
								"box" : 								{
									"maxclass" : "newobj",
									"text" : "t l l",
									"numoutlets" : 2,
									"patching_rect" : [ 109.0, 85.0, 27.0, 17.0 ],
									"fontname" : "Arial Bold",
									"id" : "obj-12",
									"outlettype" : [ "", "" ],
									"fontsize" : 9.0,
									"numinlets" : 1
								}

							}
, 							{
								"box" : 								{
									"maxclass" : "newobj",
									"text" : "t b",
									"numoutlets" : 1,
									"patching_rect" : [ 62.0, 85.0, 21.0, 17.0 ],
									"fontname" : "Arial Bold",
									"id" : "obj-13",
									"outlettype" : [ "bang" ],
									"fontsize" : 9.0,
									"numinlets" : 1
								}

							}
, 							{
								"box" : 								{
									"maxclass" : "newobj",
									"text" : "zl lookup",
									"numoutlets" : 2,
									"patching_rect" : [ 62.0, 236.0, 49.0, 17.0 ],
									"fontname" : "Arial Bold",
									"id" : "obj-14",
									"outlettype" : [ "", "" ],
									"fontsize" : 9.0,
									"numinlets" : 2
								}

							}
, 							{
								"box" : 								{
									"maxclass" : "newobj",
									"text" : "zl len",
									"numoutlets" : 2,
									"patching_rect" : [ 126.0, 106.0, 33.0, 17.0 ],
									"fontname" : "Arial Bold",
									"id" : "obj-16",
									"outlettype" : [ "", "" ],
									"fontsize" : 9.0,
									"numinlets" : 2
								}

							}
, 							{
								"box" : 								{
									"maxclass" : "comment",
									"text" : "trigger",
									"numoutlets" : 0,
									"patching_rect" : [ 19.0, 87.0, 42.0, 17.0 ],
									"fontname" : "Arial Bold",
									"id" : "obj-17",
									"fontsize" : 9.0,
									"numinlets" : 1
								}

							}
 ],
						"lines" : [ 							{
								"patchline" : 								{
									"source" : [ "obj-12", 0 ],
									"destination" : [ "obj-14", 1 ],
									"hidden" : 0,
									"midpoints" : [  ]
								}

							}
, 							{
								"patchline" : 								{
									"source" : [ "obj-2", 0 ],
									"destination" : [ "obj-14", 0 ],
									"hidden" : 0,
									"midpoints" : [  ]
								}

							}
, 							{
								"patchline" : 								{
									"source" : [ "obj-14", 0 ],
									"destination" : [ "obj-19", 0 ],
									"hidden" : 0,
									"midpoints" : [  ]
								}

							}
, 							{
								"patchline" : 								{
									"source" : [ "obj-16", 0 ],
									"destination" : [ "obj-4", 0 ],
									"hidden" : 0,
									"midpoints" : [  ]
								}

							}
, 							{
								"patchline" : 								{
									"source" : [ "obj-12", 1 ],
									"destination" : [ "obj-16", 0 ],
									"hidden" : 0,
									"midpoints" : [  ]
								}

							}
, 							{
								"patchline" : 								{
									"source" : [ "obj-18", 0 ],
									"destination" : [ "obj-10", 0 ],
									"hidden" : 0,
									"midpoints" : [  ]
								}

							}
, 							{
								"patchline" : 								{
									"source" : [ "obj-4", 0 ],
									"destination" : [ "obj-1", 2 ],
									"hidden" : 0,
									"midpoints" : [  ]
								}

							}
, 							{
								"patchline" : 								{
									"source" : [ "obj-4", 0 ],
									"destination" : [ "obj-3", 1 ],
									"hidden" : 0,
									"midpoints" : [  ]
								}

							}
, 							{
								"patchline" : 								{
									"source" : [ "obj-2", 0 ],
									"destination" : [ "obj-1", 1 ],
									"hidden" : 0,
									"midpoints" : [  ]
								}

							}
, 							{
								"patchline" : 								{
									"source" : [ "obj-10", 1 ],
									"destination" : [ "obj-12", 0 ],
									"hidden" : 0,
									"midpoints" : [  ]
								}

							}
, 							{
								"patchline" : 								{
									"source" : [ "obj-1", 0 ],
									"destination" : [ "obj-2", 0 ],
									"hidden" : 0,
									"midpoints" : [  ]
								}

							}
, 							{
								"patchline" : 								{
									"source" : [ "obj-3", 0 ],
									"destination" : [ "obj-1", 0 ],
									"hidden" : 0,
									"midpoints" : [  ]
								}

							}
, 							{
								"patchline" : 								{
									"source" : [ "obj-10", 0 ],
									"destination" : [ "obj-13", 0 ],
									"hidden" : 0,
									"midpoints" : [  ]
								}

							}
, 							{
								"patchline" : 								{
									"source" : [ "obj-13", 0 ],
									"destination" : [ "obj-3", 0 ],
									"hidden" : 0,
									"midpoints" : [  ]
								}

							}
 ]
					}
,
					"saved_object_attributes" : 					{
						"default_fontface" : 0,
						"default_fontname" : "Arial Bold",
						"fontname" : "Arial Bold",
						"default_fontsize" : 10.0,
						"globalpatchername" : "",
						"fontface" : 0,
						"fontsize" : 10.0
					}

				}

			}
, 			{
				"box" : 				{
					"maxclass" : "newobj",
					"text" : "p urn",
					"numoutlets" : 1,
					"patching_rect" : [ 96.0, 432.0, 35.0, 18.0 ],
					"fontname" : "Arial Bold",
					"id" : "obj-20",
					"outlettype" : [ "" ],
					"fontsize" : 10.0,
					"numinlets" : 1,
					"patcher" : 					{
						"fileversion" : 1,
						"rect" : [ 26.0, 462.0, 269.0, 320.0 ],
						"bglocked" : 0,
						"defrect" : [ 26.0, 462.0, 269.0, 320.0 ],
						"openrect" : [ 0.0, 0.0, 0.0, 0.0 ],
						"openinpresentation" : 0,
						"default_fontsize" : 10.0,
						"default_fontface" : 0,
						"default_fontname" : "Arial Bold",
						"gridonopen" : 0,
						"gridsize" : [ 8.0, 8.0 ],
						"gridsnaponopen" : 0,
						"toolbarvisible" : 1,
						"boxanimatetime" : 200,
						"imprint" : 0,
						"boxes" : [ 							{
								"box" : 								{
									"maxclass" : "outlet",
									"numoutlets" : 0,
									"patching_rect" : [ 40.0, 248.0, 25.0, 25.0 ],
									"id" : "obj-18",
									"numinlets" : 1,
									"comment" : ""
								}

							}
, 							{
								"box" : 								{
									"maxclass" : "inlet",
									"numoutlets" : 1,
									"patching_rect" : [ 56.0, 24.0, 25.0, 25.0 ],
									"id" : "obj-17",
									"outlettype" : [ "" ],
									"numinlets" : 0,
									"comment" : ""
								}

							}
, 							{
								"box" : 								{
									"maxclass" : "message",
									"text" : "clear, bang",
									"numoutlets" : 1,
									"patching_rect" : [ 125.0, 190.0, 59.0, 15.0 ],
									"fontname" : "Arial Bold",
									"id" : "obj-1",
									"outlettype" : [ "" ],
									"fontsize" : 9.0,
									"numinlets" : 2
								}

							}
, 							{
								"box" : 								{
									"maxclass" : "comment",
									"text" : "ordered profile data",
									"numoutlets" : 0,
									"patching_rect" : [ 136.0, 240.0, 100.0, 17.0 ],
									"fontname" : "Arial Bold",
									"id" : "obj-2",
									"fontsize" : 9.0,
									"numinlets" : 1
								}

							}
, 							{
								"box" : 								{
									"maxclass" : "comment",
									"text" : "profile index",
									"numoutlets" : 0,
									"patching_rect" : [ 98.0, 170.0, 67.0, 17.0 ],
									"fontname" : "Arial Bold",
									"id" : "obj-3",
									"fontsize" : 9.0,
									"numinlets" : 1
								}

							}
, 							{
								"box" : 								{
									"maxclass" : "comment",
									"text" : "profile length",
									"numoutlets" : 0,
									"patching_rect" : [ 161.0, 129.0, 70.0, 17.0 ],
									"fontname" : "Arial Bold",
									"id" : "obj-4",
									"fontsize" : 9.0,
									"numinlets" : 1
								}

							}
, 							{
								"box" : 								{
									"maxclass" : "comment",
									"text" : "profile data",
									"numoutlets" : 0,
									"patching_rect" : [ 136.0, 87.0, 62.0, 17.0 ],
									"fontname" : "Arial Bold",
									"id" : "obj-5",
									"fontsize" : 9.0,
									"numinlets" : 1
								}

							}
, 							{
								"box" : 								{
									"maxclass" : "newobj",
									"text" : "route bang",
									"numoutlets" : 2,
									"patching_rect" : [ 62.0, 64.0, 56.0, 17.0 ],
									"fontname" : "Arial Bold",
									"id" : "obj-7",
									"outlettype" : [ "", "" ],
									"fontsize" : 9.0,
									"numinlets" : 1
								}

							}
, 							{
								"box" : 								{
									"maxclass" : "newobj",
									"text" : "t l l",
									"numoutlets" : 2,
									"patching_rect" : [ 108.0, 85.0, 27.0, 17.0 ],
									"fontname" : "Arial Bold",
									"id" : "obj-9",
									"outlettype" : [ "", "" ],
									"fontsize" : 9.0,
									"numinlets" : 1
								}

							}
, 							{
								"box" : 								{
									"maxclass" : "button",
									"numoutlets" : 1,
									"patching_rect" : [ 62.0, 85.0, 15.0, 15.0 ],
									"id" : "obj-10",
									"outlettype" : [ "bang" ],
									"numinlets" : 1
								}

							}
, 							{
								"box" : 								{
									"maxclass" : "newobj",
									"text" : "zl lookup",
									"numoutlets" : 2,
									"patching_rect" : [ 64.0, 208.0, 49.0, 17.0 ],
									"fontname" : "Arial Bold",
									"id" : "obj-12",
									"outlettype" : [ "", "" ],
									"fontsize" : 9.0,
									"numinlets" : 2
								}

							}
, 							{
								"box" : 								{
									"maxclass" : "newobj",
									"text" : "urn",
									"numoutlets" : 2,
									"patching_rect" : [ 62.0, 148.0, 73.0, 17.0 ],
									"fontname" : "Arial Bold",
									"id" : "obj-13",
									"outlettype" : [ "int", "bang" ],
									"fontsize" : 9.0,
									"numinlets" : 2
								}

							}
, 							{
								"box" : 								{
									"maxclass" : "newobj",
									"text" : "zl len",
									"numoutlets" : 2,
									"patching_rect" : [ 125.0, 106.0, 33.0, 17.0 ],
									"fontname" : "Arial Bold",
									"id" : "obj-15",
									"outlettype" : [ "", "" ],
									"fontsize" : 9.0,
									"numinlets" : 2
								}

							}
, 							{
								"box" : 								{
									"maxclass" : "comment",
									"text" : "trigger",
									"numoutlets" : 0,
									"patching_rect" : [ 19.0, 87.0, 42.0, 17.0 ],
									"fontname" : "Arial Bold",
									"id" : "obj-16",
									"fontsize" : 9.0,
									"numinlets" : 1
								}

							}
 ],
						"lines" : [ 							{
								"patchline" : 								{
									"source" : [ "obj-13", 0 ],
									"destination" : [ "obj-12", 0 ],
									"hidden" : 0,
									"midpoints" : [  ]
								}

							}
, 							{
								"patchline" : 								{
									"source" : [ "obj-9", 0 ],
									"destination" : [ "obj-12", 1 ],
									"hidden" : 0,
									"midpoints" : [  ]
								}

							}
, 							{
								"patchline" : 								{
									"source" : [ "obj-12", 0 ],
									"destination" : [ "obj-18", 0 ],
									"hidden" : 0,
									"midpoints" : [  ]
								}

							}
, 							{
								"patchline" : 								{
									"source" : [ "obj-15", 0 ],
									"destination" : [ "obj-13", 1 ],
									"hidden" : 0,
									"midpoints" : [  ]
								}

							}
, 							{
								"patchline" : 								{
									"source" : [ "obj-9", 1 ],
									"destination" : [ "obj-15", 0 ],
									"hidden" : 0,
									"midpoints" : [  ]
								}

							}
, 							{
								"patchline" : 								{
									"source" : [ "obj-17", 0 ],
									"destination" : [ "obj-7", 0 ],
									"hidden" : 0,
									"midpoints" : [  ]
								}

							}
, 							{
								"patchline" : 								{
									"source" : [ "obj-13", 1 ],
									"destination" : [ "obj-1", 0 ],
									"hidden" : 0,
									"midpoints" : [  ]
								}

							}
, 							{
								"patchline" : 								{
									"source" : [ "obj-7", 1 ],
									"destination" : [ "obj-9", 0 ],
									"hidden" : 0,
									"midpoints" : [  ]
								}

							}
, 							{
								"patchline" : 								{
									"source" : [ "obj-1", 0 ],
									"destination" : [ "obj-13", 0 ],
									"hidden" : 0,
									"midpoints" : [  ]
								}

							}
, 							{
								"patchline" : 								{
									"source" : [ "obj-10", 0 ],
									"destination" : [ "obj-13", 0 ],
									"hidden" : 0,
									"midpoints" : [  ]
								}

							}
, 							{
								"patchline" : 								{
									"source" : [ "obj-7", 0 ],
									"destination" : [ "obj-10", 0 ],
									"hidden" : 0,
									"midpoints" : [  ]
								}

							}
 ]
					}
,
					"saved_object_attributes" : 					{
						"default_fontface" : 0,
						"default_fontname" : "Arial Bold",
						"fontname" : "Arial Bold",
						"default_fontsize" : 10.0,
						"globalpatchername" : "",
						"fontface" : 0,
						"fontsize" : 10.0
					}

				}

			}
, 			{
				"box" : 				{
					"maxclass" : "newobj",
					"text" : "p random",
					"numoutlets" : 1,
					"patching_rect" : [ 56.0, 400.0, 56.0, 18.0 ],
					"fontname" : "Arial Bold",
					"id" : "obj-21",
					"outlettype" : [ "" ],
					"fontsize" : 10.0,
					"numinlets" : 1,
					"patcher" : 					{
						"fileversion" : 1,
						"rect" : [ 80.0, 474.0, 269.0, 320.0 ],
						"bglocked" : 0,
						"defrect" : [ 80.0, 474.0, 269.0, 320.0 ],
						"openrect" : [ 0.0, 0.0, 0.0, 0.0 ],
						"openinpresentation" : 0,
						"default_fontsize" : 10.0,
						"default_fontface" : 0,
						"default_fontname" : "Arial Bold",
						"gridonopen" : 0,
						"gridsize" : [ 8.0, 8.0 ],
						"gridsnaponopen" : 0,
						"toolbarvisible" : 1,
						"boxanimatetime" : 200,
						"imprint" : 0,
						"boxes" : [ 							{
								"box" : 								{
									"maxclass" : "outlet",
									"numoutlets" : 0,
									"patching_rect" : [ 24.0, 224.0, 25.0, 25.0 ],
									"id" : "obj-17",
									"numinlets" : 1,
									"comment" : ""
								}

							}
, 							{
								"box" : 								{
									"maxclass" : "inlet",
									"numoutlets" : 1,
									"patching_rect" : [ 40.0, 32.0, 25.0, 25.0 ],
									"id" : "obj-16",
									"outlettype" : [ "" ],
									"numinlets" : 0,
									"comment" : ""
								}

							}
, 							{
								"box" : 								{
									"maxclass" : "comment",
									"text" : "ordered profile data",
									"numoutlets" : 0,
									"patching_rect" : [ 130.0, 234.0, 100.0, 17.0 ],
									"fontname" : "Arial Bold",
									"id" : "obj-1",
									"fontsize" : 9.0,
									"numinlets" : 1
								}

							}
, 							{
								"box" : 								{
									"maxclass" : "comment",
									"text" : "profile index",
									"numoutlets" : 0,
									"patching_rect" : [ 98.0, 170.0, 67.0, 17.0 ],
									"fontname" : "Arial Bold",
									"id" : "obj-2",
									"fontsize" : 9.0,
									"numinlets" : 1
								}

							}
, 							{
								"box" : 								{
									"maxclass" : "comment",
									"text" : "profile length",
									"numoutlets" : 0,
									"patching_rect" : [ 161.0, 129.0, 70.0, 17.0 ],
									"fontname" : "Arial Bold",
									"id" : "obj-3",
									"fontsize" : 9.0,
									"numinlets" : 1
								}

							}
, 							{
								"box" : 								{
									"maxclass" : "comment",
									"text" : "profile data",
									"numoutlets" : 0,
									"patching_rect" : [ 136.0, 87.0, 62.0, 17.0 ],
									"fontname" : "Arial Bold",
									"id" : "obj-4",
									"fontsize" : 9.0,
									"numinlets" : 1
								}

							}
, 							{
								"box" : 								{
									"maxclass" : "newobj",
									"text" : "route bang",
									"numoutlets" : 2,
									"patching_rect" : [ 62.0, 64.0, 56.0, 17.0 ],
									"fontname" : "Arial Bold",
									"id" : "obj-6",
									"outlettype" : [ "", "" ],
									"fontsize" : 9.0,
									"numinlets" : 1
								}

							}
, 							{
								"box" : 								{
									"maxclass" : "newobj",
									"text" : "t l l",
									"numoutlets" : 2,
									"patching_rect" : [ 108.0, 85.0, 27.0, 17.0 ],
									"fontname" : "Arial Bold",
									"id" : "obj-8",
									"outlettype" : [ "", "" ],
									"fontsize" : 9.0,
									"numinlets" : 1
								}

							}
, 							{
								"box" : 								{
									"maxclass" : "newobj",
									"text" : "t b",
									"numoutlets" : 1,
									"patching_rect" : [ 62.0, 85.0, 21.0, 17.0 ],
									"fontname" : "Arial Bold",
									"id" : "obj-9",
									"outlettype" : [ "bang" ],
									"fontsize" : 9.0,
									"numinlets" : 1
								}

							}
, 							{
								"box" : 								{
									"maxclass" : "newobj",
									"text" : "zl lookup",
									"numoutlets" : 2,
									"patching_rect" : [ 62.0, 190.0, 49.0, 17.0 ],
									"fontname" : "Arial Bold",
									"id" : "obj-11",
									"outlettype" : [ "", "" ],
									"fontsize" : 9.0,
									"numinlets" : 2
								}

							}
, 							{
								"box" : 								{
									"maxclass" : "newobj",
									"text" : "random",
									"numoutlets" : 1,
									"patching_rect" : [ 62.0, 148.0, 73.0, 17.0 ],
									"fontname" : "Arial Bold",
									"id" : "obj-12",
									"outlettype" : [ "int" ],
									"fontsize" : 9.0,
									"numinlets" : 2
								}

							}
, 							{
								"box" : 								{
									"maxclass" : "newobj",
									"text" : "zl len",
									"numoutlets" : 2,
									"patching_rect" : [ 125.0, 106.0, 33.0, 17.0 ],
									"fontname" : "Arial Bold",
									"id" : "obj-14",
									"outlettype" : [ "", "" ],
									"fontsize" : 9.0,
									"numinlets" : 2
								}

							}
, 							{
								"box" : 								{
									"maxclass" : "comment",
									"text" : "trigger",
									"numoutlets" : 0,
									"patching_rect" : [ 19.0, 87.0, 42.0, 17.0 ],
									"fontname" : "Arial Bold",
									"id" : "obj-15",
									"fontsize" : 9.0,
									"numinlets" : 1
								}

							}
 ],
						"lines" : [ 							{
								"patchline" : 								{
									"source" : [ "obj-12", 0 ],
									"destination" : [ "obj-11", 0 ],
									"hidden" : 0,
									"midpoints" : [  ]
								}

							}
, 							{
								"patchline" : 								{
									"source" : [ "obj-8", 0 ],
									"destination" : [ "obj-11", 1 ],
									"hidden" : 0,
									"midpoints" : [  ]
								}

							}
, 							{
								"patchline" : 								{
									"source" : [ "obj-11", 0 ],
									"destination" : [ "obj-17", 0 ],
									"hidden" : 0,
									"midpoints" : [  ]
								}

							}
, 							{
								"patchline" : 								{
									"source" : [ "obj-14", 0 ],
									"destination" : [ "obj-12", 1 ],
									"hidden" : 0,
									"midpoints" : [  ]
								}

							}
, 							{
								"patchline" : 								{
									"source" : [ "obj-8", 1 ],
									"destination" : [ "obj-14", 0 ],
									"hidden" : 0,
									"midpoints" : [  ]
								}

							}
, 							{
								"patchline" : 								{
									"source" : [ "obj-16", 0 ],
									"destination" : [ "obj-6", 0 ],
									"hidden" : 0,
									"midpoints" : [  ]
								}

							}
, 							{
								"patchline" : 								{
									"source" : [ "obj-6", 1 ],
									"destination" : [ "obj-8", 0 ],
									"hidden" : 0,
									"midpoints" : [  ]
								}

							}
, 							{
								"patchline" : 								{
									"source" : [ "obj-6", 0 ],
									"destination" : [ "obj-9", 0 ],
									"hidden" : 0,
									"midpoints" : [  ]
								}

							}
, 							{
								"patchline" : 								{
									"source" : [ "obj-9", 0 ],
									"destination" : [ "obj-12", 0 ],
									"hidden" : 0,
									"midpoints" : [  ]
								}

							}
 ]
					}
,
					"saved_object_attributes" : 					{
						"default_fontface" : 0,
						"default_fontname" : "Arial Bold",
						"fontname" : "Arial Bold",
						"default_fontsize" : 10.0,
						"globalpatchername" : "",
						"fontface" : 0,
						"fontsize" : 10.0
					}

				}

			}
, 			{
				"box" : 				{
					"maxclass" : "newobj",
					"text" : "p seq",
					"numoutlets" : 1,
					"patching_rect" : [ 136.0, 400.0, 139.0, 18.0 ],
					"fontname" : "Arial Bold",
					"id" : "obj-22",
					"outlettype" : [ "" ],
					"fontsize" : 10.0,
					"numinlets" : 4,
					"patcher" : 					{
						"fileversion" : 1,
						"rect" : [ 733.0, 345.0, 397.0, 382.0 ],
						"bglocked" : 0,
						"defrect" : [ 733.0, 345.0, 397.0, 382.0 ],
						"openrect" : [ 0.0, 0.0, 0.0, 0.0 ],
						"openinpresentation" : 0,
						"default_fontsize" : 10.0,
						"default_fontface" : 0,
						"default_fontname" : "Arial Bold",
						"gridonopen" : 0,
						"gridsize" : [ 8.0, 8.0 ],
						"gridsnaponopen" : 0,
						"toolbarvisible" : 1,
						"boxanimatetime" : 200,
						"imprint" : 0,
						"boxes" : [ 							{
								"box" : 								{
									"maxclass" : "inlet",
									"numoutlets" : 1,
									"patching_rect" : [ 312.0, 24.0, 25.0, 25.0 ],
									"id" : "obj-4",
									"outlettype" : [ "bang" ],
									"presentation_rect" : [ 312.0, 26.0, 0.0, 0.0 ],
									"numinlets" : 0,
									"comment" : ""
								}

							}
, 							{
								"box" : 								{
									"maxclass" : "newobj",
									"text" : "t b",
									"numoutlets" : 1,
									"patching_rect" : [ 104.0, 184.0, 21.0, 17.0 ],
									"fontname" : "Arial Bold",
									"id" : "obj-2",
									"outlettype" : [ "bang" ],
									"fontsize" : 9.0,
									"numinlets" : 1
								}

							}
, 							{
								"box" : 								{
									"maxclass" : "outlet",
									"numoutlets" : 0,
									"patching_rect" : [ 56.0, 336.0, 25.0, 25.0 ],
									"id" : "obj-28",
									"numinlets" : 1,
									"comment" : ""
								}

							}
, 							{
								"box" : 								{
									"maxclass" : "inlet",
									"numoutlets" : 1,
									"patching_rect" : [ 256.0, 24.0, 25.0, 25.0 ],
									"id" : "obj-27",
									"outlettype" : [ "" ],
									"numinlets" : 0,
									"comment" : ""
								}

							}
, 							{
								"box" : 								{
									"maxclass" : "inlet",
									"numoutlets" : 1,
									"patching_rect" : [ 48.0, 32.0, 25.0, 25.0 ],
									"id" : "obj-26",
									"outlettype" : [ "" ],
									"numinlets" : 0,
									"comment" : ""
								}

							}
, 							{
								"box" : 								{
									"maxclass" : "inlet",
									"numoutlets" : 1,
									"patching_rect" : [ 160.0, 32.0, 25.0, 25.0 ],
									"id" : "obj-25",
									"outlettype" : [ "" ],
									"numinlets" : 0,
									"comment" : ""
								}

							}
, 							{
								"box" : 								{
									"maxclass" : "newobj",
									"text" : "t l 2",
									"numoutlets" : 2,
									"patching_rect" : [ 248.0, 96.0, 29.0, 17.0 ],
									"fontname" : "Arial Bold",
									"id" : "obj-1",
									"outlettype" : [ "", "int" ],
									"fontsize" : 9.0,
									"numinlets" : 1
								}

							}
, 							{
								"box" : 								{
									"maxclass" : "newobj",
									"text" : "t l 1",
									"numoutlets" : 2,
									"patching_rect" : [ 152.0, 96.0, 29.0, 17.0 ],
									"fontname" : "Arial Bold",
									"id" : "obj-3",
									"outlettype" : [ "", "int" ],
									"fontsize" : 9.0,
									"numinlets" : 1
								}

							}
, 							{
								"box" : 								{
									"maxclass" : "newobj",
									"text" : "t l 0",
									"numoutlets" : 2,
									"patching_rect" : [ 48.0, 96.0, 29.0, 17.0 ],
									"fontname" : "Arial Bold",
									"id" : "obj-5",
									"outlettype" : [ "", "int" ],
									"fontsize" : 9.0,
									"numinlets" : 1
								}

							}
, 							{
								"box" : 								{
									"maxclass" : "comment",
									"text" : "ordered profile data",
									"numoutlets" : 0,
									"patching_rect" : [ 208.0, 312.0, 100.0, 17.0 ],
									"fontname" : "Arial Bold",
									"id" : "obj-6",
									"fontsize" : 9.0,
									"numinlets" : 1
								}

							}
, 							{
								"box" : 								{
									"maxclass" : "comment",
									"text" : "reset counter",
									"numoutlets" : 0,
									"patching_rect" : [ 288.0, 128.0, 71.0, 17.0 ],
									"fontname" : "Arial Bold",
									"id" : "obj-7",
									"fontsize" : 9.0,
									"numinlets" : 1
								}

							}
, 							{
								"box" : 								{
									"maxclass" : "comment",
									"text" : "profile index",
									"numoutlets" : 0,
									"patching_rect" : [ 134.0, 274.0, 67.0, 17.0 ],
									"fontname" : "Arial Bold",
									"id" : "obj-8",
									"fontsize" : 9.0,
									"numinlets" : 1
								}

							}
, 							{
								"box" : 								{
									"maxclass" : "comment",
									"text" : "profile length",
									"numoutlets" : 0,
									"patching_rect" : [ 210.0, 211.0, 70.0, 17.0 ],
									"fontname" : "Arial Bold",
									"id" : "obj-9",
									"fontsize" : 9.0,
									"numinlets" : 1
								}

							}
, 							{
								"box" : 								{
									"maxclass" : "comment",
									"text" : "profile data",
									"numoutlets" : 0,
									"patching_rect" : [ 185.0, 169.0, 62.0, 17.0 ],
									"fontname" : "Arial Bold",
									"id" : "obj-10",
									"fontsize" : 9.0,
									"numinlets" : 1
								}

							}
, 							{
								"box" : 								{
									"maxclass" : "newobj",
									"text" : "route bang",
									"numoutlets" : 2,
									"patching_rect" : [ 96.0, 136.0, 56.0, 17.0 ],
									"fontname" : "Arial Bold",
									"id" : "obj-12",
									"outlettype" : [ "", "" ],
									"fontsize" : 9.0,
									"numinlets" : 1
								}

							}
, 							{
								"box" : 								{
									"maxclass" : "newobj",
									"text" : "t l 0 l",
									"numoutlets" : 3,
									"patching_rect" : [ 144.0, 160.0, 40.0, 17.0 ],
									"fontname" : "Arial Bold",
									"id" : "obj-15",
									"outlettype" : [ "", "int", "" ],
									"fontsize" : 9.0,
									"numinlets" : 1
								}

							}
, 							{
								"box" : 								{
									"maxclass" : "newobj",
									"text" : "- 1",
									"numoutlets" : 1,
									"patching_rect" : [ 174.0, 230.0, 27.0, 17.0 ],
									"fontname" : "Arial Bold",
									"id" : "obj-16",
									"outlettype" : [ "int" ],
									"fontsize" : 9.0,
									"numinlets" : 2
								}

							}
, 							{
								"box" : 								{
									"maxclass" : "newobj",
									"text" : "zl lookup",
									"numoutlets" : 2,
									"patching_rect" : [ 96.0, 312.0, 49.0, 17.0 ],
									"fontname" : "Arial Bold",
									"id" : "obj-19",
									"outlettype" : [ "", "" ],
									"fontsize" : 9.0,
									"numinlets" : 2
								}

							}
, 							{
								"box" : 								{
									"maxclass" : "newobj",
									"text" : "counter 0 0 0",
									"numoutlets" : 4,
									"patching_rect" : [ 96.0, 256.0, 197.0, 17.0 ],
									"fontname" : "Arial Bold",
									"id" : "obj-20",
									"outlettype" : [ "int", "", "", "int" ],
									"fontsize" : 9.0,
									"numinlets" : 5
								}

							}
, 							{
								"box" : 								{
									"maxclass" : "newobj",
									"text" : "zl len",
									"numoutlets" : 2,
									"patching_rect" : [ 174.0, 188.0, 33.0, 17.0 ],
									"fontname" : "Arial Bold",
									"id" : "obj-22",
									"outlettype" : [ "", "" ],
									"fontsize" : 9.0,
									"numinlets" : 2
								}

							}
, 							{
								"box" : 								{
									"maxclass" : "comment",
									"text" : "trigger",
									"numoutlets" : 0,
									"patching_rect" : [ 55.0, 169.0, 42.0, 17.0 ],
									"fontname" : "Arial Bold",
									"id" : "obj-23",
									"fontsize" : 9.0,
									"numinlets" : 1
								}

							}
, 							{
								"box" : 								{
									"maxclass" : "comment",
									"text" : "set counter direction",
									"numoutlets" : 0,
									"patching_rect" : [ 304.0, 96.0, 104.0, 17.0 ],
									"fontname" : "Arial Bold",
									"id" : "obj-24",
									"fontsize" : 9.0,
									"numinlets" : 1
								}

							}
 ],
						"lines" : [ 							{
								"patchline" : 								{
									"source" : [ "obj-4", 0 ],
									"destination" : [ "obj-20", 2 ],
									"hidden" : 0,
									"midpoints" : [  ]
								}

							}
, 							{
								"patchline" : 								{
									"source" : [ "obj-20", 0 ],
									"destination" : [ "obj-19", 0 ],
									"hidden" : 0,
									"midpoints" : [  ]
								}

							}
, 							{
								"patchline" : 								{
									"source" : [ "obj-15", 0 ],
									"destination" : [ "obj-19", 1 ],
									"hidden" : 0,
									"midpoints" : [  ]
								}

							}
, 							{
								"patchline" : 								{
									"source" : [ "obj-19", 0 ],
									"destination" : [ "obj-28", 0 ],
									"hidden" : 0,
									"midpoints" : [  ]
								}

							}
, 							{
								"patchline" : 								{
									"source" : [ "obj-22", 0 ],
									"destination" : [ "obj-16", 0 ],
									"hidden" : 0,
									"midpoints" : [  ]
								}

							}
, 							{
								"patchline" : 								{
									"source" : [ "obj-15", 2 ],
									"destination" : [ "obj-22", 0 ],
									"hidden" : 0,
									"midpoints" : [  ]
								}

							}
, 							{
								"patchline" : 								{
									"source" : [ "obj-25", 0 ],
									"destination" : [ "obj-3", 0 ],
									"hidden" : 0,
									"midpoints" : [  ]
								}

							}
, 							{
								"patchline" : 								{
									"source" : [ "obj-26", 0 ],
									"destination" : [ "obj-5", 0 ],
									"hidden" : 0,
									"midpoints" : [  ]
								}

							}
, 							{
								"patchline" : 								{
									"source" : [ "obj-27", 0 ],
									"destination" : [ "obj-1", 0 ],
									"hidden" : 0,
									"midpoints" : [  ]
								}

							}
, 							{
								"patchline" : 								{
									"source" : [ "obj-16", 0 ],
									"destination" : [ "obj-20", 4 ],
									"hidden" : 0,
									"midpoints" : [  ]
								}

							}
, 							{
								"patchline" : 								{
									"source" : [ "obj-12", 1 ],
									"destination" : [ "obj-15", 0 ],
									"hidden" : 0,
									"midpoints" : [  ]
								}

							}
, 							{
								"patchline" : 								{
									"source" : [ "obj-15", 1 ],
									"destination" : [ "obj-20", 2 ],
									"hidden" : 0,
									"midpoints" : [  ]
								}

							}
, 							{
								"patchline" : 								{
									"source" : [ "obj-1", 1 ],
									"destination" : [ "obj-20", 1 ],
									"hidden" : 0,
									"color" : [ 0.6667, 0.6667, 0.6667, 1.0 ],
									"midpoints" : [  ]
								}

							}
, 							{
								"patchline" : 								{
									"source" : [ "obj-3", 1 ],
									"destination" : [ "obj-20", 1 ],
									"hidden" : 0,
									"color" : [ 0.6667, 0.6667, 0.6667, 1.0 ],
									"midpoints" : [  ]
								}

							}
, 							{
								"patchline" : 								{
									"source" : [ "obj-5", 1 ],
									"destination" : [ "obj-20", 1 ],
									"hidden" : 0,
									"color" : [ 0.6667, 0.6667, 0.6667, 1.0 ],
									"midpoints" : [  ]
								}

							}
, 							{
								"patchline" : 								{
									"source" : [ "obj-1", 0 ],
									"destination" : [ "obj-12", 0 ],
									"hidden" : 0,
									"midpoints" : [  ]
								}

							}
, 							{
								"patchline" : 								{
									"source" : [ "obj-3", 0 ],
									"destination" : [ "obj-12", 0 ],
									"hidden" : 0,
									"midpoints" : [  ]
								}

							}
, 							{
								"patchline" : 								{
									"source" : [ "obj-5", 0 ],
									"destination" : [ "obj-12", 0 ],
									"hidden" : 0,
									"midpoints" : [  ]
								}

							}
, 							{
								"patchline" : 								{
									"source" : [ "obj-12", 0 ],
									"destination" : [ "obj-2", 0 ],
									"hidden" : 0,
									"midpoints" : [  ]
								}

							}
, 							{
								"patchline" : 								{
									"source" : [ "obj-2", 0 ],
									"destination" : [ "obj-20", 0 ],
									"hidden" : 0,
									"midpoints" : [  ]
								}

							}
 ]
					}
,
					"saved_object_attributes" : 					{
						"default_fontface" : 0,
						"default_fontname" : "Arial Bold",
						"fontname" : "Arial Bold",
						"default_fontsize" : 10.0,
						"globalpatchername" : "",
						"fontface" : 0,
						"fontsize" : 10.0
					}

				}

			}
 ],
		"lines" : [ 			{
				"patchline" : 				{
					"source" : [ "obj-25", 7 ],
					"destination" : [ "obj-22", 3 ],
					"hidden" : 0,
					"midpoints" : [  ]
				}

			}
, 			{
				"patchline" : 				{
					"source" : [ "obj-25", 0 ],
					"destination" : [ "obj-27", 0 ],
					"hidden" : 0,
					"midpoints" : [  ]
				}

			}
, 			{
				"patchline" : 				{
					"source" : [ "obj-25", 1 ],
					"destination" : [ "obj-28", 0 ],
					"hidden" : 0,
					"midpoints" : [  ]
				}

			}
, 			{
				"patchline" : 				{
					"source" : [ "obj-25", 2 ],
					"destination" : [ "obj-29", 0 ],
					"hidden" : 0,
					"midpoints" : [  ]
				}

			}
, 			{
				"patchline" : 				{
					"source" : [ "obj-25", 3 ],
					"destination" : [ "obj-30", 0 ],
					"hidden" : 0,
					"midpoints" : [  ]
				}

			}
, 			{
				"patchline" : 				{
					"source" : [ "obj-25", 4 ],
					"destination" : [ "obj-31", 0 ],
					"hidden" : 0,
					"midpoints" : [  ]
				}

			}
, 			{
				"patchline" : 				{
					"source" : [ "obj-25", 5 ],
					"destination" : [ "obj-32", 0 ],
					"hidden" : 0,
					"midpoints" : [  ]
				}

			}
, 			{
				"patchline" : 				{
					"source" : [ "obj-25", 6 ],
					"destination" : [ "obj-33", 0 ],
					"hidden" : 0,
					"midpoints" : [  ]
				}

			}
, 			{
				"patchline" : 				{
					"source" : [ "obj-38", 1 ],
					"destination" : [ "obj-25", 0 ],
					"hidden" : 0,
					"midpoints" : [  ]
				}

			}
, 			{
				"patchline" : 				{
					"source" : [ "obj-34", 2 ],
					"destination" : [ "obj-35", 1 ],
					"hidden" : 0,
					"midpoints" : [ 273.5, 250.5, 115.5, 250.5 ]
				}

			}
, 			{
				"patchline" : 				{
					"source" : [ "obj-36", 0 ],
					"destination" : [ "obj-35", 1 ],
					"hidden" : 0,
					"midpoints" : [ 217.5, 250.5, 115.5, 250.5 ]
				}

			}
, 			{
				"patchline" : 				{
					"source" : [ "obj-37", 0 ],
					"destination" : [ "obj-35", 1 ],
					"hidden" : 0,
					"midpoints" : [  ]
				}

			}
, 			{
				"patchline" : 				{
					"source" : [ "obj-35", 0 ],
					"destination" : [ "obj-24", 1 ],
					"hidden" : 0,
					"midpoints" : [ 97.5, 293.5, 305.5, 293.5 ]
				}

			}
, 			{
				"patchline" : 				{
					"source" : [ "obj-38", 0 ],
					"destination" : [ "obj-35", 0 ],
					"hidden" : 0,
					"midpoints" : [  ]
				}

			}
, 			{
				"patchline" : 				{
					"source" : [ "obj-39", 0 ],
					"destination" : [ "obj-38", 0 ],
					"hidden" : 0,
					"midpoints" : [  ]
				}

			}
, 			{
				"patchline" : 				{
					"source" : [ "obj-39", 1 ],
					"destination" : [ "obj-34", 0 ],
					"hidden" : 0,
					"midpoints" : [  ]
				}

			}
, 			{
				"patchline" : 				{
					"source" : [ "obj-3", 1 ],
					"destination" : [ "obj-39", 0 ],
					"hidden" : 0,
					"midpoints" : [ 201.5, 150.0, 49.5, 150.0 ]
				}

			}
, 			{
				"patchline" : 				{
					"source" : [ "obj-34", 0 ],
					"destination" : [ "obj-37", 0 ],
					"hidden" : 0,
					"midpoints" : [  ]
				}

			}
, 			{
				"patchline" : 				{
					"source" : [ "obj-34", 1 ],
					"destination" : [ "obj-36", 0 ],
					"hidden" : 0,
					"midpoints" : [  ]
				}

			}
, 			{
				"patchline" : 				{
					"source" : [ "obj-24", 6 ],
					"destination" : [ "obj-18", 0 ],
					"hidden" : 0,
					"midpoints" : [  ]
				}

			}
, 			{
				"patchline" : 				{
					"source" : [ "obj-24", 5 ],
					"destination" : [ "obj-19", 0 ],
					"hidden" : 0,
					"midpoints" : [  ]
				}

			}
, 			{
				"patchline" : 				{
					"source" : [ "obj-24", 4 ],
					"destination" : [ "obj-22", 2 ],
					"hidden" : 0,
					"midpoints" : [  ]
				}

			}
, 			{
				"patchline" : 				{
					"source" : [ "obj-24", 3 ],
					"destination" : [ "obj-22", 1 ],
					"hidden" : 0,
					"midpoints" : [  ]
				}

			}
, 			{
				"patchline" : 				{
					"source" : [ "obj-24", 2 ],
					"destination" : [ "obj-22", 0 ],
					"hidden" : 0,
					"midpoints" : [  ]
				}

			}
, 			{
				"patchline" : 				{
					"source" : [ "obj-24", 1 ],
					"destination" : [ "obj-20", 0 ],
					"hidden" : 0,
					"midpoints" : [  ]
				}

			}
, 			{
				"patchline" : 				{
					"source" : [ "obj-24", 0 ],
					"destination" : [ "obj-21", 0 ],
					"hidden" : 0,
					"midpoints" : [  ]
				}

			}
, 			{
				"patchline" : 				{
					"source" : [ "obj-33", 0 ],
					"destination" : [ "obj-24", 0 ],
					"hidden" : 0,
					"midpoints" : [ 257.5, 359.5, 65.5, 359.5 ]
				}

			}
, 			{
				"patchline" : 				{
					"source" : [ "obj-32", 0 ],
					"destination" : [ "obj-24", 0 ],
					"hidden" : 0,
					"midpoints" : [ 225.5, 359.5, 65.5, 359.5 ]
				}

			}
, 			{
				"patchline" : 				{
					"source" : [ "obj-31", 0 ],
					"destination" : [ "obj-24", 0 ],
					"hidden" : 0,
					"midpoints" : [ 193.5, 359.5, 65.5, 359.5 ]
				}

			}
, 			{
				"patchline" : 				{
					"source" : [ "obj-30", 0 ],
					"destination" : [ "obj-24", 0 ],
					"hidden" : 0,
					"midpoints" : [ 161.5, 359.5, 65.5, 359.5 ]
				}

			}
, 			{
				"patchline" : 				{
					"source" : [ "obj-29", 0 ],
					"destination" : [ "obj-24", 0 ],
					"hidden" : 0,
					"midpoints" : [ 129.5, 359.5, 65.5, 359.5 ]
				}

			}
, 			{
				"patchline" : 				{
					"source" : [ "obj-28", 0 ],
					"destination" : [ "obj-24", 0 ],
					"hidden" : 0,
					"midpoints" : [ 97.5, 359.5, 65.5, 359.5 ]
				}

			}
, 			{
				"patchline" : 				{
					"source" : [ "obj-27", 0 ],
					"destination" : [ "obj-24", 0 ],
					"hidden" : 0,
					"midpoints" : [ 65.5, 359.5, 65.5, 359.5 ]
				}

			}
, 			{
				"patchline" : 				{
					"source" : [ "obj-8", 0 ],
					"destination" : [ "obj-7", 0 ],
					"hidden" : 0,
					"midpoints" : [  ]
				}

			}
, 			{
				"patchline" : 				{
					"source" : [ "obj-3", 0 ],
					"destination" : [ "obj-8", 0 ],
					"hidden" : 0,
					"midpoints" : [  ]
				}

			}
, 			{
				"patchline" : 				{
					"source" : [ "obj-1", 0 ],
					"destination" : [ "obj-3", 0 ],
					"hidden" : 0,
					"midpoints" : [  ]
				}

			}
, 			{
				"patchline" : 				{
					"source" : [ "obj-9", 0 ],
					"destination" : [ "obj-24", 1 ],
					"hidden" : 0,
					"midpoints" : [  ]
				}

			}
, 			{
				"patchline" : 				{
					"source" : [ "obj-3", 2 ],
					"destination" : [ "obj-9", 0 ],
					"hidden" : 0,
					"midpoints" : [  ]
				}

			}
, 			{
				"patchline" : 				{
					"source" : [ "obj-7", 0 ],
					"destination" : [ "obj-9", 0 ],
					"hidden" : 0,
					"midpoints" : [  ]
				}

			}
, 			{
				"patchline" : 				{
					"source" : [ "obj-4", 0 ],
					"destination" : [ "obj-2", 0 ],
					"hidden" : 0,
					"midpoints" : [  ]
				}

			}
, 			{
				"patchline" : 				{
					"source" : [ "obj-4", 0 ],
					"destination" : [ "obj-7", 1 ],
					"hidden" : 0,
					"midpoints" : [ 65.5, 500.0, 29.5, 500.0, 29.5, 109.0, 141.5, 109.0 ]
				}

			}
, 			{
				"patchline" : 				{
					"source" : [ "obj-18", 0 ],
					"destination" : [ "obj-4", 0 ],
					"hidden" : 0,
					"midpoints" : [ 305.5, 460.5, 65.5, 460.5 ]
				}

			}
, 			{
				"patchline" : 				{
					"source" : [ "obj-19", 0 ],
					"destination" : [ "obj-4", 0 ],
					"hidden" : 0,
					"midpoints" : [ 281.5, 460.5, 65.5, 460.5 ]
				}

			}
, 			{
				"patchline" : 				{
					"source" : [ "obj-22", 0 ],
					"destination" : [ "obj-4", 0 ],
					"hidden" : 0,
					"midpoints" : [ 145.5, 460.5, 65.5, 460.5 ]
				}

			}
, 			{
				"patchline" : 				{
					"source" : [ "obj-20", 0 ],
					"destination" : [ "obj-4", 0 ],
					"hidden" : 0,
					"midpoints" : [ 105.5, 460.5, 65.5, 460.5 ]
				}

			}
, 			{
				"patchline" : 				{
					"source" : [ "obj-21", 0 ],
					"destination" : [ "obj-4", 0 ],
					"hidden" : 0,
					"midpoints" : [  ]
				}

			}
 ]
	}

}
