{
	"patcher" : 	{
		"fileversion" : 1,
		"appversion" : 		{
			"major" : 6,
			"minor" : 1,
			"revision" : 3,
			"architecture" : "x86"
		}
,
		"rect" : [ 84.0, 606.0, 521.0, 174.0 ],
		"bgcolor" : [ 1.0, 1.0, 1.0, 0.0 ],
		"bglocked" : 0,
		"openinpresentation" : 1,
		"default_fontsize" : 10.0,
		"default_fontface" : 0,
		"default_fontname" : "Arial Bold",
		"gridonopen" : 0,
		"gridsize" : [ 15.0, 15.0 ],
		"gridsnaponopen" : 0,
		"statusbarvisible" : 1,
		"toolbarvisible" : 0,
		"boxanimatetime" : 200,
		"imprint" : 0,
		"enablehscroll" : 1,
		"enablevscroll" : 1,
		"devicewidth" : 0.0,
		"description" : "",
		"digest" : "",
		"tags" : "",
		"boxes" : [ 			{
				"box" : 				{
					"fontname" : "Arial Bold",
					"fontsize" : 10.0,
					"id" : "obj-24",
					"maxclass" : "newobj",
					"numinlets" : 2,
					"numoutlets" : 2,
					"outlettype" : [ "signal", "bang" ],
					"patching_rect" : [ 350.583344, 160.0, 34.0, 18.0 ],
					"text" : "line~"
				}

			}
, 			{
				"box" : 				{
					"fontname" : "Arial Bold",
					"fontsize" : 10.0,
					"id" : "obj-25",
					"maxclass" : "message",
					"numinlets" : 2,
					"numoutlets" : 1,
					"outlettype" : [ "" ],
					"patching_rect" : [ 350.583344, 141.0, 36.0, 16.0 ],
					"text" : "$1 50"
				}

			}
, 			{
				"box" : 				{
					"fontname" : "Arial Bold",
					"fontsize" : 10.0,
					"id" : "obj-22",
					"maxclass" : "newobj",
					"numinlets" : 2,
					"numoutlets" : 2,
					"outlettype" : [ "signal", "bang" ],
					"patching_rect" : [ 302.083344, 160.0, 34.0, 18.0 ],
					"text" : "line~"
				}

			}
, 			{
				"box" : 				{
					"fontname" : "Arial Bold",
					"fontsize" : 10.0,
					"id" : "obj-23",
					"maxclass" : "message",
					"numinlets" : 2,
					"numoutlets" : 1,
					"outlettype" : [ "" ],
					"patching_rect" : [ 302.083344, 141.0, 36.0, 16.0 ],
					"text" : "$1 50"
				}

			}
, 			{
				"box" : 				{
					"fontname" : "Arial Bold",
					"fontsize" : 10.0,
					"id" : "obj-20",
					"maxclass" : "newobj",
					"numinlets" : 2,
					"numoutlets" : 2,
					"outlettype" : [ "signal", "bang" ],
					"patching_rect" : [ 253.583344, 160.0, 34.0, 18.0 ],
					"text" : "line~"
				}

			}
, 			{
				"box" : 				{
					"fontname" : "Arial Bold",
					"fontsize" : 10.0,
					"id" : "obj-21",
					"maxclass" : "message",
					"numinlets" : 2,
					"numoutlets" : 1,
					"outlettype" : [ "" ],
					"patching_rect" : [ 253.583344, 141.0, 36.0, 16.0 ],
					"text" : "$1 50"
				}

			}
, 			{
				"box" : 				{
					"fontname" : "Arial Bold",
					"fontsize" : 10.0,
					"id" : "obj-19",
					"maxclass" : "newobj",
					"numinlets" : 2,
					"numoutlets" : 2,
					"outlettype" : [ "signal", "bang" ],
					"patching_rect" : [ 205.083344, 160.0, 34.0, 18.0 ],
					"text" : "line~"
				}

			}
, 			{
				"box" : 				{
					"fontname" : "Arial Bold",
					"fontsize" : 10.0,
					"id" : "obj-18",
					"maxclass" : "message",
					"numinlets" : 2,
					"numoutlets" : 1,
					"outlettype" : [ "" ],
					"patching_rect" : [ 205.083344, 141.0, 36.0, 16.0 ],
					"text" : "$1 50"
				}

			}
, 			{
				"box" : 				{
					"fontname" : "Arial",
					"fontsize" : 9.0,
					"frgb" : 0.0,
					"id" : "obj-74",
					"linecount" : 2,
					"maxclass" : "comment",
					"numinlets" : 1,
					"numoutlets" : 0,
					"patching_rect" : [ 699.0, 268.332764, 51.0, 27.0 ],
					"text" : "PRESET for Live"
				}

			}
, 			{
				"box" : 				{
					"fontname" : "Arial Bold",
					"fontsize" : 10.0,
					"id" : "obj-75",
					"maxclass" : "message",
					"numinlets" : 2,
					"numoutlets" : 1,
					"outlettype" : [ "" ],
					"patching_rect" : [ 666.5, 250.832764, 39.0, 16.0 ],
					"text" : "set $1"
				}

			}
, 			{
				"box" : 				{
					"id" : "obj-80",
					"maxclass" : "live.numbox",
					"numinlets" : 1,
					"numoutlets" : 2,
					"outlettype" : [ "", "float" ],
					"parameter_enable" : 1,
					"patching_rect" : [ 666.5, 275.332764, 36.0, 15.0 ],
					"saved_attribute_attributes" : 					{
						"valueof" : 						{
							"parameter_longname" : "PRESET",
							"parameter_shortname" : "PRESET",
							"parameter_type" : 1,
							"parameter_unitstyle" : 0,
							"parameter_steps" : 1
						}

					}
,
					"varname" : "PRESET"
				}

			}
, 			{
				"box" : 				{
					"fontname" : "Arial Bold",
					"fontsize" : 10.0,
					"id" : "obj-17",
					"maxclass" : "newobj",
					"numinlets" : 1,
					"numoutlets" : 2,
					"outlettype" : [ "", "" ],
					"patching_rect" : [ 645.0, 351.332764, 64.0, 18.0 ],
					"save" : [ "#N", "thispatcher", ";", "#Q", "end", ";" ],
					"text" : "thispatcher"
				}

			}
, 			{
				"box" : 				{
					"fontname" : "Arial Bold",
					"fontsize" : 10.0,
					"id" : "obj-118",
					"maxclass" : "message",
					"numinlets" : 2,
					"numoutlets" : 1,
					"outlettype" : [ "" ],
					"patching_rect" : [ 645.0, 295.332764, 50.0, 16.0 ],
					"text" : "refresh"
				}

			}
, 			{
				"box" : 				{
					"fontname" : "Arial Bold",
					"fontsize" : 18.0,
					"frgb" : 0.0,
					"id" : "obj-87",
					"maxclass" : "comment",
					"numinlets" : 1,
					"numoutlets" : 0,
					"patching_rect" : [ 545.5, 149.5, 95.0, 27.0 ],
					"presentation" : 1,
					"presentation_rect" : [ 417.0, 3.0, 95.0, 27.0 ],
					"text" : "#1"
				}

			}
, 			{
				"box" : 				{
					"arrowframe" : 0,
					"bgcolor" : [ 1.0, 1.0, 1.0, 0.0 ],
					"fontname" : "Arial Bold",
					"fontsize" : 12.0,
					"framecolor" : [ 0.498039, 0.52549, 0.576471, 0.0 ],
					"id" : "obj-86",
					"items" : [ "()", ",", "<separator>", ",", "(Presets)", ",", "init", ",", "dump", ",", "<separator>", ",", "(Storage)", ",", "client", ",", "storage", ",", "<separator>", ",", "(Bank)", ",", "renum", ",", "clear", ",", "load", ",", "save", ",", "export" ],
					"maxclass" : "umenu",
					"numinlets" : 1,
					"numoutlets" : 3,
					"outlettype" : [ "int", "", "" ],
					"parameter_enable" : 0,
					"patching_rect" : [ 545.5, 153.0, 94.400002, 20.0 ],
					"presentation" : 1,
					"presentation_rect" : [ 417.0, 6.5, 94.400002, 20.0 ],
					"rounded" : 6,
					"textcolor" : [ 0.0, 0.0, 0.0, 1.0 ]
				}

			}
, 			{
				"box" : 				{
					"fontname" : "Arial Bold",
					"fontsize" : 10.0,
					"frgb" : 0.0,
					"id" : "obj-3",
					"maxclass" : "comment",
					"numinlets" : 1,
					"numoutlets" : 0,
					"patching_rect" : [ 542.5, 129.0, 47.0, 18.0 ],
					"text" : "Presets",
					"textcolor" : [ 0.3, 0.34, 0.4, 1.0 ]
				}

			}
, 			{
				"box" : 				{
					"fontname" : "Arial",
					"fontsize" : 10.0,
					"frgb" : 0.0,
					"id" : "obj-4",
					"maxclass" : "comment",
					"numinlets" : 1,
					"numoutlets" : 0,
					"patching_rect" : [ 544.5, 282.0, 40.0, 18.0 ],
					"presentation" : 1,
					"presentation_rect" : [ 416.0, 135.5, 40.0, 18.0 ],
					"text" : "Name:"
				}

			}
, 			{
				"box" : 				{
					"bgcolor" : [ 0.094118, 0.113725, 0.137255, 1.0 ],
					"border" : 0.0,
					"bordercolor" : [ 0.501961, 0.501961, 0.501961, 0.0 ],
					"fontface" : 1,
					"fontname" : "Arial",
					"fontsize" : 10.0,
					"frgb" : 0.0,
					"id" : "obj-6",
					"keymode" : 1,
					"maxclass" : "textedit",
					"numinlets" : 1,
					"numoutlets" : 4,
					"outlettype" : [ "", "int", "", "" ],
					"parameter_enable" : 0,
					"patching_rect" : [ 545.5, 298.0, 95.0, 16.0 ],
					"presentation" : 1,
					"presentation_rect" : [ 417.0, 151.5, 95.0, 16.0 ],
					"prototypename" : "M4L.black",
					"rounded" : 12.0,
					"textcolor" : [ 0.909804, 0.909804, 0.909804, 1.0 ]
				}

			}
, 			{
				"box" : 				{
					"annotation" : "Renumber and clear presets, import/export banks of presets as text files.",
					"border" : 1,
					"button" : 1,
					"fontname" : "Arial Bold",
					"fontsize" : 10.0,
					"hint" : "Renumber and clear presets, import/export banks of presets as text files.",
					"id" : "obj-7",
					"margin" : 2,
					"maxclass" : "tab",
					"numinlets" : 1,
					"numoutlets" : 3,
					"outlettype" : [ "int", "", "" ],
					"parameter_enable" : 0,
					"patching_rect" : [ 544.5, 177.5, 96.0, 31.614456 ],
					"presentation" : 1,
					"presentation_rect" : [ 416.0, 31.0, 96.0, 31.614456 ],
					"prototypename" : "M4L.numbers",
					"rounded" : 6.0,
					"spacing_x" : 3.0,
					"tabs" : [ "save", "client", "dump", "init" ]
				}

			}
, 			{
				"box" : 				{
					"fontname" : "Arial Bold",
					"fontsize" : 10.0,
					"id" : "obj-11",
					"maxclass" : "newobj",
					"numinlets" : 7,
					"numoutlets" : 8,
					"outlettype" : [ "", "", "", "", "", "", "", "" ],
					"patching_rect" : [ 542.5, 326.5, 121.666664, 18.0 ],
					"text" : "tg.m.preset #1"
				}

			}
, 			{
				"box" : 				{
					"active1" : [ 0.984314, 0.819608, 0.05098, 1.0 ],
					"active2" : [ 0.984314, 0.819608, 0.05098, 1.0 ],
					"annotation" : "Shift-click in a circle to store, click on circle to recall. Option-shift-click to remove.",
					"bgcolor" : [ 0.666667, 0.698039, 0.717647, 0.0 ],
					"bordercolor" : [ 0.666667, 0.698039, 0.717647, 0.0 ],
					"bubblesize" : 8,
					"circlecolor" : [ 0.666667, 0.698039, 0.717647, 0.0 ],
					"clicked1" : [ 0.909804, 0.909804, 0.909804, 1.0 ],
					"clicked2" : [ 1.0, 1.0, 1.0, 1.0 ],
					"emptycolor" : [ 0.301961, 0.337255, 0.403922, 1.0 ],
					"fontsize" : 12.0,
					"hint" : "Shift-click in a circle to store, click on circle to recall. Option-shift-click to remove.",
					"id" : "obj-13",
					"maxclass" : "preset",
					"numinlets" : 1,
					"numoutlets" : 4,
					"outlettype" : [ "preset", "int", "preset", "int" ],
					"patching_rect" : [ 547.5, 213.5, 92.5, 69.0 ],
					"pattrstorage" : "CombPreset",
					"presentation" : 1,
					"presentation_rect" : [ 419.0, 67.0, 92.5, 69.0 ],
					"prototypename" : "M4L.H",
					"stored1" : [ 0.494118, 0.556863, 0.607843, 1.0 ],
					"stored2" : [ 0.572549, 0.615686, 0.658824, 1.0 ],
					"textcolor" : [ 1.0, 1.0, 1.0, 1.0 ],
					"varname" : "Preset[1]"
				}

			}
, 			{
				"box" : 				{
					"bgcolor" : [ 0.094118, 0.113725, 0.137255, 1.0 ],
					"bordercolor" : [ 0.494118, 0.556863, 0.607843, 1.0 ],
					"grad2" : [ 0.094118, 0.113725, 0.137255, 1.0 ],
					"hint" : "",
					"id" : "obj-15",
					"maxclass" : "panel",
					"numinlets" : 1,
					"numoutlets" : 0,
					"patching_rect" : [ 545.5, 213.5, 95.0, 69.072281 ],
					"presentation" : 1,
					"presentation_rect" : [ 417.0, 67.0, 95.0, 69.072281 ],
					"prototypename" : "M4L.horizontal-black",
					"rounded" : 16
				}

			}
, 			{
				"box" : 				{
					"bgcolor" : [ 0.666667, 0.698039, 0.717647, 1.0 ],
					"bordercolor" : [ 0.094118, 0.113725, 0.137255, 1.0 ],
					"grad2" : [ 0.094118, 0.113725, 0.137255, 1.0 ],
					"id" : "obj-16",
					"maxclass" : "panel",
					"numinlets" : 1,
					"numoutlets" : 0,
					"patching_rect" : [ 542.5, 147.0, 101.0, 170.0 ],
					"presentation" : 1,
					"presentation_rect" : [ 414.0, 0.499999, 101.0, 170.0 ],
					"prototypename" : "M4L.horizontal-black"
				}

			}
, 			{
				"box" : 				{
					"fontname" : "Arial Bold",
					"fontsize" : 10.0,
					"id" : "obj-150",
					"maxclass" : "newobj",
					"numinlets" : 5,
					"numoutlets" : 1,
					"outlettype" : [ "signal" ],
					"patching_rect" : [ 104.583344, 198.5, 100.0, 18.0 ],
					"text" : "comb~ 200"
				}

			}
, 			{
				"box" : 				{
					"fontname" : "Arial Bold",
					"fontsize" : 10.0,
					"frgb" : 0.0,
					"id" : "obj-123",
					"maxclass" : "comment",
					"numinlets" : 1,
					"numoutlets" : 0,
					"patching_rect" : [ 350.583344, 103.5, 46.0, 18.0 ],
					"presentation" : 1,
					"presentation_rect" : [ 65.0, 79.0, 39.0, 18.0 ],
					"text" : "Fback"
				}

			}
, 			{
				"box" : 				{
					"fontname" : "Arial Bold",
					"fontsize" : 10.0,
					"frgb" : 0.0,
					"id" : "obj-121",
					"maxclass" : "comment",
					"numinlets" : 1,
					"numoutlets" : 0,
					"patching_rect" : [ 302.083344, 103.5, 43.0, 18.0 ],
					"presentation" : 1,
					"presentation_rect" : [ 65.0, 61.0, 34.0, 18.0 ],
					"text" : "Ffwd"
				}

			}
, 			{
				"box" : 				{
					"fontname" : "Arial Bold",
					"fontsize" : 10.0,
					"frgb" : 0.0,
					"id" : "obj-120",
					"maxclass" : "comment",
					"numinlets" : 1,
					"numoutlets" : 0,
					"patching_rect" : [ 253.583344, 103.5, 41.0, 18.0 ],
					"presentation" : 1,
					"presentation_rect" : [ 65.0, 42.5, 31.0, 18.0 ],
					"text" : "amp"
				}

			}
, 			{
				"box" : 				{
					"fontname" : "Arial Bold",
					"fontsize" : 10.0,
					"frgb" : 0.0,
					"id" : "obj-119",
					"maxclass" : "comment",
					"numinlets" : 1,
					"numoutlets" : 0,
					"patching_rect" : [ 205.083344, 103.5, 42.0, 18.0 ],
					"presentation" : 1,
					"presentation_rect" : [ 65.0, 24.5, 36.0, 18.0 ],
					"text" : "delay"
				}

			}
, 			{
				"box" : 				{
					"annotation" : "Ffwd",
					"appearance" : 1,
					"id" : "obj-112",
					"maxclass" : "live.numbox",
					"numinlets" : 1,
					"numoutlets" : 2,
					"outlettype" : [ "", "float" ],
					"parameter_enable" : 1,
					"patching_rect" : [ 302.083344, 119.0, 39.0, 15.0 ],
					"presentation" : 1,
					"presentation_rect" : [ 103.0, 62.0, 51.0, 15.0 ],
					"saved_attribute_attributes" : 					{
						"valueof" : 						{
							"parameter_longname" : "Ffwd",
							"parameter_shortname" : "Ffwd",
							"parameter_type" : 0,
							"parameter_mmax" : 0.999,
							"parameter_initial_enable" : 1,
							"parameter_initial" : [ 0.5 ],
							"parameter_unitstyle" : 1,
							"parameter_units" : "v",
							"parameter_speedlim" : 0.0
						}

					}
,
					"varname" : "Ffwd"
				}

			}
, 			{
				"box" : 				{
					"annotation" : "amp",
					"appearance" : 1,
					"id" : "obj-113",
					"maxclass" : "live.numbox",
					"numinlets" : 1,
					"numoutlets" : 2,
					"outlettype" : [ "", "float" ],
					"parameter_enable" : 1,
					"patching_rect" : [ 253.583344, 119.0, 39.0, 15.0 ],
					"presentation" : 1,
					"presentation_rect" : [ 103.0, 43.5, 51.0, 15.0 ],
					"saved_attribute_attributes" : 					{
						"valueof" : 						{
							"parameter_longname" : "amp",
							"parameter_shortname" : "amp",
							"parameter_type" : 0,
							"parameter_mmax" : 0.999,
							"parameter_initial_enable" : 1,
							"parameter_initial" : [ 0.5 ],
							"parameter_unitstyle" : 1,
							"parameter_units" : "mc",
							"parameter_speedlim" : 0.0
						}

					}
,
					"varname" : "amp"
				}

			}
, 			{
				"box" : 				{
					"annotation" : "Fback",
					"appearance" : 1,
					"id" : "obj-115",
					"maxclass" : "live.numbox",
					"numinlets" : 1,
					"numoutlets" : 2,
					"outlettype" : [ "", "float" ],
					"parameter_enable" : 1,
					"patching_rect" : [ 350.583344, 119.0, 39.0, 15.0 ],
					"presentation" : 1,
					"presentation_rect" : [ 103.0, 80.0, 51.0, 15.0 ],
					"saved_attribute_attributes" : 					{
						"valueof" : 						{
							"parameter_longname" : "Fback",
							"parameter_shortname" : "Fback",
							"parameter_type" : 0,
							"parameter_mmax" : 0.999,
							"parameter_initial_enable" : 1,
							"parameter_initial" : [ 0.5 ],
							"parameter_unitstyle" : 1,
							"parameter_units" : "v",
							"parameter_speedlim" : 0.0
						}

					}
,
					"varname" : "Fback"
				}

			}
, 			{
				"box" : 				{
					"annotation" : "delay",
					"appearance" : 1,
					"id" : "obj-108",
					"maxclass" : "live.numbox",
					"numinlets" : 1,
					"numoutlets" : 2,
					"outlettype" : [ "", "float" ],
					"parameter_enable" : 1,
					"patching_rect" : [ 205.083344, 119.0, 39.0, 15.0 ],
					"presentation" : 1,
					"presentation_rect" : [ 103.0, 25.5, 51.0, 15.0 ],
					"saved_attribute_attributes" : 					{
						"valueof" : 						{
							"parameter_longname" : "delay",
							"parameter_shortname" : "delay",
							"parameter_type" : 0,
							"parameter_mmin" : 0.001,
							"parameter_mmax" : 200.0,
							"parameter_initial_enable" : 1,
							"parameter_initial" : [ 10.0 ],
							"parameter_unitstyle" : 2,
							"parameter_units" : "v",
							"parameter_speedlim" : 0.0
						}

					}
,
					"varname" : "delay"
				}

			}
, 			{
				"box" : 				{
					"fontname" : "Arial Bold",
					"fontsize" : 10.0,
					"id" : "obj-29",
					"maxclass" : "newobj",
					"numinlets" : 3,
					"numoutlets" : 3,
					"outlettype" : [ "", "", "" ],
					"patching_rect" : [ 355.944336, 494.760498, 113.722198, 18.0 ],
					"text" : "tg.m.fgraph"
				}

			}
, 			{
				"box" : 				{
					"id" : "obj-45",
					"maxclass" : "button",
					"numinlets" : 1,
					"numoutlets" : 1,
					"outlettype" : [ "bang" ],
					"patching_rect" : [ 629.5, 370.332764, 20.0, 20.0 ]
				}

			}
, 			{
				"box" : 				{
					"fontname" : "Arial Bold",
					"fontsize" : 10.0,
					"id" : "obj-307",
					"maxclass" : "message",
					"numinlets" : 2,
					"numoutlets" : 1,
					"outlettype" : [ "" ],
					"patching_rect" : [ 714.5, 424.332764, 39.0, 16.0 ],
					"text" : "$1 init"
				}

			}
, 			{
				"box" : 				{
					"fontname" : "Arial Bold",
					"fontsize" : 10.0,
					"id" : "obj-306",
					"linecount" : 6,
					"maxclass" : "message",
					"numinlets" : 2,
					"numoutlets" : 1,
					"outlettype" : [ "" ],
					"patching_rect" : [ 714.5, 344.332764, 72.0, 72.0 ],
					"text" : "live.dial, live.menu, live.text, live.numbox, live.gain~, live.tab, pattr"
				}

			}
, 			{
				"box" : 				{
					"fontname" : "Arial Bold",
					"fontsize" : 10.0,
					"id" : "obj-284",
					"maxclass" : "newobj",
					"numinlets" : 1,
					"numoutlets" : 0,
					"patching_rect" : [ 714.5, 448.332764, 54.0, 18.0 ],
					"text" : "universal"
				}

			}
, 			{
				"box" : 				{
					"autorestore" : "CombPreset.json",
					"color" : [ 0.239216, 0.643137, 0.709804, 1.0 ],
					"fontname" : "Arial Bold",
					"fontsize" : 10.0,
					"id" : "obj-40",
					"linecount" : 2,
					"maxclass" : "newobj",
					"numinlets" : 1,
					"numoutlets" : 1,
					"outlettype" : [ "" ],
					"patching_rect" : [ 542.5, 448.332764, 148.0, 29.0 ],
					"saved_object_attributes" : 					{
						"client_rect" : [ 218, 50, 606, 257 ],
						"parameter_enable" : 0,
						"storage_rect" : [ 220, 49, 871, 244 ]
					}
,
					"text" : "pattrstorage CombPreset @savemode 2 @autowatch 1",
					"varname" : "CombPreset"
				}

			}
, 			{
				"box" : 				{
					"fontname" : "Arial Bold",
					"fontsize" : 10.0,
					"id" : "obj-139",
					"maxclass" : "newobj",
					"numinlets" : 2,
					"numoutlets" : 2,
					"outlettype" : [ "", "" ],
					"patching_rect" : [ 745.5, 275.332764, 75.0, 18.0 ],
					"text" : "route restore"
				}

			}
, 			{
				"box" : 				{
					"fontname" : "Arial",
					"fontsize" : 10.0,
					"frgb" : 0.0,
					"id" : "obj-140",
					"linecount" : 2,
					"maxclass" : "comment",
					"numinlets" : 1,
					"numoutlets" : 0,
					"patching_rect" : [ 769.5, 242.332764, 48.0, 29.0 ],
					"text" : "Pattr storage"
				}

			}
, 			{
				"box" : 				{
					"fontname" : "Arial Bold",
					"fontsize" : 10.0,
					"frgb" : 0.0,
					"id" : "obj-141",
					"linecount" : 2,
					"maxclass" : "comment",
					"numinlets" : 1,
					"numoutlets" : 0,
					"patching_rect" : [ 697.5, 185.5, 72.0, 29.0 ],
					"text" : "Messages to parameters"
				}

			}
, 			{
				"box" : 				{
					"comment" : "Parameters values, getattributes, getstate",
					"id" : "obj-142",
					"maxclass" : "inlet",
					"numinlets" : 0,
					"numoutlets" : 1,
					"outlettype" : [ "" ],
					"patching_rect" : [ 673.5, 185.5, 17.0, 17.0 ]
				}

			}
, 			{
				"box" : 				{
					"color" : [ 0.239216, 0.643137, 0.709804, 1.0 ],
					"fontname" : "Arial Bold",
					"fontsize" : 10.0,
					"id" : "obj-143",
					"linecount" : 2,
					"maxclass" : "newobj",
					"numinlets" : 1,
					"numoutlets" : 4,
					"outlettype" : [ "", "", "", "" ],
					"patching_rect" : [ 673.5, 217.5, 91.0, 29.0 ],
					"restore" : 					{
						"Dry/wet" : [ 100.0 ],
						"Fback" : [ 0.5 ],
						"Ffwd" : [ 0.5 ],
						"FilterFreq" : [ 1000.0 ],
						"FilterGain" : [ 0.0 ],
						"FilterMode" : [ 5.0 ],
						"FilterQ" : [ 0.3 ],
						"Ingain" : [ 0.0 ],
						"Outgain" : [ -127.0 ],
						"amp" : [ 0.5 ],
						"delay" : [ 10.0 ]
					}
,
					"text" : "autopattr @autorestore 0",
					"varname" : "u639009128"
				}

			}
, 			{
				"box" : 				{
					"fontname" : "Arial Bold",
					"fontsize" : 10.0,
					"frgb" : 0.0,
					"id" : "obj-144",
					"maxclass" : "comment",
					"numinlets" : 1,
					"numoutlets" : 0,
					"patching_rect" : [ 745.5, 306.332764, 54.0, 18.0 ],
					"text" : "Dumpout"
				}

			}
, 			{
				"box" : 				{
					"comment" : "Dumpout",
					"id" : "obj-145",
					"maxclass" : "outlet",
					"numinlets" : 1,
					"numoutlets" : 0,
					"patching_rect" : [ 801.5, 306.332764, 18.0, 18.0 ]
				}

			}
, 			{
				"box" : 				{
					"annotation" : "FilterMode",
					"id" : "obj-42",
					"maxclass" : "live.menu",
					"numinlets" : 1,
					"numoutlets" : 3,
					"outlettype" : [ "", "", "float" ],
					"parameter_enable" : 1,
					"patching_rect" : [ 315.499939, 404.296631, 62.0, 15.0 ],
					"presentation" : 1,
					"presentation_rect" : [ 270.357178, 10.0, 71.642853, 15.0 ],
					"saved_attribute_attributes" : 					{
						"valueof" : 						{
							"parameter_longname" : "FilterMode",
							"parameter_shortname" : "FilterMode",
							"parameter_type" : 2,
							"parameter_enum" : [ "display", "lowpass", "highpass", "bandpass", "bandstop", "peaknotch", "lowshelf", "highshelf", "resonant", "allpass" ],
							"parameter_initial_enable" : 1,
							"parameter_initial" : [ 5.0 ]
						}

					}
,
					"varname" : "FilterMode"
				}

			}
, 			{
				"box" : 				{
					"bgcolor" : [ 0.568627, 0.619608, 0.662745, 1.0 ],
					"bgoncolor" : [ 0.921569, 0.94902, 0.05098, 1.0 ],
					"bgovercolor" : [ 0.568627, 0.619608, 0.662745, 1.0 ],
					"bgoveroncolor" : [ 0.921569, 0.94902, 0.05098, 1.0 ],
					"border" : 1,
					"bordercolor" : [ 0.301961, 0.337255, 0.403922, 1.0 ],
					"borderoncolor" : [ 0.301961, 0.337255, 0.403922, 1.0 ],
					"fontface" : 1,
					"fontname" : "Arial",
					"fontsize" : 10.0,
					"id" : "obj-109",
					"maxclass" : "textbutton",
					"numinlets" : 1,
					"numoutlets" : 3,
					"outlettype" : [ "", "", "int" ],
					"parameter_enable" : 0,
					"patching_rect" : [ 307.499939, 342.629395, 35.0, 15.665442 ],
					"presentation" : 1,
					"presentation_rect" : [ 218.0, 10.0, 30.0, 13.665442 ],
					"prototypename" : "M4L.toggle",
					"rounded" : 13.0,
					"text" : "init",
					"textcolor" : [ 0.101961, 0.121569, 0.172549, 1.0 ],
					"texton" : "Trig",
					"textoncolor" : [ 0.101961, 0.121569, 0.172549, 1.0 ],
					"textovercolor" : [ 0.101961, 0.121569, 0.172549, 1.0 ],
					"textoveroncolor" : [ 0.101961, 0.121569, 0.172549, 1.0 ]
				}

			}
, 			{
				"box" : 				{
					"fontname" : "Arial Bold",
					"fontsize" : 10.0,
					"frgb" : 0.0,
					"id" : "obj-138",
					"maxclass" : "comment",
					"numinlets" : 1,
					"numoutlets" : 0,
					"patching_rect" : [ 303.999939, 327.629395, 42.0, 18.0 ],
					"presentation" : 1,
					"presentation_rect" : [ 174.0, 8.0, 42.0, 18.0 ],
					"text" : "Filter",
					"textcolor" : [ 0.3, 0.34, 0.4, 1.0 ]
				}

			}
, 			{
				"box" : 				{
					"fontname" : "Arial",
					"fontsize" : 10.0,
					"frgb" : 0.0,
					"id" : "obj-137",
					"maxclass" : "comment",
					"numinlets" : 1,
					"numoutlets" : 0,
					"patching_rect" : [ 315.499939, 386.296631, 36.0, 18.0 ],
					"text" : "Mode"
				}

			}
, 			{
				"box" : 				{
					"fontname" : "Arial",
					"fontsize" : 10.0,
					"frgb" : 0.0,
					"id" : "obj-136",
					"maxclass" : "comment",
					"numinlets" : 1,
					"numoutlets" : 0,
					"patching_rect" : [ 459.666748, 365.296631, 31.0, 18.0 ],
					"presentation" : 1,
					"presentation_rect" : [ 266.0, 26.0, 19.0, 18.0 ],
					"text" : "q"
				}

			}
, 			{
				"box" : 				{
					"fontname" : "Arial",
					"fontsize" : 10.0,
					"frgb" : 0.0,
					"id" : "obj-135",
					"maxclass" : "comment",
					"numinlets" : 1,
					"numoutlets" : 0,
					"patching_rect" : [ 412.666504, 365.296631, 36.0, 18.0 ],
					"text" : "Gain"
				}

			}
, 			{
				"box" : 				{
					"fontname" : "Arial",
					"fontsize" : 10.0,
					"frgb" : 0.0,
					"id" : "obj-134",
					"maxclass" : "comment",
					"numinlets" : 1,
					"numoutlets" : 0,
					"patching_rect" : [ 365.5, 365.296631, 31.0, 18.0 ],
					"text" : "Freq"
				}

			}
, 			{
				"box" : 				{
					"fontname" : "Arial Bold",
					"fontsize" : 10.0,
					"id" : "obj-131",
					"maxclass" : "newobj",
					"numinlets" : 1,
					"numoutlets" : 1,
					"outlettype" : [ "" ],
					"patching_rect" : [ 403.083252, 404.296631, 38.0, 18.0 ],
					"text" : "dbtoa"
				}

			}
, 			{
				"box" : 				{
					"annotation" : "FilterGain",
					"id" : "obj-67",
					"maxclass" : "live.numbox",
					"numinlets" : 1,
					"numoutlets" : 2,
					"outlettype" : [ "", "float" ],
					"parameter_enable" : 1,
					"patching_rect" : [ 403.083252, 379.296631, 38.0, 15.0 ],
					"presentation" : 1,
					"presentation_rect" : [ 302.0, 26.0, 40.0, 15.0 ],
					"saved_attribute_attributes" : 					{
						"valueof" : 						{
							"parameter_longname" : "FilterGain",
							"parameter_shortname" : "FilterGain",
							"parameter_type" : 0,
							"parameter_mmin" : -80.0,
							"parameter_mmax" : 80.0,
							"parameter_initial_enable" : 1,
							"parameter_initial" : [ 0.0 ],
							"parameter_unitstyle" : 4
						}

					}
,
					"varname" : "FilterGain"
				}

			}
, 			{
				"box" : 				{
					"annotation" : "FilterFreq",
					"id" : "obj-70",
					"maxclass" : "live.numbox",
					"numinlets" : 1,
					"numoutlets" : 2,
					"outlettype" : [ "", "float" ],
					"parameter_enable" : 1,
					"patching_rect" : [ 355.5, 379.296631, 36.0, 15.0 ],
					"presentation" : 1,
					"presentation_rect" : [ 174.0, 26.0, 49.0, 15.0 ],
					"saved_attribute_attributes" : 					{
						"valueof" : 						{
							"parameter_longname" : "FilterFreq",
							"parameter_shortname" : "FilterFreq",
							"parameter_type" : 0,
							"parameter_mmax" : 22050.0,
							"parameter_initial_enable" : 1,
							"parameter_initial" : [ 1000.0 ],
							"parameter_unitstyle" : 3
						}

					}
,
					"varname" : "FilterFreq"
				}

			}
, 			{
				"box" : 				{
					"annotation" : "FilterQ",
					"id" : "obj-72",
					"maxclass" : "live.numbox",
					"numinlets" : 1,
					"numoutlets" : 2,
					"outlettype" : [ "", "float" ],
					"parameter_enable" : 1,
					"patching_rect" : [ 450.666504, 379.296631, 36.0, 15.0 ],
					"presentation" : 1,
					"presentation_rect" : [ 238.0, 26.0, 40.0, 15.0 ],
					"saved_attribute_attributes" : 					{
						"valueof" : 						{
							"parameter_longname" : "FilterQ",
							"parameter_shortname" : "FilterQ",
							"parameter_type" : 0,
							"parameter_mmax" : 22000.0,
							"parameter_initial_enable" : 1,
							"parameter_initial" : [ 0.3 ],
							"parameter_unitstyle" : 1,
							"parameter_units" : "q",
							"parameter_exponent" : 5.0
						}

					}
,
					"varname" : "FilterQ"
				}

			}
, 			{
				"box" : 				{
					"autoout" : 1,
					"dbdisplay" : 0,
					"id" : "obj-189",
					"maxclass" : "filtergraph~",
					"nfilters" : 1,
					"numinlets" : 8,
					"numoutlets" : 7,
					"outlettype" : [ "list", "float", "float", "float", "float", "list", "int" ],
					"parameter_enable" : 0,
					"patching_rect" : [ 337.0, 432.296631, 132.666626, 55.0 ],
					"presentation" : 1,
					"presentation_rect" : [ 174.0, 43.0, 168.0, 120.0 ],
					"setfilter" : [ 0, 5, 1, 1, 0, 1000.0, 1.0, 0.3, 0.0, 0.0, 0.0, 0.0, 0.0, 0.0 ]
				}

			}
, 			{
				"box" : 				{
					"id" : "obj-107",
					"maxclass" : "live.line",
					"numinlets" : 1,
					"numoutlets" : 0,
					"patching_rect" : [ 132.0, 374.296631, 5.0, 100.0 ],
					"presentation" : 1,
					"presentation_rect" : [ 409.0, 7.0, 8.0, 160.0 ]
				}

			}
, 			{
				"box" : 				{
					"id" : "obj-104",
					"maxclass" : "live.line",
					"numinlets" : 1,
					"numoutlets" : 0,
					"patching_rect" : [ 139.25, 374.296631, 5.0, 100.0 ],
					"presentation" : 1,
					"presentation_rect" : [ 350.0, 7.0, 8.0, 160.0 ]
				}

			}
, 			{
				"box" : 				{
					"comment" : "",
					"id" : "obj-1",
					"maxclass" : "outlet",
					"numinlets" : 1,
					"numoutlets" : 0,
					"patching_rect" : [ 119.25, 492.796631, 25.0, 25.0 ]
				}

			}
, 			{
				"box" : 				{
					"fontname" : "Arial Bold",
					"fontsize" : 10.0,
					"id" : "obj-58",
					"maxclass" : "newobj",
					"numinlets" : 6,
					"numoutlets" : 1,
					"outlettype" : [ "signal" ],
					"patching_rect" : [ 104.583344, 239.0, 86.5, 18.0 ],
					"text" : "biquad~"
				}

			}
, 			{
				"box" : 				{
					"comment" : "",
					"id" : "obj-35",
					"maxclass" : "outlet",
					"numinlets" : 1,
					"numoutlets" : 0,
					"patching_rect" : [ 49.750004, 492.796631, 25.0, 25.0 ]
				}

			}
, 			{
				"box" : 				{
					"comment" : "",
					"id" : "obj-5",
					"maxclass" : "inlet",
					"numinlets" : 0,
					"numoutlets" : 1,
					"outlettype" : [ "" ],
					"patching_rect" : [ 49.750004, 44.0, 25.0, 25.0 ]
				}

			}
, 			{
				"box" : 				{
					"id" : "obj-9",
					"maxclass" : "live.line",
					"numinlets" : 1,
					"numoutlets" : 0,
					"patching_rect" : [ 125.5, 374.296631, 5.0, 100.0 ],
					"presentation" : 1,
					"presentation_rect" : [ 163.0, 7.0, 8.0, 160.0 ]
				}

			}
, 			{
				"box" : 				{
					"id" : "obj-38",
					"maxclass" : "live.line",
					"numinlets" : 1,
					"numoutlets" : 0,
					"patching_rect" : [ 119.25, 374.296631, 5.0, 100.0 ],
					"presentation" : 1,
					"presentation_rect" : [ 58.0, 7.0, 8.0, 160.0 ]
				}

			}
, 			{
				"box" : 				{
					"annotation" : "Outgain",
					"channels" : 1,
					"clip_size" : 1,
					"display_range" : [ -70.0, 30.0 ],
					"id" : "obj-14",
					"maxclass" : "live.gain~",
					"numinlets" : 1,
					"numoutlets" : 4,
					"outlettype" : [ "signal", "", "float", "list" ],
					"parameter_enable" : 1,
					"patching_rect" : [ 49.750004, 374.296631, 46.0, 96.0 ],
					"presentation" : 1,
					"presentation_rect" : [ 361.5, 55.0, 40.0, 108.0 ],
					"prototypename" : "M4L.live.gain~.V.extended",
					"saved_attribute_attributes" : 					{
						"valueof" : 						{
							"parameter_longname" : "Outgain",
							"parameter_shortname" : "Outgain",
							"parameter_type" : 0,
							"parameter_mmin" : -127.0,
							"parameter_mmax" : 20.0,
							"parameter_initial_enable" : 1,
							"parameter_initial" : [ -127 ],
							"parameter_unitstyle" : 4
						}

					}
,
					"varname" : "Outgain"
				}

			}
, 			{
				"box" : 				{
					"annotation" : "Dry/wet",
					"id" : "obj-12",
					"maxclass" : "live.dial",
					"numinlets" : 1,
					"numoutlets" : 2,
					"outlettype" : [ "", "float" ],
					"parameter_enable" : 1,
					"patching_rect" : [ 159.416672, 265.0, 44.0, 47.0 ],
					"presentation" : 1,
					"presentation_rect" : [ 360.5, 3.0, 44.0, 47.0 ],
					"prototypename" : "amount",
					"saved_attribute_attributes" : 					{
						"valueof" : 						{
							"parameter_longname" : "Dry/wet",
							"parameter_shortname" : "Dry/wet",
							"parameter_type" : 0,
							"parameter_mmax" : 100.0,
							"parameter_initial_enable" : 1,
							"parameter_initial" : [ 100 ],
							"parameter_unitstyle" : 5
						}

					}
,
					"varname" : "Dry/wet"
				}

			}
, 			{
				"box" : 				{
					"fontname" : "Arial Bold",
					"fontsize" : 10.0,
					"id" : "obj-10",
					"maxclass" : "newobj",
					"numinlets" : 3,
					"numoutlets" : 1,
					"outlettype" : [ "signal" ],
					"patching_rect" : [ 49.750004, 319.5, 128.666672, 18.0 ],
					"text" : "M4L.bal1~"
				}

			}
, 			{
				"box" : 				{
					"annotation" : "Ingain",
					"channels" : 1,
					"clip_size" : 1,
					"display_range" : [ -70.0, 30.0 ],
					"id" : "obj-8",
					"maxclass" : "live.gain~",
					"numinlets" : 1,
					"numoutlets" : 4,
					"outlettype" : [ "signal", "", "float", "list" ],
					"parameter_enable" : 1,
					"patching_rect" : [ 104.583344, 108.0, 46.0, 63.0 ],
					"presentation" : 1,
					"presentation_rect" : [ 8.0, 7.0, 40.0, 160.0 ],
					"prototypename" : "M4L.live.gain~.V.extended",
					"saved_attribute_attributes" : 					{
						"valueof" : 						{
							"parameter_longname" : "Ingain",
							"parameter_shortname" : "Ingain",
							"parameter_type" : 0,
							"parameter_mmin" : -70.0,
							"parameter_mmax" : 30.0,
							"parameter_initial_enable" : 1,
							"parameter_initial" : [ 0.0 ],
							"parameter_unitstyle" : 4
						}

					}
,
					"varname" : "Ingain"
				}

			}
, 			{
				"box" : 				{
					"fontname" : "Arial Bold",
					"fontsize" : 10.0,
					"id" : "obj-2",
					"maxclass" : "message",
					"numinlets" : 2,
					"numoutlets" : 1,
					"outlettype" : [ "" ],
					"patching_rect" : [ 629.5, 404.296631, 34.0, 16.0 ],
					"text" : "clear"
				}

			}
 ],
		"lines" : [ 			{
				"patchline" : 				{
					"destination" : [ "obj-14", 0 ],
					"disabled" : 0,
					"hidden" : 0,
					"source" : [ "obj-10", 0 ]
				}

			}
, 			{
				"patchline" : 				{
					"destination" : [ "obj-18", 0 ],
					"disabled" : 0,
					"hidden" : 0,
					"source" : [ "obj-108", 0 ]
				}

			}
, 			{
				"patchline" : 				{
					"destination" : [ "obj-42", 0 ],
					"disabled" : 0,
					"hidden" : 0,
					"source" : [ "obj-109", 1 ]
				}

			}
, 			{
				"patchline" : 				{
					"destination" : [ "obj-67", 0 ],
					"disabled" : 0,
					"hidden" : 0,
					"source" : [ "obj-109", 1 ]
				}

			}
, 			{
				"patchline" : 				{
					"destination" : [ "obj-70", 0 ],
					"disabled" : 0,
					"hidden" : 0,
					"source" : [ "obj-109", 1 ]
				}

			}
, 			{
				"patchline" : 				{
					"destination" : [ "obj-72", 0 ],
					"disabled" : 0,
					"hidden" : 0,
					"source" : [ "obj-109", 1 ]
				}

			}
, 			{
				"patchline" : 				{
					"color" : [ 0.0, 0.0, 0.0, 0.05 ],
					"destination" : [ "obj-13", 0 ],
					"disabled" : 0,
					"hidden" : 0,
					"source" : [ "obj-11", 2 ]
				}

			}
, 			{
				"patchline" : 				{
					"destination" : [ "obj-143", 0 ],
					"disabled" : 0,
					"hidden" : 0,
					"source" : [ "obj-11", 5 ]
				}

			}
, 			{
				"patchline" : 				{
					"destination" : [ "obj-17", 0 ],
					"disabled" : 0,
					"hidden" : 0,
					"source" : [ "obj-11", 7 ]
				}

			}
, 			{
				"patchline" : 				{
					"destination" : [ "obj-40", 0 ],
					"disabled" : 0,
					"hidden" : 0,
					"source" : [ "obj-11", 0 ]
				}

			}
, 			{
				"patchline" : 				{
					"destination" : [ "obj-45", 0 ],
					"disabled" : 0,
					"hidden" : 0,
					"source" : [ "obj-11", 6 ]
				}

			}
, 			{
				"patchline" : 				{
					"color" : [ 0.0, 0.0, 0.0, 0.05 ],
					"destination" : [ "obj-6", 0 ],
					"disabled" : 0,
					"hidden" : 0,
					"source" : [ "obj-11", 1 ]
				}

			}
, 			{
				"patchline" : 				{
					"color" : [ 0.0, 0.0, 0.0, 0.05 ],
					"destination" : [ "obj-86", 0 ],
					"disabled" : 0,
					"hidden" : 0,
					"source" : [ "obj-11", 3 ]
				}

			}
, 			{
				"patchline" : 				{
					"color" : [ 0.0, 0.0, 0.0, 0.05 ],
					"destination" : [ "obj-87", 0 ],
					"disabled" : 0,
					"hidden" : 0,
					"source" : [ "obj-11", 4 ]
				}

			}
, 			{
				"patchline" : 				{
					"destination" : [ "obj-23", 0 ],
					"disabled" : 0,
					"hidden" : 0,
					"source" : [ "obj-112", 0 ]
				}

			}
, 			{
				"patchline" : 				{
					"destination" : [ "obj-21", 0 ],
					"disabled" : 0,
					"hidden" : 0,
					"source" : [ "obj-113", 0 ]
				}

			}
, 			{
				"patchline" : 				{
					"destination" : [ "obj-25", 0 ],
					"disabled" : 0,
					"hidden" : 0,
					"source" : [ "obj-115", 0 ]
				}

			}
, 			{
				"patchline" : 				{
					"destination" : [ "obj-11", 6 ],
					"disabled" : 0,
					"hidden" : 0,
					"source" : [ "obj-118", 0 ]
				}

			}
, 			{
				"patchline" : 				{
					"destination" : [ "obj-10", 2 ],
					"disabled" : 0,
					"hidden" : 0,
					"source" : [ "obj-12", 0 ]
				}

			}
, 			{
				"patchline" : 				{
					"color" : [ 0.0, 0.0, 0.0, 0.05 ],
					"destination" : [ "obj-11", 4 ],
					"disabled" : 0,
					"hidden" : 0,
					"source" : [ "obj-13", 3 ]
				}

			}
, 			{
				"patchline" : 				{
					"color" : [ 0.0, 0.0, 0.0, 0.05 ],
					"destination" : [ "obj-11", 3 ],
					"disabled" : 0,
					"hidden" : 0,
					"source" : [ "obj-13", 1 ]
				}

			}
, 			{
				"patchline" : 				{
					"destination" : [ "obj-75", 0 ],
					"disabled" : 0,
					"hidden" : 0,
					"source" : [ "obj-13", 1 ]
				}

			}
, 			{
				"patchline" : 				{
					"destination" : [ "obj-189", 6 ],
					"disabled" : 0,
					"hidden" : 0,
					"source" : [ "obj-131", 0 ]
				}

			}
, 			{
				"patchline" : 				{
					"destination" : [ "obj-11", 5 ],
					"disabled" : 0,
					"hidden" : 0,
					"source" : [ "obj-139", 1 ]
				}

			}
, 			{
				"patchline" : 				{
					"destination" : [ "obj-145", 0 ],
					"disabled" : 0,
					"hidden" : 0,
					"source" : [ "obj-139", 1 ]
				}

			}
, 			{
				"patchline" : 				{
					"destination" : [ "obj-1", 0 ],
					"disabled" : 0,
					"hidden" : 0,
					"source" : [ "obj-14", 1 ]
				}

			}
, 			{
				"patchline" : 				{
					"destination" : [ "obj-35", 0 ],
					"disabled" : 0,
					"hidden" : 0,
					"source" : [ "obj-14", 0 ]
				}

			}
, 			{
				"patchline" : 				{
					"destination" : [ "obj-143", 0 ],
					"disabled" : 0,
					"hidden" : 0,
					"source" : [ "obj-142", 0 ]
				}

			}
, 			{
				"patchline" : 				{
					"destination" : [ "obj-139", 0 ],
					"disabled" : 0,
					"hidden" : 0,
					"source" : [ "obj-143", 3 ]
				}

			}
, 			{
				"patchline" : 				{
					"destination" : [ "obj-80", 0 ],
					"disabled" : 0,
					"hidden" : 0,
					"source" : [ "obj-143", 1 ]
				}

			}
, 			{
				"patchline" : 				{
					"destination" : [ "obj-58", 0 ],
					"disabled" : 0,
					"hidden" : 0,
					"source" : [ "obj-150", 0 ]
				}

			}
, 			{
				"patchline" : 				{
					"destination" : [ "obj-19", 0 ],
					"disabled" : 0,
					"hidden" : 0,
					"source" : [ "obj-18", 0 ]
				}

			}
, 			{
				"patchline" : 				{
					"destination" : [ "obj-29", 2 ],
					"disabled" : 0,
					"hidden" : 0,
					"source" : [ "obj-189", 3 ]
				}

			}
, 			{
				"patchline" : 				{
					"destination" : [ "obj-29", 1 ],
					"disabled" : 0,
					"hidden" : 0,
					"source" : [ "obj-189", 2 ]
				}

			}
, 			{
				"patchline" : 				{
					"destination" : [ "obj-29", 0 ],
					"disabled" : 0,
					"hidden" : 0,
					"source" : [ "obj-189", 1 ]
				}

			}
, 			{
				"patchline" : 				{
					"destination" : [ "obj-58", 1 ],
					"disabled" : 0,
					"hidden" : 0,
					"source" : [ "obj-189", 0 ]
				}

			}
, 			{
				"patchline" : 				{
					"destination" : [ "obj-150", 1 ],
					"disabled" : 0,
					"hidden" : 0,
					"source" : [ "obj-19", 0 ]
				}

			}
, 			{
				"patchline" : 				{
					"destination" : [ "obj-150", 0 ],
					"disabled" : 0,
					"hidden" : 0,
					"source" : [ "obj-2", 0 ]
				}

			}
, 			{
				"patchline" : 				{
					"destination" : [ "obj-150", 2 ],
					"disabled" : 0,
					"hidden" : 0,
					"source" : [ "obj-20", 0 ]
				}

			}
, 			{
				"patchline" : 				{
					"destination" : [ "obj-20", 0 ],
					"disabled" : 0,
					"hidden" : 0,
					"source" : [ "obj-21", 0 ]
				}

			}
, 			{
				"patchline" : 				{
					"destination" : [ "obj-150", 3 ],
					"disabled" : 0,
					"hidden" : 0,
					"source" : [ "obj-22", 0 ]
				}

			}
, 			{
				"patchline" : 				{
					"destination" : [ "obj-22", 0 ],
					"disabled" : 0,
					"hidden" : 0,
					"source" : [ "obj-23", 0 ]
				}

			}
, 			{
				"patchline" : 				{
					"destination" : [ "obj-150", 4 ],
					"disabled" : 0,
					"hidden" : 0,
					"source" : [ "obj-24", 0 ]
				}

			}
, 			{
				"patchline" : 				{
					"destination" : [ "obj-24", 0 ],
					"disabled" : 0,
					"hidden" : 0,
					"source" : [ "obj-25", 0 ]
				}

			}
, 			{
				"patchline" : 				{
					"destination" : [ "obj-67", 0 ],
					"disabled" : 0,
					"hidden" : 0,
					"source" : [ "obj-29", 1 ]
				}

			}
, 			{
				"patchline" : 				{
					"destination" : [ "obj-70", 0 ],
					"disabled" : 0,
					"hidden" : 0,
					"source" : [ "obj-29", 0 ]
				}

			}
, 			{
				"patchline" : 				{
					"destination" : [ "obj-72", 0 ],
					"disabled" : 0,
					"hidden" : 0,
					"source" : [ "obj-29", 2 ]
				}

			}
, 			{
				"patchline" : 				{
					"destination" : [ "obj-307", 0 ],
					"disabled" : 0,
					"hidden" : 0,
					"source" : [ "obj-306", 0 ]
				}

			}
, 			{
				"patchline" : 				{
					"destination" : [ "obj-284", 0 ],
					"disabled" : 0,
					"hidden" : 0,
					"source" : [ "obj-307", 0 ]
				}

			}
, 			{
				"patchline" : 				{
					"destination" : [ "obj-11", 0 ],
					"disabled" : 0,
					"hidden" : 0,
					"source" : [ "obj-40", 0 ]
				}

			}
, 			{
				"patchline" : 				{
					"destination" : [ "obj-189", 0 ],
					"disabled" : 0,
					"hidden" : 0,
					"source" : [ "obj-42", 1 ]
				}

			}
, 			{
				"patchline" : 				{
					"destination" : [ "obj-2", 0 ],
					"disabled" : 0,
					"hidden" : 0,
					"source" : [ "obj-45", 0 ]
				}

			}
, 			{
				"patchline" : 				{
					"destination" : [ "obj-306", 0 ],
					"disabled" : 0,
					"hidden" : 0,
					"source" : [ "obj-45", 0 ]
				}

			}
, 			{
				"patchline" : 				{
					"destination" : [ "obj-10", 0 ],
					"disabled" : 0,
					"hidden" : 0,
					"source" : [ "obj-5", 0 ]
				}

			}
, 			{
				"patchline" : 				{
					"destination" : [ "obj-8", 0 ],
					"disabled" : 0,
					"hidden" : 0,
					"source" : [ "obj-5", 0 ]
				}

			}
, 			{
				"patchline" : 				{
					"destination" : [ "obj-10", 1 ],
					"disabled" : 0,
					"hidden" : 0,
					"source" : [ "obj-58", 0 ]
				}

			}
, 			{
				"patchline" : 				{
					"color" : [ 0.0, 0.0, 0.0, 0.05 ],
					"destination" : [ "obj-11", 1 ],
					"disabled" : 0,
					"hidden" : 0,
					"source" : [ "obj-6", 0 ]
				}

			}
, 			{
				"patchline" : 				{
					"destination" : [ "obj-131", 0 ],
					"disabled" : 0,
					"hidden" : 0,
					"source" : [ "obj-67", 0 ]
				}

			}
, 			{
				"patchline" : 				{
					"color" : [ 0.0, 0.0, 0.0, 0.05 ],
					"destination" : [ "obj-11", 2 ],
					"disabled" : 0,
					"hidden" : 0,
					"source" : [ "obj-7", 1 ]
				}

			}
, 			{
				"patchline" : 				{
					"destination" : [ "obj-189", 5 ],
					"disabled" : 0,
					"hidden" : 0,
					"source" : [ "obj-70", 0 ]
				}

			}
, 			{
				"patchline" : 				{
					"destination" : [ "obj-189", 7 ],
					"disabled" : 0,
					"hidden" : 0,
					"source" : [ "obj-72", 0 ]
				}

			}
, 			{
				"patchline" : 				{
					"destination" : [ "obj-80", 0 ],
					"disabled" : 0,
					"hidden" : 0,
					"source" : [ "obj-75", 0 ]
				}

			}
, 			{
				"patchline" : 				{
					"destination" : [ "obj-150", 0 ],
					"disabled" : 0,
					"hidden" : 0,
					"source" : [ "obj-8", 0 ]
				}

			}
, 			{
				"patchline" : 				{
					"destination" : [ "obj-13", 0 ],
					"disabled" : 0,
					"hidden" : 0,
					"source" : [ "obj-80", 0 ]
				}

			}
, 			{
				"patchline" : 				{
					"color" : [ 0.0, 0.0, 0.0, 0.05 ],
					"destination" : [ "obj-11", 2 ],
					"disabled" : 0,
					"hidden" : 0,
					"source" : [ "obj-86", 1 ]
				}

			}
 ],
		"parameters" : 		{
			"obj-12" : [ "Dry/wet", "Dry/wet", 0 ],
			"obj-112" : [ "Ffwd", "Ffwd", 0 ],
			"obj-8" : [ "Ingain", "Ingain", 0 ],
			"obj-108" : [ "delay", "delay", 0 ],
			"obj-70" : [ "FilterFreq", "FilterFreq", 0 ],
			"obj-14" : [ "Outgain", "Outgain", 0 ],
			"obj-67" : [ "FilterGain", "FilterGain", 0 ],
			"obj-80" : [ "PRESET", "PRESET", 0 ],
			"obj-42" : [ "FilterMode", "FilterMode", 0 ],
			"obj-113" : [ "amp", "amp", 0 ],
			"obj-115" : [ "Fback", "Fback", 0 ],
			"obj-72" : [ "FilterQ", "FilterQ", 0 ]
		}
,
		"dependency_cache" : [ 			{
				"name" : "M4L.bal1~.maxpat",
				"bootpath" : "/Applications/Max 6.1.3/patches/m4l-patches/Tools resources",
				"patcherrelativepath" : "../../../../../../../../Applications/Max 6.1.3/patches/m4l-patches/Tools resources",
				"type" : "JSON",
				"implicit" : 1
			}
, 			{
				"name" : "CombPreset.json",
				"bootpath" : "/Users/goepfer/Documents/MAX-LIBRARY/TG.tools/_MODULES/JSON",
				"patcherrelativepath" : "../../JSON",
				"type" : "JSON",
				"implicit" : 1
			}
, 			{
				"name" : "tg.m.fgraph.maxpat",
				"bootpath" : "/Users/goepfer/Documents/MAX-LIBRARY/TG.tools/_MODULES/CTRL",
				"patcherrelativepath" : "../../CTRL",
				"type" : "JSON",
				"implicit" : 1
			}
, 			{
				"name" : "tg.m.preset.maxpat",
				"bootpath" : "/Users/goepfer/Documents/MAX-LIBRARY/TG.tools/_MODULES/CTRL",
				"patcherrelativepath" : "../../CTRL",
				"type" : "JSON",
				"implicit" : 1
			}
 ]
	}

}
