{
	"patcher" : 	{
		"fileversion" : 1,
		"appversion" : 		{
			"major" : 5,
			"minor" : 1,
			"revision" : 9
		}
,
		"rect" : [ 776.0, 500.0, 297.0, 258.0 ],
		"bglocked" : 0,
		"defrect" : [ 776.0, 500.0, 297.0, 258.0 ],
		"openrect" : [ 0.0, 0.0, 0.0, 0.0 ],
		"openinpresentation" : 0,
		"default_fontsize" : 10.0,
		"default_fontface" : 0,
		"default_fontname" : "Arial Bold",
		"gridonopen" : 0,
		"gridsize" : [ 8.0, 8.0 ],
		"gridsnaponopen" : 0,
		"toolbarvisible" : 1,
		"boxanimatetime" : 200,
		"imprint" : 0,
		"enablehscroll" : 1,
		"enablevscroll" : 1,
		"devicewidth" : 0.0,
		"boxes" : [ 			{
				"box" : 				{
					"maxclass" : "newobj",
					"text" : "combine BUFFER- toto @triggers 1",
					"linecount" : 2,
					"patching_rect" : [ 40.0, 64.0, 99.0, 29.0 ],
					"numinlets" : 2,
					"id" : "obj-4",
					"fontname" : "Arial Bold",
					"numoutlets" : 2,
					"outlettype" : [ "", "" ],
					"fontsize" : 10.0
				}

			}
, 			{
				"box" : 				{
					"maxclass" : "message",
					"text" : "BUFFER-G6_127.aif",
					"patching_rect" : [ 96.0, 144.0, 148.0, 16.0 ],
					"numinlets" : 2,
					"id" : "obj-16",
					"fontname" : "Arial Bold",
					"numoutlets" : 1,
					"outlettype" : [ "" ],
					"fontsize" : 10.0
				}

			}
, 			{
				"box" : 				{
					"maxclass" : "newobj",
					"text" : "prepend set",
					"patching_rect" : [ 40.0, 120.0, 67.0, 18.0 ],
					"numinlets" : 1,
					"id" : "obj-14",
					"fontname" : "Arial Bold",
					"numoutlets" : 1,
					"outlettype" : [ "" ],
					"fontsize" : 10.0
				}

			}
, 			{
				"box" : 				{
					"maxclass" : "newobj",
					"text" : "receive",
					"patching_rect" : [ 40.0, 144.0, 45.0, 18.0 ],
					"numinlets" : 1,
					"id" : "obj-13",
					"fontname" : "Arial Bold",
					"color" : [ 0.0, 1.0, 0.0, 1.0 ],
					"numoutlets" : 1,
					"outlettype" : [ "" ],
					"fontsize" : 10.0
				}

			}
, 			{
				"box" : 				{
					"maxclass" : "newobj",
					"text" : "route set",
					"patching_rect" : [ 120.0, 40.0, 53.0, 18.0 ],
					"numinlets" : 1,
					"id" : "obj-6",
					"fontname" : "Arial Bold",
					"numoutlets" : 2,
					"outlettype" : [ "", "" ],
					"fontsize" : 10.0
				}

			}
, 			{
				"box" : 				{
					"maxclass" : "newobj",
					"text" : "in 1",
					"patching_rect" : [ 16.0, 8.0, 28.0, 18.0 ],
					"numinlets" : 1,
					"id" : "obj-2",
					"fontname" : "Arial Bold",
					"numoutlets" : 1,
					"outlettype" : [ "" ],
					"fontsize" : 10.0,
					"saved_object_attributes" : 					{
						"attr_comment" : ""
					}

				}

			}
, 			{
				"box" : 				{
					"maxclass" : "newobj",
					"text" : "buffer~ #0 1000",
					"patching_rect" : [ 16.0, 176.0, 142.0, 18.0 ],
					"numinlets" : 1,
					"id" : "obj-1",
					"fontname" : "Arial Bold",
					"numoutlets" : 2,
					"outlettype" : [ "float", "bang" ],
					"fontsize" : 10.0
				}

			}
 ],
		"lines" : [ 			{
				"patchline" : 				{
					"source" : [ "obj-2", 0 ],
					"destination" : [ "obj-1", 0 ],
					"hidden" : 0,
					"midpoints" : [  ]
				}

			}
, 			{
				"patchline" : 				{
					"source" : [ "obj-14", 0 ],
					"destination" : [ "obj-16", 0 ],
					"hidden" : 0,
					"midpoints" : [  ]
				}

			}
, 			{
				"patchline" : 				{
					"source" : [ "obj-13", 0 ],
					"destination" : [ "obj-1", 0 ],
					"hidden" : 0,
					"midpoints" : [  ]
				}

			}
, 			{
				"patchline" : 				{
					"source" : [ "obj-14", 0 ],
					"destination" : [ "obj-13", 0 ],
					"hidden" : 0,
					"midpoints" : [  ]
				}

			}
, 			{
				"patchline" : 				{
					"source" : [ "obj-2", 0 ],
					"destination" : [ "obj-6", 0 ],
					"hidden" : 0,
					"midpoints" : [  ]
				}

			}
, 			{
				"patchline" : 				{
					"source" : [ "obj-6", 0 ],
					"destination" : [ "obj-4", 1 ],
					"hidden" : 0,
					"midpoints" : [  ]
				}

			}
, 			{
				"patchline" : 				{
					"source" : [ "obj-4", 0 ],
					"destination" : [ "obj-14", 0 ],
					"hidden" : 0,
					"midpoints" : [  ]
				}

			}
 ]
	}

}
