{
	"patcher" : 	{
		"fileversion" : 1,
		"appversion" : 		{
			"major" : 6,
			"minor" : 1,
			"revision" : 6,
			"architecture" : "x86"
		}
,
		"rect" : [ 90.0, 44.0, 1493.0, 743.0 ],
		"bgcolor" : [ 1.0, 1.0, 1.0, 0.0 ],
		"bglocked" : 0,
		"openinpresentation" : 1,
		"default_fontsize" : 10.0,
		"default_fontface" : 0,
		"default_fontname" : "Arial Bold",
		"gridonopen" : 0,
		"gridsize" : [ 15.0, 15.0 ],
		"gridsnaponopen" : 0,
		"statusbarvisible" : 1,
		"toolbarvisible" : 0,
		"boxanimatetime" : 200,
		"imprint" : 0,
		"enablehscroll" : 1,
		"enablevscroll" : 1,
		"devicewidth" : 0.0,
		"description" : "",
		"digest" : "",
		"tags" : "",
		"boxes" : [ 			{
				"box" : 				{
					"fontname" : "Arial Bold",
					"fontsize" : 10.0,
					"id" : "obj-49",
					"maxclass" : "message",
					"numinlets" : 2,
					"numoutlets" : 1,
					"outlettype" : [ "" ],
					"patching_rect" : [ 155.0, 292.0, 50.0, 16.0 ],
					"text" : "clear"
				}

			}
, 			{
				"box" : 				{
					"fontname" : "Arial Bold",
					"fontsize" : 10.0,
					"id" : "obj-47",
					"maxclass" : "message",
					"numinlets" : 2,
					"numoutlets" : 1,
					"outlettype" : [ "" ],
					"patching_rect" : [ 130.0, 350.167236, 50.0, 16.0 ],
					"text" : "$1"
				}

			}
, 			{
				"box" : 				{
					"fontname" : "Arial Bold",
					"fontsize" : 10.0,
					"id" : "obj-44",
					"maxclass" : "newobj",
					"numinlets" : 1,
					"numoutlets" : 1,
					"outlettype" : [ "" ],
					"patching_rect" : [ 130.0, 374.167236, 100.0, 18.0 ],
					"text" : "prepend append"
				}

			}
, 			{
				"box" : 				{
					"fontname" : "Arial Bold",
					"fontsize" : 10.0,
					"id" : "obj-43",
					"items" : [ "AILE-Detector-1.aif", ",", "AILE-Detector-10.aif", ",", "AILE-Detector-100.aif", ",", "AILE-Detector-101.aif", ",", "AILE-Detector-102.aif", ",", "AILE-Detector-103.aif", ",", "AILE-Detector-104.aif", ",", "AILE-Detector-105.aif", ",", "AILE-Detector-106.aif", ",", "AILE-Detector-107.aif", ",", "AILE-Detector-108.aif", ",", "AILE-Detector-109.aif", ",", "AILE-Detector-11.aif", ",", "AILE-Detector-110.aif", ",", "AILE-Detector-111.aif", ",", "AILE-Detector-112.aif", ",", "AILE-Detector-113.aif", ",", "AILE-Detector-114.aif", ",", "AILE-Detector-115.aif", ",", "AILE-Detector-116.aif", ",", "AILE-Detector-117.aif", ",", "AILE-Detector-118.aif", ",", "AILE-Detector-119.aif", ",", "AILE-Detector-12.aif", ",", "AILE-Detector-120.aif", ",", "AILE-Detector-121.aif", ",", "AILE-Detector-122.aif", ",", "AILE-Detector-123.aif", ",", "AILE-Detector-124.aif", ",", "AILE-Detector-125.aif", ",", "AILE-Detector-126.aif", ",", "AILE-Detector-127.aif", ",", "AILE-Detector-128.aif", ",", "AILE-Detector-129.aif", ",", "AILE-Detector-13.aif", ",", "AILE-Detector-130.aif", ",", "AILE-Detector-131.aif", ",", "AILE-Detector-132.aif", ",", "AILE-Detector-133.aif", ",", "AILE-Detector-134.aif", ",", "AILE-Detector-135.aif", ",", "AILE-Detector-136.aif", ",", "AILE-Detector-137.aif", ",", "AILE-Detector-138.aif", ",", "AILE-Detector-139.aif", ",", "AILE-Detector-14.aif", ",", "AILE-Detector-140.aif", ",", "AILE-Detector-141.aif", ",", "AILE-Detector-142.aif", ",", "AILE-Detector-143.aif", ",", "AILE-Detector-144.aif", ",", "AILE-Detector-145.aif", ",", "AILE-Detector-146.aif", ",", "AILE-Detector-147.aif", ",", "AILE-Detector-148.aif", ",", "AILE-Detector-149.aif", ",", "AILE-Detector-15.aif", ",", "AILE-Detector-150.aif", ",", "AILE-Detector-151.aif", ",", "AILE-Detector-152.aif", ",", "AILE-Detector-153.aif", ",", "AILE-Detector-154.aif", ",", "AILE-Detector-155.aif", ",", "AILE-Detector-156.aif", ",", "AILE-Detector-16.aif", ",", "AILE-Detector-17.aif", ",", "AILE-Detector-18.aif", ",", "AILE-Detector-19.aif", ",", "AILE-Detector-2.aif", ",", "AILE-Detector-20.aif", ",", "AILE-Detector-21.aif", ",", "AILE-Detector-22.aif", ",", "AILE-Detector-23.aif", ",", "AILE-Detector-24.aif", ",", "AILE-Detector-25.aif", ",", "AILE-Detector-26.aif", ",", "AILE-Detector-27.aif", ",", "AILE-Detector-28.aif", ",", "AILE-Detector-29.aif", ",", "AILE-Detector-3.aif", ",", "AILE-Detector-30.aif", ",", "AILE-Detector-31.aif", ",", "AILE-Detector-32.aif", ",", "AILE-Detector-33.aif", ",", "AILE-Detector-34.aif", ",", "AILE-Detector-35.aif", ",", "AILE-Detector-36.aif", ",", "AILE-Detector-37.aif", ",", "AILE-Detector-38.aif", ",", "AILE-Detector-39.aif", ",", "AILE-Detector-4.aif", ",", "AILE-Detector-40.aif", ",", "AILE-Detector-41.aif", ",", "AILE-Detector-42.aif", ",", "AILE-Detector-43.aif", ",", "AILE-Detector-44.aif", ",", "AILE-Detector-45.aif", ",", "AILE-Detector-46.aif", ",", "AILE-Detector-47.aif", ",", "AILE-Detector-48.aif", ",", "AILE-Detector-49.aif", ",", "AILE-Detector-5.aif", ",", "AILE-Detector-50.aif", ",", "AILE-Detector-51.aif", ",", "AILE-Detector-52.aif", ",", "AILE-Detector-53.aif", ",", "AILE-Detector-54.aif", ",", "AILE-Detector-55.aif", ",", "AILE-Detector-56.aif", ",", "AILE-Detector-57.aif", ",", "AILE-Detector-58.aif", ",", "AILE-Detector-59.aif", ",", "AILE-Detector-6.aif", ",", "AILE-Detector-60.aif", ",", "AILE-Detector-61.aif", ",", "AILE-Detector-62.aif", ",", "AILE-Detector-63.aif", ",", "AILE-Detector-64.aif", ",", "AILE-Detector-65.aif", ",", "AILE-Detector-66.aif", ",", "AILE-Detector-67.aif", ",", "AILE-Detector-68.aif", ",", "AILE-Detector-69.aif", ",", "AILE-Detector-7.aif", ",", "AILE-Detector-70.aif", ",", "AILE-Detector-71.aif", ",", "AILE-Detector-72.aif", ",", "AILE-Detector-73.aif", ",", "AILE-Detector-74.aif", ",", "AILE-Detector-75.aif", ",", "AILE-Detector-76.aif", ",", "AILE-Detector-77.aif", ",", "AILE-Detector-78.aif", ",", "AILE-Detector-79.aif", ",", "AILE-Detector-8.aif", ",", "AILE-Detector-80.aif", ",", "AILE-Detector-81.aif", ",", "AILE-Detector-82.aif", ",", "AILE-Detector-83.aif", ",", "AILE-Detector-84.aif", ",", "AILE-Detector-85.aif", ",", "AILE-Detector-86.aif", ",", "AILE-Detector-87.aif", ",", "AILE-Detector-88.aif", ",", "AILE-Detector-89.aif", ",", "AILE-Detector-9.aif", ",", "AILE-Detector-90.aif", ",", "AILE-Detector-91.aif", ",", "AILE-Detector-92.aif", ",", "AILE-Detector-93.aif", ",", "AILE-Detector-94.aif", ",", "AILE-Detector-95.aif", ",", "AILE-Detector-96.aif", ",", "AILE-Detector-97.aif", ",", "AILE-Detector-98.aif", ",", "AILE-Detector-99.aif" ],
					"maxclass" : "umenu",
					"numinlets" : 1,
					"numoutlets" : 3,
					"outlettype" : [ "int", "", "" ],
					"parameter_enable" : 0,
					"patching_rect" : [ 130.0, 397.5, 134.0, 18.0 ]
				}

			}
, 			{
				"box" : 				{
					"fontname" : "Arial Bold",
					"fontsize" : 10.0,
					"id" : "obj-41",
					"maxclass" : "message",
					"numinlets" : 2,
					"numoutlets" : 1,
					"outlettype" : [ "" ],
					"patching_rect" : [ 103.0, 292.0, 50.0, 16.0 ],
					"text" : "dump"
				}

			}
, 			{
				"box" : 				{
					"coll_data" : 					{
						"count" : 156,
						"data" : [ 							{
								"key" : "AILE-Detector-1.aif",
								"value" : [ 2 ]
							}
, 							{
								"key" : "AILE-Detector-10.aif",
								"value" : [ 3 ]
							}
, 							{
								"key" : "AILE-Detector-100.aif",
								"value" : [ 4 ]
							}
, 							{
								"key" : "AILE-Detector-101.aif",
								"value" : [ 5 ]
							}
, 							{
								"key" : "AILE-Detector-102.aif",
								"value" : [ 6 ]
							}
, 							{
								"key" : "AILE-Detector-103.aif",
								"value" : [ 7 ]
							}
, 							{
								"key" : "AILE-Detector-104.aif",
								"value" : [ 8 ]
							}
, 							{
								"key" : "AILE-Detector-105.aif",
								"value" : [ 9 ]
							}
, 							{
								"key" : "AILE-Detector-106.aif",
								"value" : [ 10 ]
							}
, 							{
								"key" : "AILE-Detector-107.aif",
								"value" : [ 11 ]
							}
, 							{
								"key" : "AILE-Detector-108.aif",
								"value" : [ 12 ]
							}
, 							{
								"key" : "AILE-Detector-109.aif",
								"value" : [ 13 ]
							}
, 							{
								"key" : "AILE-Detector-11.aif",
								"value" : [ 14 ]
							}
, 							{
								"key" : "AILE-Detector-110.aif",
								"value" : [ 15 ]
							}
, 							{
								"key" : "AILE-Detector-111.aif",
								"value" : [ 16 ]
							}
, 							{
								"key" : "AILE-Detector-112.aif",
								"value" : [ 17 ]
							}
, 							{
								"key" : "AILE-Detector-113.aif",
								"value" : [ 18 ]
							}
, 							{
								"key" : "AILE-Detector-114.aif",
								"value" : [ 19 ]
							}
, 							{
								"key" : "AILE-Detector-115.aif",
								"value" : [ 20 ]
							}
, 							{
								"key" : "AILE-Detector-116.aif",
								"value" : [ 21 ]
							}
, 							{
								"key" : "AILE-Detector-117.aif",
								"value" : [ 22 ]
							}
, 							{
								"key" : "AILE-Detector-118.aif",
								"value" : [ 23 ]
							}
, 							{
								"key" : "AILE-Detector-119.aif",
								"value" : [ 24 ]
							}
, 							{
								"key" : "AILE-Detector-12.aif",
								"value" : [ 25 ]
							}
, 							{
								"key" : "AILE-Detector-120.aif",
								"value" : [ 26 ]
							}
, 							{
								"key" : "AILE-Detector-121.aif",
								"value" : [ 27 ]
							}
, 							{
								"key" : "AILE-Detector-122.aif",
								"value" : [ 28 ]
							}
, 							{
								"key" : "AILE-Detector-123.aif",
								"value" : [ 29 ]
							}
, 							{
								"key" : "AILE-Detector-124.aif",
								"value" : [ 30 ]
							}
, 							{
								"key" : "AILE-Detector-125.aif",
								"value" : [ 31 ]
							}
, 							{
								"key" : "AILE-Detector-126.aif",
								"value" : [ 32 ]
							}
, 							{
								"key" : "AILE-Detector-127.aif",
								"value" : [ 33 ]
							}
, 							{
								"key" : "AILE-Detector-128.aif",
								"value" : [ 34 ]
							}
, 							{
								"key" : "AILE-Detector-129.aif",
								"value" : [ 35 ]
							}
, 							{
								"key" : "AILE-Detector-13.aif",
								"value" : [ 36 ]
							}
, 							{
								"key" : "AILE-Detector-130.aif",
								"value" : [ 37 ]
							}
, 							{
								"key" : "AILE-Detector-131.aif",
								"value" : [ 38 ]
							}
, 							{
								"key" : "AILE-Detector-132.aif",
								"value" : [ 39 ]
							}
, 							{
								"key" : "AILE-Detector-133.aif",
								"value" : [ 40 ]
							}
, 							{
								"key" : "AILE-Detector-134.aif",
								"value" : [ 41 ]
							}
, 							{
								"key" : "AILE-Detector-135.aif",
								"value" : [ 42 ]
							}
, 							{
								"key" : "AILE-Detector-136.aif",
								"value" : [ 43 ]
							}
, 							{
								"key" : "AILE-Detector-137.aif",
								"value" : [ 44 ]
							}
, 							{
								"key" : "AILE-Detector-138.aif",
								"value" : [ 45 ]
							}
, 							{
								"key" : "AILE-Detector-139.aif",
								"value" : [ 46 ]
							}
, 							{
								"key" : "AILE-Detector-14.aif",
								"value" : [ 47 ]
							}
, 							{
								"key" : "AILE-Detector-140.aif",
								"value" : [ 48 ]
							}
, 							{
								"key" : "AILE-Detector-141.aif",
								"value" : [ 49 ]
							}
, 							{
								"key" : "AILE-Detector-142.aif",
								"value" : [ 50 ]
							}
, 							{
								"key" : "AILE-Detector-143.aif",
								"value" : [ 51 ]
							}
, 							{
								"key" : "AILE-Detector-144.aif",
								"value" : [ 52 ]
							}
, 							{
								"key" : "AILE-Detector-145.aif",
								"value" : [ 53 ]
							}
, 							{
								"key" : "AILE-Detector-146.aif",
								"value" : [ 54 ]
							}
, 							{
								"key" : "AILE-Detector-147.aif",
								"value" : [ 55 ]
							}
, 							{
								"key" : "AILE-Detector-148.aif",
								"value" : [ 56 ]
							}
, 							{
								"key" : "AILE-Detector-149.aif",
								"value" : [ 57 ]
							}
, 							{
								"key" : "AILE-Detector-15.aif",
								"value" : [ 58 ]
							}
, 							{
								"key" : "AILE-Detector-150.aif",
								"value" : [ 59 ]
							}
, 							{
								"key" : "AILE-Detector-151.aif",
								"value" : [ 60 ]
							}
, 							{
								"key" : "AILE-Detector-152.aif",
								"value" : [ 61 ]
							}
, 							{
								"key" : "AILE-Detector-153.aif",
								"value" : [ 62 ]
							}
, 							{
								"key" : "AILE-Detector-154.aif",
								"value" : [ 63 ]
							}
, 							{
								"key" : "AILE-Detector-155.aif",
								"value" : [ 64 ]
							}
, 							{
								"key" : "AILE-Detector-156.aif",
								"value" : [ 65 ]
							}
, 							{
								"key" : "AILE-Detector-16.aif",
								"value" : [ 66 ]
							}
, 							{
								"key" : "AILE-Detector-17.aif",
								"value" : [ 67 ]
							}
, 							{
								"key" : "AILE-Detector-18.aif",
								"value" : [ 68 ]
							}
, 							{
								"key" : "AILE-Detector-19.aif",
								"value" : [ 69 ]
							}
, 							{
								"key" : "AILE-Detector-2.aif",
								"value" : [ 70 ]
							}
, 							{
								"key" : "AILE-Detector-20.aif",
								"value" : [ 71 ]
							}
, 							{
								"key" : "AILE-Detector-21.aif",
								"value" : [ 72 ]
							}
, 							{
								"key" : "AILE-Detector-22.aif",
								"value" : [ 73 ]
							}
, 							{
								"key" : "AILE-Detector-23.aif",
								"value" : [ 74 ]
							}
, 							{
								"key" : "AILE-Detector-24.aif",
								"value" : [ 75 ]
							}
, 							{
								"key" : "AILE-Detector-25.aif",
								"value" : [ 76 ]
							}
, 							{
								"key" : "AILE-Detector-26.aif",
								"value" : [ 77 ]
							}
, 							{
								"key" : "AILE-Detector-27.aif",
								"value" : [ 78 ]
							}
, 							{
								"key" : "AILE-Detector-28.aif",
								"value" : [ 79 ]
							}
, 							{
								"key" : "AILE-Detector-29.aif",
								"value" : [ 80 ]
							}
, 							{
								"key" : "AILE-Detector-3.aif",
								"value" : [ 81 ]
							}
, 							{
								"key" : "AILE-Detector-30.aif",
								"value" : [ 82 ]
							}
, 							{
								"key" : "AILE-Detector-31.aif",
								"value" : [ 83 ]
							}
, 							{
								"key" : "AILE-Detector-32.aif",
								"value" : [ 84 ]
							}
, 							{
								"key" : "AILE-Detector-33.aif",
								"value" : [ 85 ]
							}
, 							{
								"key" : "AILE-Detector-34.aif",
								"value" : [ 86 ]
							}
, 							{
								"key" : "AILE-Detector-35.aif",
								"value" : [ 87 ]
							}
, 							{
								"key" : "AILE-Detector-36.aif",
								"value" : [ 88 ]
							}
, 							{
								"key" : "AILE-Detector-37.aif",
								"value" : [ 89 ]
							}
, 							{
								"key" : "AILE-Detector-38.aif",
								"value" : [ 90 ]
							}
, 							{
								"key" : "AILE-Detector-39.aif",
								"value" : [ 91 ]
							}
, 							{
								"key" : "AILE-Detector-4.aif",
								"value" : [ 92 ]
							}
, 							{
								"key" : "AILE-Detector-40.aif",
								"value" : [ 93 ]
							}
, 							{
								"key" : "AILE-Detector-41.aif",
								"value" : [ 94 ]
							}
, 							{
								"key" : "AILE-Detector-42.aif",
								"value" : [ 95 ]
							}
, 							{
								"key" : "AILE-Detector-43.aif",
								"value" : [ 96 ]
							}
, 							{
								"key" : "AILE-Detector-44.aif",
								"value" : [ 97 ]
							}
, 							{
								"key" : "AILE-Detector-45.aif",
								"value" : [ 98 ]
							}
, 							{
								"key" : "AILE-Detector-46.aif",
								"value" : [ 99 ]
							}
, 							{
								"key" : "AILE-Detector-47.aif",
								"value" : [ 100 ]
							}
, 							{
								"key" : "AILE-Detector-48.aif",
								"value" : [ 101 ]
							}
, 							{
								"key" : "AILE-Detector-49.aif",
								"value" : [ 102 ]
							}
, 							{
								"key" : "AILE-Detector-5.aif",
								"value" : [ 103 ]
							}
, 							{
								"key" : "AILE-Detector-50.aif",
								"value" : [ 104 ]
							}
, 							{
								"key" : "AILE-Detector-51.aif",
								"value" : [ 105 ]
							}
, 							{
								"key" : "AILE-Detector-52.aif",
								"value" : [ 106 ]
							}
, 							{
								"key" : "AILE-Detector-53.aif",
								"value" : [ 107 ]
							}
, 							{
								"key" : "AILE-Detector-54.aif",
								"value" : [ 108 ]
							}
, 							{
								"key" : "AILE-Detector-55.aif",
								"value" : [ 109 ]
							}
, 							{
								"key" : "AILE-Detector-56.aif",
								"value" : [ 110 ]
							}
, 							{
								"key" : "AILE-Detector-57.aif",
								"value" : [ 111 ]
							}
, 							{
								"key" : "AILE-Detector-58.aif",
								"value" : [ 112 ]
							}
, 							{
								"key" : "AILE-Detector-59.aif",
								"value" : [ 113 ]
							}
, 							{
								"key" : "AILE-Detector-6.aif",
								"value" : [ 114 ]
							}
, 							{
								"key" : "AILE-Detector-60.aif",
								"value" : [ 115 ]
							}
, 							{
								"key" : "AILE-Detector-61.aif",
								"value" : [ 116 ]
							}
, 							{
								"key" : "AILE-Detector-62.aif",
								"value" : [ 117 ]
							}
, 							{
								"key" : "AILE-Detector-63.aif",
								"value" : [ 118 ]
							}
, 							{
								"key" : "AILE-Detector-64.aif",
								"value" : [ 119 ]
							}
, 							{
								"key" : "AILE-Detector-65.aif",
								"value" : [ 120 ]
							}
, 							{
								"key" : "AILE-Detector-66.aif",
								"value" : [ 121 ]
							}
, 							{
								"key" : "AILE-Detector-67.aif",
								"value" : [ 122 ]
							}
, 							{
								"key" : "AILE-Detector-68.aif",
								"value" : [ 123 ]
							}
, 							{
								"key" : "AILE-Detector-69.aif",
								"value" : [ 124 ]
							}
, 							{
								"key" : "AILE-Detector-7.aif",
								"value" : [ 125 ]
							}
, 							{
								"key" : "AILE-Detector-70.aif",
								"value" : [ 126 ]
							}
, 							{
								"key" : "AILE-Detector-71.aif",
								"value" : [ 127 ]
							}
, 							{
								"key" : "AILE-Detector-72.aif",
								"value" : [ 128 ]
							}
, 							{
								"key" : "AILE-Detector-73.aif",
								"value" : [ 129 ]
							}
, 							{
								"key" : "AILE-Detector-74.aif",
								"value" : [ 130 ]
							}
, 							{
								"key" : "AILE-Detector-75.aif",
								"value" : [ 131 ]
							}
, 							{
								"key" : "AILE-Detector-76.aif",
								"value" : [ 132 ]
							}
, 							{
								"key" : "AILE-Detector-77.aif",
								"value" : [ 133 ]
							}
, 							{
								"key" : "AILE-Detector-78.aif",
								"value" : [ 134 ]
							}
, 							{
								"key" : "AILE-Detector-79.aif",
								"value" : [ 135 ]
							}
, 							{
								"key" : "AILE-Detector-8.aif",
								"value" : [ 136 ]
							}
, 							{
								"key" : "AILE-Detector-80.aif",
								"value" : [ 137 ]
							}
, 							{
								"key" : "AILE-Detector-81.aif",
								"value" : [ 138 ]
							}
, 							{
								"key" : "AILE-Detector-82.aif",
								"value" : [ 139 ]
							}
, 							{
								"key" : "AILE-Detector-83.aif",
								"value" : [ 140 ]
							}
, 							{
								"key" : "AILE-Detector-84.aif",
								"value" : [ 141 ]
							}
, 							{
								"key" : "AILE-Detector-85.aif",
								"value" : [ 142 ]
							}
, 							{
								"key" : "AILE-Detector-86.aif",
								"value" : [ 143 ]
							}
, 							{
								"key" : "AILE-Detector-87.aif",
								"value" : [ 144 ]
							}
, 							{
								"key" : "AILE-Detector-88.aif",
								"value" : [ 145 ]
							}
, 							{
								"key" : "AILE-Detector-89.aif",
								"value" : [ 146 ]
							}
, 							{
								"key" : "AILE-Detector-9.aif",
								"value" : [ 147 ]
							}
, 							{
								"key" : "AILE-Detector-90.aif",
								"value" : [ 148 ]
							}
, 							{
								"key" : "AILE-Detector-91.aif",
								"value" : [ 149 ]
							}
, 							{
								"key" : "AILE-Detector-92.aif",
								"value" : [ 150 ]
							}
, 							{
								"key" : "AILE-Detector-93.aif",
								"value" : [ 151 ]
							}
, 							{
								"key" : "AILE-Detector-94.aif",
								"value" : [ 152 ]
							}
, 							{
								"key" : "AILE-Detector-95.aif",
								"value" : [ 153 ]
							}
, 							{
								"key" : "AILE-Detector-96.aif",
								"value" : [ 154 ]
							}
, 							{
								"key" : "AILE-Detector-97.aif",
								"value" : [ 155 ]
							}
, 							{
								"key" : "AILE-Detector-98.aif",
								"value" : [ 156 ]
							}
, 							{
								"key" : "AILE-Detector-99.aif",
								"value" : [ 157 ]
							}
 ]
					}
,
					"fontname" : "Arial Bold",
					"fontsize" : 10.0,
					"id" : "obj-37",
					"maxclass" : "newobj",
					"numinlets" : 1,
					"numoutlets" : 4,
					"outlettype" : [ "", "", "", "" ],
					"patching_rect" : [ 103.0, 316.667236, 100.0, 18.0 ],
					"presentation_rect" : [ 123.0, 356.0, 0.0, 0.0 ],
					"saved_object_attributes" : 					{
						"embed" : 1
					}
,
					"text" : "coll"
				}

			}
, 			{
				"box" : 				{
					"fontname" : "Arial Bold",
					"fontsize" : 10.0,
					"id" : "obj-34",
					"maxclass" : "newobj",
					"numinlets" : 1,
					"numoutlets" : 3,
					"outlettype" : [ "bang", "", "bang" ],
					"patching_rect" : [ 103.0, 262.0, 71.0, 18.0 ],
					"text" : "t b l b"
				}

			}
, 			{
				"box" : 				{
					"fontname" : "Arial Bold",
					"fontsize" : 10.0,
					"id" : "obj-33",
					"maxclass" : "newobj",
					"numinlets" : 1,
					"numoutlets" : 1,
					"outlettype" : [ "" ],
					"patching_rect" : [ 103.0, 234.0, 75.0, 18.0 ],
					"text" : "prepend refer"
				}

			}
, 			{
				"box" : 				{
					"fontname" : "Arial Bold",
					"fontsize" : 10.0,
					"id" : "obj-31",
					"maxclass" : "message",
					"numinlets" : 2,
					"numoutlets" : 1,
					"outlettype" : [ "" ],
					"patching_rect" : [ 551.166504, 206.0, 50.0, 16.0 ],
					"text" : "stop"
				}

			}
, 			{
				"box" : 				{
					"fontname" : "Arial Bold",
					"fontsize" : 10.0,
					"id" : "obj-32",
					"maxclass" : "newobj",
					"numinlets" : 2,
					"numoutlets" : 2,
					"outlettype" : [ "bang", "" ],
					"patching_rect" : [ 551.166504, 178.0, 33.0, 18.0 ],
					"text" : "sel 1"
				}

			}
, 			{
				"box" : 				{
					"fontname" : "Arial Bold",
					"fontsize" : 10.0,
					"id" : "obj-28",
					"maxclass" : "message",
					"numinlets" : 2,
					"numoutlets" : 1,
					"outlettype" : [ "" ],
					"patching_rect" : [ 484.166748, 206.0, 50.0, 16.0 ],
					"presentation_rect" : [ 370.583252, 163.0, 0.0, 0.0 ],
					"text" : "resume"
				}

			}
, 			{
				"box" : 				{
					"fontname" : "Arial Bold",
					"fontsize" : 10.0,
					"id" : "obj-30",
					"maxclass" : "newobj",
					"numinlets" : 2,
					"numoutlets" : 2,
					"outlettype" : [ "bang", "" ],
					"patching_rect" : [ 484.166748, 178.0, 33.0, 18.0 ],
					"presentation_rect" : [ 370.583252, 135.0, 0.0, 0.0 ],
					"text" : "sel 1"
				}

			}
, 			{
				"box" : 				{
					"fontname" : "Arial Bold",
					"fontsize" : 10.0,
					"id" : "obj-27",
					"maxclass" : "message",
					"numinlets" : 2,
					"numoutlets" : 1,
					"outlettype" : [ "" ],
					"patching_rect" : [ 427.583252, 206.0, 50.0, 16.0 ],
					"text" : "pause"
				}

			}
, 			{
				"box" : 				{
					"fontname" : "Arial Bold",
					"fontsize" : 10.0,
					"id" : "obj-25",
					"maxclass" : "newobj",
					"numinlets" : 2,
					"numoutlets" : 2,
					"outlettype" : [ "bang", "" ],
					"patching_rect" : [ 427.583252, 178.0, 33.0, 18.0 ],
					"text" : "sel 1"
				}

			}
, 			{
				"box" : 				{
					"automation" : "Off",
					"automationon" : "On",
					"id" : "obj-24",
					"maxclass" : "live.text",
					"numinlets" : 1,
					"numoutlets" : 2,
					"outlettype" : [ "", "" ],
					"parameter_enable" : 1,
					"patching_rect" : [ 551.166504, 155.0, 46.166504, 15.0 ],
					"presentation_rect" : [ 314.583252, 141.0, 0.0, 0.0 ],
					"prototypename" : "onoff",
					"saved_attribute_attributes" : 					{
						"valueof" : 						{
							"parameter_longname" : "stop",
							"parameter_shortname" : "stop",
							"parameter_type" : 2,
							"parameter_mmax" : 1.0,
							"parameter_enum" : [ "Off", "On" ],
							"parameter_initial_enable" : 1,
							"parameter_initial" : [ 0.0 ],
							"parameter_speedlim" : 0.0
						}

					}
,
					"text" : "stop",
					"texton" : "stop",
					"varname" : "stop"
				}

			}
, 			{
				"box" : 				{
					"automation" : "Off",
					"automationon" : "On",
					"id" : "obj-23",
					"maxclass" : "live.text",
					"numinlets" : 1,
					"numoutlets" : 2,
					"outlettype" : [ "", "" ],
					"parameter_enable" : 1,
					"patching_rect" : [ 484.166748, 155.0, 46.166504, 15.0 ],
					"presentation_rect" : [ 367.0, 113.0, 0.0, 0.0 ],
					"prototypename" : "onoff",
					"saved_attribute_attributes" : 					{
						"valueof" : 						{
							"parameter_longname" : "resume",
							"parameter_shortname" : "resume",
							"parameter_type" : 2,
							"parameter_mmax" : 1.0,
							"parameter_enum" : [ "Off", "On" ],
							"parameter_initial_enable" : 1,
							"parameter_initial" : [ 0.0 ],
							"parameter_speedlim" : 0.0
						}

					}
,
					"text" : "resume",
					"texton" : "resume",
					"varname" : "resume"
				}

			}
, 			{
				"box" : 				{
					"automation" : "Off",
					"automationon" : "On",
					"id" : "obj-22",
					"maxclass" : "live.text",
					"numinlets" : 1,
					"numoutlets" : 2,
					"outlettype" : [ "", "" ],
					"parameter_enable" : 1,
					"patching_rect" : [ 427.583252, 155.0, 46.166504, 15.0 ],
					"prototypename" : "onoff",
					"saved_attribute_attributes" : 					{
						"valueof" : 						{
							"parameter_longname" : "pause",
							"parameter_shortname" : "pause",
							"parameter_type" : 2,
							"parameter_mmax" : 1.0,
							"parameter_enum" : [ "Off", "On" ],
							"parameter_initial_enable" : 1,
							"parameter_initial" : [ 0.0 ],
							"parameter_speedlim" : 0.0
						}

					}
,
					"text" : "pause",
					"texton" : "pause",
					"varname" : "pause"
				}

			}
, 			{
				"box" : 				{
					"fontname" : "Arial Bold",
					"fontsize" : 10.0,
					"id" : "obj-21",
					"maxclass" : "newobj",
					"numinlets" : 1,
					"numoutlets" : 1,
					"outlettype" : [ "" ],
					"patching_rect" : [ 299.75, 234.0, 70.0, 18.0 ],
					"text" : "prepend coll"
				}

			}
, 			{
				"box" : 				{
					"fontname" : "Arial Bold",
					"fontsize" : 10.0,
					"id" : "obj-20",
					"maxclass" : "newobj",
					"numinlets" : 1,
					"numoutlets" : 2,
					"outlettype" : [ "bang", "" ],
					"patching_rect" : [ 299.75, 286.0, 32.5, 18.0 ],
					"text" : "t b l"
				}

			}
, 			{
				"box" : 				{
					"fontname" : "Arial Bold",
					"fontsize" : 10.0,
					"id" : "obj-19",
					"maxclass" : "message",
					"numinlets" : 2,
					"numoutlets" : 1,
					"outlettype" : [ "" ],
					"patching_rect" : [ 299.75, 314.0, 50.0, 16.0 ],
					"text" : "target 0"
				}

			}
, 			{
				"box" : 				{
					"fontname" : "Arial Bold",
					"fontsize" : 10.0,
					"id" : "obj-12",
					"maxclass" : "newobj",
					"numinlets" : 2,
					"numoutlets" : 2,
					"outlettype" : [ "", "" ],
					"patching_rect" : [ 299.75, 206.0, 56.0, 18.0 ],
					"text" : "route text"
				}

			}
, 			{
				"box" : 				{
					"fontname" : "Arial Bold",
					"fontsize" : 10.0,
					"id" : "obj-10",
					"maxclass" : "message",
					"numinlets" : 2,
					"numoutlets" : 1,
					"outlettype" : [ "" ],
					"patching_rect" : [ 299.75, 89.0, 112.0, 16.0 ],
					"text" : "set ALL.SFLIST, bang"
				}

			}
, 			{
				"box" : 				{
					"fontname" : "Arial Bold",
					"fontsize" : 10.0,
					"frgb" : 0.0,
					"id" : "obj-5",
					"keymode" : 1,
					"lines" : 1,
					"maxclass" : "textedit",
					"numinlets" : 1,
					"numoutlets" : 4,
					"outlettype" : [ "", "int", "", "" ],
					"parameter_enable" : 1,
					"patching_rect" : [ 299.75, 148.0, 100.0, 50.0 ],
					"saved_attribute_attributes" : 					{
						"valueof" : 						{
							"parameter_longname" : "sflistName",
							"parameter_shortname" : "sflistName",
							"parameter_type" : 3,
							"parameter_invisible" : 1
						}

					}
,
					"text" : "ALL.SFLIST",
					"varname" : "sflistName"
				}

			}
, 			{
				"box" : 				{
					"fontname" : "Arial Bold",
					"fontsize" : 10.0,
					"id" : "obj-2",
					"linecount" : 2,
					"maxclass" : "newobj",
					"numinlets" : 1,
					"numoutlets" : 2,
					"outlettype" : [ "signal", "signal" ],
					"patching_rect" : [ 299.75, 350.167236, 121.75, 29.0 ],
					"text" : "poly~ tg.sfplay-poly1a 16"
				}

			}
, 			{
				"box" : 				{
					"fontname" : "Arial",
					"fontsize" : 9.0,
					"frgb" : 0.0,
					"id" : "obj-74",
					"linecount" : 2,
					"maxclass" : "comment",
					"numinlets" : 1,
					"numoutlets" : 0,
					"patching_rect" : [ 912.5, 297.5, 51.0, 27.0 ],
					"text" : "PRESET for Live"
				}

			}
, 			{
				"box" : 				{
					"fontname" : "Arial Bold",
					"fontsize" : 10.0,
					"id" : "obj-75",
					"maxclass" : "message",
					"numinlets" : 2,
					"numoutlets" : 1,
					"outlettype" : [ "" ],
					"patching_rect" : [ 880.0, 280.0, 39.0, 16.0 ],
					"text" : "set $1"
				}

			}
, 			{
				"box" : 				{
					"id" : "obj-80",
					"maxclass" : "live.numbox",
					"numinlets" : 1,
					"numoutlets" : 2,
					"outlettype" : [ "", "float" ],
					"parameter_enable" : 1,
					"patching_rect" : [ 880.0, 304.5, 36.0, 15.0 ],
					"saved_attribute_attributes" : 					{
						"valueof" : 						{
							"parameter_longname" : "PRESET",
							"parameter_shortname" : "PRESET",
							"parameter_type" : 1,
							"parameter_unitstyle" : 0,
							"parameter_steps" : 1
						}

					}
,
					"varname" : "PRESET"
				}

			}
, 			{
				"box" : 				{
					"fontname" : "Arial Bold",
					"fontsize" : 10.0,
					"id" : "obj-17",
					"maxclass" : "newobj",
					"numinlets" : 1,
					"numoutlets" : 2,
					"outlettype" : [ "", "" ],
					"patching_rect" : [ 865.166687, 399.5, 64.0, 18.0 ],
					"save" : [ "#N", "thispatcher", ";", "#Q", "end", ";" ],
					"text" : "thispatcher"
				}

			}
, 			{
				"box" : 				{
					"fontname" : "Arial Bold",
					"fontsize" : 10.0,
					"id" : "obj-118",
					"maxclass" : "message",
					"numinlets" : 2,
					"numoutlets" : 1,
					"outlettype" : [ "" ],
					"patching_rect" : [ 865.166687, 343.5, 50.0, 16.0 ],
					"text" : "refresh"
				}

			}
, 			{
				"box" : 				{
					"fontname" : "Arial Bold",
					"fontsize" : 18.0,
					"frgb" : 0.0,
					"id" : "obj-87",
					"maxclass" : "comment",
					"numinlets" : 1,
					"numoutlets" : 0,
					"patching_rect" : [ 760.5, 196.5, 95.0, 27.0 ],
					"presentation" : 1,
					"presentation_rect" : [ 548.5, 3.0, 95.0, 27.0 ],
					"text" : "#1"
				}

			}
, 			{
				"box" : 				{
					"arrowframe" : 0,
					"bgcolor" : [ 1.0, 1.0, 1.0, 0.0 ],
					"fontname" : "Arial Bold",
					"fontsize" : 12.0,
					"framecolor" : [ 0.498039, 0.52549, 0.576471, 0.0 ],
					"id" : "obj-86",
					"items" : [ "()", ",", "<separator>", ",", "(Presets)", ",", "init", ",", "dump", ",", "<separator>", ",", "(Storage)", ",", "client", ",", "storage", ",", "<separator>", ",", "(Bank)", ",", "renum", ",", "clear", ",", "load", ",", "save", ",", "export", ",", "<separator>", ",", "(Recall)", ",", "(undefined)", ",", "Default", ",", "Test1" ],
					"maxclass" : "umenu",
					"numinlets" : 1,
					"numoutlets" : 3,
					"outlettype" : [ "int", "", "" ],
					"parameter_enable" : 0,
					"patching_rect" : [ 760.5, 200.0, 94.400002, 20.0 ],
					"presentation" : 1,
					"presentation_rect" : [ 548.5, 6.5, 94.400002, 20.0 ],
					"rounded" : 6,
					"textcolor" : [ 0.0, 0.0, 0.0, 1.0 ]
				}

			}
, 			{
				"box" : 				{
					"fontname" : "Arial Bold",
					"fontsize" : 10.0,
					"frgb" : 0.0,
					"id" : "obj-3",
					"maxclass" : "comment",
					"numinlets" : 1,
					"numoutlets" : 0,
					"patching_rect" : [ 757.5, 176.0, 47.0, 18.0 ],
					"text" : "Presets",
					"textcolor" : [ 0.3, 0.34, 0.4, 1.0 ]
				}

			}
, 			{
				"box" : 				{
					"fontname" : "Arial",
					"fontsize" : 10.0,
					"frgb" : 0.0,
					"id" : "obj-4",
					"maxclass" : "comment",
					"numinlets" : 1,
					"numoutlets" : 0,
					"patching_rect" : [ 759.5, 329.0, 40.0, 18.0 ],
					"presentation" : 1,
					"presentation_rect" : [ 547.5, 135.5, 40.0, 18.0 ],
					"text" : "Name:"
				}

			}
, 			{
				"box" : 				{
					"bgcolor" : [ 0.094118, 0.113725, 0.137255, 1.0 ],
					"border" : 0.0,
					"bordercolor" : [ 0.501961, 0.501961, 0.501961, 0.0 ],
					"fontface" : 1,
					"fontname" : "Arial",
					"fontsize" : 10.0,
					"frgb" : 0.0,
					"id" : "obj-6",
					"keymode" : 1,
					"maxclass" : "textedit",
					"numinlets" : 1,
					"numoutlets" : 4,
					"outlettype" : [ "", "int", "", "" ],
					"parameter_enable" : 0,
					"patching_rect" : [ 760.5, 345.0, 95.0, 16.0 ],
					"presentation" : 1,
					"presentation_rect" : [ 548.5, 151.5, 95.0, 16.0 ],
					"prototypename" : "M4L.black",
					"rounded" : 12.0,
					"textcolor" : [ 0.909804, 0.909804, 0.909804, 1.0 ]
				}

			}
, 			{
				"box" : 				{
					"annotation" : "Renumber and clear presets, import/export banks of presets as text files.",
					"border" : 1,
					"button" : 1,
					"fontname" : "Arial Bold",
					"fontsize" : 10.0,
					"hint" : "Renumber and clear presets, import/export banks of presets as text files.",
					"id" : "obj-7",
					"margin" : 2,
					"maxclass" : "tab",
					"numinlets" : 1,
					"numoutlets" : 3,
					"outlettype" : [ "int", "", "" ],
					"parameter_enable" : 0,
					"patching_rect" : [ 759.5, 224.5, 96.0, 31.614456 ],
					"presentation" : 1,
					"presentation_rect" : [ 547.5, 31.0, 96.0, 31.614456 ],
					"prototypename" : "M4L.numbers",
					"rounded" : 6.0,
					"spacing_x" : 3.0,
					"tabs" : [ "save", "client", "dump", "init" ]
				}

			}
, 			{
				"box" : 				{
					"fontname" : "Arial Bold",
					"fontsize" : 10.0,
					"id" : "obj-11",
					"maxclass" : "newobj",
					"numinlets" : 7,
					"numoutlets" : 8,
					"outlettype" : [ "", "", "int", "", "", "", "", "" ],
					"patching_rect" : [ 757.5, 373.5, 126.666687, 18.0 ],
					"text" : "tg.m.preset #1"
				}

			}
, 			{
				"box" : 				{
					"active1" : [ 0.984314, 0.819608, 0.05098, 1.0 ],
					"active2" : [ 0.984314, 0.819608, 0.05098, 1.0 ],
					"annotation" : "Shift-click in a circle to store, click on circle to recall. Option-shift-click to remove.",
					"bgcolor" : [ 0.666667, 0.698039, 0.717647, 0.0 ],
					"bordercolor" : [ 0.666667, 0.698039, 0.717647, 0.0 ],
					"bubblesize" : 8,
					"circlecolor" : [ 0.666667, 0.698039, 0.717647, 0.0 ],
					"clicked1" : [ 0.909804, 0.909804, 0.909804, 1.0 ],
					"clicked2" : [ 1.0, 1.0, 1.0, 1.0 ],
					"emptycolor" : [ 0.301961, 0.337255, 0.403922, 1.0 ],
					"fontsize" : 12.0,
					"hint" : "Shift-click in a circle to store, click on circle to recall. Option-shift-click to remove.",
					"id" : "obj-13",
					"maxclass" : "preset",
					"numinlets" : 1,
					"numoutlets" : 4,
					"outlettype" : [ "preset", "int", "preset", "int" ],
					"patching_rect" : [ 762.5, 260.5, 92.5, 69.0 ],
					"pattrstorage" : "FragulatorPreset",
					"presentation" : 1,
					"presentation_rect" : [ 550.5, 67.0, 92.5, 69.0 ],
					"prototypename" : "M4L.H",
					"stored1" : [ 0.494118, 0.556863, 0.607843, 1.0 ],
					"stored2" : [ 0.572549, 0.615686, 0.658824, 1.0 ],
					"textcolor" : [ 1.0, 1.0, 1.0, 1.0 ],
					"varname" : "Preset[1]"
				}

			}
, 			{
				"box" : 				{
					"bgcolor" : [ 0.094118, 0.113725, 0.137255, 1.0 ],
					"bordercolor" : [ 0.494118, 0.556863, 0.607843, 1.0 ],
					"grad2" : [ 0.094118, 0.113725, 0.137255, 1.0 ],
					"hint" : "",
					"id" : "obj-15",
					"maxclass" : "panel",
					"numinlets" : 1,
					"numoutlets" : 0,
					"patching_rect" : [ 760.5, 260.5, 95.0, 69.072281 ],
					"presentation" : 1,
					"presentation_rect" : [ 548.5, 67.0, 95.0, 69.072281 ],
					"prototypename" : "M4L.horizontal-black",
					"rounded" : 16
				}

			}
, 			{
				"box" : 				{
					"bgcolor" : [ 0.666667, 0.698039, 0.717647, 1.0 ],
					"bordercolor" : [ 0.094118, 0.113725, 0.137255, 1.0 ],
					"grad2" : [ 0.094118, 0.113725, 0.137255, 1.0 ],
					"id" : "obj-16",
					"maxclass" : "panel",
					"numinlets" : 1,
					"numoutlets" : 0,
					"patching_rect" : [ 757.5, 194.0, 101.0, 170.0 ],
					"presentation" : 1,
					"presentation_rect" : [ 545.5, 0.499999, 101.0, 170.0 ],
					"prototypename" : "M4L.horizontal-black"
				}

			}
, 			{
				"box" : 				{
					"id" : "obj-220",
					"maxclass" : "live.line",
					"numinlets" : 1,
					"numoutlets" : 0,
					"patching_rect" : [ 402.5, 561.667236, 5.0, 100.0 ],
					"presentation" : 1,
					"presentation_rect" : [ 169.499939, 7.0, 10.0, 130.0 ]
				}

			}
, 			{
				"box" : 				{
					"fontname" : "Arial Bold",
					"fontsize" : 10.0,
					"id" : "obj-127",
					"maxclass" : "newobj",
					"numinlets" : 6,
					"numoutlets" : 1,
					"outlettype" : [ "signal" ],
					"patching_rect" : [ 402.5, 421.667236, 86.5, 18.0 ],
					"text" : "biquad~"
				}

			}
, 			{
				"box" : 				{
					"fontname" : "Arial Bold",
					"fontsize" : 10.0,
					"id" : "obj-29",
					"maxclass" : "newobj",
					"numinlets" : 3,
					"numoutlets" : 3,
					"outlettype" : [ "", "", "" ],
					"patching_rect" : [ 530.444336, 669.131104, 113.722198, 18.0 ],
					"text" : "tg.m.fgraph"
				}

			}
, 			{
				"box" : 				{
					"id" : "obj-45",
					"maxclass" : "button",
					"numinlets" : 1,
					"numoutlets" : 1,
					"outlettype" : [ "bang" ],
					"patching_rect" : [ 849.785706, 399.5, 20.0, 20.0 ]
				}

			}
, 			{
				"box" : 				{
					"fontname" : "Arial Bold",
					"fontsize" : 10.0,
					"id" : "obj-307",
					"maxclass" : "message",
					"numinlets" : 2,
					"numoutlets" : 1,
					"outlettype" : [ "" ],
					"patching_rect" : [ 929.5, 453.5, 39.0, 16.0 ],
					"text" : "$1 init"
				}

			}
, 			{
				"box" : 				{
					"fontname" : "Arial Bold",
					"fontsize" : 10.0,
					"id" : "obj-306",
					"linecount" : 6,
					"maxclass" : "message",
					"numinlets" : 2,
					"numoutlets" : 1,
					"outlettype" : [ "" ],
					"patching_rect" : [ 929.5, 373.5, 72.0, 72.0 ],
					"text" : "live.dial, live.menu, live.text, live.numbox, live.gain~, live.tab, pattr"
				}

			}
, 			{
				"box" : 				{
					"fontname" : "Arial Bold",
					"fontsize" : 10.0,
					"id" : "obj-284",
					"maxclass" : "newobj",
					"numinlets" : 1,
					"numoutlets" : 0,
					"patching_rect" : [ 929.5, 477.5, 54.0, 18.0 ],
					"text" : "universal"
				}

			}
, 			{
				"box" : 				{
					"autorestore" : "FragulatorPreset.json",
					"color" : [ 0.239216, 0.643137, 0.709804, 1.0 ],
					"fontname" : "Arial Bold",
					"fontsize" : 10.0,
					"id" : "obj-40",
					"linecount" : 2,
					"maxclass" : "newobj",
					"numinlets" : 1,
					"numoutlets" : 1,
					"outlettype" : [ "" ],
					"patching_rect" : [ 757.5, 466.5, 157.666687, 29.0 ],
					"saved_object_attributes" : 					{
						"client_rect" : [ 218, 50, 606, 257 ],
						"parameter_enable" : 0,
						"storage_rect" : [ 220, 49, 871, 244 ]
					}
,
					"text" : "pattrstorage FragulatorPreset @savemode 2 @autowatch 1",
					"varname" : "FragulatorPreset"
				}

			}
, 			{
				"box" : 				{
					"fontname" : "Arial Bold",
					"fontsize" : 10.0,
					"id" : "obj-139",
					"maxclass" : "newobj",
					"numinlets" : 2,
					"numoutlets" : 2,
					"outlettype" : [ "", "" ],
					"patching_rect" : [ 960.5, 304.5, 75.0, 18.0 ],
					"text" : "route restore"
				}

			}
, 			{
				"box" : 				{
					"fontname" : "Arial",
					"fontsize" : 10.0,
					"frgb" : 0.0,
					"id" : "obj-140",
					"linecount" : 2,
					"maxclass" : "comment",
					"numinlets" : 1,
					"numoutlets" : 0,
					"patching_rect" : [ 984.5, 271.5, 48.0, 29.0 ],
					"text" : "Pattr storage"
				}

			}
, 			{
				"box" : 				{
					"fontname" : "Arial Bold",
					"fontsize" : 10.0,
					"frgb" : 0.0,
					"id" : "obj-141",
					"linecount" : 2,
					"maxclass" : "comment",
					"numinlets" : 1,
					"numoutlets" : 0,
					"patching_rect" : [ 912.5, 192.5, 72.0, 29.0 ],
					"text" : "Messages to parameters"
				}

			}
, 			{
				"box" : 				{
					"comment" : "Parameters values, getattributes, getstate",
					"id" : "obj-142",
					"maxclass" : "inlet",
					"numinlets" : 0,
					"numoutlets" : 1,
					"outlettype" : [ "" ],
					"patching_rect" : [ 888.5, 192.5, 17.0, 17.0 ]
				}

			}
, 			{
				"box" : 				{
					"color" : [ 0.239216, 0.643137, 0.709804, 1.0 ],
					"fontname" : "Arial Bold",
					"fontsize" : 10.0,
					"id" : "obj-143",
					"linecount" : 2,
					"maxclass" : "newobj",
					"numinlets" : 1,
					"numoutlets" : 4,
					"outlettype" : [ "", "", "", "" ],
					"patching_rect" : [ 888.5, 224.5, 91.0, 29.0 ],
					"restore" : 					{
						"FilterFreq" : [ 1000.0 ],
						"FilterGain" : [ 0.0 ],
						"FilterMode" : [ 5.0 ],
						"FilterQ" : [ 0.3 ],
						"Outgain" : [ -127.0 ],
						"pause" : [ 0.0 ],
						"resume" : [ 0.0 ],
						"sflistName" : [ "ALL.SFLIST" ],
						"stop" : [ 0.0 ]
					}
,
					"text" : "autopattr @autorestore 0",
					"varname" : "u515001007"
				}

			}
, 			{
				"box" : 				{
					"fontname" : "Arial Bold",
					"fontsize" : 10.0,
					"frgb" : 0.0,
					"id" : "obj-144",
					"maxclass" : "comment",
					"numinlets" : 1,
					"numoutlets" : 0,
					"patching_rect" : [ 960.5, 335.5, 54.0, 18.0 ],
					"text" : "Dumpout"
				}

			}
, 			{
				"box" : 				{
					"comment" : "Dumpout",
					"id" : "obj-145",
					"maxclass" : "outlet",
					"numinlets" : 1,
					"numoutlets" : 0,
					"patching_rect" : [ 1016.5, 335.5, 18.0, 18.0 ]
				}

			}
, 			{
				"box" : 				{
					"annotation" : "FilterMode",
					"id" : "obj-42",
					"maxclass" : "live.menu",
					"numinlets" : 1,
					"numoutlets" : 3,
					"outlettype" : [ "", "", "float" ],
					"parameter_enable" : 1,
					"patching_rect" : [ 489.999939, 578.667236, 62.0, 15.0 ],
					"presentation" : 1,
					"presentation_rect" : [ 401.357178, 10.0, 71.642853, 15.0 ],
					"saved_attribute_attributes" : 					{
						"valueof" : 						{
							"parameter_longname" : "FilterMode",
							"parameter_shortname" : "FilterMode",
							"parameter_type" : 2,
							"parameter_enum" : [ "display", "lowpass", "highpass", "bandpass", "bandstop", "peaknotch", "lowshelf", "highshelf", "resonant", "allpass" ],
							"parameter_initial_enable" : 1,
							"parameter_initial" : [ 5.0 ]
						}

					}
,
					"varname" : "FilterMode"
				}

			}
, 			{
				"box" : 				{
					"bgcolor" : [ 0.568627, 0.619608, 0.662745, 1.0 ],
					"bgoncolor" : [ 0.921569, 0.94902, 0.05098, 1.0 ],
					"bgovercolor" : [ 0.568627, 0.619608, 0.662745, 1.0 ],
					"bgoveroncolor" : [ 0.921569, 0.94902, 0.05098, 1.0 ],
					"border" : 1,
					"bordercolor" : [ 0.301961, 0.337255, 0.403922, 1.0 ],
					"borderoncolor" : [ 0.301961, 0.337255, 0.403922, 1.0 ],
					"fontface" : 1,
					"fontname" : "Arial",
					"fontsize" : 10.0,
					"id" : "obj-109",
					"maxclass" : "textbutton",
					"numinlets" : 1,
					"numoutlets" : 3,
					"outlettype" : [ "", "", "int" ],
					"parameter_enable" : 0,
					"patching_rect" : [ 481.999939, 517.0, 35.0, 15.665442 ],
					"presentation" : 1,
					"presentation_rect" : [ 349.0, 10.0, 30.0, 13.665442 ],
					"prototypename" : "M4L.toggle",
					"rounded" : 13.0,
					"text" : "init",
					"textcolor" : [ 0.101961, 0.121569, 0.172549, 1.0 ],
					"texton" : "Trig",
					"textoncolor" : [ 0.101961, 0.121569, 0.172549, 1.0 ],
					"textovercolor" : [ 0.101961, 0.121569, 0.172549, 1.0 ],
					"textoveroncolor" : [ 0.101961, 0.121569, 0.172549, 1.0 ]
				}

			}
, 			{
				"box" : 				{
					"fontname" : "Arial Bold",
					"fontsize" : 10.0,
					"frgb" : 0.0,
					"id" : "obj-138",
					"maxclass" : "comment",
					"numinlets" : 1,
					"numoutlets" : 0,
					"patching_rect" : [ 478.499939, 502.0, 42.0, 18.0 ],
					"presentation" : 1,
					"presentation_rect" : [ 305.0, 8.0, 42.0, 18.0 ],
					"text" : "Filter",
					"textcolor" : [ 0.3, 0.34, 0.4, 1.0 ]
				}

			}
, 			{
				"box" : 				{
					"fontname" : "Arial",
					"fontsize" : 10.0,
					"frgb" : 0.0,
					"id" : "obj-137",
					"maxclass" : "comment",
					"numinlets" : 1,
					"numoutlets" : 0,
					"patching_rect" : [ 489.999939, 560.667236, 36.0, 18.0 ],
					"text" : "Mode"
				}

			}
, 			{
				"box" : 				{
					"fontname" : "Arial",
					"fontsize" : 10.0,
					"frgb" : 0.0,
					"id" : "obj-136",
					"maxclass" : "comment",
					"numinlets" : 1,
					"numoutlets" : 0,
					"patching_rect" : [ 634.166748, 539.667236, 31.0, 18.0 ],
					"presentation" : 1,
					"presentation_rect" : [ 397.0, 26.0, 19.0, 18.0 ],
					"text" : "q"
				}

			}
, 			{
				"box" : 				{
					"fontname" : "Arial",
					"fontsize" : 10.0,
					"frgb" : 0.0,
					"id" : "obj-135",
					"maxclass" : "comment",
					"numinlets" : 1,
					"numoutlets" : 0,
					"patching_rect" : [ 587.166504, 539.667236, 36.0, 18.0 ],
					"text" : "Gain"
				}

			}
, 			{
				"box" : 				{
					"fontname" : "Arial",
					"fontsize" : 10.0,
					"frgb" : 0.0,
					"id" : "obj-134",
					"maxclass" : "comment",
					"numinlets" : 1,
					"numoutlets" : 0,
					"patching_rect" : [ 540.0, 539.667236, 31.0, 18.0 ],
					"text" : "Freq"
				}

			}
, 			{
				"box" : 				{
					"fontname" : "Arial Bold",
					"fontsize" : 10.0,
					"id" : "obj-131",
					"maxclass" : "newobj",
					"numinlets" : 1,
					"numoutlets" : 1,
					"outlettype" : [ "" ],
					"patching_rect" : [ 577.583252, 578.667236, 38.0, 18.0 ],
					"text" : "dbtoa"
				}

			}
, 			{
				"box" : 				{
					"annotation" : "FilterGain",
					"id" : "obj-67",
					"maxclass" : "live.numbox",
					"numinlets" : 1,
					"numoutlets" : 2,
					"outlettype" : [ "", "float" ],
					"parameter_enable" : 1,
					"patching_rect" : [ 577.583252, 553.667236, 38.0, 15.0 ],
					"presentation" : 1,
					"presentation_rect" : [ 433.0, 26.0, 40.0, 15.0 ],
					"saved_attribute_attributes" : 					{
						"valueof" : 						{
							"parameter_longname" : "FilterGain",
							"parameter_shortname" : "FilterGain",
							"parameter_type" : 0,
							"parameter_mmin" : -80.0,
							"parameter_mmax" : 80.0,
							"parameter_initial_enable" : 1,
							"parameter_initial" : [ 0.0 ],
							"parameter_unitstyle" : 4
						}

					}
,
					"varname" : "FilterGain"
				}

			}
, 			{
				"box" : 				{
					"annotation" : "FilterFreq",
					"id" : "obj-70",
					"maxclass" : "live.numbox",
					"numinlets" : 1,
					"numoutlets" : 2,
					"outlettype" : [ "", "float" ],
					"parameter_enable" : 1,
					"patching_rect" : [ 530.0, 553.667236, 36.0, 15.0 ],
					"presentation" : 1,
					"presentation_rect" : [ 305.0, 26.0, 49.0, 15.0 ],
					"saved_attribute_attributes" : 					{
						"valueof" : 						{
							"parameter_longname" : "FilterFreq",
							"parameter_shortname" : "FilterFreq",
							"parameter_type" : 0,
							"parameter_mmax" : 22050.0,
							"parameter_initial_enable" : 1,
							"parameter_initial" : [ 1000.0 ],
							"parameter_unitstyle" : 3
						}

					}
,
					"varname" : "FilterFreq"
				}

			}
, 			{
				"box" : 				{
					"annotation" : "FilterQ",
					"id" : "obj-72",
					"maxclass" : "live.numbox",
					"numinlets" : 1,
					"numoutlets" : 2,
					"outlettype" : [ "", "float" ],
					"parameter_enable" : 1,
					"patching_rect" : [ 625.166504, 553.667236, 36.0, 15.0 ],
					"presentation" : 1,
					"presentation_rect" : [ 369.0, 26.0, 40.0, 15.0 ],
					"saved_attribute_attributes" : 					{
						"valueof" : 						{
							"parameter_longname" : "FilterQ",
							"parameter_shortname" : "FilterQ",
							"parameter_type" : 0,
							"parameter_mmax" : 22000.0,
							"parameter_initial_enable" : 1,
							"parameter_initial" : [ 0.3 ],
							"parameter_unitstyle" : 1,
							"parameter_units" : "q",
							"parameter_exponent" : 5.0
						}

					}
,
					"varname" : "FilterQ"
				}

			}
, 			{
				"box" : 				{
					"autoout" : 1,
					"dbdisplay" : 0,
					"id" : "obj-189",
					"maxclass" : "filtergraph~",
					"nfilters" : 1,
					"numinlets" : 8,
					"numoutlets" : 7,
					"outlettype" : [ "list", "float", "float", "float", "float", "list", "int" ],
					"parameter_enable" : 0,
					"patching_rect" : [ 511.5, 606.667236, 132.666626, 55.0 ],
					"presentation" : 1,
					"presentation_rect" : [ 305.0, 43.0, 168.0, 120.0 ],
					"setfilter" : [ 0, 5, 1, 1, 0, 1000.0, 1.0, 0.3, 0.0, 0.0, 0.0, 0.0, 0.0, 0.0 ]
				}

			}
, 			{
				"box" : 				{
					"id" : "obj-107",
					"maxclass" : "live.line",
					"numinlets" : 1,
					"numoutlets" : 0,
					"patching_rect" : [ 382.0, 561.667236, 5.0, 100.0 ],
					"presentation" : 1,
					"presentation_rect" : [ 540.0, 7.0, 8.0, 160.0 ]
				}

			}
, 			{
				"box" : 				{
					"id" : "obj-104",
					"maxclass" : "live.line",
					"numinlets" : 1,
					"numoutlets" : 0,
					"patching_rect" : [ 389.25, 561.667236, 5.0, 100.0 ],
					"presentation" : 1,
					"presentation_rect" : [ 481.0, 7.0, 8.0, 160.0 ]
				}

			}
, 			{
				"box" : 				{
					"comment" : "",
					"id" : "obj-1",
					"maxclass" : "outlet",
					"numinlets" : 1,
					"numoutlets" : 0,
					"patching_rect" : [ 369.25, 680.167236, 25.0, 25.0 ]
				}

			}
, 			{
				"box" : 				{
					"fontname" : "Arial Bold",
					"fontsize" : 10.0,
					"id" : "obj-58",
					"maxclass" : "newobj",
					"numinlets" : 6,
					"numoutlets" : 1,
					"outlettype" : [ "signal" ],
					"patching_rect" : [ 299.75, 421.667236, 86.5, 18.0 ],
					"text" : "biquad~"
				}

			}
, 			{
				"box" : 				{
					"comment" : "",
					"id" : "obj-36",
					"maxclass" : "outlet",
					"numinlets" : 1,
					"numoutlets" : 0,
					"patching_rect" : [ 328.5, 680.167236, 25.0, 25.0 ]
				}

			}
, 			{
				"box" : 				{
					"comment" : "",
					"id" : "obj-35",
					"maxclass" : "outlet",
					"numinlets" : 1,
					"numoutlets" : 0,
					"patching_rect" : [ 299.75, 680.167236, 25.0, 25.0 ]
				}

			}
, 			{
				"box" : 				{
					"id" : "obj-9",
					"maxclass" : "live.line",
					"numinlets" : 1,
					"numoutlets" : 0,
					"patching_rect" : [ 375.5, 561.667236, 5.0, 100.0 ],
					"presentation" : 1,
					"presentation_rect" : [ 294.0, 7.0, 8.0, 160.0 ]
				}

			}
, 			{
				"box" : 				{
					"id" : "obj-38",
					"maxclass" : "live.line",
					"numinlets" : 1,
					"numoutlets" : 0,
					"patching_rect" : [ 369.25, 561.667236, 5.0, 100.0 ],
					"presentation" : 1,
					"presentation_rect" : [ 58.0, 7.0, 8.0, 160.0 ]
				}

			}
, 			{
				"box" : 				{
					"annotation" : "Outgain",
					"clip_size" : 1,
					"display_range" : [ -70.0, 30.0 ],
					"id" : "obj-14",
					"maxclass" : "live.gain~",
					"numinlets" : 2,
					"numoutlets" : 5,
					"outlettype" : [ "signal", "signal", "", "float", "list" ],
					"parameter_enable" : 1,
					"patching_rect" : [ 299.75, 561.667236, 46.0, 96.0 ],
					"presentation" : 1,
					"presentation_rect" : [ 492.5, 55.0, 40.0, 108.0 ],
					"prototypename" : "M4L.live.gain~.V.extended",
					"saved_attribute_attributes" : 					{
						"valueof" : 						{
							"parameter_longname" : "Outgain",
							"parameter_shortname" : "Outgain",
							"parameter_type" : 0,
							"parameter_mmin" : -127.0,
							"parameter_mmax" : 20.0,
							"parameter_initial_enable" : 1,
							"parameter_initial" : [ -127 ],
							"parameter_unitstyle" : 4
						}

					}
,
					"varname" : "Outgain"
				}

			}
 ],
		"lines" : [ 			{
				"patchline" : 				{
					"destination" : [ "obj-5", 0 ],
					"disabled" : 0,
					"hidden" : 0,
					"source" : [ "obj-10", 0 ]
				}

			}
, 			{
				"patchline" : 				{
					"destination" : [ "obj-42", 0 ],
					"disabled" : 0,
					"hidden" : 0,
					"source" : [ "obj-109", 1 ]
				}

			}
, 			{
				"patchline" : 				{
					"destination" : [ "obj-67", 0 ],
					"disabled" : 0,
					"hidden" : 0,
					"source" : [ "obj-109", 1 ]
				}

			}
, 			{
				"patchline" : 				{
					"destination" : [ "obj-70", 0 ],
					"disabled" : 0,
					"hidden" : 0,
					"source" : [ "obj-109", 1 ]
				}

			}
, 			{
				"patchline" : 				{
					"destination" : [ "obj-72", 0 ],
					"disabled" : 0,
					"hidden" : 0,
					"source" : [ "obj-109", 1 ]
				}

			}
, 			{
				"patchline" : 				{
					"color" : [ 0.0, 0.0, 0.0, 0.05 ],
					"destination" : [ "obj-13", 0 ],
					"disabled" : 0,
					"hidden" : 0,
					"source" : [ "obj-11", 2 ]
				}

			}
, 			{
				"patchline" : 				{
					"destination" : [ "obj-143", 0 ],
					"disabled" : 0,
					"hidden" : 0,
					"source" : [ "obj-11", 5 ]
				}

			}
, 			{
				"patchline" : 				{
					"destination" : [ "obj-17", 0 ],
					"disabled" : 0,
					"hidden" : 0,
					"source" : [ "obj-11", 7 ]
				}

			}
, 			{
				"patchline" : 				{
					"destination" : [ "obj-40", 0 ],
					"disabled" : 0,
					"hidden" : 0,
					"source" : [ "obj-11", 0 ]
				}

			}
, 			{
				"patchline" : 				{
					"destination" : [ "obj-45", 0 ],
					"disabled" : 0,
					"hidden" : 0,
					"source" : [ "obj-11", 6 ]
				}

			}
, 			{
				"patchline" : 				{
					"color" : [ 0.0, 0.0, 0.0, 0.05 ],
					"destination" : [ "obj-6", 0 ],
					"disabled" : 0,
					"hidden" : 0,
					"source" : [ "obj-11", 1 ]
				}

			}
, 			{
				"patchline" : 				{
					"color" : [ 0.0, 0.0, 0.0, 0.05 ],
					"destination" : [ "obj-86", 0 ],
					"disabled" : 0,
					"hidden" : 0,
					"source" : [ "obj-11", 3 ]
				}

			}
, 			{
				"patchline" : 				{
					"color" : [ 0.0, 0.0, 0.0, 0.05 ],
					"destination" : [ "obj-87", 0 ],
					"disabled" : 0,
					"hidden" : 0,
					"source" : [ "obj-11", 4 ]
				}

			}
, 			{
				"patchline" : 				{
					"destination" : [ "obj-11", 6 ],
					"disabled" : 0,
					"hidden" : 0,
					"source" : [ "obj-118", 0 ]
				}

			}
, 			{
				"patchline" : 				{
					"destination" : [ "obj-21", 0 ],
					"disabled" : 0,
					"hidden" : 0,
					"source" : [ "obj-12", 0 ]
				}

			}
, 			{
				"patchline" : 				{
					"destination" : [ "obj-33", 0 ],
					"disabled" : 0,
					"hidden" : 0,
					"source" : [ "obj-12", 0 ]
				}

			}
, 			{
				"patchline" : 				{
					"destination" : [ "obj-14", 1 ],
					"disabled" : 0,
					"hidden" : 0,
					"source" : [ "obj-127", 0 ]
				}

			}
, 			{
				"patchline" : 				{
					"color" : [ 0.0, 0.0, 0.0, 0.05 ],
					"destination" : [ "obj-11", 4 ],
					"disabled" : 0,
					"hidden" : 0,
					"source" : [ "obj-13", 3 ]
				}

			}
, 			{
				"patchline" : 				{
					"color" : [ 0.0, 0.0, 0.0, 0.05 ],
					"destination" : [ "obj-11", 3 ],
					"disabled" : 0,
					"hidden" : 0,
					"source" : [ "obj-13", 1 ]
				}

			}
, 			{
				"patchline" : 				{
					"destination" : [ "obj-75", 0 ],
					"disabled" : 0,
					"hidden" : 0,
					"source" : [ "obj-13", 1 ]
				}

			}
, 			{
				"patchline" : 				{
					"destination" : [ "obj-189", 6 ],
					"disabled" : 0,
					"hidden" : 0,
					"source" : [ "obj-131", 0 ]
				}

			}
, 			{
				"patchline" : 				{
					"destination" : [ "obj-11", 5 ],
					"disabled" : 0,
					"hidden" : 0,
					"source" : [ "obj-139", 1 ]
				}

			}
, 			{
				"patchline" : 				{
					"destination" : [ "obj-145", 0 ],
					"disabled" : 0,
					"hidden" : 0,
					"source" : [ "obj-139", 1 ]
				}

			}
, 			{
				"patchline" : 				{
					"destination" : [ "obj-1", 0 ],
					"disabled" : 0,
					"hidden" : 0,
					"source" : [ "obj-14", 2 ]
				}

			}
, 			{
				"patchline" : 				{
					"destination" : [ "obj-35", 0 ],
					"disabled" : 0,
					"hidden" : 0,
					"source" : [ "obj-14", 0 ]
				}

			}
, 			{
				"patchline" : 				{
					"destination" : [ "obj-36", 0 ],
					"disabled" : 0,
					"hidden" : 0,
					"source" : [ "obj-14", 1 ]
				}

			}
, 			{
				"patchline" : 				{
					"destination" : [ "obj-143", 0 ],
					"disabled" : 0,
					"hidden" : 0,
					"source" : [ "obj-142", 0 ]
				}

			}
, 			{
				"patchline" : 				{
					"destination" : [ "obj-139", 0 ],
					"disabled" : 0,
					"hidden" : 0,
					"source" : [ "obj-143", 3 ]
				}

			}
, 			{
				"patchline" : 				{
					"destination" : [ "obj-80", 0 ],
					"disabled" : 0,
					"hidden" : 0,
					"source" : [ "obj-143", 1 ]
				}

			}
, 			{
				"patchline" : 				{
					"destination" : [ "obj-127", 1 ],
					"disabled" : 0,
					"hidden" : 0,
					"source" : [ "obj-189", 0 ]
				}

			}
, 			{
				"patchline" : 				{
					"destination" : [ "obj-29", 2 ],
					"disabled" : 0,
					"hidden" : 0,
					"source" : [ "obj-189", 3 ]
				}

			}
, 			{
				"patchline" : 				{
					"destination" : [ "obj-29", 1 ],
					"disabled" : 0,
					"hidden" : 0,
					"source" : [ "obj-189", 2 ]
				}

			}
, 			{
				"patchline" : 				{
					"destination" : [ "obj-29", 0 ],
					"disabled" : 0,
					"hidden" : 0,
					"source" : [ "obj-189", 1 ]
				}

			}
, 			{
				"patchline" : 				{
					"destination" : [ "obj-58", 1 ],
					"disabled" : 0,
					"hidden" : 0,
					"source" : [ "obj-189", 0 ]
				}

			}
, 			{
				"patchline" : 				{
					"destination" : [ "obj-2", 0 ],
					"disabled" : 0,
					"hidden" : 0,
					"source" : [ "obj-19", 0 ]
				}

			}
, 			{
				"patchline" : 				{
					"destination" : [ "obj-127", 0 ],
					"disabled" : 0,
					"hidden" : 0,
					"source" : [ "obj-2", 1 ]
				}

			}
, 			{
				"patchline" : 				{
					"destination" : [ "obj-58", 0 ],
					"disabled" : 0,
					"hidden" : 0,
					"source" : [ "obj-2", 0 ]
				}

			}
, 			{
				"patchline" : 				{
					"destination" : [ "obj-19", 0 ],
					"disabled" : 0,
					"hidden" : 0,
					"source" : [ "obj-20", 0 ]
				}

			}
, 			{
				"patchline" : 				{
					"destination" : [ "obj-2", 0 ],
					"disabled" : 0,
					"hidden" : 0,
					"source" : [ "obj-20", 1 ]
				}

			}
, 			{
				"patchline" : 				{
					"destination" : [ "obj-20", 0 ],
					"disabled" : 0,
					"hidden" : 0,
					"source" : [ "obj-21", 0 ]
				}

			}
, 			{
				"patchline" : 				{
					"destination" : [ "obj-25", 0 ],
					"disabled" : 0,
					"hidden" : 0,
					"source" : [ "obj-22", 0 ]
				}

			}
, 			{
				"patchline" : 				{
					"destination" : [ "obj-30", 0 ],
					"disabled" : 0,
					"hidden" : 0,
					"source" : [ "obj-23", 0 ]
				}

			}
, 			{
				"patchline" : 				{
					"destination" : [ "obj-32", 0 ],
					"disabled" : 0,
					"hidden" : 0,
					"source" : [ "obj-24", 0 ]
				}

			}
, 			{
				"patchline" : 				{
					"destination" : [ "obj-27", 0 ],
					"disabled" : 0,
					"hidden" : 0,
					"source" : [ "obj-25", 0 ]
				}

			}
, 			{
				"patchline" : 				{
					"destination" : [ "obj-20", 0 ],
					"disabled" : 0,
					"hidden" : 0,
					"source" : [ "obj-27", 0 ]
				}

			}
, 			{
				"patchline" : 				{
					"destination" : [ "obj-20", 0 ],
					"disabled" : 0,
					"hidden" : 0,
					"source" : [ "obj-28", 0 ]
				}

			}
, 			{
				"patchline" : 				{
					"destination" : [ "obj-67", 0 ],
					"disabled" : 0,
					"hidden" : 0,
					"source" : [ "obj-29", 1 ]
				}

			}
, 			{
				"patchline" : 				{
					"destination" : [ "obj-70", 0 ],
					"disabled" : 0,
					"hidden" : 0,
					"source" : [ "obj-29", 0 ]
				}

			}
, 			{
				"patchline" : 				{
					"destination" : [ "obj-72", 0 ],
					"disabled" : 0,
					"hidden" : 0,
					"source" : [ "obj-29", 2 ]
				}

			}
, 			{
				"patchline" : 				{
					"destination" : [ "obj-28", 0 ],
					"disabled" : 0,
					"hidden" : 0,
					"source" : [ "obj-30", 0 ]
				}

			}
, 			{
				"patchline" : 				{
					"destination" : [ "obj-307", 0 ],
					"disabled" : 0,
					"hidden" : 0,
					"source" : [ "obj-306", 0 ]
				}

			}
, 			{
				"patchline" : 				{
					"destination" : [ "obj-284", 0 ],
					"disabled" : 0,
					"hidden" : 0,
					"source" : [ "obj-307", 0 ]
				}

			}
, 			{
				"patchline" : 				{
					"destination" : [ "obj-20", 0 ],
					"disabled" : 0,
					"hidden" : 0,
					"source" : [ "obj-31", 0 ]
				}

			}
, 			{
				"patchline" : 				{
					"destination" : [ "obj-31", 0 ],
					"disabled" : 0,
					"hidden" : 0,
					"source" : [ "obj-32", 0 ]
				}

			}
, 			{
				"patchline" : 				{
					"destination" : [ "obj-34", 0 ],
					"disabled" : 0,
					"hidden" : 0,
					"source" : [ "obj-33", 0 ]
				}

			}
, 			{
				"patchline" : 				{
					"destination" : [ "obj-37", 0 ],
					"disabled" : 0,
					"hidden" : 0,
					"source" : [ "obj-34", 1 ]
				}

			}
, 			{
				"patchline" : 				{
					"destination" : [ "obj-41", 0 ],
					"disabled" : 0,
					"hidden" : 0,
					"source" : [ "obj-34", 0 ]
				}

			}
, 			{
				"patchline" : 				{
					"destination" : [ "obj-49", 0 ],
					"disabled" : 0,
					"hidden" : 0,
					"source" : [ "obj-34", 2 ]
				}

			}
, 			{
				"patchline" : 				{
					"destination" : [ "obj-47", 0 ],
					"disabled" : 0,
					"hidden" : 0,
					"source" : [ "obj-37", 1 ]
				}

			}
, 			{
				"patchline" : 				{
					"destination" : [ "obj-11", 0 ],
					"disabled" : 0,
					"hidden" : 0,
					"source" : [ "obj-40", 0 ]
				}

			}
, 			{
				"patchline" : 				{
					"destination" : [ "obj-37", 0 ],
					"disabled" : 0,
					"hidden" : 0,
					"source" : [ "obj-41", 0 ]
				}

			}
, 			{
				"patchline" : 				{
					"destination" : [ "obj-189", 0 ],
					"disabled" : 0,
					"hidden" : 0,
					"source" : [ "obj-42", 1 ]
				}

			}
, 			{
				"patchline" : 				{
					"destination" : [ "obj-43", 0 ],
					"disabled" : 0,
					"hidden" : 0,
					"source" : [ "obj-44", 0 ]
				}

			}
, 			{
				"patchline" : 				{
					"destination" : [ "obj-10", 0 ],
					"disabled" : 0,
					"hidden" : 0,
					"source" : [ "obj-45", 0 ]
				}

			}
, 			{
				"patchline" : 				{
					"destination" : [ "obj-306", 0 ],
					"disabled" : 0,
					"hidden" : 0,
					"source" : [ "obj-45", 0 ]
				}

			}
, 			{
				"patchline" : 				{
					"destination" : [ "obj-44", 0 ],
					"disabled" : 0,
					"hidden" : 0,
					"source" : [ "obj-47", 0 ]
				}

			}
, 			{
				"patchline" : 				{
					"destination" : [ "obj-43", 0 ],
					"disabled" : 0,
					"hidden" : 0,
					"source" : [ "obj-49", 0 ]
				}

			}
, 			{
				"patchline" : 				{
					"destination" : [ "obj-12", 0 ],
					"disabled" : 0,
					"hidden" : 0,
					"source" : [ "obj-5", 0 ]
				}

			}
, 			{
				"patchline" : 				{
					"destination" : [ "obj-14", 0 ],
					"disabled" : 0,
					"hidden" : 0,
					"source" : [ "obj-58", 0 ]
				}

			}
, 			{
				"patchline" : 				{
					"color" : [ 0.0, 0.0, 0.0, 0.05 ],
					"destination" : [ "obj-11", 1 ],
					"disabled" : 0,
					"hidden" : 0,
					"source" : [ "obj-6", 0 ]
				}

			}
, 			{
				"patchline" : 				{
					"destination" : [ "obj-131", 0 ],
					"disabled" : 0,
					"hidden" : 0,
					"source" : [ "obj-67", 0 ]
				}

			}
, 			{
				"patchline" : 				{
					"color" : [ 0.0, 0.0, 0.0, 0.05 ],
					"destination" : [ "obj-11", 2 ],
					"disabled" : 0,
					"hidden" : 0,
					"source" : [ "obj-7", 1 ]
				}

			}
, 			{
				"patchline" : 				{
					"destination" : [ "obj-189", 5 ],
					"disabled" : 0,
					"hidden" : 0,
					"source" : [ "obj-70", 0 ]
				}

			}
, 			{
				"patchline" : 				{
					"destination" : [ "obj-189", 7 ],
					"disabled" : 0,
					"hidden" : 0,
					"source" : [ "obj-72", 0 ]
				}

			}
, 			{
				"patchline" : 				{
					"destination" : [ "obj-80", 0 ],
					"disabled" : 0,
					"hidden" : 0,
					"source" : [ "obj-75", 0 ]
				}

			}
, 			{
				"patchline" : 				{
					"destination" : [ "obj-13", 0 ],
					"disabled" : 0,
					"hidden" : 0,
					"source" : [ "obj-80", 0 ]
				}

			}
, 			{
				"patchline" : 				{
					"color" : [ 0.0, 0.0, 0.0, 0.05 ],
					"destination" : [ "obj-11", 2 ],
					"disabled" : 0,
					"hidden" : 0,
					"source" : [ "obj-86", 1 ]
				}

			}
 ],
		"parameters" : 		{
			"obj-24" : [ "stop", "stop", 0 ],
			"obj-67" : [ "FilterGain", "FilterGain", 0 ],
			"obj-42" : [ "FilterMode", "FilterMode", 0 ],
			"obj-80" : [ "PRESET", "PRESET", 0 ],
			"obj-72" : [ "FilterQ", "FilterQ", 0 ],
			"obj-22" : [ "pause", "pause", 0 ],
			"obj-23" : [ "resume", "resume", 0 ],
			"obj-70" : [ "FilterFreq", "FilterFreq", 0 ],
			"obj-14" : [ "Outgain", "Outgain", 0 ],
			"obj-5" : [ "sflistName", "sflistName", 0 ]
		}
,
		"dependency_cache" : [ 			{
				"name" : "FragulatorPreset.json",
				"bootpath" : "/Users/goepfer/Documents/MAX-LIBRARY/TG.tools/_MODULES/JSON",
				"patcherrelativepath" : "../../JSON",
				"type" : "JSON",
				"implicit" : 1
			}
, 			{
				"name" : "tg.m.fgraph.maxpat",
				"bootpath" : "/Users/goepfer/Documents/MAX-LIBRARY/TG.tools/_MODULES/CTRL",
				"patcherrelativepath" : "../../CTRL",
				"type" : "JSON",
				"implicit" : 1
			}
, 			{
				"name" : "tg.m.preset.maxpat",
				"bootpath" : "/Users/goepfer/Documents/MAX-LIBRARY/TG.tools/_MODULES/CTRL",
				"patcherrelativepath" : "../../CTRL",
				"type" : "JSON",
				"implicit" : 1
			}
, 			{
				"name" : "tg.sfplay-poly1a.maxpat",
				"bootpath" : "/Users/goepfer/Documents/MAX-LIBRARY/TG.tools/_MODULES/EFFECTS/Soundfiles",
				"patcherrelativepath" : ".",
				"type" : "JSON",
				"implicit" : 1
			}
 ]
	}

}
