{
	"patcher" : 	{
		"fileversion" : 1,
		"appversion" : 		{
			"major" : 6,
			"minor" : 0,
			"revision" : 8
		}
,
		"rect" : [ 670.0, 44.0, 1570.0, 956.0 ],
		"bgcolor" : [ 1.0, 1.0, 1.0, 0.0 ],
		"bglocked" : 0,
		"openinpresentation" : 1,
		"default_fontsize" : 10.0,
		"default_fontface" : 0,
		"default_fontname" : "Arial Bold",
		"gridonopen" : 0,
		"gridsize" : [ 15.0, 15.0 ],
		"gridsnaponopen" : 0,
		"statusbarvisible" : 2,
		"toolbarvisible" : 1,
		"boxanimatetime" : 200,
		"imprint" : 0,
		"enablehscroll" : 1,
		"enablevscroll" : 1,
		"devicewidth" : 0.0,
		"description" : "",
		"digest" : "",
		"tags" : "",
		"boxes" : [ 			{
				"box" : 				{
					"fontname" : "Arial",
					"fontsize" : 10.0,
					"frgb" : 0.0,
					"id" : "obj-158",
					"maxclass" : "comment",
					"numinlets" : 1,
					"numoutlets" : 0,
					"patching_rect" : [ 586.0, 503.5, 42.0, 18.0 ],
					"presentation" : 1,
					"presentation_rect" : [ 26.5, 145.0, 42.0, 18.0 ],
					"text" : "Phrase"
				}

			}
, 			{
				"box" : 				{
					"fontname" : "Arial Bold",
					"fontsize" : 10.0,
					"id" : "obj-155",
					"maxclass" : "message",
					"numinlets" : 2,
					"numoutlets" : 1,
					"outlettype" : [ "" ],
					"patching_rect" : [ 631.916626, 463.0, 32.5, 16.0 ],
					"presentation_rect" : [ 634.0, 463.0, 0.0, 0.0 ],
					"text" : "1"
				}

			}
, 			{
				"box" : 				{
					"fontname" : "Arial Bold",
					"fontsize" : 10.0,
					"id" : "obj-154",
					"maxclass" : "message",
					"numinlets" : 2,
					"numoutlets" : 1,
					"outlettype" : [ "" ],
					"patching_rect" : [ 586.0, 463.0, 32.5, 16.0 ],
					"text" : "0"
				}

			}
, 			{
				"box" : 				{
					"bgcolor" : [ 0.101961, 0.121569, 0.172549, 1.0 ],
					"bgoncolor" : [ 0.984314, 0.819608, 0.05098, 1.0 ],
					"bgovercolor" : [ 0.101961, 0.121569, 0.172549, 1.0 ],
					"bgoveroncolor" : [ 0.984314, 0.819608, 0.05098, 1.0 ],
					"border" : 1,
					"bordercolor" : [ 0.101961, 0.121569, 0.172549, 1.0 ],
					"borderoncolor" : [ 0.101961, 0.121569, 0.172549, 1.0 ],
					"fontface" : 1,
					"fontname" : "Arial",
					"fontsize" : 10.0,
					"id" : "obj-152",
					"maxclass" : "textbutton",
					"mode" : 1,
					"numinlets" : 1,
					"numoutlets" : 3,
					"outlettype" : [ "", "", "int" ],
					"parameter_enable" : 0,
					"patching_rect" : [ 586.0, 521.5, 24.0, 15.0 ],
					"presentation" : 1,
					"presentation_rect" : [ 67.5, 146.5, 24.0, 15.0 ],
					"prototypename" : "M4L.button",
					"rounded" : 0.0,
					"text" : "Off",
					"textcolor" : [ 0.666667, 0.698039, 0.717647, 1.0 ],
					"texton" : "On",
					"textoncolor" : [ 0.101961, 0.121569, 0.172549, 1.0 ],
					"textovercolor" : [ 0.666667, 0.698039, 0.717647, 1.0 ],
					"textoveroncolor" : [ 0.101961, 0.121569, 0.172549, 1.0 ]
				}

			}
, 			{
				"box" : 				{
					"fontname" : "Arial Bold",
					"fontsize" : 10.0,
					"id" : "obj-151",
					"maxclass" : "message",
					"numinlets" : 2,
					"numoutlets" : 1,
					"outlettype" : [ "" ],
					"patching_rect" : [ 614.416626, 717.5, 50.0, 16.0 ],
					"text" : "0 $1"
				}

			}
, 			{
				"box" : 				{
					"fontname" : "Arial Bold",
					"fontsize" : 10.0,
					"id" : "obj-149",
					"linecount" : 2,
					"maxclass" : "newobj",
					"numinlets" : 1,
					"numoutlets" : 1,
					"outlettype" : [ "" ],
					"patching_rect" : [ 614.416626, 678.0, 105.0, 29.0 ],
					"text" : "tg.random \"random range 100 100 700\""
				}

			}
, 			{
				"box" : 				{
					"fontname" : "Arial Bold",
					"fontsize" : 10.0,
					"id" : "obj-148",
					"maxclass" : "newobj",
					"numinlets" : 2,
					"numoutlets" : 1,
					"outlettype" : [ "bang" ],
					"patching_rect" : [ 501.0, 272.0, 36.0, 18.0 ],
					"text" : "delay"
				}

			}
, 			{
				"box" : 				{
					"fontname" : "Arial Bold",
					"fontsize" : 10.0,
					"id" : "obj-133",
					"linecount" : 3,
					"maxclass" : "newobj",
					"numinlets" : 1,
					"numoutlets" : 1,
					"outlettype" : [ "" ],
					"patching_rect" : [ 501.0, 223.0, 105.0, 40.0 ],
					"text" : "tg.random \"random range 100 3000 10000\""
				}

			}
, 			{
				"box" : 				{
					"fontname" : "Arial Bold",
					"fontsize" : 10.0,
					"id" : "obj-113",
					"maxclass" : "message",
					"numinlets" : 2,
					"numoutlets" : 1,
					"outlettype" : [ "" ],
					"patching_rect" : [ 451.166626, 209.0, 32.5, 16.0 ],
					"text" : "stop"
				}

			}
, 			{
				"box" : 				{
					"fontname" : "Arial Bold",
					"fontsize" : 10.0,
					"id" : "obj-106",
					"maxclass" : "newobj",
					"numinlets" : 2,
					"numoutlets" : 2,
					"outlettype" : [ "bang", "" ],
					"patching_rect" : [ 501.0, 170.0, 32.5, 18.0 ],
					"text" : "sel 1"
				}

			}
, 			{
				"box" : 				{
					"fontname" : "Arial Bold",
					"fontsize" : 10.0,
					"id" : "obj-105",
					"maxclass" : "newobj",
					"numinlets" : 1,
					"numoutlets" : 2,
					"outlettype" : [ "int", "int" ],
					"patching_rect" : [ 605.333313, 132.0, 68.166626, 18.0 ],
					"text" : "t i i"
				}

			}
, 			{
				"box" : 				{
					"id" : "obj-100",
					"maxclass" : "button",
					"numinlets" : 1,
					"numoutlets" : 1,
					"outlettype" : [ "bang" ],
					"patching_rect" : [ 586.0, 427.0, 20.0, 20.0 ]
				}

			}
, 			{
				"box" : 				{
					"bgcolor" : [ 0.568627, 0.619608, 0.662745, 1.0 ],
					"bgoncolor" : [ 0.921569, 0.94902, 0.05098, 1.0 ],
					"bgovercolor" : [ 0.568627, 0.619608, 0.662745, 1.0 ],
					"bgoveroncolor" : [ 0.921569, 0.94902, 0.05098, 1.0 ],
					"border" : 1,
					"bordercolor" : [ 0.301961, 0.337255, 0.403922, 1.0 ],
					"borderoncolor" : [ 0.301961, 0.337255, 0.403922, 1.0 ],
					"fontface" : 1,
					"fontname" : "Arial",
					"fontsize" : 10.0,
					"id" : "obj-77",
					"maxclass" : "textbutton",
					"numinlets" : 1,
					"numoutlets" : 3,
					"outlettype" : [ "", "", "int" ],
					"parameter_enable" : 0,
					"patching_rect" : [ 968.0, 276.0, 6.0, 6.0 ],
					"presentation" : 1,
					"presentation_rect" : [ 127.26519, 16.0, 6.385543, 6.385543 ],
					"prototypename" : "M4L.toggle",
					"rounded" : 15.960001,
					"text" : "",
					"textcolor" : [ 0.101961, 0.121569, 0.172549, 1.0 ],
					"texton" : "Trig",
					"textoncolor" : [ 0.101961, 0.121569, 0.172549, 1.0 ],
					"textovercolor" : [ 0.101961, 0.121569, 0.172549, 1.0 ],
					"textoveroncolor" : [ 0.101961, 0.121569, 0.172549, 1.0 ]
				}

			}
, 			{
				"box" : 				{
					"fontname" : "Arial Bold",
					"fontsize" : 18.0,
					"frgb" : 0.0,
					"id" : "obj-87",
					"maxclass" : "comment",
					"numinlets" : 1,
					"numoutlets" : 0,
					"patching_rect" : [ 174.166656, 524.0, 95.0, 27.0 ],
					"presentation" : 1,
					"presentation_rect" : [ 532.5, 2.499999, 95.0, 27.0 ],
					"text" : "1sin"
				}

			}
, 			{
				"box" : 				{
					"arrowframe" : 0,
					"bgcolor" : [ 1.0, 1.0, 1.0, 0.0 ],
					"fontname" : "Arial Bold",
					"fontsize" : 12.0,
					"framecolor" : [ 0.498039, 0.52549, 0.576471, 0.0 ],
					"id" : "obj-86",
					"items" : [ "()", ",", "<separator>", ",", "(Presets)", ",", "init", ",", "dump", ",", "<separator>", ",", "(Storage)", ",", "client", ",", "storage", ",", "<separator>", ",", "(Bank)", ",", "renum", ",", "clear", ",", "load", ",", "save", ",", "export" ],
					"maxclass" : "umenu",
					"numinlets" : 1,
					"numoutlets" : 3,
					"outlettype" : [ "int", "", "" ],
					"parameter_enable" : 0,
					"patching_rect" : [ 174.166656, 527.5, 94.400002, 20.0 ],
					"presentation" : 1,
					"presentation_rect" : [ 532.5, 5.999999, 94.400002, 20.0 ],
					"rounded" : 6,
					"textcolor" : [ 0.0, 0.0, 0.0, 1.0 ]
				}

			}
, 			{
				"box" : 				{
					"fontname" : "Arial Bold",
					"fontsize" : 10.0,
					"id" : "obj-84",
					"maxclass" : "newobj",
					"numinlets" : 2,
					"numoutlets" : 1,
					"outlettype" : [ "bang" ],
					"patching_rect" : [ 501.0, 407.0, 36.0, 18.0 ],
					"text" : "delay"
				}

			}
, 			{
				"box" : 				{
					"fontname" : "Arial Bold",
					"fontsize" : 10.0,
					"id" : "obj-83",
					"maxclass" : "newobj",
					"numinlets" : 1,
					"numoutlets" : 2,
					"outlettype" : [ "bang", "int" ],
					"patching_rect" : [ 501.0, 300.0, 66.25, 18.0 ],
					"text" : "t b 0"
				}

			}
, 			{
				"box" : 				{
					"id" : "obj-82",
					"maxclass" : "button",
					"numinlets" : 1,
					"numoutlets" : 1,
					"outlettype" : [ "bang" ],
					"patching_rect" : [ 501.0, 435.0, 20.0, 20.0 ]
				}

			}
, 			{
				"box" : 				{
					"id" : "obj-49",
					"maxclass" : "toggle",
					"numinlets" : 1,
					"numoutlets" : 1,
					"outlettype" : [ "int" ],
					"parameter_enable" : 0,
					"patching_rect" : [ 605.333313, 102.0, 20.0, 20.0 ]
				}

			}
, 			{
				"box" : 				{
					"fontname" : "Arial Bold",
					"fontsize" : 10.0,
					"id" : "obj-38",
					"maxclass" : "newobj",
					"numinlets" : 2,
					"numoutlets" : 1,
					"outlettype" : [ "int" ],
					"patching_rect" : [ 605.333313, 77.0, 32.5, 18.0 ],
					"text" : "i"
				}

			}
, 			{
				"box" : 				{
					"fontname" : "Arial Bold",
					"fontsize" : 10.0,
					"id" : "obj-17",
					"maxclass" : "newobj",
					"numinlets" : 2,
					"numoutlets" : 2,
					"outlettype" : [ "", "" ],
					"patching_rect" : [ 354.666626, 91.0, 100.0, 18.0 ],
					"text" : "route text"
				}

			}
, 			{
				"box" : 				{
					"fontname" : "Arial",
					"fontsize" : 10.0,
					"frgb" : 0.0,
					"id" : "obj-18",
					"maxclass" : "comment",
					"numinlets" : 1,
					"numoutlets" : 0,
					"patching_rect" : [ 371.666626, 20.0, 80.0, 18.0 ],
					"presentation" : 1,
					"presentation_rect" : [ 144.5, -1.5, 80.0, 18.0 ],
					"text" : "PhraseDuration"
				}

			}
, 			{
				"box" : 				{
					"fontname" : "Arial Bold",
					"fontsize" : 10.0,
					"id" : "obj-19",
					"linecount" : 2,
					"maxclass" : "message",
					"numinlets" : 2,
					"numoutlets" : 1,
					"outlettype" : [ "" ],
					"patching_rect" : [ 354.666626, 38.0, 114.0, 27.0 ],
					"text" : "set random range 100 3000 10000, bang"
				}

			}
, 			{
				"box" : 				{
					"border" : 1.0,
					"fontface" : 1,
					"fontname" : "Arial",
					"fontsize" : 10.0,
					"frgb" : 0.0,
					"id" : "obj-20",
					"keymode" : 1,
					"linecount" : 2,
					"maxclass" : "textedit",
					"numinlets" : 1,
					"numoutlets" : 4,
					"outlettype" : [ "", "int", "", "" ],
					"parameter_enable" : 1,
					"patching_rect" : [ 354.666626, 67.5, 121.0, 18.0 ],
					"presentation" : 1,
					"presentation_linecount" : 2,
					"presentation_rect" : [ 144.5, 16.0, 129.0, 25.0 ],
					"prototypename" : "M4L.white",
					"rounded" : 0.0,
					"saved_attribute_attributes" : 					{
						"valueof" : 						{
							"parameter_initial" : [ "random", "range", 100, 3000, 10000 ],
							"parameter_type" : 3,
							"parameter_initial_enable" : 1,
							"parameter_invisible" : 1,
							"parameter_shortname" : "PhraseDuration",
							"parameter_longname" : "PhraseDuration"
						}

					}
,
					"text" : "random range 100 3000 10000",
					"varname" : "PhraseDuration"
				}

			}
, 			{
				"box" : 				{
					"fontname" : "Arial Bold",
					"fontsize" : 10.0,
					"id" : "obj-2",
					"maxclass" : "newobj",
					"numinlets" : 2,
					"numoutlets" : 2,
					"outlettype" : [ "", "" ],
					"patching_rect" : [ 313.166626, 314.0, 100.0, 18.0 ],
					"text" : "route text"
				}

			}
, 			{
				"box" : 				{
					"fontname" : "Arial",
					"fontsize" : 10.0,
					"frgb" : 0.0,
					"id" : "obj-6",
					"maxclass" : "comment",
					"numinlets" : 1,
					"numoutlets" : 0,
					"patching_rect" : [ 340.666626, 235.0, 81.0, 18.0 ],
					"presentation" : 1,
					"presentation_rect" : [ 144.5, 39.5, 81.0, 18.0 ],
					"text" : "SilenceDuration"
				}

			}
, 			{
				"box" : 				{
					"fontname" : "Arial Bold",
					"fontsize" : 10.0,
					"id" : "obj-11",
					"linecount" : 2,
					"maxclass" : "message",
					"numinlets" : 2,
					"numoutlets" : 1,
					"outlettype" : [ "" ],
					"patching_rect" : [ 313.166626, 253.0, 121.0, 27.0 ],
					"text" : "set random range 100 500 5000, bang"
				}

			}
, 			{
				"box" : 				{
					"border" : 1.0,
					"fontface" : 1,
					"fontname" : "Arial",
					"fontsize" : 10.0,
					"frgb" : 0.0,
					"id" : "obj-15",
					"keymode" : 1,
					"linecount" : 2,
					"maxclass" : "textedit",
					"numinlets" : 1,
					"numoutlets" : 4,
					"outlettype" : [ "", "int", "", "" ],
					"parameter_enable" : 1,
					"patching_rect" : [ 313.166626, 290.5, 121.0, 18.0 ],
					"presentation" : 1,
					"presentation_linecount" : 2,
					"presentation_rect" : [ 144.5, 57.0, 129.0, 25.0 ],
					"prototypename" : "M4L.white",
					"rounded" : 0.0,
					"saved_attribute_attributes" : 					{
						"valueof" : 						{
							"parameter_initial" : [ "random", "range", 100, 500, 5000 ],
							"parameter_type" : 3,
							"parameter_initial_enable" : 1,
							"parameter_invisible" : 1,
							"parameter_shortname" : "SilenceDuration",
							"parameter_longname" : "SilenceDuration"
						}

					}
,
					"text" : "random range 100 500 5000",
					"varname" : "SilenceDuration"
				}

			}
, 			{
				"box" : 				{
					"fontname" : "Arial Bold",
					"fontsize" : 10.0,
					"id" : "obj-16",
					"linecount" : 2,
					"maxclass" : "newobj",
					"numinlets" : 1,
					"numoutlets" : 1,
					"outlettype" : [ "" ],
					"patching_rect" : [ 501.0, 359.0, 105.0, 29.0 ],
					"text" : "tg.random \"random range 100 500 5000\""
				}

			}
, 			{
				"box" : 				{
					"fontname" : "Arial Bold",
					"fontsize" : 10.0,
					"id" : "obj-8",
					"maxclass" : "newobj",
					"numinlets" : 2,
					"numoutlets" : 2,
					"outlettype" : [ "bang", "" ],
					"patching_rect" : [ 614.416626, 655.0, 33.0, 18.0 ],
					"text" : "sel 0"
				}

			}
, 			{
				"box" : 				{
					"fontname" : "Arial Bold",
					"fontsize" : 10.0,
					"id" : "obj-7",
					"maxclass" : "message",
					"numinlets" : 2,
					"numoutlets" : 1,
					"outlettype" : [ "" ],
					"patching_rect" : [ 904.5, 143.0, 61.0, 16.0 ],
					"text" : "#0SEND"
				}

			}
, 			{
				"box" : 				{
					"fontname" : "Arial Bold",
					"fontsize" : 10.0,
					"id" : "obj-4",
					"maxclass" : "newobj",
					"numinlets" : 1,
					"numoutlets" : 0,
					"patching_rect" : [ 1017.5, 143.0, 100.0, 18.0 ],
					"text" : "s #0SEND"
				}

			}
, 			{
				"box" : 				{
					"id" : "obj-3",
					"maxclass" : "button",
					"numinlets" : 1,
					"numoutlets" : 1,
					"outlettype" : [ "bang" ],
					"patching_rect" : [ 953.0, 488.0, 20.0, 20.0 ]
				}

			}
, 			{
				"box" : 				{
					"fontname" : "Arial Bold",
					"fontsize" : 10.0,
					"id" : "obj-78",
					"maxclass" : "newobj",
					"numinlets" : 1,
					"numoutlets" : 1,
					"outlettype" : [ "bang" ],
					"patching_rect" : [ 197.166656, 728.0, 55.0, 18.0 ],
					"text" : "loadbang"
				}

			}
, 			{
				"box" : 				{
					"fontname" : "Arial Bold",
					"fontsize" : 10.0,
					"id" : "obj-132",
					"maxclass" : "newobj",
					"numinlets" : 1,
					"numoutlets" : 1,
					"outlettype" : [ "" ],
					"patching_rect" : [ 985.5, 193.0, 45.0, 18.0 ],
					"text" : "receive"
				}

			}
, 			{
				"box" : 				{
					"fontname" : "Arial Bold",
					"fontsize" : 10.0,
					"id" : "obj-22",
					"maxclass" : "newobj",
					"numinlets" : 1,
					"numoutlets" : 1,
					"outlettype" : [ "" ],
					"patching_rect" : [ 985.5, 171.0, 67.0, 18.0 ],
					"text" : "prepend set"
				}

			}
, 			{
				"box" : 				{
					"fontname" : "Arial Bold",
					"fontsize" : 10.0,
					"id" : "obj-130",
					"maxclass" : "newobj",
					"numinlets" : 2,
					"numoutlets" : 2,
					"outlettype" : [ "", "" ],
					"patching_rect" : [ 904.5, 116.0, 100.0, 18.0 ],
					"text" : "route <none>"
				}

			}
, 			{
				"box" : 				{
					"fontname" : "Arial Bold",
					"fontsize" : 10.0,
					"id" : "obj-126",
					"maxclass" : "newobj",
					"numinlets" : 2,
					"numoutlets" : 2,
					"outlettype" : [ "", "" ],
					"patching_rect" : [ 904.5, 89.0, 100.0, 18.0 ],
					"text" : "route text"
				}

			}
, 			{
				"box" : 				{
					"fontname" : "Arial",
					"fontsize" : 10.0,
					"frgb" : 0.0,
					"id" : "obj-127",
					"maxclass" : "comment",
					"numinlets" : 1,
					"numoutlets" : 0,
					"patching_rect" : [ 926.0, 47.0, 70.0, 18.0 ],
					"presentation" : 1,
					"presentation_rect" : [ 9.5, 11.0, 70.0, 18.0 ],
					"text" : "ReceiveFrom"
				}

			}
, 			{
				"box" : 				{
					"fontname" : "Arial Bold",
					"fontsize" : 10.0,
					"id" : "obj-128",
					"maxclass" : "message",
					"numinlets" : 2,
					"numoutlets" : 1,
					"outlettype" : [ "" ],
					"patching_rect" : [ 904.5, 21.0, 163.0, 16.0 ],
					"text" : "set <none>, bang"
				}

			}
, 			{
				"box" : 				{
					"border" : 1.0,
					"fontface" : 1,
					"fontname" : "Arial",
					"fontsize" : 10.0,
					"frgb" : 0.0,
					"id" : "obj-129",
					"keymode" : 1,
					"maxclass" : "textedit",
					"numinlets" : 1,
					"numoutlets" : 4,
					"outlettype" : [ "", "int", "", "" ],
					"parameter_enable" : 1,
					"patching_rect" : [ 904.5, 65.5, 121.0, 18.0 ],
					"presentation" : 1,
					"presentation_rect" : [ 9.5, 29.0, 129.0, 15.75 ],
					"prototypename" : "M4L.white",
					"rounded" : 0.0,
					"saved_attribute_attributes" : 					{
						"valueof" : 						{
							"parameter_initial" : [ "<none>" ],
							"parameter_type" : 3,
							"parameter_initial_enable" : 1,
							"parameter_invisible" : 1,
							"parameter_shortname" : "ReceiveFrom",
							"parameter_longname" : "ReceiveFrom[1]"
						}

					}
,
					"text" : "TOTO",
					"varname" : "ReceiveFrom"
				}

			}
, 			{
				"box" : 				{
					"fontname" : "Arial Bold",
					"fontsize" : 10.0,
					"id" : "obj-122",
					"maxclass" : "newobj",
					"numinlets" : 2,
					"numoutlets" : 2,
					"outlettype" : [ "", "" ],
					"patching_rect" : [ 1371.0, 444.0, 100.0, 18.0 ],
					"text" : "route text"
				}

			}
, 			{
				"box" : 				{
					"fontname" : "Arial",
					"fontsize" : 10.0,
					"frgb" : 0.0,
					"id" : "obj-123",
					"maxclass" : "comment",
					"numinlets" : 1,
					"numoutlets" : 0,
					"patching_rect" : [ 1392.5, 402.0, 45.0, 18.0 ],
					"presentation" : 1,
					"presentation_rect" : [ 144.5, 121.0, 66.0, 18.0 ],
					"text" : "VibAmp"
				}

			}
, 			{
				"box" : 				{
					"fontname" : "Arial Bold",
					"fontsize" : 10.0,
					"id" : "obj-124",
					"maxclass" : "message",
					"numinlets" : 2,
					"numoutlets" : 1,
					"outlettype" : [ "" ],
					"patching_rect" : [ 1371.0, 376.0, 168.0, 16.0 ],
					"text" : "set random range 100 0 0.5, bang"
				}

			}
, 			{
				"box" : 				{
					"border" : 1.0,
					"fontface" : 1,
					"fontname" : "Arial",
					"fontsize" : 10.0,
					"frgb" : 0.0,
					"id" : "obj-125",
					"keymode" : 1,
					"maxclass" : "textedit",
					"numinlets" : 1,
					"numoutlets" : 4,
					"outlettype" : [ "", "int", "", "" ],
					"parameter_enable" : 1,
					"patching_rect" : [ 1371.0, 420.5, 121.0, 18.0 ],
					"presentation" : 1,
					"presentation_rect" : [ 144.5, 139.0, 129.0, 25.0 ],
					"prototypename" : "M4L.white",
					"rounded" : 0.0,
					"saved_attribute_attributes" : 					{
						"valueof" : 						{
							"parameter_initial" : [ "random", "range", 100, 0, 0.5 ],
							"parameter_type" : 3,
							"parameter_initial_enable" : 1,
							"parameter_invisible" : 1,
							"parameter_shortname" : "VibAmp",
							"parameter_longname" : "VibAmp[1]"
						}

					}
,
					"text" : "random range 100 0 0.5",
					"varname" : "VibAmp"
				}

			}
, 			{
				"box" : 				{
					"fontname" : "Arial Bold",
					"fontsize" : 10.0,
					"id" : "obj-118",
					"maxclass" : "newobj",
					"numinlets" : 2,
					"numoutlets" : 2,
					"outlettype" : [ "", "" ],
					"patching_rect" : [ 1195.0, 444.0, 100.0, 18.0 ],
					"text" : "route text"
				}

			}
, 			{
				"box" : 				{
					"fontname" : "Arial",
					"fontsize" : 10.0,
					"frgb" : 0.0,
					"id" : "obj-119",
					"maxclass" : "comment",
					"numinlets" : 1,
					"numoutlets" : 0,
					"patching_rect" : [ 1216.5, 402.0, 45.0, 18.0 ],
					"presentation" : 1,
					"presentation_rect" : [ 144.5, 80.0, 66.0, 18.0 ],
					"text" : "VibFreq"
				}

			}
, 			{
				"box" : 				{
					"fontname" : "Arial Bold",
					"fontsize" : 10.0,
					"id" : "obj-120",
					"maxclass" : "message",
					"numinlets" : 2,
					"numoutlets" : 1,
					"outlettype" : [ "" ],
					"patching_rect" : [ 1195.0, 376.0, 163.0, 16.0 ],
					"text" : "set random range 10 3 7, bang"
				}

			}
, 			{
				"box" : 				{
					"border" : 1.0,
					"fontface" : 1,
					"fontname" : "Arial",
					"fontsize" : 10.0,
					"frgb" : 0.0,
					"id" : "obj-121",
					"keymode" : 1,
					"maxclass" : "textedit",
					"numinlets" : 1,
					"numoutlets" : 4,
					"outlettype" : [ "", "int", "", "" ],
					"parameter_enable" : 1,
					"patching_rect" : [ 1195.0, 420.5, 121.0, 18.0 ],
					"presentation" : 1,
					"presentation_rect" : [ 144.5, 98.0, 129.0, 25.0 ],
					"prototypename" : "M4L.white",
					"rounded" : 0.0,
					"saved_attribute_attributes" : 					{
						"valueof" : 						{
							"parameter_initial" : [ "random", "range", 10, 3, 7 ],
							"parameter_type" : 3,
							"parameter_initial_enable" : 1,
							"parameter_invisible" : 1,
							"parameter_shortname" : "VibFreq",
							"parameter_longname" : "VibFreq[1]"
						}

					}
,
					"text" : "random range 10 3 7",
					"varname" : "VibFreq"
				}

			}
, 			{
				"box" : 				{
					"fontname" : "Arial",
					"fontsize" : 10.0,
					"frgb" : 0.0,
					"id" : "obj-117",
					"maxclass" : "comment",
					"numinlets" : 1,
					"numoutlets" : 0,
					"patching_rect" : [ 605.333313, 22.0, 61.0, 18.0 ],
					"presentation" : 1,
					"presentation_rect" : [ 9.5, 86.0, 36.0, 18.0 ],
					"text" : "Metro"
				}

			}
, 			{
				"box" : 				{
					"automation" : "Off",
					"automationon" : "On",
					"id" : "obj-116",
					"maxclass" : "live.text",
					"numinlets" : 1,
					"numoutlets" : 2,
					"outlettype" : [ "", "" ],
					"parameter_enable" : 1,
					"patching_rect" : [ 605.333313, 37.0, 31.0, 15.0 ],
					"presentation" : 1,
					"presentation_rect" : [ 51.0, 86.0, 36.0, 15.0 ],
					"prototypename" : "onoff",
					"saved_attribute_attributes" : 					{
						"valueof" : 						{
							"parameter_initial" : [ 0.0 ],
							"parameter_type" : 2,
							"parameter_initial_enable" : 1,
							"parameter_shortname" : "Metro",
							"parameter_longname" : "Metro",
							"parameter_speedlim" : 0.0,
							"parameter_enum" : [ "Off", "On" ],
							"parameter_mmax" : 1.0
						}

					}
,
					"text" : "Off",
					"texton" : "On",
					"varname" : "Metro"
				}

			}
, 			{
				"box" : 				{
					"fontname" : "Arial Bold",
					"fontsize" : 10.0,
					"id" : "obj-112",
					"maxclass" : "newobj",
					"numinlets" : 1,
					"numoutlets" : 1,
					"outlettype" : [ "" ],
					"patching_rect" : [ 712.5, 339.0, 121.0, 18.0 ],
					"text" : "prepend speed"
				}

			}
, 			{
				"box" : 				{
					"fontname" : "Arial Bold",
					"fontsize" : 10.0,
					"id" : "obj-111",
					"maxclass" : "newobj",
					"numinlets" : 2,
					"numoutlets" : 2,
					"outlettype" : [ "", "" ],
					"patching_rect" : [ 712.5, 314.0, 100.0, 18.0 ],
					"text" : "route text"
				}

			}
, 			{
				"box" : 				{
					"fontname" : "Arial",
					"fontsize" : 10.0,
					"frgb" : 0.0,
					"id" : "obj-208",
					"maxclass" : "comment",
					"numinlets" : 1,
					"numoutlets" : 0,
					"patching_rect" : [ 734.0, 272.0, 39.0, 18.0 ],
					"presentation" : 1,
					"presentation_rect" : [ 9.5, 101.0, 66.0, 18.0 ],
					"text" : "Speed"
				}

			}
, 			{
				"box" : 				{
					"fontname" : "Arial Bold",
					"fontsize" : 10.0,
					"id" : "obj-192",
					"maxclass" : "message",
					"numinlets" : 2,
					"numoutlets" : 1,
					"outlettype" : [ "" ],
					"patching_rect" : [ 712.5, 246.0, 163.0, 16.0 ],
					"text" : "set random 200 1000 2000, bang"
				}

			}
, 			{
				"box" : 				{
					"border" : 1.0,
					"fontface" : 1,
					"fontname" : "Arial",
					"fontsize" : 10.0,
					"frgb" : 0.0,
					"id" : "obj-188",
					"keymode" : 1,
					"maxclass" : "textedit",
					"numinlets" : 1,
					"numoutlets" : 4,
					"outlettype" : [ "", "int", "", "" ],
					"parameter_enable" : 1,
					"patching_rect" : [ 712.5, 290.5, 121.0, 18.0 ],
					"presentation" : 1,
					"presentation_rect" : [ 9.5, 119.0, 129.0, 25.0 ],
					"prototypename" : "M4L.white",
					"rounded" : 0.0,
					"saved_attribute_attributes" : 					{
						"valueof" : 						{
							"parameter_initial" : [ "random", 200, 1000, 2000 ],
							"parameter_type" : 3,
							"parameter_initial_enable" : 1,
							"parameter_invisible" : 1,
							"parameter_shortname" : "Speed",
							"parameter_longname" : "Speed[1]"
						}

					}
,
					"text" : "random 200 1000 2000",
					"varname" : "Speed"
				}

			}
, 			{
				"box" : 				{
					"fontname" : "Arial Bold",
					"fontsize" : 10.0,
					"frgb" : 0.0,
					"id" : "obj-108",
					"maxclass" : "comment",
					"numinlets" : 1,
					"numoutlets" : 0,
					"patching_rect" : [ 726.5, 713.0, 96.0, 18.0 ],
					"text" : "amplitude posible"
				}

			}
, 			{
				"box" : 				{
					"fontname" : "Arial Bold",
					"fontsize" : 10.0,
					"frgb" : 0.0,
					"id" : "obj-102",
					"maxclass" : "comment",
					"numinlets" : 1,
					"numoutlets" : 0,
					"patching_rect" : [ 1195.0, 358.0, 66.0, 18.0 ],
					"text" : "lissage freq"
				}

			}
, 			{
				"box" : 				{
					"fontname" : "Arial Bold",
					"fontsize" : 10.0,
					"id" : "obj-98",
					"maxclass" : "newobj",
					"numinlets" : 1,
					"numoutlets" : 1,
					"outlettype" : [ "" ],
					"patching_rect" : [ 832.5, 746.0, 73.0, 18.0 ],
					"text" : "loadmess 0.5"
				}

			}
, 			{
				"box" : 				{
					"fontname" : "Arial",
					"fontsize" : 10.0,
					"frgb" : 0.0,
					"id" : "obj-97",
					"maxclass" : "comment",
					"numinlets" : 1,
					"numoutlets" : 0,
					"patching_rect" : [ 1217.5, 269.0, 46.0, 18.0 ],
					"presentation" : 1,
					"presentation_rect" : [ 51.0, 49.5, 46.0, 18.0 ],
					"text" : "ListMax"
				}

			}
, 			{
				"box" : 				{
					"fontname" : "Arial",
					"fontsize" : 10.0,
					"frgb" : 0.0,
					"id" : "obj-96",
					"maxclass" : "comment",
					"numinlets" : 1,
					"numoutlets" : 0,
					"patching_rect" : [ 1101.5, 269.0, 42.0, 18.0 ],
					"presentation" : 1,
					"presentation_rect" : [ 9.5, 49.5, 42.0, 18.0 ],
					"text" : "ListMin"
				}

			}
, 			{
				"box" : 				{
					"id" : "obj-94",
					"maxclass" : "live.numbox",
					"numinlets" : 1,
					"numoutlets" : 2,
					"outlettype" : [ "", "float" ],
					"parameter_enable" : 1,
					"patching_rect" : [ 1217.5, 287.0, 36.0, 15.0 ],
					"presentation" : 1,
					"presentation_rect" : [ 51.0, 67.5, 36.0, 15.0 ],
					"saved_attribute_attributes" : 					{
						"valueof" : 						{
							"parameter_mmin" : 1.0,
							"parameter_initial" : [ 10 ],
							"parameter_type" : 0,
							"parameter_initial_enable" : 1,
							"parameter_shortname" : "ListMax",
							"parameter_longname" : "ListMax[1]",
							"parameter_unitstyle" : 0,
							"parameter_mmax" : 128.0
						}

					}
,
					"varname" : "ListMax"
				}

			}
, 			{
				"box" : 				{
					"id" : "obj-93",
					"maxclass" : "live.numbox",
					"numinlets" : 1,
					"numoutlets" : 2,
					"outlettype" : [ "", "float" ],
					"parameter_enable" : 1,
					"patching_rect" : [ 1101.5, 287.0, 36.0, 15.0 ],
					"presentation" : 1,
					"presentation_rect" : [ 9.5, 67.5, 36.0, 15.0 ],
					"saved_attribute_attributes" : 					{
						"valueof" : 						{
							"parameter_mmin" : 1.0,
							"parameter_type" : 0,
							"parameter_shortname" : "ListMin",
							"parameter_longname" : "ListMin[1]",
							"parameter_unitstyle" : 0,
							"parameter_mmax" : 128.0
						}

					}
,
					"varname" : "ListMin"
				}

			}
, 			{
				"box" : 				{
					"fontname" : "Arial Bold",
					"fontsize" : 10.0,
					"id" : "obj-92",
					"maxclass" : "newobj",
					"numinlets" : 3,
					"numoutlets" : 1,
					"outlettype" : [ "" ],
					"patcher" : 					{
						"fileversion" : 1,
						"appversion" : 						{
							"major" : 6,
							"minor" : 0,
							"revision" : 8
						}
,
						"rect" : [ 64.0, 369.0, 640.0, 480.0 ],
						"bglocked" : 0,
						"openinpresentation" : 0,
						"default_fontsize" : 10.0,
						"default_fontface" : 0,
						"default_fontname" : "Arial Bold",
						"gridonopen" : 0,
						"gridsize" : [ 15.0, 15.0 ],
						"gridsnaponopen" : 0,
						"statusbarvisible" : 2,
						"toolbarvisible" : 1,
						"boxanimatetime" : 200,
						"imprint" : 0,
						"enablehscroll" : 1,
						"enablevscroll" : 1,
						"devicewidth" : 0.0,
						"description" : "",
						"digest" : "",
						"tags" : "",
						"boxes" : [ 							{
								"box" : 								{
									"fontname" : "Arial Bold",
									"fontsize" : 10.0,
									"id" : "obj-4",
									"maxclass" : "newobj",
									"numinlets" : 3,
									"numoutlets" : 1,
									"outlettype" : [ "" ],
									"patching_rect" : [ 226.5, 183.0, 61.0, 18.0 ],
									"text" : "clip 1 9999"
								}

							}
, 							{
								"box" : 								{
									"fontname" : "Arial Bold",
									"fontsize" : 10.0,
									"id" : "obj-3",
									"maxclass" : "newobj",
									"numinlets" : 3,
									"numoutlets" : 1,
									"outlettype" : [ "" ],
									"patching_rect" : [ 132.0, 183.0, 61.0, 18.0 ],
									"text" : "clip 1 9999"
								}

							}
, 							{
								"box" : 								{
									"fontname" : "Arial Bold",
									"fontsize" : 10.0,
									"id" : "obj-1",
									"maxclass" : "newobj",
									"numinlets" : 2,
									"numoutlets" : 2,
									"outlettype" : [ "", "" ],
									"patching_rect" : [ 76.0, 141.0, 36.0, 18.0 ],
									"text" : "zl len"
								}

							}
, 							{
								"box" : 								{
									"fontname" : "Arial Bold",
									"fontsize" : 10.0,
									"id" : "obj-87",
									"maxclass" : "number",
									"numinlets" : 1,
									"numoutlets" : 2,
									"outlettype" : [ "int", "bang" ],
									"parameter_enable" : 0,
									"patching_rect" : [ 213.0, 344.0, 50.0, 18.0 ]
								}

							}
, 							{
								"box" : 								{
									"fontname" : "Arial Bold",
									"fontsize" : 10.0,
									"id" : "obj-86",
									"maxclass" : "newobj",
									"numinlets" : 1,
									"numoutlets" : 1,
									"outlettype" : [ "int" ],
									"patching_rect" : [ 213.0, 322.0, 32.5, 18.0 ],
									"text" : "abs"
								}

							}
, 							{
								"box" : 								{
									"fontname" : "Arial Bold",
									"fontsize" : 10.0,
									"id" : "obj-85",
									"maxclass" : "newobj",
									"numinlets" : 2,
									"numoutlets" : 1,
									"outlettype" : [ "int" ],
									"patching_rect" : [ 213.0, 297.0, 32.5, 18.0 ],
									"text" : "-"
								}

							}
, 							{
								"box" : 								{
									"fontname" : "Arial Bold",
									"fontsize" : 10.0,
									"id" : "obj-75",
									"maxclass" : "newobj",
									"numinlets" : 2,
									"numoutlets" : 1,
									"outlettype" : [ "" ],
									"patching_rect" : [ 213.0, 272.0, 32.5, 18.0 ],
									"text" : "pak"
								}

							}
, 							{
								"box" : 								{
									"fontname" : "Arial Bold",
									"fontsize" : 10.0,
									"id" : "obj-70",
									"maxclass" : "newobj",
									"numinlets" : 2,
									"numoutlets" : 1,
									"outlettype" : [ "int" ],
									"patching_rect" : [ 132.0, 243.0, 32.5, 18.0 ],
									"text" : "- 1"
								}

							}
, 							{
								"box" : 								{
									"fontname" : "Arial Bold",
									"fontsize" : 10.0,
									"id" : "obj-63",
									"maxclass" : "newobj",
									"numinlets" : 2,
									"numoutlets" : 2,
									"outlettype" : [ "", "" ],
									"patching_rect" : [ 132.0, 369.0, 100.0, 18.0 ],
									"text" : "zl slice"
								}

							}
, 							{
								"box" : 								{
									"fontname" : "Arial Bold",
									"fontsize" : 10.0,
									"id" : "obj-44",
									"maxclass" : "newobj",
									"numinlets" : 2,
									"numoutlets" : 2,
									"outlettype" : [ "", "" ],
									"patching_rect" : [ 51.0, 341.0, 100.0, 18.0 ],
									"text" : "zl slice"
								}

							}
, 							{
								"box" : 								{
									"comment" : "",
									"id" : "obj-88",
									"maxclass" : "inlet",
									"numinlets" : 0,
									"numoutlets" : 1,
									"outlettype" : [ "" ],
									"patching_rect" : [ 51.0, 95.0, 25.0, 25.0 ]
								}

							}
, 							{
								"box" : 								{
									"comment" : "",
									"id" : "obj-89",
									"maxclass" : "inlet",
									"numinlets" : 0,
									"numoutlets" : 1,
									"outlettype" : [ "" ],
									"patching_rect" : [ 132.0, 95.0, 25.0, 25.0 ]
								}

							}
, 							{
								"box" : 								{
									"comment" : "",
									"id" : "obj-90",
									"maxclass" : "inlet",
									"numinlets" : 0,
									"numoutlets" : 1,
									"outlettype" : [ "" ],
									"patching_rect" : [ 226.5, 95.0, 25.0, 25.0 ]
								}

							}
, 							{
								"box" : 								{
									"comment" : "",
									"id" : "obj-91",
									"maxclass" : "outlet",
									"numinlets" : 1,
									"numoutlets" : 0,
									"patching_rect" : [ 132.0, 447.0, 25.0, 25.0 ]
								}

							}
 ],
						"lines" : [ 							{
								"patchline" : 								{
									"destination" : [ "obj-3", 2 ],
									"disabled" : 0,
									"hidden" : 0,
									"source" : [ "obj-1", 0 ]
								}

							}
, 							{
								"patchline" : 								{
									"destination" : [ "obj-4", 2 ],
									"disabled" : 0,
									"hidden" : 0,
									"source" : [ "obj-1", 0 ]
								}

							}
, 							{
								"patchline" : 								{
									"destination" : [ "obj-70", 0 ],
									"disabled" : 0,
									"hidden" : 0,
									"source" : [ "obj-3", 0 ]
								}

							}
, 							{
								"patchline" : 								{
									"destination" : [ "obj-75", 1 ],
									"disabled" : 0,
									"hidden" : 0,
									"source" : [ "obj-4", 0 ]
								}

							}
, 							{
								"patchline" : 								{
									"destination" : [ "obj-63", 0 ],
									"disabled" : 0,
									"hidden" : 0,
									"source" : [ "obj-44", 1 ]
								}

							}
, 							{
								"patchline" : 								{
									"destination" : [ "obj-91", 0 ],
									"disabled" : 0,
									"hidden" : 0,
									"source" : [ "obj-63", 0 ]
								}

							}
, 							{
								"patchline" : 								{
									"destination" : [ "obj-44", 1 ],
									"disabled" : 0,
									"hidden" : 0,
									"source" : [ "obj-70", 0 ]
								}

							}
, 							{
								"patchline" : 								{
									"destination" : [ "obj-75", 0 ],
									"disabled" : 0,
									"hidden" : 0,
									"source" : [ "obj-70", 0 ]
								}

							}
, 							{
								"patchline" : 								{
									"destination" : [ "obj-85", 0 ],
									"disabled" : 0,
									"hidden" : 0,
									"source" : [ "obj-75", 0 ]
								}

							}
, 							{
								"patchline" : 								{
									"destination" : [ "obj-86", 0 ],
									"disabled" : 0,
									"hidden" : 0,
									"source" : [ "obj-85", 0 ]
								}

							}
, 							{
								"patchline" : 								{
									"destination" : [ "obj-87", 0 ],
									"disabled" : 0,
									"hidden" : 0,
									"source" : [ "obj-86", 0 ]
								}

							}
, 							{
								"patchline" : 								{
									"destination" : [ "obj-63", 1 ],
									"disabled" : 0,
									"hidden" : 0,
									"source" : [ "obj-87", 0 ]
								}

							}
, 							{
								"patchline" : 								{
									"destination" : [ "obj-1", 0 ],
									"disabled" : 0,
									"hidden" : 0,
									"source" : [ "obj-88", 0 ]
								}

							}
, 							{
								"patchline" : 								{
									"destination" : [ "obj-44", 0 ],
									"disabled" : 0,
									"hidden" : 0,
									"source" : [ "obj-88", 0 ]
								}

							}
, 							{
								"patchline" : 								{
									"destination" : [ "obj-3", 0 ],
									"disabled" : 0,
									"hidden" : 0,
									"source" : [ "obj-89", 0 ]
								}

							}
, 							{
								"patchline" : 								{
									"destination" : [ "obj-4", 0 ],
									"disabled" : 0,
									"hidden" : 0,
									"source" : [ "obj-90", 0 ]
								}

							}
 ]
					}
,
					"patching_rect" : [ 985.5, 327.0, 251.0, 18.0 ],
					"saved_object_attributes" : 					{
						"default_fontface" : 0,
						"default_fontname" : "Arial Bold",
						"default_fontsize" : 10.0,
						"description" : "",
						"digest" : "",
						"fontface" : 0,
						"fontname" : "Arial Bold",
						"fontsize" : 10.0,
						"globalpatchername" : "",
						"tags" : ""
					}
,
					"text" : "p splitList"
				}

			}
, 			{
				"box" : 				{
					"id" : "obj-25",
					"maxclass" : "button",
					"numinlets" : 1,
					"numoutlets" : 1,
					"outlettype" : [ "bang" ],
					"patching_rect" : [ 953.0, 391.0, 20.0, 20.0 ]
				}

			}
, 			{
				"box" : 				{
					"fontname" : "Arial Bold",
					"fontsize" : 10.0,
					"id" : "obj-26",
					"maxclass" : "flonum",
					"numinlets" : 1,
					"numoutlets" : 2,
					"outlettype" : [ "float", "bang" ],
					"parameter_enable" : 0,
					"patching_rect" : [ 832.5, 776.0, 50.0, 18.0 ]
				}

			}
, 			{
				"box" : 				{
					"id" : "obj-27",
					"maxclass" : "live.dial",
					"numinlets" : 1,
					"numoutlets" : 2,
					"outlettype" : [ "", "float" ],
					"parameter_enable" : 1,
					"patching_rect" : [ 1056.0, 745.0, 66.0, 47.0 ],
					"presentation" : 1,
					"presentation_rect" : [ 92.0, 55.0, 51.5, 47.0 ],
					"saved_attribute_attributes" : 					{
						"valueof" : 						{
							"parameter_initial" : [ 50 ],
							"parameter_type" : 0,
							"parameter_initial_enable" : 1,
							"parameter_shortname" : "CycPar",
							"parameter_longname" : "CycPar",
							"parameter_unitstyle" : 5,
							"parameter_mmax" : 100.0
						}

					}
,
					"varname" : "CycPar"
				}

			}
, 			{
				"box" : 				{
					"fontname" : "Arial Bold",
					"fontsize" : 10.0,
					"id" : "obj-28",
					"maxclass" : "newobj",
					"numinlets" : 3,
					"numoutlets" : 1,
					"outlettype" : [ "signal" ],
					"patching_rect" : [ 915.0, 803.0, 160.0, 18.0 ],
					"text" : "M4L.bal1~"
				}

			}
, 			{
				"box" : 				{
					"fontname" : "Arial Bold",
					"fontsize" : 10.0,
					"id" : "obj-30",
					"maxclass" : "newobj",
					"numinlets" : 2,
					"numoutlets" : 1,
					"outlettype" : [ "signal" ],
					"patching_rect" : [ 915.0, 711.0, 45.0, 18.0 ],
					"text" : "cycle~"
				}

			}
, 			{
				"box" : 				{
					"fontname" : "Arial Bold",
					"fontsize" : 10.0,
					"id" : "obj-31",
					"maxclass" : "message",
					"numinlets" : 2,
					"numoutlets" : 1,
					"outlettype" : [ "" ],
					"patching_rect" : [ 1371.0, 547.5, 50.0, 16.0 ],
					"text" : "$1 100"
				}

			}
, 			{
				"box" : 				{
					"fontname" : "Arial Bold",
					"fontsize" : 10.0,
					"id" : "obj-33",
					"maxclass" : "newobj",
					"numinlets" : 2,
					"numoutlets" : 2,
					"outlettype" : [ "signal", "bang" ],
					"patching_rect" : [ 1371.0, 576.0, 41.0, 18.0 ],
					"text" : "line~"
				}

			}
, 			{
				"box" : 				{
					"fontname" : "Arial Bold",
					"fontsize" : 10.0,
					"id" : "obj-34",
					"maxclass" : "message",
					"numinlets" : 2,
					"numoutlets" : 1,
					"outlettype" : [ "" ],
					"patching_rect" : [ 1195.0, 521.0, 50.0, 16.0 ],
					"text" : "$1 100"
				}

			}
, 			{
				"box" : 				{
					"fontname" : "Arial Bold",
					"fontsize" : 10.0,
					"id" : "obj-37",
					"maxclass" : "newobj",
					"numinlets" : 2,
					"numoutlets" : 2,
					"outlettype" : [ "signal", "bang" ],
					"patching_rect" : [ 1195.0, 545.5, 41.0, 18.0 ],
					"text" : "line~"
				}

			}
, 			{
				"box" : 				{
					"fontname" : "Arial Bold",
					"fontsize" : 10.0,
					"id" : "obj-39",
					"linecount" : 2,
					"maxclass" : "newobj",
					"numinlets" : 1,
					"numoutlets" : 2,
					"outlettype" : [ "float", "bang" ],
					"patching_rect" : [ 1151.0, 711.0, 110.0, 29.0 ],
					"text" : "buffer~ parabolic.aif parabolic.aif"
				}

			}
, 			{
				"box" : 				{
					"fontname" : "Arial Bold",
					"fontsize" : 10.0,
					"id" : "obj-81",
					"maxclass" : "newobj",
					"numinlets" : 1,
					"numoutlets" : 1,
					"outlettype" : [ "signal" ],
					"patching_rect" : [ 985.5, 664.5, 100.0, 18.0 ],
					"text" : "mtof~"
				}

			}
, 			{
				"box" : 				{
					"fontname" : "Arial Bold",
					"fontsize" : 10.0,
					"id" : "obj-80",
					"maxclass" : "newobj",
					"numinlets" : 1,
					"numoutlets" : 1,
					"outlettype" : [ "" ],
					"patching_rect" : [ 985.5, 360.0, 54.0, 18.0 ],
					"text" : "ftom 440."
				}

			}
, 			{
				"box" : 				{
					"fontname" : "Arial Bold",
					"fontsize" : 10.0,
					"id" : "obj-79",
					"linecount" : 2,
					"maxclass" : "newobj",
					"numinlets" : 1,
					"numoutlets" : 1,
					"outlettype" : [ "" ],
					"patching_rect" : [ 1371.0, 477.0, 105.0, 29.0 ],
					"text" : "tg.random \"random range 100 0 0.5\""
				}

			}
, 			{
				"box" : 				{
					"fontname" : "Arial Bold",
					"fontsize" : 10.0,
					"id" : "obj-76",
					"maxclass" : "newobj",
					"numinlets" : 2,
					"numoutlets" : 1,
					"outlettype" : [ "signal" ],
					"patching_rect" : [ 985.5, 638.5, 228.5, 18.0 ],
					"text" : "+~"
				}

			}
, 			{
				"box" : 				{
					"fontname" : "Arial Bold",
					"fontsize" : 10.0,
					"id" : "obj-74",
					"maxclass" : "newobj",
					"numinlets" : 2,
					"numoutlets" : 1,
					"outlettype" : [ "signal" ],
					"patching_rect" : [ 1195.0, 609.0, 195.0, 18.0 ],
					"text" : "*~ 1"
				}

			}
, 			{
				"box" : 				{
					"id" : "obj-41",
					"maxclass" : "button",
					"numinlets" : 1,
					"numoutlets" : 1,
					"outlettype" : [ "bang" ],
					"patching_rect" : [ 1168.5, 444.0, 20.0, 20.0 ]
				}

			}
, 			{
				"box" : 				{
					"fontname" : "Arial Bold",
					"fontsize" : 10.0,
					"id" : "obj-60",
					"linecount" : 2,
					"maxclass" : "newobj",
					"numinlets" : 1,
					"numoutlets" : 1,
					"outlettype" : [ "" ],
					"patching_rect" : [ 1195.0, 477.0, 105.0, 29.0 ],
					"text" : "tg.random \"random range 10 3 7\""
				}

			}
, 			{
				"box" : 				{
					"fontname" : "Arial Bold",
					"fontsize" : 10.0,
					"id" : "obj-59",
					"maxclass" : "newobj",
					"numinlets" : 2,
					"numoutlets" : 1,
					"outlettype" : [ "signal" ],
					"patching_rect" : [ 1195.0, 578.5, 41.0, 18.0 ],
					"text" : "cycle~"
				}

			}
, 			{
				"box" : 				{
					"fontname" : "Arial Bold",
					"fontsize" : 10.0,
					"id" : "obj-56",
					"maxclass" : "newobj",
					"numinlets" : 2,
					"numoutlets" : 1,
					"outlettype" : [ "signal" ],
					"patching_rect" : [ 712.5, 833.0, 221.5, 18.0 ],
					"text" : "*~ 0.1"
				}

			}
, 			{
				"box" : 				{
					"fontname" : "Arial Bold",
					"fontsize" : 10.0,
					"id" : "obj-55",
					"linecount" : 2,
					"maxclass" : "message",
					"numinlets" : 2,
					"numoutlets" : 1,
					"outlettype" : [ "" ],
					"patching_rect" : [ 642.5, 804.0, 50.0, 27.0 ],
					"text" : "0.811111 200"
				}

			}
, 			{
				"box" : 				{
					"fontname" : "Arial Bold",
					"fontsize" : 10.0,
					"id" : "obj-53",
					"linecount" : 2,
					"maxclass" : "newobj",
					"numinlets" : 1,
					"numoutlets" : 1,
					"outlettype" : [ "" ],
					"patching_rect" : [ 712.5, 731.0, 110.0, 29.0 ],
					"text" : "tg.random \"random range 10 0.1 0.9\""
				}

			}
, 			{
				"box" : 				{
					"fontname" : "Arial Bold",
					"fontsize" : 10.0,
					"id" : "obj-51",
					"maxclass" : "newobj",
					"numinlets" : 2,
					"numoutlets" : 1,
					"outlettype" : [ "" ],
					"patching_rect" : [ 712.5, 776.0, 100.0, 18.0 ],
					"text" : "pack 0. 50"
				}

			}
, 			{
				"box" : 				{
					"fontname" : "Arial Bold",
					"fontsize" : 10.0,
					"id" : "obj-50",
					"maxclass" : "newobj",
					"numinlets" : 3,
					"numoutlets" : 2,
					"outlettype" : [ "signal", "bang" ],
					"patching_rect" : [ 712.5, 804.0, 139.0, 18.0 ],
					"text" : "curve~ 0.1"
				}

			}
, 			{
				"box" : 				{
					"fontname" : "Arial Bold",
					"fontsize" : 10.0,
					"id" : "obj-43",
					"linecount" : 3,
					"maxclass" : "newobj",
					"numinlets" : 1,
					"numoutlets" : 1,
					"outlettype" : [ "" ],
					"patching_rect" : [ 1066.5, 413.0, 83.5, 40.0 ],
					"text" : "tg.random \"random range 10 20 300 3.33\""
				}

			}
, 			{
				"box" : 				{
					"fontname" : "Arial Bold",
					"fontsize" : 10.0,
					"id" : "obj-44",
					"maxclass" : "newobj",
					"numinlets" : 2,
					"numoutlets" : 2,
					"outlettype" : [ "signal", "bang" ],
					"patching_rect" : [ 985.5, 502.0, 54.0, 18.0 ],
					"text" : "line~ 60"
				}

			}
, 			{
				"box" : 				{
					"fontname" : "Arial Bold",
					"fontsize" : 10.0,
					"id" : "obj-46",
					"maxclass" : "newobj",
					"numinlets" : 2,
					"numoutlets" : 1,
					"outlettype" : [ "" ],
					"patching_rect" : [ 985.5, 453.5, 100.0, 18.0 ],
					"text" : "pack f 5"
				}

			}
, 			{
				"box" : 				{
					"fontname" : "Arial Bold",
					"fontsize" : 10.0,
					"id" : "obj-47",
					"linecount" : 2,
					"maxclass" : "newobj",
					"numinlets" : 2,
					"numoutlets" : 1,
					"outlettype" : [ "signal" ],
					"patching_rect" : [ 985.5, 711.0, 148.0, 29.0 ],
					"text" : "cycle~ parabolic.aif @buffer_sizeinsamps 4096"
				}

			}
, 			{
				"box" : 				{
					"id" : "obj-48",
					"maxclass" : "button",
					"numinlets" : 1,
					"numoutlets" : 1,
					"outlettype" : [ "bang" ],
					"patching_rect" : [ 712.5, 438.0, 20.0, 20.0 ]
				}

			}
, 			{
				"box" : 				{
					"fontname" : "Arial Bold",
					"fontsize" : 10.0,
					"id" : "obj-54",
					"maxclass" : "newobj",
					"numinlets" : 1,
					"numoutlets" : 1,
					"outlettype" : [ "float" ],
					"patching_rect" : [ 712.5, 374.0, 87.0, 18.0 ],
					"text" : "tg.randomMetro"
				}

			}
, 			{
				"box" : 				{
					"fontname" : "Arial Bold",
					"fontsize" : 10.0,
					"id" : "obj-57",
					"maxclass" : "newobj",
					"numinlets" : 1,
					"numoutlets" : 1,
					"outlettype" : [ "" ],
					"patching_rect" : [ 985.5, 391.0, 89.0, 18.0 ],
					"text" : "prepend random"
				}

			}
, 			{
				"box" : 				{
					"fontname" : "Arial Bold",
					"fontsize" : 10.0,
					"id" : "obj-61",
					"maxclass" : "newobj",
					"numinlets" : 2,
					"numoutlets" : 2,
					"outlettype" : [ "", "" ],
					"patching_rect" : [ 985.5, 287.0, 49.0, 18.0 ],
					"text" : "zl group"
				}

			}
, 			{
				"box" : 				{
					"fontname" : "Arial Bold",
					"fontsize" : 10.0,
					"id" : "obj-63",
					"maxclass" : "newobj",
					"numinlets" : 1,
					"numoutlets" : 3,
					"outlettype" : [ "int", "float", "float" ],
					"patching_rect" : [ 1042.0, 249.0, 63.0, 18.0 ],
					"text" : "unpack i f f"
				}

			}
, 			{
				"box" : 				{
					"id" : "obj-65",
					"maxclass" : "button",
					"numinlets" : 1,
					"numoutlets" : 1,
					"outlettype" : [ "bang" ],
					"patching_rect" : [ 985.5, 249.0, 20.0, 20.0 ]
				}

			}
, 			{
				"box" : 				{
					"fontname" : "Arial Bold",
					"fontsize" : 10.0,
					"id" : "obj-68",
					"maxclass" : "newobj",
					"numinlets" : 2,
					"numoutlets" : 2,
					"outlettype" : [ "", "" ],
					"patching_rect" : [ 985.5, 223.0, 75.5, 18.0 ],
					"text" : "route -1"
				}

			}
, 			{
				"box" : 				{
					"fontname" : "Arial Bold",
					"fontsize" : 10.0,
					"id" : "obj-75",
					"maxclass" : "newobj",
					"numinlets" : 1,
					"numoutlets" : 1,
					"outlettype" : [ "" ],
					"patching_rect" : [ 985.5, 423.5, 59.0, 18.0 ],
					"text" : "tg.random"
				}

			}
, 			{
				"box" : 				{
					"fontname" : "Arial Bold",
					"fontsize" : 10.0,
					"id" : "obj-29",
					"maxclass" : "newobj",
					"numinlets" : 3,
					"numoutlets" : 3,
					"outlettype" : [ "", "", "" ],
					"patching_rect" : [ 126.027771, 232.463867, 113.722198, 18.0 ],
					"text" : "tg.m.fgraph"
				}

			}
, 			{
				"box" : 				{
					"id" : "obj-45",
					"maxclass" : "button",
					"numinlets" : 1,
					"numoutlets" : 1,
					"outlettype" : [ "bang" ],
					"patching_rect" : [ 259.166656, 774.0, 20.0, 20.0 ]
				}

			}
, 			{
				"box" : 				{
					"fontname" : "Arial Bold",
					"fontsize" : 10.0,
					"id" : "obj-307",
					"maxclass" : "message",
					"numinlets" : 2,
					"numoutlets" : 1,
					"outlettype" : [ "" ],
					"patching_rect" : [ 343.166626, 781.0, 39.0, 16.0 ],
					"text" : "$1 init"
				}

			}
, 			{
				"box" : 				{
					"fontname" : "Arial Bold",
					"fontsize" : 10.0,
					"id" : "obj-306",
					"linecount" : 6,
					"maxclass" : "message",
					"numinlets" : 2,
					"numoutlets" : 1,
					"outlettype" : [ "" ],
					"patching_rect" : [ 343.166626, 701.0, 72.0, 72.0 ],
					"text" : "live.dial, live.menu, live.text, live.numbox, live.gain~, live.tab, pattr"
				}

			}
, 			{
				"box" : 				{
					"fontname" : "Arial Bold",
					"fontsize" : 10.0,
					"id" : "obj-284",
					"maxclass" : "newobj",
					"numinlets" : 1,
					"numoutlets" : 0,
					"patching_rect" : [ 343.166626, 805.0, 54.0, 18.0 ],
					"text" : "universal"
				}

			}
, 			{
				"box" : 				{
					"fontname" : "Arial Bold",
					"fontsize" : 10.0,
					"frgb" : 0.0,
					"id" : "obj-52",
					"maxclass" : "comment",
					"numinlets" : 1,
					"numoutlets" : 0,
					"patching_rect" : [ 171.166656, 503.5, 47.0, 18.0 ],
					"text" : "Presets",
					"textcolor" : [ 0.3, 0.34, 0.4, 1.0 ]
				}

			}
, 			{
				"box" : 				{
					"autorestore" : "IanaToSinPreset.json",
					"color" : [ 0.239216, 0.643137, 0.709804, 1.0 ],
					"fontname" : "Arial Bold",
					"fontsize" : 10.0,
					"id" : "obj-40",
					"linecount" : 2,
					"maxclass" : "newobj",
					"numinlets" : 1,
					"numoutlets" : 1,
					"outlettype" : [ "" ],
					"patching_rect" : [ 171.166656, 812.0, 165.0, 29.0 ],
					"saved_object_attributes" : 					{
						"client_rect" : [ 532, 44, 1117, 954 ],
						"parameter_enable" : 0,
						"storage_rect" : [ 220, 49, 871, 244 ]
					}
,
					"text" : "pattrstorage IanaToSinPreset @savemode 2 @autowatch 1",
					"varname" : "IanaToSinPreset"
				}

			}
, 			{
				"box" : 				{
					"fontname" : "Arial Bold",
					"fontsize" : 10.0,
					"id" : "obj-139",
					"maxclass" : "newobj",
					"numinlets" : 2,
					"numoutlets" : 2,
					"outlettype" : [ "", "" ],
					"patching_rect" : [ 374.166626, 632.0, 75.0, 18.0 ],
					"text" : "route restore"
				}

			}
, 			{
				"box" : 				{
					"fontname" : "Arial",
					"fontsize" : 10.0,
					"frgb" : 0.0,
					"id" : "obj-140",
					"linecount" : 2,
					"maxclass" : "comment",
					"numinlets" : 1,
					"numoutlets" : 0,
					"patching_rect" : [ 398.166626, 599.0, 48.0, 29.0 ],
					"text" : "Pattr storage"
				}

			}
, 			{
				"box" : 				{
					"fontname" : "Arial Bold",
					"fontsize" : 10.0,
					"frgb" : 0.0,
					"id" : "obj-141",
					"linecount" : 2,
					"maxclass" : "comment",
					"numinlets" : 1,
					"numoutlets" : 0,
					"patching_rect" : [ 326.166626, 560.0, 72.0, 29.0 ],
					"text" : "Messages to parameters"
				}

			}
, 			{
				"box" : 				{
					"comment" : "Parameters values, getattributes, getstate",
					"id" : "obj-142",
					"maxclass" : "inlet",
					"numinlets" : 0,
					"numoutlets" : 1,
					"outlettype" : [ "" ],
					"patching_rect" : [ 302.166626, 560.0, 17.0, 17.0 ]
				}

			}
, 			{
				"box" : 				{
					"color" : [ 0.239216, 0.643137, 0.709804, 1.0 ],
					"fontname" : "Arial Bold",
					"fontsize" : 10.0,
					"id" : "obj-143",
					"linecount" : 2,
					"maxclass" : "newobj",
					"numinlets" : 1,
					"numoutlets" : 4,
					"outlettype" : [ "", "", "", "" ],
					"patching_rect" : [ 302.166626, 592.0, 91.0, 29.0 ],
					"restore" : 					{
						"CycPar" : [ 50.0 ],
						"Dry/wet" : [ 100.0 ],
						"FilterFreq" : [ 1000.0 ],
						"FilterGain" : [ 0.0 ],
						"FilterMode" : [ 5.0 ],
						"FilterQ" : [ 0.3 ],
						"ListMax" : [ 5.0 ],
						"ListMin" : [ 1.0 ],
						"Metro" : [ 1.0 ],
						"Outgain" : [ 0.0 ],
						"PhraseDuration" : [ "random", "range", 100, 3000, 10000 ],
						"ReceiveFrom" : [ "TOTO" ],
						"SilenceDuration" : [ "random", "range", 100, 500, 5000 ],
						"Speed" : [ "random", 200, 1000, 2000 ],
						"VibAmp" : [ "random", "range", 100, 0, 0.5 ],
						"VibFreq" : [ "random", "range", 10, 3, 7 ]
					}
,
					"text" : "autopattr @autorestore 0",
					"varname" : "u900006712"
				}

			}
, 			{
				"box" : 				{
					"fontname" : "Arial Bold",
					"fontsize" : 10.0,
					"frgb" : 0.0,
					"id" : "obj-144",
					"maxclass" : "comment",
					"numinlets" : 1,
					"numoutlets" : 0,
					"patching_rect" : [ 374.166626, 663.0, 54.0, 18.0 ],
					"text" : "Dumpout"
				}

			}
, 			{
				"box" : 				{
					"comment" : "Dumpout",
					"id" : "obj-145",
					"maxclass" : "outlet",
					"numinlets" : 1,
					"numoutlets" : 0,
					"patching_rect" : [ 430.166626, 663.0, 18.0, 18.0 ]
				}

			}
, 			{
				"box" : 				{
					"fontname" : "Arial",
					"fontsize" : 10.0,
					"frgb" : 0.0,
					"id" : "obj-71",
					"maxclass" : "comment",
					"numinlets" : 1,
					"numoutlets" : 0,
					"patching_rect" : [ 173.166656, 656.5, 40.0, 18.0 ],
					"presentation" : 1,
					"presentation_rect" : [ 531.5, 135.0, 40.0, 18.0 ],
					"text" : "Name:"
				}

			}
, 			{
				"box" : 				{
					"bgcolor" : [ 0.094118, 0.113725, 0.137255, 1.0 ],
					"border" : 0.0,
					"bordercolor" : [ 0.501961, 0.501961, 0.501961, 0.0 ],
					"fontface" : 1,
					"fontname" : "Arial",
					"fontsize" : 10.0,
					"frgb" : 0.0,
					"id" : "obj-62",
					"keymode" : 1,
					"maxclass" : "textedit",
					"numinlets" : 1,
					"numoutlets" : 4,
					"outlettype" : [ "", "int", "", "" ],
					"parameter_enable" : 0,
					"patching_rect" : [ 174.166656, 672.5, 95.0, 16.0 ],
					"presentation" : 1,
					"presentation_rect" : [ 532.5, 151.0, 95.0, 16.0 ],
					"prototypename" : "M4L.black",
					"rounded" : 12.0,
					"textcolor" : [ 0.909804, 0.909804, 0.909804, 1.0 ]
				}

			}
, 			{
				"box" : 				{
					"annotation" : "Renumber and clear presets, import/export banks of presets as text files.",
					"border" : 1,
					"button" : 1,
					"fontname" : "Arial Bold",
					"fontsize" : 10.0,
					"hint" : "Renumber and clear presets, import/export banks of presets as text files.",
					"id" : "obj-64",
					"margin" : 2,
					"maxclass" : "tab",
					"numinlets" : 1,
					"numoutlets" : 3,
					"outlettype" : [ "int", "", "" ],
					"parameter_enable" : 0,
					"patching_rect" : [ 173.166656, 552.0, 96.0, 31.614456 ],
					"presentation" : 1,
					"presentation_rect" : [ 531.5, 30.5, 96.0, 31.614456 ],
					"prototypename" : "M4L.numbers",
					"rounded" : 6.0,
					"spacing_x" : 3.0,
					"tabs" : [ "save", "client", "dump", "init" ]
				}

			}
, 			{
				"box" : 				{
					"fontname" : "Arial Bold",
					"fontsize" : 10.0,
					"id" : "obj-66",
					"maxclass" : "newobj",
					"numinlets" : 6,
					"numoutlets" : 7,
					"outlettype" : [ "", "", "", "", "", "", "" ],
					"patching_rect" : [ 171.166656, 701.0, 107.0, 18.0 ],
					"text" : "tg.m.preset #1"
				}

			}
, 			{
				"box" : 				{
					"active1" : [ 0.984314, 0.819608, 0.05098, 1.0 ],
					"active2" : [ 0.984314, 0.819608, 0.05098, 1.0 ],
					"annotation" : "Shift-click in a circle to store, click on circle to recall. Option-shift-click to remove.",
					"bgcolor" : [ 0.666667, 0.698039, 0.717647, 0.0 ],
					"bordercolor" : [ 0.666667, 0.698039, 0.717647, 0.0 ],
					"bubblesize" : 8,
					"circlecolor" : [ 0.666667, 0.698039, 0.717647, 0.0 ],
					"clicked1" : [ 0.909804, 0.909804, 0.909804, 1.0 ],
					"clicked2" : [ 1.0, 1.0, 1.0, 1.0 ],
					"emptycolor" : [ 0.301961, 0.337255, 0.403922, 1.0 ],
					"fontsize" : 12.0,
					"hint" : "Shift-click in a circle to store, click on circle to recall. Option-shift-click to remove.",
					"id" : "obj-91",
					"maxclass" : "preset",
					"numinlets" : 1,
					"numoutlets" : 4,
					"outlettype" : [ "preset", "int", "preset", "int" ],
					"patching_rect" : [ 176.166656, 588.0, 92.5, 69.0 ],
					"pattrstorage" : "IanaToSinPreset",
					"presentation" : 1,
					"presentation_rect" : [ 534.5, 66.5, 92.5, 69.0 ],
					"prototypename" : "M4L.H",
					"stored1" : [ 0.494118, 0.556863, 0.607843, 1.0 ],
					"stored2" : [ 0.572549, 0.615686, 0.658824, 1.0 ],
					"textcolor" : [ 1.0, 1.0, 1.0, 1.0 ],
					"varname" : "Preset"
				}

			}
, 			{
				"box" : 				{
					"bgcolor" : [ 0.094118, 0.113725, 0.137255, 1.0 ],
					"bordercolor" : [ 0.494118, 0.556863, 0.607843, 1.0 ],
					"grad2" : [ 0.094118, 0.113725, 0.137255, 1.0 ],
					"hint" : "",
					"id" : "obj-69",
					"maxclass" : "panel",
					"numinlets" : 1,
					"numoutlets" : 0,
					"patching_rect" : [ 174.166656, 588.0, 95.0, 69.072281 ],
					"presentation" : 1,
					"presentation_rect" : [ 532.5, 66.5, 95.0, 69.072281 ],
					"prototypename" : "M4L.horizontal-black",
					"rounded" : 16
				}

			}
, 			{
				"box" : 				{
					"bgcolor" : [ 0.666667, 0.698039, 0.717647, 1.0 ],
					"bordercolor" : [ 0.094118, 0.113725, 0.137255, 1.0 ],
					"grad2" : [ 0.094118, 0.113725, 0.137255, 1.0 ],
					"id" : "obj-73",
					"maxclass" : "panel",
					"numinlets" : 1,
					"numoutlets" : 0,
					"patching_rect" : [ 171.166656, 521.5, 101.0, 170.0 ],
					"presentation" : 1,
					"presentation_rect" : [ 529.5, -0.000001, 101.0, 170.0 ],
					"prototypename" : "M4L.horizontal-black"
				}

			}
, 			{
				"box" : 				{
					"id" : "obj-42",
					"maxclass" : "live.menu",
					"numinlets" : 1,
					"numoutlets" : 3,
					"outlettype" : [ "", "", "float" ],
					"parameter_enable" : 1,
					"patching_rect" : [ 85.583344, 142.0, 62.0, 15.0 ],
					"presentation" : 1,
					"presentation_rect" : [ 384.857178, 11.0, 71.642853, 15.0 ],
					"saved_attribute_attributes" : 					{
						"valueof" : 						{
							"parameter_initial" : [ 5.0 ],
							"parameter_type" : 2,
							"parameter_initial_enable" : 1,
							"parameter_shortname" : "FilterMode",
							"parameter_longname" : "FilterMode[1]",
							"parameter_enum" : [ "display", "lowpass", "highpass", "bandpass", "bandstop", "peaknotch", "lowshelf", "highshelf", "resonant", "allpass" ]
						}

					}
,
					"varname" : "FilterMode"
				}

			}
, 			{
				"box" : 				{
					"bgcolor" : [ 0.568627, 0.619608, 0.662745, 1.0 ],
					"bgoncolor" : [ 0.921569, 0.94902, 0.05098, 1.0 ],
					"bgovercolor" : [ 0.568627, 0.619608, 0.662745, 1.0 ],
					"bgoveroncolor" : [ 0.921569, 0.94902, 0.05098, 1.0 ],
					"border" : 1,
					"bordercolor" : [ 0.301961, 0.337255, 0.403922, 1.0 ],
					"borderoncolor" : [ 0.301961, 0.337255, 0.403922, 1.0 ],
					"fontface" : 1,
					"fontname" : "Arial",
					"fontsize" : 10.0,
					"id" : "obj-109",
					"maxclass" : "textbutton",
					"numinlets" : 1,
					"numoutlets" : 3,
					"outlettype" : [ "", "", "int" ],
					"parameter_enable" : 0,
					"patching_rect" : [ 77.583344, 80.332764, 35.0, 15.665442 ],
					"presentation" : 1,
					"presentation_rect" : [ 332.5, 11.0, 30.0, 13.665442 ],
					"prototypename" : "M4L.toggle",
					"rounded" : 13.0,
					"text" : "init",
					"textcolor" : [ 0.101961, 0.121569, 0.172549, 1.0 ],
					"texton" : "Trig",
					"textoncolor" : [ 0.101961, 0.121569, 0.172549, 1.0 ],
					"textovercolor" : [ 0.101961, 0.121569, 0.172549, 1.0 ],
					"textoveroncolor" : [ 0.101961, 0.121569, 0.172549, 1.0 ]
				}

			}
, 			{
				"box" : 				{
					"fontname" : "Arial Bold",
					"fontsize" : 10.0,
					"frgb" : 0.0,
					"id" : "obj-138",
					"maxclass" : "comment",
					"numinlets" : 1,
					"numoutlets" : 0,
					"patching_rect" : [ 74.083344, 65.332764, 42.0, 18.0 ],
					"presentation" : 1,
					"presentation_rect" : [ 288.5, 9.0, 42.0, 18.0 ],
					"text" : "Filter",
					"textcolor" : [ 0.3, 0.34, 0.4, 1.0 ]
				}

			}
, 			{
				"box" : 				{
					"fontname" : "Arial",
					"fontsize" : 10.0,
					"frgb" : 0.0,
					"id" : "obj-137",
					"maxclass" : "comment",
					"numinlets" : 1,
					"numoutlets" : 0,
					"patching_rect" : [ 85.583344, 124.0, 36.0, 18.0 ],
					"text" : "Mode"
				}

			}
, 			{
				"box" : 				{
					"fontname" : "Arial",
					"fontsize" : 10.0,
					"frgb" : 0.0,
					"id" : "obj-136",
					"maxclass" : "comment",
					"numinlets" : 1,
					"numoutlets" : 0,
					"patching_rect" : [ 229.750031, 103.0, 31.0, 18.0 ],
					"presentation" : 1,
					"presentation_rect" : [ 380.5, 27.0, 19.0, 18.0 ],
					"text" : "q"
				}

			}
, 			{
				"box" : 				{
					"fontname" : "Arial",
					"fontsize" : 10.0,
					"frgb" : 0.0,
					"id" : "obj-135",
					"maxclass" : "comment",
					"numinlets" : 1,
					"numoutlets" : 0,
					"patching_rect" : [ 182.749969, 103.0, 36.0, 18.0 ],
					"text" : "Gain"
				}

			}
, 			{
				"box" : 				{
					"fontname" : "Arial",
					"fontsize" : 10.0,
					"frgb" : 0.0,
					"id" : "obj-134",
					"maxclass" : "comment",
					"numinlets" : 1,
					"numoutlets" : 0,
					"patching_rect" : [ 135.583344, 103.0, 31.0, 18.0 ],
					"text" : "Freq"
				}

			}
, 			{
				"box" : 				{
					"fontname" : "Arial Bold",
					"fontsize" : 10.0,
					"id" : "obj-131",
					"maxclass" : "newobj",
					"numinlets" : 1,
					"numoutlets" : 1,
					"outlettype" : [ "" ],
					"patching_rect" : [ 173.166656, 142.0, 38.0, 18.0 ],
					"text" : "dbtoa"
				}

			}
, 			{
				"box" : 				{
					"id" : "obj-67",
					"maxclass" : "live.numbox",
					"numinlets" : 1,
					"numoutlets" : 2,
					"outlettype" : [ "", "float" ],
					"parameter_enable" : 1,
					"patching_rect" : [ 173.166656, 117.0, 38.0, 15.0 ],
					"presentation" : 1,
					"presentation_rect" : [ 416.5, 27.0, 40.0, 15.0 ],
					"saved_attribute_attributes" : 					{
						"valueof" : 						{
							"parameter_mmin" : -80.0,
							"parameter_initial" : [ 0.0 ],
							"parameter_type" : 0,
							"parameter_initial_enable" : 1,
							"parameter_shortname" : "FilterGain",
							"parameter_longname" : "FilterGain[1]",
							"parameter_unitstyle" : 4,
							"parameter_mmax" : 80.0
						}

					}
,
					"varname" : "FilterGain"
				}

			}
, 			{
				"box" : 				{
					"id" : "obj-70",
					"maxclass" : "live.numbox",
					"numinlets" : 1,
					"numoutlets" : 2,
					"outlettype" : [ "", "float" ],
					"parameter_enable" : 1,
					"patching_rect" : [ 125.583344, 117.0, 36.0, 15.0 ],
					"presentation" : 1,
					"presentation_rect" : [ 288.5, 27.0, 49.0, 15.0 ],
					"saved_attribute_attributes" : 					{
						"valueof" : 						{
							"parameter_initial" : [ 1000.0 ],
							"parameter_type" : 0,
							"parameter_initial_enable" : 1,
							"parameter_shortname" : "FilterFreq",
							"parameter_longname" : "FilterFreq[1]",
							"parameter_unitstyle" : 3,
							"parameter_mmax" : 22050.0
						}

					}
,
					"varname" : "FilterFreq"
				}

			}
, 			{
				"box" : 				{
					"id" : "obj-72",
					"maxclass" : "live.numbox",
					"numinlets" : 1,
					"numoutlets" : 2,
					"outlettype" : [ "", "float" ],
					"parameter_enable" : 1,
					"patching_rect" : [ 220.749969, 117.0, 36.0, 15.0 ],
					"presentation" : 1,
					"presentation_rect" : [ 352.5, 27.0, 40.0, 15.0 ],
					"saved_attribute_attributes" : 					{
						"valueof" : 						{
							"parameter_initial" : [ 0.3 ],
							"parameter_type" : 0,
							"parameter_initial_enable" : 1,
							"parameter_shortname" : "FilterQ",
							"parameter_longname" : "FilterQ",
							"parameter_units" : "q",
							"parameter_exponent" : 5.0,
							"parameter_unitstyle" : 1,
							"parameter_mmax" : 22000.0
						}

					}
,
					"varname" : "FilterQ"
				}

			}
, 			{
				"box" : 				{
					"autoout" : 1,
					"dbdisplay" : 0,
					"id" : "obj-189",
					"maxclass" : "filtergraph~",
					"nfilters" : 1,
					"numinlets" : 8,
					"numoutlets" : 7,
					"outlettype" : [ "list", "float", "float", "float", "float", "list", "int" ],
					"parameter_enable" : 0,
					"patching_rect" : [ 107.083344, 170.0, 132.666626, 55.0 ],
					"presentation" : 1,
					"presentation_rect" : [ 288.5, 44.0, 168.0, 120.0 ],
					"setfilter" : [ 0, 5, 1, 1, 0, 1000.0, 1.0, 0.3, 0.0, 0.0, 0.0, 0.0, 0.0, 0.0 ]
				}

			}
, 			{
				"box" : 				{
					"id" : "obj-107",
					"maxclass" : "live.line",
					"numinlets" : 1,
					"numoutlets" : 0,
					"patching_rect" : [ 121.0, 439.5, 5.0, 100.0 ],
					"presentation" : 1,
					"presentation_rect" : [ 523.5, 8.0, 8.0, 160.0 ]
				}

			}
, 			{
				"box" : 				{
					"id" : "obj-104",
					"maxclass" : "live.line",
					"numinlets" : 1,
					"numoutlets" : 0,
					"patching_rect" : [ 128.25, 439.5, 5.0, 100.0 ],
					"presentation" : 1,
					"presentation_rect" : [ 464.5, 8.0, 8.0, 160.0 ]
				}

			}
, 			{
				"box" : 				{
					"comment" : "",
					"id" : "obj-1",
					"maxclass" : "outlet",
					"numinlets" : 1,
					"numoutlets" : 0,
					"patching_rect" : [ 108.25, 558.0, 25.0, 25.0 ]
				}

			}
, 			{
				"box" : 				{
					"fontname" : "Arial Bold",
					"fontsize" : 10.0,
					"id" : "obj-58",
					"maxclass" : "newobj",
					"numinlets" : 6,
					"numoutlets" : 1,
					"outlettype" : [ "signal" ],
					"patching_rect" : [ 93.583344, 290.0, 86.5, 18.0 ],
					"text" : "biquad~"
				}

			}
, 			{
				"box" : 				{
					"comment" : "",
					"id" : "obj-36",
					"maxclass" : "outlet",
					"numinlets" : 1,
					"numoutlets" : 0,
					"patching_rect" : [ 67.5, 558.0, 25.0, 25.0 ]
				}

			}
, 			{
				"box" : 				{
					"comment" : "",
					"id" : "obj-35",
					"maxclass" : "outlet",
					"numinlets" : 1,
					"numoutlets" : 0,
					"patching_rect" : [ 38.750004, 558.0, 25.0, 25.0 ]
				}

			}
, 			{
				"box" : 				{
					"comment" : "",
					"id" : "obj-32",
					"maxclass" : "inlet",
					"numinlets" : 0,
					"numoutlets" : 1,
					"outlettype" : [ "signal" ],
					"patching_rect" : [ 66.166672, 20.0, 25.0, 25.0 ]
				}

			}
, 			{
				"box" : 				{
					"comment" : "",
					"id" : "obj-5",
					"maxclass" : "inlet",
					"numinlets" : 0,
					"numoutlets" : 1,
					"outlettype" : [ "signal" ],
					"patching_rect" : [ 38.416668, 20.0, 25.0, 25.0 ]
				}

			}
, 			{
				"box" : 				{
					"id" : "obj-9",
					"maxclass" : "live.line",
					"numinlets" : 1,
					"numoutlets" : 0,
					"patching_rect" : [ 114.5, 439.5, 5.0, 100.0 ],
					"presentation" : 1,
					"presentation_rect" : [ 280.5, 8.0, 8.0, 160.0 ]
				}

			}
, 			{
				"box" : 				{
					"clip_size" : 1,
					"display_range" : [ -70.0, 30.0 ],
					"id" : "obj-14",
					"maxclass" : "live.gain~",
					"numinlets" : 2,
					"numoutlets" : 5,
					"outlettype" : [ "signal", "signal", "", "float", "list" ],
					"parameter_enable" : 1,
					"patching_rect" : [ 38.750004, 439.5, 46.0, 96.0 ],
					"presentation" : 1,
					"presentation_rect" : [ 476.0, 56.0, 40.0, 108.0 ],
					"prototypename" : "M4L.live.gain~.V.extended",
					"saved_attribute_attributes" : 					{
						"valueof" : 						{
							"parameter_mmin" : -70.0,
							"parameter_initial" : [ -70 ],
							"parameter_type" : 0,
							"parameter_initial_enable" : 1,
							"parameter_shortname" : "Outgain",
							"parameter_longname" : "Outgain[1]",
							"parameter_unitstyle" : 4,
							"parameter_mmax" : 30.0
						}

					}
,
					"varname" : "Outgain"
				}

			}
, 			{
				"box" : 				{
					"id" : "obj-12",
					"maxclass" : "live.dial",
					"numinlets" : 1,
					"numoutlets" : 2,
					"outlettype" : [ "", "float" ],
					"parameter_enable" : 1,
					"patching_rect" : [ 148.416687, 325.5, 44.0, 47.0 ],
					"presentation" : 1,
					"presentation_rect" : [ 475.0, 4.0, 44.0, 47.0 ],
					"prototypename" : "amount",
					"saved_attribute_attributes" : 					{
						"valueof" : 						{
							"parameter_initial" : [ 100 ],
							"parameter_type" : 0,
							"parameter_initial_enable" : 1,
							"parameter_shortname" : "Dry/wet",
							"parameter_longname" : "Dry/wet[1]",
							"parameter_unitstyle" : 5,
							"parameter_mmax" : 100.0
						}

					}
,
					"varname" : "Dry/wet"
				}

			}
, 			{
				"box" : 				{
					"fontname" : "Arial Bold",
					"fontsize" : 10.0,
					"id" : "obj-10",
					"maxclass" : "newobj",
					"numinlets" : 5,
					"numoutlets" : 2,
					"outlettype" : [ "signal", "signal" ],
					"patching_rect" : [ 38.750004, 381.0, 128.666672, 18.0 ],
					"text" : "M4L.bal2~"
				}

			}
, 			{
				"box" : 				{
					"bgcolor" : [ 0.666667, 0.698039, 0.717647, 1.0 ],
					"bordercolor" : [ 0.094118, 0.113725, 0.137255, 1.0 ],
					"grad2" : [ 0.094118, 0.113725, 0.137255, 1.0 ],
					"id" : "obj-23",
					"maxclass" : "panel",
					"numinlets" : 1,
					"numoutlets" : 0,
					"patching_rect" : [ 148.416687, 439.5, 20.0, 21.0 ],
					"presentation" : 1,
					"presentation_rect" : [ 1.5, 1.5, 276.0, 164.0 ],
					"prototypename" : "M4L.horizontal-black"
				}

			}
 ],
		"lines" : [ 			{
				"patchline" : 				{
					"destination" : [ "obj-14", 1 ],
					"disabled" : 0,
					"hidden" : 0,
					"source" : [ "obj-10", 1 ]
				}

			}
, 			{
				"patchline" : 				{
					"destination" : [ "obj-14", 0 ],
					"disabled" : 0,
					"hidden" : 0,
					"source" : [ "obj-10", 0 ]
				}

			}
, 			{
				"patchline" : 				{
					"destination" : [ "obj-154", 0 ],
					"disabled" : 0,
					"hidden" : 0,
					"source" : [ "obj-100", 0 ]
				}

			}
, 			{
				"patchline" : 				{
					"destination" : [ "obj-106", 0 ],
					"disabled" : 0,
					"hidden" : 0,
					"source" : [ "obj-105", 1 ]
				}

			}
, 			{
				"patchline" : 				{
					"destination" : [ "obj-54", 0 ],
					"disabled" : 0,
					"hidden" : 0,
					"source" : [ "obj-105", 0 ]
				}

			}
, 			{
				"patchline" : 				{
					"destination" : [ "obj-8", 0 ],
					"disabled" : 0,
					"hidden" : 0,
					"source" : [ "obj-105", 0 ]
				}

			}
, 			{
				"patchline" : 				{
					"destination" : [ "obj-113", 0 ],
					"disabled" : 0,
					"hidden" : 0,
					"source" : [ "obj-106", 0 ]
				}

			}
, 			{
				"patchline" : 				{
					"destination" : [ "obj-133", 0 ],
					"disabled" : 0,
					"hidden" : 0,
					"source" : [ "obj-106", 0 ]
				}

			}
, 			{
				"patchline" : 				{
					"destination" : [ "obj-155", 0 ],
					"disabled" : 0,
					"hidden" : 0,
					"source" : [ "obj-106", 0 ]
				}

			}
, 			{
				"patchline" : 				{
					"destination" : [ "obj-42", 0 ],
					"disabled" : 0,
					"hidden" : 0,
					"source" : [ "obj-109", 1 ]
				}

			}
, 			{
				"patchline" : 				{
					"destination" : [ "obj-67", 0 ],
					"disabled" : 0,
					"hidden" : 0,
					"source" : [ "obj-109", 1 ]
				}

			}
, 			{
				"patchline" : 				{
					"destination" : [ "obj-70", 0 ],
					"disabled" : 0,
					"hidden" : 0,
					"source" : [ "obj-109", 1 ]
				}

			}
, 			{
				"patchline" : 				{
					"destination" : [ "obj-72", 0 ],
					"disabled" : 0,
					"hidden" : 0,
					"source" : [ "obj-109", 1 ]
				}

			}
, 			{
				"patchline" : 				{
					"destination" : [ "obj-15", 0 ],
					"disabled" : 0,
					"hidden" : 0,
					"source" : [ "obj-11", 0 ]
				}

			}
, 			{
				"patchline" : 				{
					"destination" : [ "obj-112", 0 ],
					"disabled" : 0,
					"hidden" : 0,
					"source" : [ "obj-111", 0 ]
				}

			}
, 			{
				"patchline" : 				{
					"destination" : [ "obj-54", 0 ],
					"disabled" : 0,
					"hidden" : 0,
					"source" : [ "obj-112", 0 ]
				}

			}
, 			{
				"patchline" : 				{
					"destination" : [ "obj-84", 0 ],
					"disabled" : 0,
					"hidden" : 0,
					"source" : [ "obj-113", 0 ]
				}

			}
, 			{
				"patchline" : 				{
					"destination" : [ "obj-38", 0 ],
					"disabled" : 0,
					"hidden" : 0,
					"source" : [ "obj-116", 0 ]
				}

			}
, 			{
				"patchline" : 				{
					"destination" : [ "obj-60", 0 ],
					"disabled" : 0,
					"hidden" : 0,
					"source" : [ "obj-118", 0 ]
				}

			}
, 			{
				"patchline" : 				{
					"destination" : [ "obj-10", 4 ],
					"disabled" : 0,
					"hidden" : 0,
					"source" : [ "obj-12", 0 ]
				}

			}
, 			{
				"patchline" : 				{
					"destination" : [ "obj-121", 0 ],
					"disabled" : 0,
					"hidden" : 0,
					"source" : [ "obj-120", 0 ]
				}

			}
, 			{
				"patchline" : 				{
					"destination" : [ "obj-118", 0 ],
					"disabled" : 0,
					"hidden" : 0,
					"source" : [ "obj-121", 0 ]
				}

			}
, 			{
				"patchline" : 				{
					"destination" : [ "obj-79", 0 ],
					"disabled" : 0,
					"hidden" : 0,
					"source" : [ "obj-122", 0 ]
				}

			}
, 			{
				"patchline" : 				{
					"destination" : [ "obj-125", 0 ],
					"disabled" : 0,
					"hidden" : 0,
					"source" : [ "obj-124", 0 ]
				}

			}
, 			{
				"patchline" : 				{
					"destination" : [ "obj-122", 0 ],
					"disabled" : 0,
					"hidden" : 0,
					"source" : [ "obj-125", 0 ]
				}

			}
, 			{
				"patchline" : 				{
					"destination" : [ "obj-130", 0 ],
					"disabled" : 0,
					"hidden" : 0,
					"source" : [ "obj-126", 0 ]
				}

			}
, 			{
				"patchline" : 				{
					"destination" : [ "obj-129", 0 ],
					"disabled" : 0,
					"hidden" : 0,
					"source" : [ "obj-128", 0 ]
				}

			}
, 			{
				"patchline" : 				{
					"destination" : [ "obj-126", 0 ],
					"disabled" : 0,
					"hidden" : 0,
					"source" : [ "obj-129", 0 ]
				}

			}
, 			{
				"patchline" : 				{
					"destination" : [ "obj-22", 0 ],
					"disabled" : 0,
					"hidden" : 0,
					"source" : [ "obj-130", 1 ]
				}

			}
, 			{
				"patchline" : 				{
					"destination" : [ "obj-7", 0 ],
					"disabled" : 0,
					"hidden" : 0,
					"source" : [ "obj-130", 0 ]
				}

			}
, 			{
				"patchline" : 				{
					"destination" : [ "obj-189", 6 ],
					"disabled" : 0,
					"hidden" : 0,
					"source" : [ "obj-131", 0 ]
				}

			}
, 			{
				"patchline" : 				{
					"destination" : [ "obj-68", 0 ],
					"disabled" : 0,
					"hidden" : 0,
					"source" : [ "obj-132", 0 ]
				}

			}
, 			{
				"patchline" : 				{
					"destination" : [ "obj-148", 0 ],
					"disabled" : 0,
					"hidden" : 0,
					"source" : [ "obj-133", 0 ]
				}

			}
, 			{
				"patchline" : 				{
					"destination" : [ "obj-145", 0 ],
					"disabled" : 0,
					"hidden" : 0,
					"source" : [ "obj-139", 1 ]
				}

			}
, 			{
				"patchline" : 				{
					"destination" : [ "obj-66", 5 ],
					"disabled" : 0,
					"hidden" : 0,
					"source" : [ "obj-139", 1 ]
				}

			}
, 			{
				"patchline" : 				{
					"destination" : [ "obj-1", 0 ],
					"disabled" : 0,
					"hidden" : 0,
					"source" : [ "obj-14", 2 ]
				}

			}
, 			{
				"patchline" : 				{
					"destination" : [ "obj-35", 0 ],
					"disabled" : 0,
					"hidden" : 0,
					"source" : [ "obj-14", 0 ]
				}

			}
, 			{
				"patchline" : 				{
					"destination" : [ "obj-36", 0 ],
					"disabled" : 0,
					"hidden" : 0,
					"source" : [ "obj-14", 1 ]
				}

			}
, 			{
				"patchline" : 				{
					"destination" : [ "obj-143", 0 ],
					"disabled" : 0,
					"hidden" : 0,
					"source" : [ "obj-142", 0 ]
				}

			}
, 			{
				"patchline" : 				{
					"destination" : [ "obj-139", 0 ],
					"disabled" : 0,
					"hidden" : 0,
					"source" : [ "obj-143", 3 ]
				}

			}
, 			{
				"patchline" : 				{
					"destination" : [ "obj-83", 0 ],
					"disabled" : 0,
					"hidden" : 0,
					"source" : [ "obj-148", 0 ]
				}

			}
, 			{
				"patchline" : 				{
					"destination" : [ "obj-151", 0 ],
					"disabled" : 0,
					"hidden" : 0,
					"source" : [ "obj-149", 0 ]
				}

			}
, 			{
				"patchline" : 				{
					"destination" : [ "obj-2", 0 ],
					"disabled" : 0,
					"hidden" : 0,
					"source" : [ "obj-15", 0 ]
				}

			}
, 			{
				"patchline" : 				{
					"destination" : [ "obj-51", 0 ],
					"disabled" : 0,
					"hidden" : 0,
					"source" : [ "obj-151", 0 ]
				}

			}
, 			{
				"patchline" : 				{
					"destination" : [ "obj-152", 0 ],
					"disabled" : 0,
					"hidden" : 0,
					"source" : [ "obj-154", 0 ]
				}

			}
, 			{
				"patchline" : 				{
					"destination" : [ "obj-152", 0 ],
					"disabled" : 0,
					"hidden" : 0,
					"source" : [ "obj-155", 0 ]
				}

			}
, 			{
				"patchline" : 				{
					"destination" : [ "obj-84", 0 ],
					"disabled" : 0,
					"hidden" : 0,
					"source" : [ "obj-16", 0 ]
				}

			}
, 			{
				"patchline" : 				{
					"destination" : [ "obj-133", 0 ],
					"disabled" : 0,
					"hidden" : 0,
					"source" : [ "obj-17", 0 ]
				}

			}
, 			{
				"patchline" : 				{
					"destination" : [ "obj-111", 0 ],
					"disabled" : 0,
					"hidden" : 0,
					"source" : [ "obj-188", 0 ]
				}

			}
, 			{
				"patchline" : 				{
					"destination" : [ "obj-29", 2 ],
					"disabled" : 0,
					"hidden" : 0,
					"source" : [ "obj-189", 3 ]
				}

			}
, 			{
				"patchline" : 				{
					"destination" : [ "obj-29", 1 ],
					"disabled" : 0,
					"hidden" : 0,
					"source" : [ "obj-189", 2 ]
				}

			}
, 			{
				"patchline" : 				{
					"destination" : [ "obj-29", 0 ],
					"disabled" : 0,
					"hidden" : 0,
					"source" : [ "obj-189", 1 ]
				}

			}
, 			{
				"patchline" : 				{
					"destination" : [ "obj-58", 1 ],
					"disabled" : 0,
					"hidden" : 0,
					"source" : [ "obj-189", 0 ]
				}

			}
, 			{
				"patchline" : 				{
					"destination" : [ "obj-20", 0 ],
					"disabled" : 0,
					"hidden" : 0,
					"source" : [ "obj-19", 0 ]
				}

			}
, 			{
				"patchline" : 				{
					"destination" : [ "obj-188", 0 ],
					"disabled" : 0,
					"hidden" : 0,
					"source" : [ "obj-192", 0 ]
				}

			}
, 			{
				"patchline" : 				{
					"destination" : [ "obj-16", 0 ],
					"disabled" : 0,
					"hidden" : 0,
					"source" : [ "obj-2", 0 ]
				}

			}
, 			{
				"patchline" : 				{
					"destination" : [ "obj-17", 0 ],
					"disabled" : 0,
					"hidden" : 0,
					"source" : [ "obj-20", 0 ]
				}

			}
, 			{
				"patchline" : 				{
					"destination" : [ "obj-132", 0 ],
					"disabled" : 0,
					"hidden" : 0,
					"source" : [ "obj-22", 0 ]
				}

			}
, 			{
				"patchline" : 				{
					"destination" : [ "obj-43", 0 ],
					"disabled" : 0,
					"hidden" : 0,
					"source" : [ "obj-25", 0 ]
				}

			}
, 			{
				"patchline" : 				{
					"destination" : [ "obj-75", 0 ],
					"disabled" : 0,
					"hidden" : 0,
					"source" : [ "obj-25", 0 ]
				}

			}
, 			{
				"patchline" : 				{
					"destination" : [ "obj-50", 2 ],
					"disabled" : 0,
					"hidden" : 0,
					"source" : [ "obj-26", 0 ]
				}

			}
, 			{
				"patchline" : 				{
					"destination" : [ "obj-28", 2 ],
					"disabled" : 0,
					"hidden" : 0,
					"source" : [ "obj-27", 0 ]
				}

			}
, 			{
				"patchline" : 				{
					"destination" : [ "obj-56", 1 ],
					"disabled" : 0,
					"hidden" : 0,
					"source" : [ "obj-28", 0 ]
				}

			}
, 			{
				"patchline" : 				{
					"destination" : [ "obj-67", 0 ],
					"disabled" : 0,
					"hidden" : 0,
					"source" : [ "obj-29", 1 ]
				}

			}
, 			{
				"patchline" : 				{
					"destination" : [ "obj-70", 0 ],
					"disabled" : 0,
					"hidden" : 0,
					"source" : [ "obj-29", 0 ]
				}

			}
, 			{
				"patchline" : 				{
					"destination" : [ "obj-72", 0 ],
					"disabled" : 0,
					"hidden" : 0,
					"source" : [ "obj-29", 2 ]
				}

			}
, 			{
				"patchline" : 				{
					"destination" : [ "obj-28", 0 ],
					"disabled" : 0,
					"hidden" : 0,
					"source" : [ "obj-30", 0 ]
				}

			}
, 			{
				"patchline" : 				{
					"destination" : [ "obj-307", 0 ],
					"disabled" : 0,
					"hidden" : 0,
					"source" : [ "obj-306", 0 ]
				}

			}
, 			{
				"patchline" : 				{
					"destination" : [ "obj-284", 0 ],
					"disabled" : 0,
					"hidden" : 0,
					"source" : [ "obj-307", 0 ]
				}

			}
, 			{
				"patchline" : 				{
					"destination" : [ "obj-33", 0 ],
					"disabled" : 0,
					"hidden" : 0,
					"source" : [ "obj-31", 0 ]
				}

			}
, 			{
				"patchline" : 				{
					"destination" : [ "obj-10", 1 ],
					"disabled" : 0,
					"hidden" : 0,
					"source" : [ "obj-32", 0 ]
				}

			}
, 			{
				"patchline" : 				{
					"destination" : [ "obj-74", 1 ],
					"disabled" : 0,
					"hidden" : 0,
					"source" : [ "obj-33", 0 ]
				}

			}
, 			{
				"patchline" : 				{
					"destination" : [ "obj-37", 0 ],
					"disabled" : 0,
					"hidden" : 0,
					"source" : [ "obj-34", 0 ]
				}

			}
, 			{
				"patchline" : 				{
					"destination" : [ "obj-59", 0 ],
					"disabled" : 0,
					"hidden" : 0,
					"source" : [ "obj-37", 0 ]
				}

			}
, 			{
				"patchline" : 				{
					"destination" : [ "obj-49", 0 ],
					"disabled" : 0,
					"hidden" : 0,
					"source" : [ "obj-38", 0 ]
				}

			}
, 			{
				"patchline" : 				{
					"destination" : [ "obj-66", 0 ],
					"disabled" : 0,
					"hidden" : 0,
					"source" : [ "obj-40", 0 ]
				}

			}
, 			{
				"patchline" : 				{
					"destination" : [ "obj-60", 0 ],
					"disabled" : 0,
					"hidden" : 0,
					"source" : [ "obj-41", 0 ]
				}

			}
, 			{
				"patchline" : 				{
					"destination" : [ "obj-79", 0 ],
					"disabled" : 0,
					"hidden" : 0,
					"source" : [ "obj-41", 0 ]
				}

			}
, 			{
				"patchline" : 				{
					"destination" : [ "obj-189", 0 ],
					"disabled" : 0,
					"hidden" : 0,
					"source" : [ "obj-42", 1 ]
				}

			}
, 			{
				"patchline" : 				{
					"destination" : [ "obj-46", 1 ],
					"disabled" : 0,
					"hidden" : 0,
					"source" : [ "obj-43", 0 ]
				}

			}
, 			{
				"patchline" : 				{
					"destination" : [ "obj-76", 0 ],
					"disabled" : 0,
					"hidden" : 0,
					"source" : [ "obj-44", 0 ]
				}

			}
, 			{
				"patchline" : 				{
					"color" : [ 0.0, 0.0, 0.0, 0.06 ],
					"destination" : [ "obj-11", 0 ],
					"disabled" : 0,
					"hidden" : 0,
					"source" : [ "obj-45", 0 ]
				}

			}
, 			{
				"patchline" : 				{
					"color" : [ 0.0, 0.0, 0.0, 0.06 ],
					"destination" : [ "obj-120", 0 ],
					"disabled" : 0,
					"hidden" : 0,
					"source" : [ "obj-45", 0 ]
				}

			}
, 			{
				"patchline" : 				{
					"color" : [ 0.0, 0.0, 0.0, 0.06 ],
					"destination" : [ "obj-124", 0 ],
					"disabled" : 0,
					"hidden" : 0,
					"source" : [ "obj-45", 0 ]
				}

			}
, 			{
				"patchline" : 				{
					"color" : [ 0.0, 0.0, 0.0, 0.06 ],
					"destination" : [ "obj-128", 0 ],
					"disabled" : 0,
					"hidden" : 0,
					"source" : [ "obj-45", 0 ]
				}

			}
, 			{
				"patchline" : 				{
					"color" : [ 0.0, 0.0, 0.0, 0.06 ],
					"destination" : [ "obj-19", 0 ],
					"disabled" : 0,
					"hidden" : 0,
					"source" : [ "obj-45", 0 ]
				}

			}
, 			{
				"patchline" : 				{
					"color" : [ 0.0, 0.0, 0.0, 0.06 ],
					"destination" : [ "obj-192", 0 ],
					"disabled" : 0,
					"hidden" : 0,
					"source" : [ "obj-45", 0 ]
				}

			}
, 			{
				"patchline" : 				{
					"destination" : [ "obj-3", 0 ],
					"disabled" : 0,
					"hidden" : 0,
					"source" : [ "obj-46", 0 ]
				}

			}
, 			{
				"patchline" : 				{
					"destination" : [ "obj-44", 0 ],
					"disabled" : 0,
					"hidden" : 0,
					"source" : [ "obj-46", 0 ]
				}

			}
, 			{
				"patchline" : 				{
					"destination" : [ "obj-28", 1 ],
					"disabled" : 0,
					"hidden" : 0,
					"source" : [ "obj-47", 0 ]
				}

			}
, 			{
				"patchline" : 				{
					"destination" : [ "obj-25", 0 ],
					"disabled" : 0,
					"hidden" : 0,
					"source" : [ "obj-48", 0 ]
				}

			}
, 			{
				"patchline" : 				{
					"destination" : [ "obj-41", 0 ],
					"disabled" : 0,
					"hidden" : 0,
					"source" : [ "obj-48", 0 ]
				}

			}
, 			{
				"patchline" : 				{
					"destination" : [ "obj-53", 0 ],
					"disabled" : 0,
					"hidden" : 0,
					"source" : [ "obj-48", 0 ]
				}

			}
, 			{
				"patchline" : 				{
					"destination" : [ "obj-105", 0 ],
					"disabled" : 0,
					"hidden" : 0,
					"source" : [ "obj-49", 0 ]
				}

			}
, 			{
				"patchline" : 				{
					"destination" : [ "obj-10", 0 ],
					"disabled" : 0,
					"hidden" : 0,
					"source" : [ "obj-5", 0 ]
				}

			}
, 			{
				"patchline" : 				{
					"destination" : [ "obj-56", 0 ],
					"disabled" : 0,
					"hidden" : 0,
					"source" : [ "obj-50", 0 ]
				}

			}
, 			{
				"patchline" : 				{
					"destination" : [ "obj-50", 0 ],
					"disabled" : 0,
					"hidden" : 0,
					"source" : [ "obj-51", 0 ]
				}

			}
, 			{
				"patchline" : 				{
					"destination" : [ "obj-55", 1 ],
					"disabled" : 0,
					"hidden" : 0,
					"source" : [ "obj-51", 0 ]
				}

			}
, 			{
				"patchline" : 				{
					"destination" : [ "obj-51", 0 ],
					"disabled" : 0,
					"hidden" : 0,
					"source" : [ "obj-53", 0 ]
				}

			}
, 			{
				"patchline" : 				{
					"destination" : [ "obj-48", 0 ],
					"disabled" : 0,
					"hidden" : 0,
					"source" : [ "obj-54", 0 ]
				}

			}
, 			{
				"patchline" : 				{
					"destination" : [ "obj-51", 1 ],
					"disabled" : 0,
					"hidden" : 0,
					"source" : [ "obj-54", 0 ]
				}

			}
, 			{
				"patchline" : 				{
					"destination" : [ "obj-58", 0 ],
					"disabled" : 0,
					"hidden" : 0,
					"source" : [ "obj-56", 0 ]
				}

			}
, 			{
				"patchline" : 				{
					"destination" : [ "obj-75", 0 ],
					"disabled" : 0,
					"hidden" : 0,
					"source" : [ "obj-57", 0 ]
				}

			}
, 			{
				"patchline" : 				{
					"destination" : [ "obj-10", 3 ],
					"disabled" : 0,
					"hidden" : 0,
					"source" : [ "obj-58", 0 ]
				}

			}
, 			{
				"patchline" : 				{
					"destination" : [ "obj-10", 2 ],
					"disabled" : 0,
					"hidden" : 0,
					"source" : [ "obj-58", 0 ]
				}

			}
, 			{
				"patchline" : 				{
					"destination" : [ "obj-74", 0 ],
					"disabled" : 0,
					"hidden" : 0,
					"source" : [ "obj-59", 0 ]
				}

			}
, 			{
				"patchline" : 				{
					"destination" : [ "obj-34", 0 ],
					"disabled" : 0,
					"hidden" : 0,
					"source" : [ "obj-60", 0 ]
				}

			}
, 			{
				"patchline" : 				{
					"destination" : [ "obj-92", 0 ],
					"disabled" : 0,
					"hidden" : 0,
					"source" : [ "obj-61", 0 ]
				}

			}
, 			{
				"patchline" : 				{
					"color" : [ 0.0, 0.0, 0.0, 0.05 ],
					"destination" : [ "obj-66", 1 ],
					"disabled" : 0,
					"hidden" : 0,
					"source" : [ "obj-62", 0 ]
				}

			}
, 			{
				"patchline" : 				{
					"destination" : [ "obj-61", 0 ],
					"disabled" : 0,
					"hidden" : 0,
					"source" : [ "obj-63", 1 ]
				}

			}
, 			{
				"patchline" : 				{
					"color" : [ 0.0, 0.0, 0.0, 0.05 ],
					"destination" : [ "obj-66", 2 ],
					"disabled" : 0,
					"hidden" : 0,
					"source" : [ "obj-64", 1 ]
				}

			}
, 			{
				"patchline" : 				{
					"destination" : [ "obj-61", 0 ],
					"disabled" : 0,
					"hidden" : 0,
					"source" : [ "obj-65", 0 ]
				}

			}
, 			{
				"patchline" : 				{
					"destination" : [ "obj-77", 0 ],
					"disabled" : 0,
					"hidden" : 0,
					"source" : [ "obj-65", 0 ]
				}

			}
, 			{
				"patchline" : 				{
					"destination" : [ "obj-143", 0 ],
					"disabled" : 0,
					"hidden" : 0,
					"source" : [ "obj-66", 5 ]
				}

			}
, 			{
				"patchline" : 				{
					"destination" : [ "obj-306", 0 ],
					"disabled" : 0,
					"hidden" : 0,
					"source" : [ "obj-66", 6 ]
				}

			}
, 			{
				"patchline" : 				{
					"destination" : [ "obj-40", 0 ],
					"disabled" : 0,
					"hidden" : 0,
					"source" : [ "obj-66", 0 ]
				}

			}
, 			{
				"patchline" : 				{
					"destination" : [ "obj-45", 0 ],
					"disabled" : 0,
					"hidden" : 0,
					"source" : [ "obj-66", 6 ]
				}

			}
, 			{
				"patchline" : 				{
					"color" : [ 0.0, 0.0, 0.0, 0.05 ],
					"destination" : [ "obj-62", 0 ],
					"disabled" : 0,
					"hidden" : 0,
					"source" : [ "obj-66", 1 ]
				}

			}
, 			{
				"patchline" : 				{
					"color" : [ 0.0, 0.0, 0.0, 0.05 ],
					"destination" : [ "obj-86", 0 ],
					"disabled" : 0,
					"hidden" : 0,
					"source" : [ "obj-66", 3 ]
				}

			}
, 			{
				"patchline" : 				{
					"color" : [ 0.0, 0.0, 0.0, 0.05 ],
					"destination" : [ "obj-87", 0 ],
					"disabled" : 0,
					"hidden" : 0,
					"source" : [ "obj-66", 4 ]
				}

			}
, 			{
				"patchline" : 				{
					"color" : [ 0.0, 0.0, 0.0, 0.05 ],
					"destination" : [ "obj-91", 0 ],
					"disabled" : 0,
					"hidden" : 0,
					"source" : [ "obj-66", 2 ]
				}

			}
, 			{
				"patchline" : 				{
					"destination" : [ "obj-131", 0 ],
					"disabled" : 0,
					"hidden" : 0,
					"source" : [ "obj-67", 0 ]
				}

			}
, 			{
				"patchline" : 				{
					"destination" : [ "obj-63", 0 ],
					"disabled" : 0,
					"hidden" : 0,
					"source" : [ "obj-68", 1 ]
				}

			}
, 			{
				"patchline" : 				{
					"destination" : [ "obj-65", 0 ],
					"disabled" : 0,
					"hidden" : 0,
					"source" : [ "obj-68", 0 ]
				}

			}
, 			{
				"patchline" : 				{
					"destination" : [ "obj-22", 0 ],
					"disabled" : 0,
					"hidden" : 0,
					"source" : [ "obj-7", 0 ]
				}

			}
, 			{
				"patchline" : 				{
					"destination" : [ "obj-189", 5 ],
					"disabled" : 0,
					"hidden" : 0,
					"source" : [ "obj-70", 0 ]
				}

			}
, 			{
				"patchline" : 				{
					"destination" : [ "obj-189", 7 ],
					"disabled" : 0,
					"hidden" : 0,
					"source" : [ "obj-72", 0 ]
				}

			}
, 			{
				"patchline" : 				{
					"destination" : [ "obj-76", 1 ],
					"disabled" : 0,
					"hidden" : 0,
					"source" : [ "obj-74", 0 ]
				}

			}
, 			{
				"patchline" : 				{
					"destination" : [ "obj-46", 0 ],
					"disabled" : 0,
					"hidden" : 0,
					"source" : [ "obj-75", 0 ]
				}

			}
, 			{
				"patchline" : 				{
					"destination" : [ "obj-81", 0 ],
					"disabled" : 0,
					"hidden" : 0,
					"source" : [ "obj-76", 0 ]
				}

			}
, 			{
				"patchline" : 				{
					"destination" : [ "obj-45", 0 ],
					"disabled" : 0,
					"hidden" : 0,
					"source" : [ "obj-78", 0 ]
				}

			}
, 			{
				"patchline" : 				{
					"destination" : [ "obj-31", 0 ],
					"disabled" : 0,
					"hidden" : 0,
					"source" : [ "obj-79", 0 ]
				}

			}
, 			{
				"patchline" : 				{
					"destination" : [ "obj-149", 0 ],
					"disabled" : 0,
					"hidden" : 0,
					"source" : [ "obj-8", 0 ]
				}

			}
, 			{
				"patchline" : 				{
					"destination" : [ "obj-57", 0 ],
					"disabled" : 0,
					"hidden" : 0,
					"source" : [ "obj-80", 0 ]
				}

			}
, 			{
				"patchline" : 				{
					"destination" : [ "obj-30", 0 ],
					"disabled" : 0,
					"hidden" : 0,
					"source" : [ "obj-81", 0 ]
				}

			}
, 			{
				"patchline" : 				{
					"destination" : [ "obj-47", 0 ],
					"disabled" : 0,
					"hidden" : 0,
					"source" : [ "obj-81", 0 ]
				}

			}
, 			{
				"patchline" : 				{
					"destination" : [ "obj-38", 0 ],
					"disabled" : 0,
					"hidden" : 0,
					"midpoints" : [ 510.5, 472.0, 481.5, 472.0, 481.5, 105.0, 614.833313, 105.0 ],
					"source" : [ "obj-82", 0 ]
				}

			}
, 			{
				"patchline" : 				{
					"destination" : [ "obj-100", 0 ],
					"disabled" : 0,
					"hidden" : 0,
					"source" : [ "obj-83", 0 ]
				}

			}
, 			{
				"patchline" : 				{
					"destination" : [ "obj-16", 0 ],
					"disabled" : 0,
					"hidden" : 0,
					"source" : [ "obj-83", 0 ]
				}

			}
, 			{
				"patchline" : 				{
					"destination" : [ "obj-49", 0 ],
					"disabled" : 0,
					"hidden" : 0,
					"source" : [ "obj-83", 1 ]
				}

			}
, 			{
				"patchline" : 				{
					"destination" : [ "obj-82", 0 ],
					"disabled" : 0,
					"hidden" : 0,
					"source" : [ "obj-84", 0 ]
				}

			}
, 			{
				"patchline" : 				{
					"color" : [ 0.0, 0.0, 0.0, 0.05 ],
					"destination" : [ "obj-66", 2 ],
					"disabled" : 0,
					"hidden" : 0,
					"source" : [ "obj-86", 1 ]
				}

			}
, 			{
				"patchline" : 				{
					"color" : [ 0.0, 0.0, 0.0, 0.05 ],
					"destination" : [ "obj-66", 4 ],
					"disabled" : 0,
					"hidden" : 0,
					"source" : [ "obj-91", 3 ]
				}

			}
, 			{
				"patchline" : 				{
					"color" : [ 0.0, 0.0, 0.0, 0.05 ],
					"destination" : [ "obj-66", 3 ],
					"disabled" : 0,
					"hidden" : 0,
					"source" : [ "obj-91", 1 ]
				}

			}
, 			{
				"patchline" : 				{
					"destination" : [ "obj-80", 0 ],
					"disabled" : 0,
					"hidden" : 0,
					"source" : [ "obj-92", 0 ]
				}

			}
, 			{
				"patchline" : 				{
					"destination" : [ "obj-92", 1 ],
					"disabled" : 0,
					"hidden" : 0,
					"source" : [ "obj-93", 0 ]
				}

			}
, 			{
				"patchline" : 				{
					"destination" : [ "obj-92", 2 ],
					"disabled" : 0,
					"hidden" : 0,
					"source" : [ "obj-94", 0 ]
				}

			}
, 			{
				"patchline" : 				{
					"destination" : [ "obj-26", 0 ],
					"disabled" : 0,
					"hidden" : 0,
					"source" : [ "obj-98", 0 ]
				}

			}
 ]
	}

}
