{
	"patcher" : 	{
		"fileversion" : 1,
		"appversion" : 		{
			"major" : 7,
			"minor" : 0,
			"revision" : 1,
			"architecture" : "x86",
			"modernui" : 1
		}
,
		"rect" : [ 125.0, 44.0, 623.0, 176.0 ],
		"bgcolor" : [ 1.0, 1.0, 1.0, 0.0 ],
		"bglocked" : 0,
		"openinpresentation" : 1,
		"default_fontsize" : 10.0,
		"default_fontface" : 0,
		"default_fontname" : "Arial Bold",
		"gridonopen" : 1,
		"gridsize" : [ 15.0, 15.0 ],
		"gridsnaponopen" : 1,
		"objectsnaponopen" : 1,
		"statusbarvisible" : 1,
		"toolbarvisible" : 0,
		"lefttoolbarpinned" : 0,
		"toptoolbarpinned" : 0,
		"righttoolbarpinned" : 0,
		"bottomtoolbarpinned" : 0,
		"toolbars_unpinned_last_save" : 0,
		"tallnewobj" : 0,
		"boxanimatetime" : 200,
		"enablehscroll" : 1,
		"enablevscroll" : 1,
		"devicewidth" : 0.0,
		"description" : "",
		"digest" : "",
		"tags" : "",
		"style" : "",
		"subpatcher_template" : "",
		"boxes" : [ 			{
				"box" : 				{
					"fontface" : 0,
					"fontname" : "Arial Bold",
					"fontsize" : 10.0,
					"id" : "obj-29",
					"maxclass" : "newobj",
					"numinlets" : 7,
					"numoutlets" : 8,
					"outlettype" : [ "list", "", "", "", "", "", "", "" ],
					"patching_rect" : [ 257.583252, 505.45636, 152.3246, 20.0 ],
					"style" : "",
					"text" : "tg.m.fgraph1"
				}

			}
, 			{
				"box" : 				{
					"annotation" : "FilterMode",
					"id" : "obj-42",
					"maxclass" : "live.menu",
					"numinlets" : 1,
					"numoutlets" : 3,
					"outlettype" : [ "", "", "float" ],
					"parameter_enable" : 1,
					"patching_rect" : [ 335.541321, 334.745483, 71.75, 15.0 ],
					"presentation" : 1,
					"presentation_rect" : [ 363.833313, 6.078308, 71.75, 15.0 ],
					"saved_attribute_attributes" : 					{
						"valueof" : 						{
							"parameter_longname" : "FilterMode[2]",
							"parameter_shortname" : "FilterMode",
							"parameter_type" : 2,
							"parameter_enum" : [ "display", "lowpass", "highpass", "bandpass", "bandstop", "peaknotch", "lowshelf", "highshelf", "resonant", "allpass" ],
							"parameter_initial_enable" : 1,
							"parameter_initial" : [ 5.0 ]
						}

					}
,
					"varname" : "FilterMode"
				}

			}
, 			{
				"box" : 				{
					"bgcolor" : [ 0.568627, 0.619608, 0.662745, 1.0 ],
					"bgoncolor" : [ 0.921569, 0.94902, 0.05098, 1.0 ],
					"fontface" : 1,
					"id" : "obj-109",
					"legacytextcolor" : 1,
					"maxclass" : "textbutton",
					"numinlets" : 1,
					"numoutlets" : 3,
					"outlettype" : [ "", "", "int" ],
					"parameter_enable" : 0,
					"patching_rect" : [ 296.583252, 334.745483, 35.0, 15.665442 ],
					"presentation" : 1,
					"presentation_rect" : [ 324.875244, 6.078308, 35.0, 15.665442 ],
					"prototypename" : "M4L.toggle",
					"rounded" : 13.0,
					"style" : "",
					"text" : "init",
					"textcolor" : [ 0.101961, 0.121569, 0.172549, 1.0 ],
					"texton" : "Trig",
					"textoncolor" : [ 0.101961, 0.121569, 0.172549, 1.0 ],
					"textovercolor" : [ 0.101961, 0.121569, 0.172549, 1.0 ],
					"usebgoncolor" : 1,
					"usetextovercolor" : 1
				}

			}
, 			{
				"box" : 				{
					"fontname" : "Arial Bold",
					"fontsize" : 10.0,
					"id" : "obj-138",
					"maxclass" : "comment",
					"numinlets" : 1,
					"numoutlets" : 0,
					"patching_rect" : [ 257.583252, 334.745483, 35.0, 18.0 ],
					"presentation" : 1,
					"presentation_rect" : [ 285.875244, 6.078308, 35.0, 18.0 ],
					"style" : "",
					"text" : "Filter",
					"textcolor" : [ 0.3, 0.34, 0.4, 1.0 ]
				}

			}
, 			{
				"box" : 				{
					"annotation" : "FilterGain",
					"id" : "obj-67",
					"maxclass" : "live.numbox",
					"numinlets" : 1,
					"numoutlets" : 2,
					"outlettype" : [ "", "float" ],
					"parameter_enable" : 1,
					"patching_rect" : [ 319.445374, 353.745483, 45.662308, 15.0 ],
					"presentation" : 1,
					"presentation_rect" : [ 347.737366, 25.078308, 45.662308, 15.0 ],
					"saved_attribute_attributes" : 					{
						"valueof" : 						{
							"parameter_longname" : "FilterGain[2]",
							"parameter_shortname" : "FilterGain",
							"parameter_type" : 0,
							"parameter_mmin" : -80.0,
							"parameter_mmax" : 80.0,
							"parameter_initial_enable" : 1,
							"parameter_initial" : [ 0.0 ],
							"parameter_unitstyle" : 4
						}

					}
,
					"varname" : "FilterGain"
				}

			}
, 			{
				"box" : 				{
					"annotation" : "FilterFreq",
					"id" : "obj-70",
					"maxclass" : "live.numbox",
					"numinlets" : 1,
					"numoutlets" : 2,
					"outlettype" : [ "", "float" ],
					"parameter_enable" : 1,
					"patching_rect" : [ 257.583252, 353.745483, 57.0, 15.0 ],
					"presentation" : 1,
					"presentation_rect" : [ 285.875244, 25.078308, 57.0, 15.0 ],
					"saved_attribute_attributes" : 					{
						"valueof" : 						{
							"parameter_longname" : "FilterFreq[2]",
							"parameter_shortname" : "FilterFreq",
							"parameter_type" : 0,
							"parameter_mmax" : 22050.0,
							"parameter_initial_enable" : 1,
							"parameter_initial" : [ 1000.0 ],
							"parameter_unitstyle" : 3
						}

					}
,
					"varname" : "FilterFreq"
				}

			}
, 			{
				"box" : 				{
					"annotation" : "FilterQ",
					"id" : "obj-72",
					"maxclass" : "live.numbox",
					"numinlets" : 1,
					"numoutlets" : 2,
					"outlettype" : [ "", "float" ],
					"parameter_enable" : 1,
					"patching_rect" : [ 370.907837, 353.745483, 39.0, 15.0 ],
					"presentation" : 1,
					"presentation_rect" : [ 399.199829, 25.078308, 39.0, 15.0 ],
					"saved_attribute_attributes" : 					{
						"valueof" : 						{
							"parameter_longname" : "FilterQ[2]",
							"parameter_shortname" : "FilterQ",
							"parameter_type" : 0,
							"parameter_mmax" : 22000.0,
							"parameter_initial_enable" : 1,
							"parameter_initial" : [ 0.3 ],
							"parameter_unitstyle" : 1,
							"parameter_units" : "q",
							"parameter_exponent" : 5.0
						}

					}
,
					"varname" : "FilterQ"
				}

			}
, 			{
				"box" : 				{
					"autoout" : 1,
					"dbdisplay" : 0,
					"fontface" : 0,
					"id" : "obj-189",
					"maxclass" : "filtergraph~",
					"nfilters" : 1,
					"numinlets" : 8,
					"numoutlets" : 7,
					"outlettype" : [ "list", "float", "float", "float", "float", "list", "int" ],
					"parameter_enable" : 0,
					"patching_rect" : [ 257.583252, 371.667236, 152.3246, 121.578308 ],
					"presentation" : 1,
					"presentation_rect" : [ 285.875244, 43.0, 152.3246, 121.578308 ],
					"setfilter" : [ 0, 5, 1, 1, 0, 1000.0, 1.0, 0.3, 0.0, 0.0, 0.0, 0.0, 0.0, 0.0 ],
					"style" : ""
				}

			}
, 			{
				"box" : 				{
					"fontname" : "Arial Bold",
					"fontsize" : 10.0,
					"id" : "obj-89",
					"maxclass" : "comment",
					"numinlets" : 1,
					"numoutlets" : 0,
					"patching_rect" : [ 740.0, 134.0, 38.0, 18.0 ],
					"presentation" : 1,
					"presentation_rect" : [ 154.0, 145.0, 38.0, 18.0 ],
					"style" : "",
					"text" : "then :"
				}

			}
, 			{
				"box" : 				{
					"fontname" : "Arial Bold",
					"fontsize" : 10.0,
					"id" : "obj-88",
					"maxclass" : "comment",
					"numinlets" : 1,
					"numoutlets" : 0,
					"patching_rect" : [ 660.0, 134.0, 50.0, 18.0 ],
					"presentation" : 1,
					"presentation_rect" : [ 145.0, 104.0, 53.0, 18.0 ],
					"style" : "",
					"text" : "if RMS <"
				}

			}
, 			{
				"box" : 				{
					"fontname" : "Arial Bold",
					"fontsize" : 10.0,
					"id" : "obj-85",
					"maxclass" : "comment",
					"numinlets" : 1,
					"numoutlets" : 0,
					"patching_rect" : [ 490.0, 134.0, 38.0, 18.0 ],
					"presentation" : 1,
					"presentation_rect" : [ 154.0, 61.0, 38.0, 18.0 ],
					"style" : "",
					"text" : "then :"
				}

			}
, 			{
				"box" : 				{
					"fontname" : "Arial Bold",
					"fontsize" : 10.0,
					"id" : "obj-84",
					"maxclass" : "comment",
					"numinlets" : 1,
					"numoutlets" : 0,
					"patching_rect" : [ 410.0, 134.0, 53.0, 18.0 ],
					"presentation" : 1,
					"presentation_rect" : [ 145.0, 25.0, 53.0, 18.0 ],
					"style" : "",
					"text" : "if RMS > "
				}

			}
, 			{
				"box" : 				{
					"fontname" : "Arial Bold",
					"fontsize" : 10.0,
					"id" : "obj-81",
					"maxclass" : "comment",
					"numinlets" : 1,
					"numoutlets" : 0,
					"patching_rect" : [ 740.0, 152.0, 54.0, 18.0 ],
					"presentation" : 1,
					"presentation_rect" : [ 192.0, 127.0, 54.0, 18.0 ],
					"style" : "",
					"text" : "ExpRatio"
				}

			}
, 			{
				"box" : 				{
					"fontname" : "Arial Bold",
					"fontsize" : 10.0,
					"id" : "obj-79",
					"maxclass" : "comment",
					"numinlets" : 1,
					"numoutlets" : 0,
					"patching_rect" : [ 660.0, 152.0, 62.0, 18.0 ],
					"presentation" : 1,
					"presentation_rect" : [ 192.0, 86.0, 62.0, 18.0 ],
					"style" : "",
					"text" : "ExpThresh"
				}

			}
, 			{
				"box" : 				{
					"fontname" : "Arial Bold",
					"fontsize" : 10.0,
					"id" : "obj-78",
					"maxclass" : "comment",
					"numinlets" : 1,
					"numoutlets" : 0,
					"patching_rect" : [ 560.0, 152.0, 49.0, 18.0 ],
					"presentation" : 1,
					"presentation_rect" : [ 71.0, 133.0, 49.0, 18.0 ],
					"style" : "",
					"text" : "Makeup"
				}

			}
, 			{
				"box" : 				{
					"fontname" : "Arial Bold",
					"fontsize" : 10.0,
					"id" : "obj-77",
					"maxclass" : "comment",
					"numinlets" : 1,
					"numoutlets" : 0,
					"patching_rect" : [ 490.0, 152.0, 64.0, 18.0 ],
					"presentation" : 1,
					"presentation_rect" : [ 190.0, 43.0, 64.0, 18.0 ],
					"style" : "",
					"text" : "CompRatio"
				}

			}
, 			{
				"box" : 				{
					"fontname" : "Arial Bold",
					"fontsize" : 10.0,
					"id" : "obj-76",
					"maxclass" : "comment",
					"numinlets" : 1,
					"numoutlets" : 0,
					"patching_rect" : [ 410.0, 152.0, 72.0, 18.0 ],
					"presentation" : 1,
					"presentation_rect" : [ 188.0, 7.0, 72.0, 18.0 ],
					"style" : "",
					"text" : "CompThresh"
				}

			}
, 			{
				"box" : 				{
					"fontname" : "Arial Bold",
					"fontsize" : 10.0,
					"id" : "obj-73",
					"maxclass" : "comment",
					"numinlets" : 1,
					"numoutlets" : 0,
					"patching_rect" : [ 320.0, 152.0, 63.0, 18.0 ],
					"presentation" : 1,
					"presentation_rect" : [ 68.0, 92.0, 63.0, 18.0 ],
					"style" : "",
					"text" : "Lookahead"
				}

			}
, 			{
				"box" : 				{
					"fontname" : "Arial Bold",
					"fontsize" : 10.0,
					"id" : "obj-71",
					"maxclass" : "comment",
					"numinlets" : 1,
					"numoutlets" : 0,
					"patching_rect" : [ 240.0, 152.0, 49.0, 18.0 ],
					"presentation" : 1,
					"presentation_rect" : [ 71.0, 49.0, 49.0, 18.0 ],
					"style" : "",
					"text" : "Release"
				}

			}
, 			{
				"box" : 				{
					"fontname" : "Arial Bold",
					"fontsize" : 10.0,
					"id" : "obj-69",
					"maxclass" : "comment",
					"numinlets" : 1,
					"numoutlets" : 0,
					"patching_rect" : [ 170.0, 152.0, 49.0, 18.0 ],
					"presentation" : 1,
					"presentation_rect" : [ 71.0, 7.0, 49.0, 18.0 ],
					"style" : "",
					"text" : "Attack"
				}

			}
, 			{
				"box" : 				{
					"fontname" : "Arial Bold",
					"fontsize" : 10.0,
					"id" : "obj-2",
					"linecount" : 2,
					"maxclass" : "comment",
					"numinlets" : 1,
					"numoutlets" : 0,
					"patching_rect" : [ 560.0, 262.0, 72.0, 29.0 ],
					"style" : "",
					"text" : "compressor make up gain"
				}

			}
, 			{
				"box" : 				{
					"annotation" : "Makeup",
					"id" : "obj-48",
					"maxclass" : "live.numbox",
					"numinlets" : 1,
					"numoutlets" : 2,
					"outlettype" : [ "", "float" ],
					"parameter_enable" : 1,
					"patching_rect" : [ 560.0, 170.0, 51.0, 15.0 ],
					"presentation" : 1,
					"presentation_rect" : [ 71.0, 151.0, 51.0, 15.0 ],
					"saved_attribute_attributes" : 					{
						"valueof" : 						{
							"parameter_longname" : "Makeup",
							"parameter_shortname" : "Makeup",
							"parameter_type" : 0,
							"parameter_mmin" : -20.0,
							"parameter_mmax" : 20.0,
							"parameter_initial_enable" : 1,
							"parameter_initial" : [ 0 ],
							"parameter_unitstyle" : 1
						}

					}
,
					"varname" : "Makeup"
				}

			}
, 			{
				"box" : 				{
					"fontname" : "Arial Bold",
					"fontsize" : 10.0,
					"id" : "obj-55",
					"maxclass" : "message",
					"numinlets" : 2,
					"numoutlets" : 1,
					"outlettype" : [ "" ],
					"patching_rect" : [ 560.0, 200.0, 63.0, 20.0 ],
					"style" : "",
					"text" : "makeup $1"
				}

			}
, 			{
				"box" : 				{
					"fontname" : "Arial Bold",
					"fontsize" : 10.0,
					"id" : "obj-18",
					"linecount" : 2,
					"maxclass" : "comment",
					"numinlets" : 1,
					"numoutlets" : 0,
					"patching_rect" : [ 740.0, 262.0, 70.0, 29.0 ],
					"style" : "",
					"text" : "expander ratio"
				}

			}
, 			{
				"box" : 				{
					"annotation" : "ExpRatio",
					"id" : "obj-33",
					"maxclass" : "live.numbox",
					"numinlets" : 1,
					"numoutlets" : 2,
					"outlettype" : [ "", "float" ],
					"parameter_enable" : 1,
					"patching_rect" : [ 740.0, 170.0, 51.0, 15.0 ],
					"presentation" : 1,
					"presentation_rect" : [ 192.0, 145.0, 51.0, 15.0 ],
					"saved_attribute_attributes" : 					{
						"valueof" : 						{
							"parameter_longname" : "ExpRatio",
							"parameter_shortname" : "ExpRatio",
							"parameter_type" : 0,
							"parameter_mmin" : 0.5,
							"parameter_mmax" : 1.0,
							"parameter_initial_enable" : 1,
							"parameter_initial" : [ 1 ],
							"parameter_unitstyle" : 1
						}

					}
,
					"varname" : "ExpRatio"
				}

			}
, 			{
				"box" : 				{
					"fontname" : "Arial Bold",
					"fontsize" : 10.0,
					"id" : "obj-20",
					"maxclass" : "message",
					"numinlets" : 2,
					"numoutlets" : 1,
					"outlettype" : [ "" ],
					"patching_rect" : [ 740.0, 200.0, 32.0, 20.0 ],
					"style" : "",
					"text" : "er $1"
				}

			}
, 			{
				"box" : 				{
					"fontname" : "Arial Bold",
					"fontsize" : 10.0,
					"id" : "obj-41",
					"linecount" : 2,
					"maxclass" : "comment",
					"numinlets" : 1,
					"numoutlets" : 0,
					"patching_rect" : [ 660.0, 262.0, 70.0, 29.0 ],
					"style" : "",
					"text" : "expander threshold"
				}

			}
, 			{
				"box" : 				{
					"annotation" : "ExpThresh",
					"id" : "obj-44",
					"maxclass" : "live.numbox",
					"numinlets" : 1,
					"numoutlets" : 2,
					"outlettype" : [ "", "float" ],
					"parameter_enable" : 1,
					"patching_rect" : [ 660.0, 170.0, 51.0, 15.0 ],
					"presentation" : 1,
					"presentation_rect" : [ 192.0, 104.0, 51.0, 15.0 ],
					"saved_attribute_attributes" : 					{
						"valueof" : 						{
							"parameter_longname" : "ExpThresh",
							"parameter_shortname" : "ExpThresh",
							"parameter_type" : 0,
							"parameter_mmin" : -80.0,
							"parameter_mmax" : 16.0,
							"parameter_initial_enable" : 1,
							"parameter_initial" : [ -16 ],
							"parameter_unitstyle" : 1
						}

					}
,
					"varname" : "ExpThresh"
				}

			}
, 			{
				"box" : 				{
					"fontname" : "Arial Bold",
					"fontsize" : 10.0,
					"id" : "obj-21",
					"maxclass" : "message",
					"numinlets" : 2,
					"numoutlets" : 1,
					"outlettype" : [ "" ],
					"patching_rect" : [ 660.0, 200.0, 33.0, 20.0 ],
					"style" : "",
					"text" : "et $1"
				}

			}
, 			{
				"box" : 				{
					"fontname" : "Arial Bold",
					"fontsize" : 10.0,
					"id" : "obj-23",
					"linecount" : 2,
					"maxclass" : "comment",
					"numinlets" : 1,
					"numoutlets" : 0,
					"patching_rect" : [ 490.0, 262.0, 72.0, 29.0 ],
					"style" : "",
					"text" : "compressor ratio"
				}

			}
, 			{
				"box" : 				{
					"annotation" : "CompRatio",
					"id" : "obj-24",
					"maxclass" : "live.numbox",
					"numinlets" : 1,
					"numoutlets" : 2,
					"outlettype" : [ "", "float" ],
					"parameter_enable" : 1,
					"patching_rect" : [ 490.0, 170.0, 51.0, 15.0 ],
					"presentation" : 1,
					"presentation_rect" : [ 192.0, 61.0, 51.0, 15.0 ],
					"saved_attribute_attributes" : 					{
						"valueof" : 						{
							"parameter_longname" : "CompRatio",
							"parameter_shortname" : "CompRatio",
							"parameter_type" : 0,
							"parameter_mmin" : 1.0,
							"parameter_mmax" : 30.0,
							"parameter_initial_enable" : 1,
							"parameter_initial" : [ 1 ],
							"parameter_unitstyle" : 1
						}

					}
,
					"varname" : "CompRatio"
				}

			}
, 			{
				"box" : 				{
					"fontname" : "Arial Bold",
					"fontsize" : 10.0,
					"id" : "obj-25",
					"maxclass" : "message",
					"numinlets" : 2,
					"numoutlets" : 1,
					"outlettype" : [ "" ],
					"patching_rect" : [ 490.0, 200.0, 34.0, 20.0 ],
					"style" : "",
					"text" : "cr $1"
				}

			}
, 			{
				"box" : 				{
					"fontname" : "Arial Bold",
					"fontsize" : 10.0,
					"id" : "obj-26",
					"linecount" : 2,
					"maxclass" : "comment",
					"numinlets" : 1,
					"numoutlets" : 0,
					"patching_rect" : [ 410.0, 262.0, 72.0, 29.0 ],
					"style" : "",
					"text" : "compressor threshold"
				}

			}
, 			{
				"box" : 				{
					"annotation" : "CompThresh",
					"id" : "obj-31",
					"maxclass" : "live.numbox",
					"numinlets" : 1,
					"numoutlets" : 2,
					"outlettype" : [ "", "float" ],
					"parameter_enable" : 1,
					"patching_rect" : [ 410.0, 170.0, 51.0, 15.0 ],
					"presentation" : 1,
					"presentation_rect" : [ 192.0, 25.0, 51.0, 15.0 ],
					"saved_attribute_attributes" : 					{
						"valueof" : 						{
							"parameter_longname" : "CompThresh",
							"parameter_shortname" : "CompThresh",
							"parameter_type" : 0,
							"parameter_mmin" : -60.0,
							"parameter_mmax" : 16.0,
							"parameter_initial_enable" : 1,
							"parameter_initial" : [ 0 ],
							"parameter_unitstyle" : 1
						}

					}
,
					"varname" : "CompThresh"
				}

			}
, 			{
				"box" : 				{
					"annotation" : "Lookahead",
					"id" : "obj-34",
					"maxclass" : "live.numbox",
					"numinlets" : 1,
					"numoutlets" : 2,
					"outlettype" : [ "", "float" ],
					"parameter_enable" : 1,
					"patching_rect" : [ 320.0, 170.0, 51.0, 15.0 ],
					"presentation" : 1,
					"presentation_rect" : [ 71.0, 110.0, 51.0, 15.0 ],
					"saved_attribute_attributes" : 					{
						"valueof" : 						{
							"parameter_longname" : "Lookahead",
							"parameter_shortname" : "Lookahead",
							"parameter_type" : 0,
							"parameter_mmin" : 1.0,
							"parameter_mmax" : 20.0,
							"parameter_initial_enable" : 1,
							"parameter_initial" : [ 10 ],
							"parameter_unitstyle" : 1
						}

					}
,
					"varname" : "Lookahead"
				}

			}
, 			{
				"box" : 				{
					"annotation" : "Release",
					"id" : "obj-47",
					"maxclass" : "live.numbox",
					"numinlets" : 1,
					"numoutlets" : 2,
					"outlettype" : [ "", "float" ],
					"parameter_enable" : 1,
					"patching_rect" : [ 240.0, 170.0, 51.0, 15.0 ],
					"presentation" : 1,
					"presentation_rect" : [ 71.0, 67.0, 51.0, 15.0 ],
					"saved_attribute_attributes" : 					{
						"valueof" : 						{
							"parameter_longname" : "Release",
							"parameter_shortname" : "Release",
							"parameter_type" : 0,
							"parameter_mmin" : 1.0,
							"parameter_mmax" : 5000.0,
							"parameter_initial_enable" : 1,
							"parameter_initial" : [ 30 ],
							"parameter_unitstyle" : 1
						}

					}
,
					"varname" : "Release"
				}

			}
, 			{
				"box" : 				{
					"annotation" : "Attack",
					"id" : "obj-49",
					"maxclass" : "live.numbox",
					"numinlets" : 1,
					"numoutlets" : 2,
					"outlettype" : [ "", "float" ],
					"parameter_enable" : 1,
					"patching_rect" : [ 170.0, 170.0, 51.0, 15.0 ],
					"presentation" : 1,
					"presentation_rect" : [ 71.0, 25.0, 51.0, 15.0 ],
					"saved_attribute_attributes" : 					{
						"valueof" : 						{
							"parameter_longname" : "Attack",
							"parameter_shortname" : "Attack",
							"parameter_type" : 0,
							"parameter_mmin" : 0.1,
							"parameter_mmax" : 3000.0,
							"parameter_initial_enable" : 1,
							"parameter_initial" : [ 10 ],
							"parameter_unitstyle" : 1
						}

					}
,
					"varname" : "Attack"
				}

			}
, 			{
				"box" : 				{
					"fontname" : "Arial Bold",
					"fontsize" : 10.0,
					"id" : "obj-50",
					"linecount" : 2,
					"maxclass" : "newobj",
					"numinlets" : 2,
					"numoutlets" : 2,
					"outlettype" : [ "signal", "signal" ],
					"patching_rect" : [ 93.583344, 289.0, 113.916664, 31.0 ],
					"saved_object_attributes" : 					{
						"parameter_enable" : 0
					}
,
					"style" : "",
					"text" : "spat.compressor~ @numchannels 2"
				}

			}
, 			{
				"box" : 				{
					"fontname" : "Arial Bold",
					"fontsize" : 10.0,
					"id" : "obj-52",
					"maxclass" : "message",
					"numinlets" : 2,
					"numoutlets" : 1,
					"outlettype" : [ "" ],
					"patching_rect" : [ 170.0, 200.0, 51.0, 20.0 ],
					"style" : "",
					"text" : "attack $1"
				}

			}
, 			{
				"box" : 				{
					"fontname" : "Arial Bold",
					"fontsize" : 10.0,
					"id" : "obj-53",
					"maxclass" : "message",
					"numinlets" : 2,
					"numoutlets" : 1,
					"outlettype" : [ "" ],
					"patching_rect" : [ 320.0, 200.0, 72.0, 20.0 ],
					"style" : "",
					"text" : "lookahead $1"
				}

			}
, 			{
				"box" : 				{
					"fontname" : "Arial Bold",
					"fontsize" : 10.0,
					"id" : "obj-54",
					"maxclass" : "message",
					"numinlets" : 2,
					"numoutlets" : 1,
					"outlettype" : [ "" ],
					"patching_rect" : [ 240.0, 200.0, 57.0, 20.0 ],
					"style" : "",
					"text" : "release $1"
				}

			}
, 			{
				"box" : 				{
					"fontname" : "Arial Bold",
					"fontsize" : 10.0,
					"id" : "obj-56",
					"maxclass" : "message",
					"numinlets" : 2,
					"numoutlets" : 1,
					"outlettype" : [ "" ],
					"patching_rect" : [ 410.0, 200.0, 34.0, 20.0 ],
					"style" : "",
					"text" : "ct $1"
				}

			}
, 			{
				"box" : 				{
					"fontname" : "Arial",
					"fontsize" : 9.0,
					"id" : "obj-74",
					"linecount" : 2,
					"maxclass" : "comment",
					"numinlets" : 1,
					"numoutlets" : 0,
					"patching_rect" : [ 659.5, 458.667236, 51.0, 27.0 ],
					"style" : "",
					"text" : "PRESET for Live"
				}

			}
, 			{
				"box" : 				{
					"fontname" : "Arial Bold",
					"fontsize" : 10.0,
					"id" : "obj-75",
					"maxclass" : "message",
					"numinlets" : 2,
					"numoutlets" : 1,
					"outlettype" : [ "" ],
					"patching_rect" : [ 627.0, 441.167236, 39.0, 20.0 ],
					"style" : "",
					"text" : "set $1"
				}

			}
, 			{
				"box" : 				{
					"id" : "obj-80",
					"maxclass" : "live.numbox",
					"numinlets" : 1,
					"numoutlets" : 2,
					"outlettype" : [ "", "float" ],
					"parameter_enable" : 1,
					"patching_rect" : [ 627.0, 465.667236, 36.0, 15.0 ],
					"saved_attribute_attributes" : 					{
						"valueof" : 						{
							"parameter_longname" : "PRESET[2]",
							"parameter_shortname" : "PRESET",
							"parameter_type" : 1,
							"parameter_unitstyle" : 0,
							"parameter_steps" : 1
						}

					}
,
					"varname" : "PRESET"
				}

			}
, 			{
				"box" : 				{
					"fontname" : "Arial Bold",
					"fontsize" : 10.0,
					"id" : "obj-17",
					"maxclass" : "newobj",
					"numinlets" : 1,
					"numoutlets" : 2,
					"outlettype" : [ "", "" ],
					"patching_rect" : [ 612.166687, 560.667236, 64.0, 20.0 ],
					"save" : [ "#N", "thispatcher", ";", "#Q", "end", ";" ],
					"style" : "",
					"text" : "thispatcher"
				}

			}
, 			{
				"box" : 				{
					"fontname" : "Arial Bold",
					"fontsize" : 10.0,
					"id" : "obj-118",
					"maxclass" : "message",
					"numinlets" : 2,
					"numoutlets" : 1,
					"outlettype" : [ "" ],
					"patching_rect" : [ 612.166687, 504.667236, 50.0, 20.0 ],
					"style" : "",
					"text" : "refresh"
				}

			}
, 			{
				"box" : 				{
					"fontname" : "Arial Bold",
					"fontsize" : 18.0,
					"id" : "obj-87",
					"maxclass" : "comment",
					"numinlets" : 1,
					"numoutlets" : 0,
					"patching_rect" : [ 507.5, 357.667236, 95.0, 27.0 ],
					"presentation" : 1,
					"presentation_rect" : [ 520.5, 3.0, 95.0, 27.0 ],
					"style" : "",
					"text" : "#1"
				}

			}
, 			{
				"box" : 				{
					"bgfillcolor_angle" : 270.0,
					"bgfillcolor_color" : [ 1.0, 1.0, 1.0, 0.0 ],
					"bgfillcolor_color1" : [ 0.376471, 0.384314, 0.4, 1.0 ],
					"bgfillcolor_color2" : [ 0.290196, 0.309804, 0.301961, 1.0 ],
					"bgfillcolor_proportion" : 0.39,
					"bgfillcolor_type" : "color",
					"fontsize" : 12.0,
					"id" : "obj-86",
					"items" : [ "()", ",", "<separator>", ",", "(Presets)", ",", "init", ",", "dump", ",", "<separator>", ",", "(Storage)", ",", "client", ",", "storage", ",", "<separator>", ",", "(Bank)", ",", "renum", ",", "clear", ",", "load", ",", "save", ",", "export", ",", "<separator>", ",", "(Recall)", ",", "(undefined)" ],
					"maxclass" : "umenu",
					"numinlets" : 1,
					"numoutlets" : 3,
					"outlettype" : [ "int", "", "" ],
					"parameter_enable" : 0,
					"patching_rect" : [ 507.5, 361.167236, 94.400002, 22.0 ],
					"presentation" : 1,
					"presentation_rect" : [ 520.5, 6.5, 94.400002, 22.0 ],
					"style" : "",
					"textcolor" : [ 0.0, 0.0, 0.0, 1.0 ]
				}

			}
, 			{
				"box" : 				{
					"fontname" : "Arial Bold",
					"fontsize" : 10.0,
					"id" : "obj-3",
					"maxclass" : "comment",
					"numinlets" : 1,
					"numoutlets" : 0,
					"patching_rect" : [ 504.5, 337.167236, 47.0, 18.0 ],
					"style" : "",
					"text" : "Presets",
					"textcolor" : [ 0.3, 0.34, 0.4, 1.0 ]
				}

			}
, 			{
				"box" : 				{
					"fontname" : "Arial",
					"fontsize" : 10.0,
					"id" : "obj-4",
					"maxclass" : "comment",
					"numinlets" : 1,
					"numoutlets" : 0,
					"patching_rect" : [ 506.5, 490.167236, 40.0, 18.0 ],
					"presentation" : 1,
					"presentation_rect" : [ 519.5, 135.5, 40.0, 18.0 ],
					"style" : "",
					"text" : "Name:"
				}

			}
, 			{
				"box" : 				{
					"bgcolor" : [ 0.094118, 0.113725, 0.137255, 1.0 ],
					"border" : 0.0,
					"bordercolor" : [ 0.501961, 0.501961, 0.501961, 0.0 ],
					"fontface" : 1,
					"fontname" : "Arial",
					"fontsize" : 10.0,
					"id" : "obj-6",
					"keymode" : 1,
					"maxclass" : "textedit",
					"numinlets" : 1,
					"numoutlets" : 4,
					"outlettype" : [ "", "int", "", "" ],
					"parameter_enable" : 0,
					"patching_rect" : [ 507.5, 506.167236, 95.0, 16.0 ],
					"presentation" : 1,
					"presentation_rect" : [ 520.5, 151.5, 95.0, 16.0 ],
					"prototypename" : "M4L.black",
					"rounded" : 12.0,
					"style" : "",
					"textcolor" : [ 0.909804, 0.909804, 0.909804, 1.0 ]
				}

			}
, 			{
				"box" : 				{
					"annotation" : "Renumber and clear presets, import/export banks of presets as text files.",
					"button" : 1,
					"hint" : "Renumber and clear presets, import/export banks of presets as text files.",
					"id" : "obj-7",
					"margin" : 2,
					"maxclass" : "tab",
					"numinlets" : 1,
					"numoutlets" : 3,
					"outlettype" : [ "int", "", "" ],
					"parameter_enable" : 0,
					"patching_rect" : [ 506.5, 385.667236, 96.0, 31.614456 ],
					"presentation" : 1,
					"presentation_rect" : [ 519.5, 31.0, 96.0, 31.614456 ],
					"prototypename" : "M4L.numbers",
					"rounded" : 6.0,
					"spacing_x" : 3.0,
					"style" : "",
					"tabs" : [ "save", "client", "dump", "init" ]
				}

			}
, 			{
				"box" : 				{
					"fontname" : "Arial Bold",
					"fontsize" : 10.0,
					"id" : "obj-11",
					"maxclass" : "newobj",
					"numinlets" : 7,
					"numoutlets" : 8,
					"outlettype" : [ "", "", "", "", "", "", "", "" ],
					"patching_rect" : [ 504.5, 534.667236, 126.666687, 20.0 ],
					"style" : "",
					"text" : "tg.m.preset #1"
				}

			}
, 			{
				"box" : 				{
					"active1" : [ 0.984314, 0.819608, 0.05098, 1.0 ],
					"annotation" : "Shift-click in a circle to store, click on circle to recall. Option-shift-click to remove.",
					"bgcolor" : [ 0.666667, 0.698039, 0.717647, 0.0 ],
					"emptycolor" : [ 0.301961, 0.337255, 0.403922, 1.0 ],
					"fontsize" : 12.0,
					"hint" : "Shift-click in a circle to store, click on circle to recall. Option-shift-click to remove.",
					"id" : "obj-13",
					"maxclass" : "preset",
					"numinlets" : 1,
					"numoutlets" : 4,
					"outlettype" : [ "preset", "int", "preset", "int" ],
					"patching_rect" : [ 509.5, 421.667236, 92.5, 69.0 ],
					"pattrstorage" : "CompressorPreset",
					"presentation" : 1,
					"presentation_rect" : [ 522.5, 67.0, 92.5, 69.0 ],
					"prototypename" : "M4L.H",
					"stored1" : [ 0.494118, 0.556863, 0.607843, 1.0 ],
					"style" : "",
					"textcolor" : [ 1.0, 1.0, 1.0, 1.0 ],
					"varname" : "Preset[1]"
				}

			}
, 			{
				"box" : 				{
					"angle" : 0.0,
					"bgcolor" : [ 0.094118, 0.113725, 0.137255, 1.0 ],
					"bordercolor" : [ 0.494118, 0.556863, 0.607843, 1.0 ],
					"hint" : "",
					"id" : "obj-15",
					"maxclass" : "panel",
					"mode" : 0,
					"numinlets" : 1,
					"numoutlets" : 0,
					"patching_rect" : [ 507.5, 421.667236, 95.0, 69.072281 ],
					"presentation" : 1,
					"presentation_rect" : [ 520.5, 67.0, 95.0, 69.072281 ],
					"proportion" : 0.39,
					"prototypename" : "M4L.horizontal-black",
					"rounded" : 16,
					"style" : ""
				}

			}
, 			{
				"box" : 				{
					"angle" : 0.0,
					"bgcolor" : [ 0.666667, 0.698039, 0.717647, 1.0 ],
					"bordercolor" : [ 0.094118, 0.113725, 0.137255, 1.0 ],
					"id" : "obj-16",
					"maxclass" : "panel",
					"mode" : 0,
					"numinlets" : 1,
					"numoutlets" : 0,
					"patching_rect" : [ 504.5, 355.167236, 101.0, 170.0 ],
					"presentation" : 1,
					"presentation_rect" : [ 517.5, 0.499999, 101.0, 170.0 ],
					"proportion" : 0.39,
					"prototypename" : "M4L.horizontal-black",
					"style" : ""
				}

			}
, 			{
				"box" : 				{
					"id" : "obj-220",
					"maxclass" : "live.line",
					"numinlets" : 1,
					"numoutlets" : 0,
					"patching_rect" : [ 141.5, 511.667236, 5.0, 100.0 ],
					"presentation" : 1,
					"presentation_rect" : [ 136.499939, 7.0, 10.0, 160.0 ]
				}

			}
, 			{
				"box" : 				{
					"fontname" : "Arial Bold",
					"fontsize" : 10.0,
					"id" : "obj-127",
					"maxclass" : "newobj",
					"numinlets" : 6,
					"numoutlets" : 1,
					"outlettype" : [ "signal" ],
					"patching_rect" : [ 121.000008, 395.834473, 86.5, 20.0 ],
					"style" : "",
					"text" : "biquad~"
				}

			}
, 			{
				"box" : 				{
					"id" : "obj-45",
					"maxclass" : "button",
					"numinlets" : 1,
					"numoutlets" : 1,
					"outlettype" : [ "bang" ],
					"patching_rect" : [ 596.785706, 560.667236, 20.0, 20.0 ],
					"style" : ""
				}

			}
, 			{
				"box" : 				{
					"fontname" : "Arial Bold",
					"fontsize" : 10.0,
					"id" : "obj-307",
					"maxclass" : "message",
					"numinlets" : 2,
					"numoutlets" : 1,
					"outlettype" : [ "" ],
					"patching_rect" : [ 676.5, 614.667236, 39.0, 20.0 ],
					"style" : "",
					"text" : "$1 init"
				}

			}
, 			{
				"box" : 				{
					"fontname" : "Arial Bold",
					"fontsize" : 10.0,
					"id" : "obj-306",
					"linecount" : 6,
					"maxclass" : "message",
					"numinlets" : 2,
					"numoutlets" : 1,
					"outlettype" : [ "" ],
					"patching_rect" : [ 676.5, 534.667236, 72.0, 76.0 ],
					"style" : "",
					"text" : "live.dial, live.menu, live.text, live.numbox, live.gain~, live.tab, pattr"
				}

			}
, 			{
				"box" : 				{
					"fontname" : "Arial Bold",
					"fontsize" : 10.0,
					"id" : "obj-284",
					"maxclass" : "newobj",
					"numinlets" : 1,
					"numoutlets" : 0,
					"patching_rect" : [ 676.5, 638.667236, 54.0, 20.0 ],
					"style" : "",
					"text" : "universal"
				}

			}
, 			{
				"box" : 				{
					"color" : [ 0.239216, 0.643137, 0.709804, 1.0 ],
					"fontname" : "Arial Bold",
					"fontsize" : 10.0,
					"id" : "obj-40",
					"linecount" : 2,
					"maxclass" : "newobj",
					"numinlets" : 1,
					"numoutlets" : 1,
					"outlettype" : [ "" ],
					"patching_rect" : [ 504.5, 627.667236, 165.0, 31.0 ],
					"saved_object_attributes" : 					{
						"client_rect" : [ 4, 44, 358, 172 ],
						"parameter_enable" : 0,
						"storage_rect" : [ 365, 44, 816, 172 ]
					}
,
					"style" : "",
					"text" : "pattrstorage CompressorPreset @savemode 2 @autowatch 1",
					"varname" : "CompressorPreset"
				}

			}
, 			{
				"box" : 				{
					"fontname" : "Arial Bold",
					"fontsize" : 10.0,
					"id" : "obj-139",
					"maxclass" : "newobj",
					"numinlets" : 2,
					"numoutlets" : 2,
					"outlettype" : [ "", "" ],
					"patching_rect" : [ 707.5, 465.667236, 75.0, 20.0 ],
					"style" : "",
					"text" : "route restore"
				}

			}
, 			{
				"box" : 				{
					"fontname" : "Arial",
					"fontsize" : 10.0,
					"id" : "obj-140",
					"linecount" : 2,
					"maxclass" : "comment",
					"numinlets" : 1,
					"numoutlets" : 0,
					"patching_rect" : [ 731.5, 432.667236, 48.0, 29.0 ],
					"style" : "",
					"text" : "Pattr storage"
				}

			}
, 			{
				"box" : 				{
					"fontname" : "Arial Bold",
					"fontsize" : 10.0,
					"id" : "obj-141",
					"linecount" : 2,
					"maxclass" : "comment",
					"numinlets" : 1,
					"numoutlets" : 0,
					"patching_rect" : [ 659.5, 353.667236, 72.0, 29.0 ],
					"style" : "",
					"text" : "Messages to parameters"
				}

			}
, 			{
				"box" : 				{
					"comment" : "Parameters values, getattributes, getstate",
					"id" : "obj-142",
					"maxclass" : "inlet",
					"numinlets" : 0,
					"numoutlets" : 1,
					"outlettype" : [ "" ],
					"patching_rect" : [ 635.5, 353.667236, 17.0, 17.0 ],
					"style" : ""
				}

			}
, 			{
				"box" : 				{
					"color" : [ 0.239216, 0.643137, 0.709804, 1.0 ],
					"fontname" : "Arial Bold",
					"fontsize" : 10.0,
					"id" : "obj-143",
					"linecount" : 2,
					"maxclass" : "newobj",
					"numinlets" : 1,
					"numoutlets" : 4,
					"outlettype" : [ "", "", "", "" ],
					"patching_rect" : [ 635.5, 385.667236, 91.0, 31.0 ],
					"restore" : 					{
						"Attack" : [ 10.0 ],
						"CompRatio" : [ 1.0 ],
						"CompThresh" : [ 0.0 ],
						"Dry/wet" : [ 100.0 ],
						"ExpRatio" : [ 1.0 ],
						"ExpThresh" : [ -16.0 ],
						"FilterFreq" : [ 1000.0 ],
						"FilterGain" : [ 0.0 ],
						"FilterMode" : [ 5.0 ],
						"FilterQ" : [ 0.3 ],
						"Ingain" : [ 0.0 ],
						"Lookahead" : [ 10.0 ],
						"Makeup" : [ 0.0 ],
						"Outgain" : [ -127.0 ],
						"Release" : [ 30.0 ]
					}
,
					"style" : "",
					"text" : "autopattr @autorestore 0",
					"varname" : "u416002817"
				}

			}
, 			{
				"box" : 				{
					"fontname" : "Arial Bold",
					"fontsize" : 10.0,
					"id" : "obj-144",
					"maxclass" : "comment",
					"numinlets" : 1,
					"numoutlets" : 0,
					"patching_rect" : [ 707.5, 496.667236, 54.0, 18.0 ],
					"style" : "",
					"text" : "Dumpout"
				}

			}
, 			{
				"box" : 				{
					"comment" : "Dumpout",
					"id" : "obj-145",
					"maxclass" : "outlet",
					"numinlets" : 1,
					"numoutlets" : 0,
					"patching_rect" : [ 763.5, 496.667236, 18.0, 18.0 ],
					"style" : ""
				}

			}
, 			{
				"box" : 				{
					"id" : "obj-107",
					"maxclass" : "live.line",
					"numinlets" : 1,
					"numoutlets" : 0,
					"patching_rect" : [ 121.0, 511.667236, 5.0, 100.0 ],
					"presentation" : 1,
					"presentation_rect" : [ 512.0, 7.0, 8.0, 160.0 ]
				}

			}
, 			{
				"box" : 				{
					"id" : "obj-104",
					"maxclass" : "live.line",
					"numinlets" : 1,
					"numoutlets" : 0,
					"patching_rect" : [ 128.25, 511.667236, 5.0, 100.0 ],
					"presentation" : 1,
					"presentation_rect" : [ 453.0, 7.0, 8.0, 160.0 ]
				}

			}
, 			{
				"box" : 				{
					"comment" : "",
					"id" : "obj-1",
					"maxclass" : "outlet",
					"numinlets" : 1,
					"numoutlets" : 0,
					"patching_rect" : [ 108.25, 630.167236, 25.0, 25.0 ],
					"style" : ""
				}

			}
, 			{
				"box" : 				{
					"fontname" : "Arial Bold",
					"fontsize" : 10.0,
					"id" : "obj-58",
					"maxclass" : "newobj",
					"numinlets" : 6,
					"numoutlets" : 1,
					"outlettype" : [ "signal" ],
					"patching_rect" : [ 93.583344, 371.667236, 86.5, 20.0 ],
					"style" : "",
					"text" : "biquad~"
				}

			}
, 			{
				"box" : 				{
					"comment" : "",
					"id" : "obj-36",
					"maxclass" : "outlet",
					"numinlets" : 1,
					"numoutlets" : 0,
					"patching_rect" : [ 67.5, 630.167236, 25.0, 25.0 ],
					"style" : ""
				}

			}
, 			{
				"box" : 				{
					"comment" : "",
					"id" : "obj-35",
					"maxclass" : "outlet",
					"numinlets" : 1,
					"numoutlets" : 0,
					"patching_rect" : [ 38.750004, 630.167236, 25.0, 25.0 ],
					"style" : ""
				}

			}
, 			{
				"box" : 				{
					"comment" : "",
					"id" : "obj-32",
					"maxclass" : "inlet",
					"numinlets" : 0,
					"numoutlets" : 1,
					"outlettype" : [ "" ],
					"patching_rect" : [ 66.166672, 20.0, 25.0, 25.0 ],
					"style" : ""
				}

			}
, 			{
				"box" : 				{
					"comment" : "",
					"id" : "obj-5",
					"maxclass" : "inlet",
					"numinlets" : 0,
					"numoutlets" : 1,
					"outlettype" : [ "" ],
					"patching_rect" : [ 38.416668, 20.0, 25.0, 25.0 ],
					"style" : ""
				}

			}
, 			{
				"box" : 				{
					"id" : "obj-9",
					"maxclass" : "live.line",
					"numinlets" : 1,
					"numoutlets" : 0,
					"patching_rect" : [ 114.5, 511.667236, 5.0, 100.0 ],
					"presentation" : 1,
					"presentation_rect" : [ 266.0, 7.0, 8.0, 160.0 ]
				}

			}
, 			{
				"box" : 				{
					"id" : "obj-38",
					"maxclass" : "live.line",
					"numinlets" : 1,
					"numoutlets" : 0,
					"patching_rect" : [ 108.25, 511.667236, 5.0, 100.0 ],
					"presentation" : 1,
					"presentation_rect" : [ 58.0, 7.0, 8.0, 160.0 ]
				}

			}
, 			{
				"box" : 				{
					"annotation" : "Outgain",
					"clip_size" : 1,
					"display_range" : [ -70.0, 30.0 ],
					"id" : "obj-14",
					"maxclass" : "live.gain~",
					"numinlets" : 2,
					"numoutlets" : 5,
					"outlettype" : [ "signal", "signal", "", "float", "list" ],
					"parameter_enable" : 1,
					"patching_rect" : [ 38.750004, 511.667236, 46.0, 96.0 ],
					"presentation" : 1,
					"presentation_rect" : [ 464.5, 55.0, 40.0, 108.0 ],
					"prototypename" : "M4L.live.gain~.V.extended",
					"saved_attribute_attributes" : 					{
						"valueof" : 						{
							"parameter_longname" : "Outgain[2]",
							"parameter_shortname" : "Outgain",
							"parameter_type" : 0,
							"parameter_mmin" : -127.0,
							"parameter_mmax" : 20.0,
							"parameter_initial_enable" : 1,
							"parameter_initial" : [ -127 ],
							"parameter_unitstyle" : 4
						}

					}
,
					"varname" : "Outgain"
				}

			}
, 			{
				"box" : 				{
					"annotation" : "Dry/wet",
					"id" : "obj-12",
					"maxclass" : "live.dial",
					"numinlets" : 1,
					"numoutlets" : 2,
					"outlettype" : [ "", "float" ],
					"parameter_enable" : 1,
					"patching_rect" : [ 148.416672, 421.667236, 44.0, 47.0 ],
					"presentation" : 1,
					"presentation_rect" : [ 463.5, 3.0, 44.0, 47.0 ],
					"prototypename" : "amount",
					"saved_attribute_attributes" : 					{
						"valueof" : 						{
							"parameter_longname" : "Dry/wet[2]",
							"parameter_shortname" : "Dry/wet",
							"parameter_type" : 0,
							"parameter_mmax" : 100.0,
							"parameter_initial_enable" : 1,
							"parameter_initial" : [ 100 ],
							"parameter_unitstyle" : 5
						}

					}
,
					"varname" : "Dry/wet"
				}

			}
, 			{
				"box" : 				{
					"fontname" : "Arial Bold",
					"fontsize" : 10.0,
					"id" : "obj-10",
					"maxclass" : "newobj",
					"numinlets" : 5,
					"numoutlets" : 2,
					"outlettype" : [ "signal", "signal" ],
					"patching_rect" : [ 38.750004, 476.167236, 128.666672, 20.0 ],
					"style" : "",
					"text" : "M4L.bal2~"
				}

			}
, 			{
				"box" : 				{
					"annotation" : "Ingain",
					"clip_size" : 1,
					"display_range" : [ -70.0, 30.0 ],
					"id" : "obj-8",
					"maxclass" : "live.gain~",
					"numinlets" : 2,
					"numoutlets" : 5,
					"outlettype" : [ "signal", "signal", "", "float", "list" ],
					"parameter_enable" : 1,
					"patching_rect" : [ 93.583344, 95.667236, 46.0, 63.0 ],
					"presentation" : 1,
					"presentation_rect" : [ 8.0, 7.0, 40.0, 160.0 ],
					"prototypename" : "M4L.live.gain~.V.extended",
					"saved_attribute_attributes" : 					{
						"valueof" : 						{
							"parameter_longname" : "Ingain[2]",
							"parameter_shortname" : "Ingain",
							"parameter_type" : 0,
							"parameter_mmin" : -70.0,
							"parameter_mmax" : 30.0,
							"parameter_initial_enable" : 1,
							"parameter_initial" : [ 0.0 ],
							"parameter_unitstyle" : 4
						}

					}
,
					"varname" : "Ingain"
				}

			}
 ],
		"lines" : [ 			{
				"patchline" : 				{
					"destination" : [ "obj-14", 1 ],
					"disabled" : 0,
					"hidden" : 0,
					"source" : [ "obj-10", 1 ]
				}

			}
, 			{
				"patchline" : 				{
					"destination" : [ "obj-14", 0 ],
					"disabled" : 0,
					"hidden" : 0,
					"source" : [ "obj-10", 0 ]
				}

			}
, 			{
				"patchline" : 				{
					"color" : [ 0.666667, 0.698039, 0.717647, 1.0 ],
					"destination" : [ "obj-42", 0 ],
					"disabled" : 0,
					"hidden" : 0,
					"source" : [ "obj-109", 1 ]
				}

			}
, 			{
				"patchline" : 				{
					"color" : [ 0.666667, 0.698039, 0.717647, 1.0 ],
					"destination" : [ "obj-67", 0 ],
					"disabled" : 0,
					"hidden" : 0,
					"source" : [ "obj-109", 1 ]
				}

			}
, 			{
				"patchline" : 				{
					"color" : [ 0.666667, 0.698039, 0.717647, 1.0 ],
					"destination" : [ "obj-70", 0 ],
					"disabled" : 0,
					"hidden" : 0,
					"source" : [ "obj-109", 1 ]
				}

			}
, 			{
				"patchline" : 				{
					"color" : [ 0.666667, 0.698039, 0.717647, 1.0 ],
					"destination" : [ "obj-72", 0 ],
					"disabled" : 0,
					"hidden" : 0,
					"source" : [ "obj-109", 1 ]
				}

			}
, 			{
				"patchline" : 				{
					"color" : [ 0.0, 0.0, 0.0, 0.05 ],
					"destination" : [ "obj-13", 0 ],
					"disabled" : 0,
					"hidden" : 0,
					"source" : [ "obj-11", 2 ]
				}

			}
, 			{
				"patchline" : 				{
					"destination" : [ "obj-143", 0 ],
					"disabled" : 0,
					"hidden" : 0,
					"source" : [ "obj-11", 5 ]
				}

			}
, 			{
				"patchline" : 				{
					"destination" : [ "obj-17", 0 ],
					"disabled" : 0,
					"hidden" : 0,
					"source" : [ "obj-11", 7 ]
				}

			}
, 			{
				"patchline" : 				{
					"destination" : [ "obj-40", 0 ],
					"disabled" : 0,
					"hidden" : 0,
					"source" : [ "obj-11", 0 ]
				}

			}
, 			{
				"patchline" : 				{
					"destination" : [ "obj-45", 0 ],
					"disabled" : 0,
					"hidden" : 0,
					"source" : [ "obj-11", 6 ]
				}

			}
, 			{
				"patchline" : 				{
					"color" : [ 0.0, 0.0, 0.0, 0.05 ],
					"destination" : [ "obj-6", 0 ],
					"disabled" : 0,
					"hidden" : 0,
					"source" : [ "obj-11", 1 ]
				}

			}
, 			{
				"patchline" : 				{
					"color" : [ 0.0, 0.0, 0.0, 0.05 ],
					"destination" : [ "obj-86", 0 ],
					"disabled" : 0,
					"hidden" : 0,
					"source" : [ "obj-11", 3 ]
				}

			}
, 			{
				"patchline" : 				{
					"color" : [ 0.0, 0.0, 0.0, 0.05 ],
					"destination" : [ "obj-87", 0 ],
					"disabled" : 0,
					"hidden" : 0,
					"source" : [ "obj-11", 4 ]
				}

			}
, 			{
				"patchline" : 				{
					"destination" : [ "obj-11", 6 ],
					"disabled" : 0,
					"hidden" : 0,
					"source" : [ "obj-118", 0 ]
				}

			}
, 			{
				"patchline" : 				{
					"destination" : [ "obj-10", 4 ],
					"disabled" : 0,
					"hidden" : 0,
					"source" : [ "obj-12", 0 ]
				}

			}
, 			{
				"patchline" : 				{
					"destination" : [ "obj-10", 3 ],
					"disabled" : 0,
					"hidden" : 0,
					"source" : [ "obj-127", 0 ]
				}

			}
, 			{
				"patchline" : 				{
					"color" : [ 0.0, 0.0, 0.0, 0.05 ],
					"destination" : [ "obj-11", 4 ],
					"disabled" : 0,
					"hidden" : 0,
					"source" : [ "obj-13", 3 ]
				}

			}
, 			{
				"patchline" : 				{
					"color" : [ 0.0, 0.0, 0.0, 0.05 ],
					"destination" : [ "obj-11", 3 ],
					"disabled" : 0,
					"hidden" : 0,
					"source" : [ "obj-13", 1 ]
				}

			}
, 			{
				"patchline" : 				{
					"destination" : [ "obj-75", 0 ],
					"disabled" : 0,
					"hidden" : 0,
					"source" : [ "obj-13", 1 ]
				}

			}
, 			{
				"patchline" : 				{
					"destination" : [ "obj-11", 5 ],
					"disabled" : 0,
					"hidden" : 0,
					"source" : [ "obj-139", 1 ]
				}

			}
, 			{
				"patchline" : 				{
					"destination" : [ "obj-145", 0 ],
					"disabled" : 0,
					"hidden" : 0,
					"source" : [ "obj-139", 1 ]
				}

			}
, 			{
				"patchline" : 				{
					"destination" : [ "obj-1", 0 ],
					"disabled" : 0,
					"hidden" : 0,
					"source" : [ "obj-14", 2 ]
				}

			}
, 			{
				"patchline" : 				{
					"destination" : [ "obj-35", 0 ],
					"disabled" : 0,
					"hidden" : 0,
					"source" : [ "obj-14", 0 ]
				}

			}
, 			{
				"patchline" : 				{
					"destination" : [ "obj-36", 0 ],
					"disabled" : 0,
					"hidden" : 0,
					"source" : [ "obj-14", 1 ]
				}

			}
, 			{
				"patchline" : 				{
					"destination" : [ "obj-143", 0 ],
					"disabled" : 0,
					"hidden" : 0,
					"source" : [ "obj-142", 0 ]
				}

			}
, 			{
				"patchline" : 				{
					"destination" : [ "obj-139", 0 ],
					"disabled" : 0,
					"hidden" : 0,
					"source" : [ "obj-143", 3 ]
				}

			}
, 			{
				"patchline" : 				{
					"destination" : [ "obj-80", 0 ],
					"disabled" : 0,
					"hidden" : 0,
					"source" : [ "obj-143", 1 ]
				}

			}
, 			{
				"patchline" : 				{
					"color" : [ 0.0, 0.0, 0.0, 0.1 ],
					"destination" : [ "obj-29", 6 ],
					"disabled" : 0,
					"hidden" : 0,
					"source" : [ "obj-189", 3 ]
				}

			}
, 			{
				"patchline" : 				{
					"color" : [ 0.0, 0.0, 0.0, 0.1 ],
					"destination" : [ "obj-29", 5 ],
					"disabled" : 0,
					"hidden" : 0,
					"source" : [ "obj-189", 2 ]
				}

			}
, 			{
				"patchline" : 				{
					"color" : [ 0.0, 0.0, 0.0, 0.1 ],
					"destination" : [ "obj-29", 4 ],
					"disabled" : 0,
					"hidden" : 0,
					"source" : [ "obj-189", 1 ]
				}

			}
, 			{
				"patchline" : 				{
					"color" : [ 0.0, 0.0, 0.0, 0.1 ],
					"destination" : [ "obj-29", 3 ],
					"disabled" : 0,
					"hidden" : 0,
					"source" : [ "obj-189", 0 ]
				}

			}
, 			{
				"patchline" : 				{
					"destination" : [ "obj-50", 0 ],
					"disabled" : 0,
					"hidden" : 0,
					"midpoints" : [ 749.5, 244.0, 103.083344, 244.0 ],
					"source" : [ "obj-20", 0 ]
				}

			}
, 			{
				"patchline" : 				{
					"destination" : [ "obj-50", 0 ],
					"disabled" : 0,
					"hidden" : 0,
					"midpoints" : [ 669.5, 244.0, 103.083344, 244.0 ],
					"source" : [ "obj-21", 0 ]
				}

			}
, 			{
				"patchline" : 				{
					"destination" : [ "obj-25", 0 ],
					"disabled" : 0,
					"hidden" : 0,
					"source" : [ "obj-24", 0 ]
				}

			}
, 			{
				"patchline" : 				{
					"destination" : [ "obj-50", 0 ],
					"disabled" : 0,
					"hidden" : 0,
					"midpoints" : [ 499.5, 244.0, 103.083344, 244.0 ],
					"source" : [ "obj-25", 0 ]
				}

			}
, 			{
				"patchline" : 				{
					"destination" : [ "obj-127", 1 ],
					"disabled" : 0,
					"hidden" : 0,
					"source" : [ "obj-29", 0 ]
				}

			}
, 			{
				"patchline" : 				{
					"color" : [ 0.0, 0.0, 0.0, 0.1 ],
					"destination" : [ "obj-189", 7 ],
					"disabled" : 0,
					"hidden" : 0,
					"source" : [ "obj-29", 7 ]
				}

			}
, 			{
				"patchline" : 				{
					"color" : [ 0.0, 0.0, 0.0, 0.1 ],
					"destination" : [ "obj-189", 6 ],
					"disabled" : 0,
					"hidden" : 0,
					"source" : [ "obj-29", 6 ]
				}

			}
, 			{
				"patchline" : 				{
					"color" : [ 0.0, 0.0, 0.0, 0.1 ],
					"destination" : [ "obj-189", 5 ],
					"disabled" : 0,
					"hidden" : 0,
					"source" : [ "obj-29", 5 ]
				}

			}
, 			{
				"patchline" : 				{
					"color" : [ 0.0, 0.0, 0.0, 0.1 ],
					"destination" : [ "obj-189", 0 ],
					"disabled" : 0,
					"hidden" : 0,
					"source" : [ "obj-29", 4 ]
				}

			}
, 			{
				"patchline" : 				{
					"destination" : [ "obj-58", 1 ],
					"disabled" : 0,
					"hidden" : 0,
					"source" : [ "obj-29", 0 ]
				}

			}
, 			{
				"patchline" : 				{
					"color" : [ 0.0, 0.0, 0.0, 0.1 ],
					"destination" : [ "obj-67", 0 ],
					"disabled" : 0,
					"hidden" : 0,
					"source" : [ "obj-29", 2 ]
				}

			}
, 			{
				"patchline" : 				{
					"color" : [ 0.0, 0.0, 0.0, 0.1 ],
					"destination" : [ "obj-70", 0 ],
					"disabled" : 0,
					"hidden" : 0,
					"source" : [ "obj-29", 1 ]
				}

			}
, 			{
				"patchline" : 				{
					"color" : [ 0.0, 0.0, 0.0, 0.1 ],
					"destination" : [ "obj-72", 0 ],
					"disabled" : 0,
					"hidden" : 0,
					"source" : [ "obj-29", 3 ]
				}

			}
, 			{
				"patchline" : 				{
					"destination" : [ "obj-307", 0 ],
					"disabled" : 0,
					"hidden" : 0,
					"source" : [ "obj-306", 0 ]
				}

			}
, 			{
				"patchline" : 				{
					"destination" : [ "obj-284", 0 ],
					"disabled" : 0,
					"hidden" : 0,
					"source" : [ "obj-307", 0 ]
				}

			}
, 			{
				"patchline" : 				{
					"destination" : [ "obj-56", 0 ],
					"disabled" : 0,
					"hidden" : 0,
					"source" : [ "obj-31", 0 ]
				}

			}
, 			{
				"patchline" : 				{
					"destination" : [ "obj-10", 1 ],
					"disabled" : 0,
					"hidden" : 0,
					"source" : [ "obj-32", 0 ]
				}

			}
, 			{
				"patchline" : 				{
					"destination" : [ "obj-8", 1 ],
					"disabled" : 0,
					"hidden" : 0,
					"source" : [ "obj-32", 0 ]
				}

			}
, 			{
				"patchline" : 				{
					"destination" : [ "obj-20", 0 ],
					"disabled" : 0,
					"hidden" : 0,
					"source" : [ "obj-33", 0 ]
				}

			}
, 			{
				"patchline" : 				{
					"destination" : [ "obj-53", 0 ],
					"disabled" : 0,
					"hidden" : 0,
					"source" : [ "obj-34", 0 ]
				}

			}
, 			{
				"patchline" : 				{
					"destination" : [ "obj-11", 0 ],
					"disabled" : 0,
					"hidden" : 0,
					"source" : [ "obj-40", 0 ]
				}

			}
, 			{
				"patchline" : 				{
					"color" : [ 0.0, 0.0, 0.0, 0.1 ],
					"destination" : [ "obj-29", 0 ],
					"disabled" : 0,
					"hidden" : 0,
					"source" : [ "obj-42", 1 ]
				}

			}
, 			{
				"patchline" : 				{
					"destination" : [ "obj-21", 0 ],
					"disabled" : 0,
					"hidden" : 0,
					"source" : [ "obj-44", 0 ]
				}

			}
, 			{
				"patchline" : 				{
					"destination" : [ "obj-306", 0 ],
					"disabled" : 0,
					"hidden" : 0,
					"source" : [ "obj-45", 0 ]
				}

			}
, 			{
				"patchline" : 				{
					"destination" : [ "obj-54", 0 ],
					"disabled" : 0,
					"hidden" : 0,
					"source" : [ "obj-47", 0 ]
				}

			}
, 			{
				"patchline" : 				{
					"destination" : [ "obj-55", 0 ],
					"disabled" : 0,
					"hidden" : 0,
					"source" : [ "obj-48", 0 ]
				}

			}
, 			{
				"patchline" : 				{
					"destination" : [ "obj-52", 0 ],
					"disabled" : 0,
					"hidden" : 0,
					"source" : [ "obj-49", 0 ]
				}

			}
, 			{
				"patchline" : 				{
					"destination" : [ "obj-10", 0 ],
					"disabled" : 0,
					"hidden" : 0,
					"source" : [ "obj-5", 0 ]
				}

			}
, 			{
				"patchline" : 				{
					"destination" : [ "obj-8", 0 ],
					"disabled" : 0,
					"hidden" : 0,
					"source" : [ "obj-5", 0 ]
				}

			}
, 			{
				"patchline" : 				{
					"destination" : [ "obj-127", 0 ],
					"disabled" : 0,
					"hidden" : 0,
					"source" : [ "obj-50", 1 ]
				}

			}
, 			{
				"patchline" : 				{
					"destination" : [ "obj-58", 0 ],
					"disabled" : 0,
					"hidden" : 0,
					"source" : [ "obj-50", 0 ]
				}

			}
, 			{
				"patchline" : 				{
					"destination" : [ "obj-50", 0 ],
					"disabled" : 0,
					"hidden" : 0,
					"midpoints" : [ 179.5, 244.0, 103.083344, 244.0 ],
					"source" : [ "obj-52", 0 ]
				}

			}
, 			{
				"patchline" : 				{
					"destination" : [ "obj-50", 0 ],
					"disabled" : 0,
					"hidden" : 0,
					"midpoints" : [ 329.5, 244.0, 103.083344, 244.0 ],
					"source" : [ "obj-53", 0 ]
				}

			}
, 			{
				"patchline" : 				{
					"destination" : [ "obj-50", 0 ],
					"disabled" : 0,
					"hidden" : 0,
					"midpoints" : [ 249.5, 244.0, 103.083344, 244.0 ],
					"source" : [ "obj-54", 0 ]
				}

			}
, 			{
				"patchline" : 				{
					"destination" : [ "obj-50", 0 ],
					"disabled" : 0,
					"hidden" : 0,
					"midpoints" : [ 569.5, 244.0, 103.083344, 244.0 ],
					"source" : [ "obj-55", 0 ]
				}

			}
, 			{
				"patchline" : 				{
					"destination" : [ "obj-50", 0 ],
					"disabled" : 0,
					"hidden" : 0,
					"midpoints" : [ 419.5, 244.0, 103.083344, 244.0 ],
					"source" : [ "obj-56", 0 ]
				}

			}
, 			{
				"patchline" : 				{
					"destination" : [ "obj-10", 2 ],
					"disabled" : 0,
					"hidden" : 0,
					"source" : [ "obj-58", 0 ]
				}

			}
, 			{
				"patchline" : 				{
					"color" : [ 0.0, 0.0, 0.0, 0.05 ],
					"destination" : [ "obj-11", 1 ],
					"disabled" : 0,
					"hidden" : 0,
					"source" : [ "obj-6", 0 ]
				}

			}
, 			{
				"patchline" : 				{
					"color" : [ 0.0, 0.0, 0.0, 0.1 ],
					"destination" : [ "obj-29", 1 ],
					"disabled" : 0,
					"hidden" : 0,
					"source" : [ "obj-67", 0 ]
				}

			}
, 			{
				"patchline" : 				{
					"color" : [ 0.0, 0.0, 0.0, 0.05 ],
					"destination" : [ "obj-11", 2 ],
					"disabled" : 0,
					"hidden" : 0,
					"source" : [ "obj-7", 1 ]
				}

			}
, 			{
				"patchline" : 				{
					"color" : [ 0.0, 0.0, 0.0, 0.1 ],
					"destination" : [ "obj-29", 0 ],
					"disabled" : 0,
					"hidden" : 0,
					"source" : [ "obj-70", 0 ]
				}

			}
, 			{
				"patchline" : 				{
					"color" : [ 0.0, 0.0, 0.0, 0.1 ],
					"destination" : [ "obj-29", 2 ],
					"disabled" : 0,
					"hidden" : 0,
					"source" : [ "obj-72", 0 ]
				}

			}
, 			{
				"patchline" : 				{
					"destination" : [ "obj-80", 0 ],
					"disabled" : 0,
					"hidden" : 0,
					"source" : [ "obj-75", 0 ]
				}

			}
, 			{
				"patchline" : 				{
					"destination" : [ "obj-50", 1 ],
					"disabled" : 0,
					"hidden" : 0,
					"source" : [ "obj-8", 1 ]
				}

			}
, 			{
				"patchline" : 				{
					"destination" : [ "obj-50", 0 ],
					"disabled" : 0,
					"hidden" : 0,
					"source" : [ "obj-8", 0 ]
				}

			}
, 			{
				"patchline" : 				{
					"destination" : [ "obj-13", 0 ],
					"disabled" : 0,
					"hidden" : 0,
					"source" : [ "obj-80", 0 ]
				}

			}
, 			{
				"patchline" : 				{
					"color" : [ 0.0, 0.0, 0.0, 0.05 ],
					"destination" : [ "obj-11", 2 ],
					"disabled" : 0,
					"hidden" : 0,
					"source" : [ "obj-86", 1 ]
				}

			}
 ],
		"parameters" : 		{
			"obj-44" : [ "ExpThresh", "ExpThresh", 0 ],
			"obj-80" : [ "PRESET[2]", "PRESET", 0 ],
			"obj-14" : [ "Outgain[2]", "Outgain", 0 ],
			"obj-34" : [ "Lookahead", "Lookahead", 0 ],
			"obj-47" : [ "Release", "Release", 0 ],
			"obj-48" : [ "Makeup", "Makeup", 0 ],
			"obj-12" : [ "Dry/wet[2]", "Dry/wet", 0 ],
			"obj-24" : [ "CompRatio", "CompRatio", 0 ],
			"obj-67" : [ "FilterGain[2]", "FilterGain", 0 ],
			"obj-49" : [ "Attack", "Attack", 0 ],
			"obj-31" : [ "CompThresh", "CompThresh", 0 ],
			"obj-70" : [ "FilterFreq[2]", "FilterFreq", 0 ],
			"obj-33" : [ "ExpRatio", "ExpRatio", 0 ],
			"obj-72" : [ "FilterQ[2]", "FilterQ", 0 ],
			"obj-8" : [ "Ingain[2]", "Ingain", 0 ],
			"obj-42" : [ "FilterMode[2]", "FilterMode", 0 ]
		}
,
		"dependency_cache" : [ 			{
				"name" : "M4L.bal2~.maxpat",
				"bootpath" : "/Applications/Max.app/Contents/Resources/C74/patchers/m4l/Tools resources",
				"patcherrelativepath" : "../../../../../../../../Applications/Max.app/Contents/Resources/C74/patchers/m4l/Tools resources",
				"type" : "JSON",
				"implicit" : 1
			}
, 			{
				"name" : "tg.m.preset.maxpat",
				"bootpath" : "~/Documents/MAX-LIBRARY/TG.tools/_MODULES/CTRL",
				"patcherrelativepath" : "../../CTRL",
				"type" : "JSON",
				"implicit" : 1
			}
, 			{
				"name" : "tg.m.fgraph1.maxpat",
				"bootpath" : "~/Documents/MAX-LIBRARY/TG.tools/_MODULES/CTRL",
				"patcherrelativepath" : "../../CTRL",
				"type" : "JSON",
				"implicit" : 1
			}
, 			{
				"name" : "spat.compressor~.mxo",
				"type" : "iLaX"
			}
 ],
		"embedsnapshot" : 0
	}

}
