{
	"patcher" : 	{
		"fileversion" : 1,
		"appversion" : 		{
			"major" : 7,
			"minor" : 3,
			"revision" : 5,
			"architecture" : "x64",
			"modernui" : 1
		}
,
		"rect" : [ 502.0, 44.0, 337.0, 171.0 ],
		"bgcolor" : [ 1.0, 1.0, 1.0, 0.0 ],
		"bglocked" : 0,
		"openinpresentation" : 1,
		"default_fontsize" : 10.0,
		"default_fontface" : 0,
		"default_fontname" : "Arial Bold",
		"gridonopen" : 1,
		"gridsize" : [ 15.0, 15.0 ],
		"gridsnaponopen" : 1,
		"objectsnaponopen" : 1,
		"statusbarvisible" : 1,
		"toolbarvisible" : 0,
		"lefttoolbarpinned" : 0,
		"toptoolbarpinned" : 0,
		"righttoolbarpinned" : 0,
		"bottomtoolbarpinned" : 0,
		"toolbars_unpinned_last_save" : 0,
		"tallnewobj" : 0,
		"boxanimatetime" : 200,
		"enablehscroll" : 1,
		"enablevscroll" : 1,
		"devicewidth" : 0.0,
		"description" : "",
		"digest" : "",
		"tags" : "",
		"style" : "",
		"subpatcher_template" : "",
		"title" : "1sncp",
		"boxes" : [ 			{
				"box" : 				{
					"annotation" : "Attack",
					"focusbordercolor" : [ 0.0, 0.019608, 0.078431, 0.0 ],
					"id" : "obj-8",
					"maxclass" : "live.dial",
					"numinlets" : 1,
					"numoutlets" : 2,
					"outlettype" : [ "", "float" ],
					"parameter_enable" : 1,
					"patching_rect" : [ 225.0, 53.0, 70.0, 47.0 ],
					"presentation" : 1,
					"presentation_rect" : [ 4.0, 52.0, 44.0, 47.0 ],
					"saved_attribute_attributes" : 					{
						"valueof" : 						{
							"parameter_mmax" : 700.0,
							"parameter_shortname" : "Attack",
							"parameter_unitstyle" : 2,
							"parameter_type" : 0,
							"parameter_initial_enable" : 1,
							"parameter_mmin" : 0.03,
							"parameter_longname" : "Attack",
							"parameter_initial" : [ 0.03 ]
						}

					}
,
					"varname" : "Attack"
				}

			}
, 			{
				"box" : 				{
					"bgcolor" : [ 0.666667, 0.698039, 0.717647, 0.0 ],
					"fontname" : "Arial Bold",
					"fontsize" : 10.0,
					"htricolor" : [ 0.87, 0.82, 0.24, 1.0 ],
					"id" : "obj-41",
					"ignoreclick" : 1,
					"maxclass" : "number",
					"numinlets" : 1,
					"numoutlets" : 2,
					"outlettype" : [ "", "bang" ],
					"parameter_enable" : 0,
					"patching_rect" : [ 34.0, 345.0, 41.0, 20.0 ],
					"presentation" : 1,
					"presentation_rect" : [ 133.0, 146.0, 28.0, 20.0 ],
					"style" : "",
					"textcolor" : [ 0.301961, 0.337255, 0.403922, 1.0 ],
					"triangle" : 0,
					"tricolor" : [ 0.921569, 0.94902, 0.05098, 1.0 ],
					"triscale" : 0.75
				}

			}
, 			{
				"box" : 				{
					"bgcolor" : [ 0.666667, 0.698039, 0.717647, 0.0 ],
					"fontname" : "Arial Bold",
					"fontsize" : 10.0,
					"htricolor" : [ 0.87, 0.82, 0.24, 1.0 ],
					"id" : "obj-26",
					"ignoreclick" : 1,
					"maxclass" : "number",
					"numinlets" : 1,
					"numoutlets" : 2,
					"outlettype" : [ "", "bang" ],
					"parameter_enable" : 0,
					"patching_rect" : [ 33.0, 181.0, 41.0, 20.0 ],
					"presentation" : 1,
					"presentation_rect" : [ 103.0, 146.0, 28.0, 20.0 ],
					"style" : "",
					"textcolor" : [ 0.301961, 0.337255, 0.403922, 1.0 ],
					"triangle" : 0,
					"tricolor" : [ 0.921569, 0.94902, 0.05098, 1.0 ],
					"triscale" : 0.75
				}

			}
, 			{
				"box" : 				{
					"id" : "obj-28",
					"maxclass" : "live.meter~",
					"numinlets" : 1,
					"numoutlets" : 1,
					"outlettype" : [ "list" ],
					"patching_rect" : [ 33.0, 271.0, 25.0, 72.0 ],
					"presentation" : 1,
					"presentation_rect" : [ 136.0, 15.500008, 21.0, 131.0 ]
				}

			}
, 			{
				"box" : 				{
					"id" : "obj-29",
					"maxclass" : "live.meter~",
					"numinlets" : 1,
					"numoutlets" : 1,
					"outlettype" : [ "list" ],
					"patching_rect" : [ 33.0, 103.0, 25.0, 72.0 ],
					"presentation" : 1,
					"presentation_rect" : [ 106.0, 15.500008, 21.0, 131.0 ]
				}

			}
, 			{
				"box" : 				{
					"id" : "obj-42",
					"maxclass" : "newobj",
					"numinlets" : 2,
					"numoutlets" : 1,
					"outlettype" : [ "signal" ],
					"patcher" : 					{
						"fileversion" : 1,
						"appversion" : 						{
							"major" : 7,
							"minor" : 3,
							"revision" : 5,
							"architecture" : "x64",
							"modernui" : 1
						}
,
						"rect" : [ 59.0, 103.0, 640.0, 480.0 ],
						"bglocked" : 0,
						"openinpresentation" : 0,
						"default_fontsize" : 12.0,
						"default_fontface" : 0,
						"default_fontname" : "Arial",
						"gridonopen" : 1,
						"gridsize" : [ 15.0, 15.0 ],
						"gridsnaponopen" : 1,
						"objectsnaponopen" : 1,
						"statusbarvisible" : 2,
						"toolbarvisible" : 1,
						"lefttoolbarpinned" : 0,
						"toptoolbarpinned" : 0,
						"righttoolbarpinned" : 0,
						"bottomtoolbarpinned" : 0,
						"toolbars_unpinned_last_save" : 0,
						"tallnewobj" : 0,
						"boxanimatetime" : 200,
						"enablehscroll" : 1,
						"enablevscroll" : 1,
						"devicewidth" : 0.0,
						"description" : "",
						"digest" : "",
						"tags" : "",
						"style" : "",
						"subpatcher_template" : "",
						"boxes" : [ 							{
								"box" : 								{
									"id" : "obj-33",
									"maxclass" : "newobj",
									"numinlets" : 2,
									"numoutlets" : 2,
									"outlettype" : [ "signal", "bang" ],
									"patching_rect" : [ 129.0, 132.0, 44.0, 22.0 ],
									"style" : "",
									"text" : "line~"
								}

							}
, 							{
								"box" : 								{
									"id" : "obj-32",
									"maxclass" : "message",
									"numinlets" : 2,
									"numoutlets" : 1,
									"outlettype" : [ "" ],
									"patching_rect" : [ 129.0, 106.0, 50.0, 22.0 ],
									"style" : "",
									"text" : "$1 50"
								}

							}
, 							{
								"box" : 								{
									"id" : "obj-30",
									"maxclass" : "newobj",
									"numinlets" : 1,
									"numoutlets" : 1,
									"outlettype" : [ "" ],
									"patching_rect" : [ 129.0, 82.0, 40.0, 22.0 ],
									"style" : "",
									"text" : "dbtoa"
								}

							}
, 							{
								"box" : 								{
									"id" : "obj-28",
									"maxclass" : "newobj",
									"numinlets" : 2,
									"numoutlets" : 1,
									"outlettype" : [ "signal" ],
									"patching_rect" : [ 50.0, 172.0, 31.5, 22.0 ],
									"style" : "",
									"text" : "*~"
								}

							}
, 							{
								"box" : 								{
									"comment" : "",
									"id" : "obj-35",
									"index" : 1,
									"maxclass" : "inlet",
									"numinlets" : 0,
									"numoutlets" : 1,
									"outlettype" : [ "signal" ],
									"patching_rect" : [ 50.0, 40.0, 30.0, 30.0 ],
									"style" : ""
								}

							}
, 							{
								"box" : 								{
									"comment" : "",
									"id" : "obj-37",
									"index" : 2,
									"maxclass" : "inlet",
									"numinlets" : 0,
									"numoutlets" : 1,
									"outlettype" : [ "" ],
									"patching_rect" : [ 129.0, 40.0, 30.0, 30.0 ],
									"style" : ""
								}

							}
, 							{
								"box" : 								{
									"comment" : "",
									"id" : "obj-38",
									"index" : 1,
									"maxclass" : "outlet",
									"numinlets" : 1,
									"numoutlets" : 0,
									"patching_rect" : [ 50.0, 252.0, 30.0, 30.0 ],
									"style" : ""
								}

							}
 ],
						"lines" : [ 							{
								"patchline" : 								{
									"destination" : [ "obj-38", 0 ],
									"source" : [ "obj-28", 0 ]
								}

							}
, 							{
								"patchline" : 								{
									"destination" : [ "obj-32", 0 ],
									"source" : [ "obj-30", 0 ]
								}

							}
, 							{
								"patchline" : 								{
									"destination" : [ "obj-33", 0 ],
									"source" : [ "obj-32", 0 ]
								}

							}
, 							{
								"patchline" : 								{
									"destination" : [ "obj-28", 1 ],
									"source" : [ "obj-33", 0 ]
								}

							}
, 							{
								"patchline" : 								{
									"destination" : [ "obj-28", 0 ],
									"source" : [ "obj-35", 0 ]
								}

							}
, 							{
								"patchline" : 								{
									"destination" : [ "obj-30", 0 ],
									"source" : [ "obj-37", 0 ]
								}

							}
 ]
					}
,
					"patching_rect" : [ 94.5, 116.0, 87.0, 20.0 ],
					"saved_object_attributes" : 					{
						"description" : "",
						"digest" : "",
						"globalpatchername" : "",
						"style" : "",
						"tags" : ""
					}
,
					"style" : "",
					"text" : "p gain"
				}

			}
, 			{
				"box" : 				{
					"annotation" : "Ingain",
					"id" : "obj-34",
					"maxclass" : "live.dial",
					"numinlets" : 1,
					"numoutlets" : 2,
					"outlettype" : [ "", "float" ],
					"parameter_enable" : 1,
					"patching_rect" : [ 162.5, 53.0, 44.0, 47.0 ],
					"presentation" : 1,
					"presentation_rect" : [ 4.0, 3.499999, 44.0, 47.0 ],
					"saved_attribute_attributes" : 					{
						"valueof" : 						{
							"parameter_mmax" : 30.0,
							"parameter_shortname" : "Ingain",
							"parameter_unitstyle" : 4,
							"parameter_type" : 0,
							"parameter_initial_enable" : 1,
							"parameter_mmin" : -70.0,
							"parameter_longname" : "Ingain",
							"parameter_initial" : [ 0.0 ]
						}

					}
,
					"varname" : "Ingain"
				}

			}
, 			{
				"box" : 				{
					"annotation" : "HighEngine",
					"automation" : "Off",
					"automationon" : "On",
					"id" : "obj-21",
					"maxclass" : "live.text",
					"numinlets" : 1,
					"numoutlets" : 2,
					"outlettype" : [ "", "" ],
					"parameter_enable" : 1,
					"patching_rect" : [ 700.25, 81.0, 67.0, 15.0 ],
					"presentation" : 1,
					"presentation_rect" : [ 9.5, 153.192764, 72.0, 15.0 ],
					"prototypename" : "onoff",
					"saved_attribute_attributes" : 					{
						"valueof" : 						{
							"parameter_mmax" : 1.0,
							"parameter_shortname" : "HighEngine",
							"parameter_unitstyle" : 1,
							"parameter_enum" : [ "Off", "On" ],
							"parameter_type" : 0,
							"parameter_initial_enable" : 1,
							"parameter_longname" : "HighEngine",
							"parameter_initial" : [ 1.0 ]
						}

					}
,
					"text" : "HighEngine",
					"texton" : "HighEngine",
					"varname" : "HighEngine"
				}

			}
, 			{
				"box" : 				{
					"fontname" : "Arial",
					"fontsize" : 11.0,
					"id" : "obj-19",
					"maxclass" : "message",
					"numinlets" : 2,
					"numoutlets" : 1,
					"outlettype" : [ "" ],
					"patching_rect" : [ 700.25, 103.0, 67.0, 21.0 ],
					"style" : "",
					"text" : "engine $1"
				}

			}
, 			{
				"box" : 				{
					"fontname" : "Arial",
					"fontsize" : 9.0,
					"id" : "obj-1",
					"maxclass" : "newobj",
					"numinlets" : 2,
					"numoutlets" : 1,
					"outlettype" : [ "signal" ],
					"patching_rect" : [ 94.5, 262.0, 88.0, 19.0 ],
					"style" : "",
					"text" : "sn.comp~ ---comp"
				}

			}
, 			{
				"box" : 				{
					"annotation" : "Gain",
					"focusbordercolor" : [ 0.0, 0.019608, 0.078431, 0.0 ],
					"id" : "obj-20",
					"maxclass" : "live.dial",
					"numinlets" : 1,
					"numoutlets" : 2,
					"outlettype" : [ "", "float" ],
					"parameter_enable" : 1,
					"patching_rect" : [ 594.25, 53.0, 70.0, 47.0 ],
					"presentation" : 1,
					"presentation_rect" : [ 38.0, 102.500008, 70.0, 47.0 ],
					"saved_attribute_attributes" : 					{
						"valueof" : 						{
							"parameter_mmax" : 40.0,
							"parameter_shortname" : "Gain",
							"parameter_unitstyle" : 4,
							"parameter_type" : 0,
							"parameter_initial_enable" : 1,
							"parameter_mmin" : -40.0,
							"parameter_longname" : "Gain",
							"parameter_initial" : [ 0.0 ]
						}

					}
,
					"varname" : "Gain"
				}

			}
, 			{
				"box" : 				{
					"annotation" : "Threshold",
					"focusbordercolor" : [ 0.0, 0.019608, 0.078431, 0.0 ],
					"id" : "obj-48",
					"maxclass" : "live.dial",
					"numinlets" : 1,
					"numoutlets" : 2,
					"outlettype" : [ "", "float" ],
					"parameter_enable" : 1,
					"patching_rect" : [ 512.25, 53.0, 70.0, 47.0 ],
					"presentation" : 1,
					"presentation_rect" : [ 38.0, 52.0, 70.0, 47.0 ],
					"saved_attribute_attributes" : 					{
						"valueof" : 						{
							"parameter_mmax" : 0.0,
							"parameter_shortname" : "Threshold",
							"parameter_unitstyle" : 4,
							"parameter_type" : 0,
							"parameter_initial_enable" : 1,
							"parameter_mmin" : -60.0,
							"parameter_longname" : "Threshold",
							"parameter_initial" : [ -20.0 ]
						}

					}
,
					"varname" : "Threshold"
				}

			}
, 			{
				"box" : 				{
					"fontname" : "Arial",
					"fontsize" : 11.0,
					"id" : "obj-55",
					"maxclass" : "message",
					"numinlets" : 2,
					"numoutlets" : 1,
					"outlettype" : [ "" ],
					"patching_rect" : [ 512.25, 103.0, 71.0, 21.0 ],
					"style" : "",
					"text" : "threshold $1"
				}

			}
, 			{
				"box" : 				{
					"fontname" : "Arial",
					"fontsize" : 11.0,
					"id" : "obj-18",
					"maxclass" : "message",
					"numinlets" : 2,
					"numoutlets" : 1,
					"outlettype" : [ "" ],
					"patching_rect" : [ 594.25, 103.0, 67.0, 21.0 ],
					"style" : "",
					"text" : "postgain $1"
				}

			}
, 			{
				"box" : 				{
					"annotation" : "Ratio",
					"focusbordercolor" : [ 0.0, 0.019608, 0.078431, 0.0 ],
					"id" : "obj-10",
					"maxclass" : "live.dial",
					"numinlets" : 1,
					"numoutlets" : 2,
					"outlettype" : [ "", "float" ],
					"parameter_enable" : 1,
					"patching_rect" : [ 432.535706, 53.0, 70.0, 47.0 ],
					"presentation" : 1,
					"presentation_rect" : [ 43.5, 3.499999, 59.0, 47.0 ],
					"saved_attribute_attributes" : 					{
						"valueof" : 						{
							"parameter_mmax" : 1000.0,
							"parameter_shortname" : "Ratio",
							"parameter_unitstyle" : 9,
							"parameter_units" : ":1",
							"parameter_type" : 0,
							"parameter_exponent" : 3.0,
							"parameter_initial_enable" : 1,
							"parameter_mmin" : 1.0,
							"parameter_longname" : "Ratio",
							"parameter_initial" : [ 1.7 ]
						}

					}
,
					"varname" : "Ratio"
				}

			}
, 			{
				"box" : 				{
					"annotation" : "Release",
					"focusbordercolor" : [ 0.0, 0.019608, 0.078431, 0.0 ],
					"id" : "obj-2",
					"maxclass" : "live.dial",
					"numinlets" : 1,
					"numoutlets" : 2,
					"outlettype" : [ "", "float" ],
					"parameter_enable" : 1,
					"patching_rect" : [ 322.0, 53.0, 70.0, 47.0 ],
					"presentation" : 1,
					"presentation_rect" : [ 4.0, 102.500008, 44.0, 47.0 ],
					"saved_attribute_attributes" : 					{
						"valueof" : 						{
							"parameter_mmax" : 1200.0,
							"parameter_shortname" : "Release",
							"parameter_unitstyle" : 2,
							"parameter_type" : 0,
							"parameter_initial_enable" : 1,
							"parameter_mmin" : 100.0,
							"parameter_longname" : "Release",
							"parameter_initial" : [ 160.0 ]
						}

					}
,
					"varname" : "Release"
				}

			}
, 			{
				"box" : 				{
					"fontname" : "Arial",
					"fontsize" : 11.0,
					"id" : "obj-22",
					"maxclass" : "newobj",
					"numinlets" : 1,
					"numoutlets" : 1,
					"outlettype" : [ "" ],
					"patching_rect" : [ 322.0, 163.0, 29.0, 21.0 ],
					"style" : "",
					"text" : "t l"
				}

			}
, 			{
				"box" : 				{
					"fontname" : "Arial",
					"fontsize" : 11.0,
					"id" : "obj-23",
					"maxclass" : "message",
					"numinlets" : 2,
					"numoutlets" : 1,
					"outlettype" : [ "" ],
					"patching_rect" : [ 225.0, 103.0, 85.0, 21.0 ],
					"style" : "",
					"text" : "attack_Time $1"
				}

			}
, 			{
				"box" : 				{
					"fontname" : "Arial",
					"fontsize" : 11.0,
					"id" : "obj-24",
					"maxclass" : "message",
					"numinlets" : 2,
					"numoutlets" : 1,
					"outlettype" : [ "" ],
					"patching_rect" : [ 432.535706, 103.0, 47.0, 21.0 ],
					"style" : "",
					"text" : "ratio $1"
				}

			}
, 			{
				"box" : 				{
					"fontname" : "Arial",
					"fontsize" : 11.0,
					"id" : "obj-25",
					"maxclass" : "message",
					"numinlets" : 2,
					"numoutlets" : 1,
					"outlettype" : [ "" ],
					"patching_rect" : [ 322.0, 103.0, 92.0, 21.0 ],
					"style" : "",
					"text" : "release_Time $1"
				}

			}
, 			{
				"box" : 				{
					"fontname" : "Arial",
					"fontsize" : 9.0,
					"id" : "obj-74",
					"linecount" : 2,
					"maxclass" : "comment",
					"numinlets" : 1,
					"numoutlets" : 0,
					"patching_rect" : [ 495.25, 376.667236, 51.0, 27.0 ],
					"style" : "",
					"text" : "PRESET for Live"
				}

			}
, 			{
				"box" : 				{
					"fontname" : "Arial Bold",
					"fontsize" : 10.0,
					"id" : "obj-75",
					"maxclass" : "message",
					"numinlets" : 2,
					"numoutlets" : 1,
					"outlettype" : [ "" ],
					"patching_rect" : [ 462.75, 359.167236, 39.0, 20.0 ],
					"style" : "",
					"text" : "set $1"
				}

			}
, 			{
				"box" : 				{
					"id" : "obj-80",
					"maxclass" : "live.numbox",
					"numinlets" : 1,
					"numoutlets" : 2,
					"outlettype" : [ "", "float" ],
					"parameter_enable" : 1,
					"patching_rect" : [ 462.75, 383.667236, 36.0, 15.0 ],
					"saved_attribute_attributes" : 					{
						"valueof" : 						{
							"parameter_shortname" : "PRESET",
							"parameter_unitstyle" : 0,
							"parameter_type" : 1,
							"parameter_steps" : 1,
							"parameter_longname" : "PRESET"
						}

					}
,
					"varname" : "PRESET"
				}

			}
, 			{
				"box" : 				{
					"fontname" : "Arial Bold",
					"fontsize" : 10.0,
					"id" : "obj-17",
					"maxclass" : "newobj",
					"numinlets" : 1,
					"numoutlets" : 2,
					"outlettype" : [ "", "" ],
					"patching_rect" : [ 455.916687, 478.667236, 64.0, 20.0 ],
					"save" : [ "#N", "thispatcher", ";", "#Q", "end", ";" ],
					"style" : "",
					"text" : "thispatcher"
				}

			}
, 			{
				"box" : 				{
					"fontname" : "Arial Bold",
					"fontsize" : 10.0,
					"id" : "obj-118",
					"maxclass" : "message",
					"numinlets" : 2,
					"numoutlets" : 1,
					"outlettype" : [ "" ],
					"patching_rect" : [ 447.916687, 422.667236, 50.0, 20.0 ],
					"style" : "",
					"text" : "refresh"
				}

			}
, 			{
				"box" : 				{
					"fontname" : "Arial Bold",
					"fontsize" : 18.0,
					"id" : "obj-87",
					"maxclass" : "comment",
					"numinlets" : 1,
					"numoutlets" : 0,
					"patching_rect" : [ 343.25, 275.667236, 95.0, 27.0 ],
					"presentation" : 1,
					"presentation_rect" : [ 238.5, 4.0, 95.0, 27.0 ],
					"style" : "",
					"text" : "1sncp"
				}

			}
, 			{
				"box" : 				{
					"allowdrag" : 0,
					"bgcolor" : [ 1.0, 1.0, 1.0, 1.0 ],
					"bgfillcolor_angle" : 270.0,
					"bgfillcolor_color" : [ 1.0, 1.0, 1.0, 1.0 ],
					"bgfillcolor_color1" : [ 0.376471, 0.384314, 0.4, 1.0 ],
					"bgfillcolor_color2" : [ 0.290196, 0.309804, 0.301961, 1.0 ],
					"bgfillcolor_proportion" : 0.39,
					"bgfillcolor_type" : "color",
					"fontsize" : 12.0,
					"id" : "obj-86",
					"items" : [ "()", ",", "<separator>", ",", "(Presets)", ",", "init", ",", "dump", ",", "store", ",", "<separator>", ",", "(Storage)", ",", "client", ",", "storage", ",", "<separator>", ",", "(Bank)", ",", "renum", ",", "clear", ",", "load", ",", "save", ",", "export", ",", "<separator>", ",", "(Recall)", ",", "(undefined)" ],
					"maxclass" : "umenu",
					"numinlets" : 1,
					"numoutlets" : 3,
					"outlettype" : [ "int", "", "" ],
					"parameter_enable" : 0,
					"patching_rect" : [ 343.25, 279.167236, 94.400002, 22.0 ],
					"presentation" : 1,
					"presentation_rect" : [ 238.5, 6.5, 94.400002, 22.0 ],
					"style" : "",
					"textcolor" : [ 0.0, 0.0, 0.0, 1.0 ]
				}

			}
, 			{
				"box" : 				{
					"fontname" : "Arial Bold",
					"fontsize" : 10.0,
					"id" : "obj-3",
					"maxclass" : "comment",
					"numinlets" : 1,
					"numoutlets" : 0,
					"patching_rect" : [ 340.25, 255.167236, 47.0, 18.0 ],
					"style" : "",
					"text" : "Presets",
					"textcolor" : [ 0.3, 0.34, 0.4, 1.0 ]
				}

			}
, 			{
				"box" : 				{
					"fontname" : "Arial",
					"fontsize" : 10.0,
					"id" : "obj-4",
					"maxclass" : "comment",
					"numinlets" : 1,
					"numoutlets" : 0,
					"patching_rect" : [ 342.25, 408.167236, 40.0, 18.0 ],
					"presentation" : 1,
					"presentation_rect" : [ 237.5, 135.5, 40.0, 18.0 ],
					"style" : "",
					"text" : "Name:"
				}

			}
, 			{
				"box" : 				{
					"bgcolor" : [ 0.094118, 0.113725, 0.137255, 1.0 ],
					"border" : 0.0,
					"bordercolor" : [ 0.501961, 0.501961, 0.501961, 0.0 ],
					"fontface" : 1,
					"fontname" : "Arial",
					"fontsize" : 10.0,
					"id" : "obj-6",
					"keymode" : 1,
					"maxclass" : "textedit",
					"numinlets" : 1,
					"numoutlets" : 4,
					"outlettype" : [ "", "int", "", "" ],
					"parameter_enable" : 0,
					"patching_rect" : [ 343.25, 424.167236, 95.0, 16.0 ],
					"presentation" : 1,
					"presentation_rect" : [ 238.5, 151.5, 95.0, 16.0 ],
					"prototypename" : "M4L.black",
					"rounded" : 12.0,
					"style" : "",
					"textcolor" : [ 0.909804, 0.909804, 0.909804, 1.0 ]
				}

			}
, 			{
				"box" : 				{
					"annotation" : "Renumber and clear presets, import/export banks of presets as text files.",
					"button" : 1,
					"hint" : "Renumber and clear presets, import/export banks of presets as text files.",
					"id" : "obj-7",
					"margin" : 2,
					"maxclass" : "tab",
					"numinlets" : 1,
					"numoutlets" : 3,
					"outlettype" : [ "int", "", "" ],
					"parameter_enable" : 0,
					"patching_rect" : [ 342.25, 303.667236, 96.0, 31.614456 ],
					"presentation" : 1,
					"presentation_rect" : [ 237.5, 31.0, 96.0, 31.614456 ],
					"prototypename" : "M4L.numbers",
					"rounded" : 6.0,
					"spacing_x" : 3.0,
					"style" : "",
					"tabs" : [ "save", "client", "dump", "init" ]
				}

			}
, 			{
				"box" : 				{
					"fontname" : "Arial Bold",
					"fontsize" : 10.0,
					"id" : "obj-11",
					"maxclass" : "newobj",
					"numinlets" : 7,
					"numoutlets" : 8,
					"outlettype" : [ "", "", "", "", "", "", "", "" ],
					"patching_rect" : [ 340.25, 452.667236, 126.666687, 20.0 ],
					"style" : "",
					"text" : "tg.m.preset #1"
				}

			}
, 			{
				"box" : 				{
					"active1" : [ 0.984314, 0.819608, 0.05098, 1.0 ],
					"annotation" : "Shift-click in a circle to store, click on circle to recall. Option-shift-click to remove.",
					"bgcolor" : [ 0.666667, 0.698039, 0.717647, 0.0 ],
					"emptycolor" : [ 0.301961, 0.337255, 0.403922, 1.0 ],
					"fontsize" : 12.0,
					"hint" : "Shift-click in a circle to store, click on circle to recall. Option-shift-click to remove.",
					"id" : "obj-13",
					"maxclass" : "preset",
					"numinlets" : 1,
					"numoutlets" : 4,
					"outlettype" : [ "preset", "int", "preset", "int" ],
					"patching_rect" : [ 345.25, 339.667236, 92.5, 69.0 ],
					"pattrstorage" : "SnCompPreset",
					"presentation" : 1,
					"presentation_rect" : [ 242.5, 70.0, 92.5, 69.0 ],
					"prototypename" : "M4L.H",
					"stored1" : [ 0.494118, 0.556863, 0.607843, 1.0 ],
					"style" : "",
					"textcolor" : [ 1.0, 1.0, 1.0, 1.0 ],
					"varname" : "Preset[1]"
				}

			}
, 			{
				"box" : 				{
					"angle" : 0.0,
					"bgcolor" : [ 0.094118, 0.113725, 0.137255, 1.0 ],
					"bordercolor" : [ 0.494118, 0.556863, 0.607843, 1.0 ],
					"hint" : "",
					"id" : "obj-15",
					"maxclass" : "panel",
					"mode" : 0,
					"numinlets" : 1,
					"numoutlets" : 0,
					"patching_rect" : [ 343.25, 339.667236, 95.0, 69.072281 ],
					"presentation" : 1,
					"presentation_rect" : [ 238.5, 67.0, 95.0, 69.072281 ],
					"proportion" : 0.39,
					"prototypename" : "M4L.horizontal-black",
					"rounded" : 16,
					"style" : ""
				}

			}
, 			{
				"box" : 				{
					"angle" : 0.0,
					"bgcolor" : [ 0.666667, 0.698039, 0.717647, 1.0 ],
					"bordercolor" : [ 0.094118, 0.113725, 0.137255, 1.0 ],
					"id" : "obj-16",
					"maxclass" : "panel",
					"mode" : 0,
					"numinlets" : 1,
					"numoutlets" : 0,
					"patching_rect" : [ 340.25, 273.167236, 101.0, 170.0 ],
					"presentation" : 1,
					"presentation_rect" : [ 235.5, 0.499999, 101.0, 170.0 ],
					"proportion" : 0.39,
					"prototypename" : "M4L.horizontal-black",
					"style" : ""
				}

			}
, 			{
				"box" : 				{
					"id" : "obj-45",
					"maxclass" : "button",
					"numinlets" : 1,
					"numoutlets" : 1,
					"outlettype" : [ "bang" ],
					"patching_rect" : [ 432.535706, 478.667236, 20.0, 20.0 ],
					"style" : ""
				}

			}
, 			{
				"box" : 				{
					"fontname" : "Arial Bold",
					"fontsize" : 10.0,
					"id" : "obj-307",
					"maxclass" : "message",
					"numinlets" : 2,
					"numoutlets" : 1,
					"outlettype" : [ "" ],
					"patching_rect" : [ 534.25, 532.667236, 39.0, 20.0 ],
					"style" : "",
					"text" : "$1 init"
				}

			}
, 			{
				"box" : 				{
					"fontname" : "Arial Bold",
					"fontsize" : 10.0,
					"id" : "obj-306",
					"linecount" : 6,
					"maxclass" : "message",
					"numinlets" : 2,
					"numoutlets" : 1,
					"outlettype" : [ "" ],
					"patching_rect" : [ 534.25, 452.667236, 72.0, 76.0 ],
					"style" : "",
					"text" : "live.dial, live.menu, live.text, live.numbox, live.gain~, live.tab, pattr"
				}

			}
, 			{
				"box" : 				{
					"fontname" : "Arial Bold",
					"fontsize" : 10.0,
					"id" : "obj-284",
					"maxclass" : "newobj",
					"numinlets" : 1,
					"numoutlets" : 0,
					"patching_rect" : [ 534.25, 556.667236, 54.0, 20.0 ],
					"style" : "",
					"text" : "universal"
				}

			}
, 			{
				"box" : 				{
					"color" : [ 0.239216, 0.643137, 0.709804, 1.0 ],
					"fontname" : "Arial Bold",
					"fontsize" : 10.0,
					"id" : "obj-40",
					"linecount" : 2,
					"maxclass" : "newobj",
					"numinlets" : 1,
					"numoutlets" : 1,
					"outlettype" : [ "" ],
					"patching_rect" : [ 340.25, 545.667236, 157.666687, 31.0 ],
					"saved_object_attributes" : 					{
						"client_rect" : [ 100, 100, 601, 600 ],
						"parameter_enable" : 0,
						"storage_rect" : [ 70, 44, 1270, 1127 ]
					}
,
					"style" : "",
					"text" : "pattrstorage SnCompPreset @savemode 2 @autowatch 1",
					"varname" : "SnCompPreset"
				}

			}
, 			{
				"box" : 				{
					"fontname" : "Arial Bold",
					"fontsize" : 10.0,
					"id" : "obj-139",
					"maxclass" : "newobj",
					"numinlets" : 2,
					"numoutlets" : 2,
					"outlettype" : [ "", "" ],
					"patching_rect" : [ 543.25, 383.667236, 75.0, 20.0 ],
					"style" : "",
					"text" : "route restore"
				}

			}
, 			{
				"box" : 				{
					"fontname" : "Arial",
					"fontsize" : 10.0,
					"id" : "obj-140",
					"linecount" : 2,
					"maxclass" : "comment",
					"numinlets" : 1,
					"numoutlets" : 0,
					"patching_rect" : [ 567.25, 350.667236, 48.0, 29.0 ],
					"style" : "",
					"text" : "Pattr storage"
				}

			}
, 			{
				"box" : 				{
					"fontname" : "Arial Bold",
					"fontsize" : 10.0,
					"id" : "obj-141",
					"linecount" : 2,
					"maxclass" : "comment",
					"numinlets" : 1,
					"numoutlets" : 0,
					"patching_rect" : [ 495.25, 271.667236, 72.0, 29.0 ],
					"style" : "",
					"text" : "Messages to parameters"
				}

			}
, 			{
				"box" : 				{
					"comment" : "Parameters values, getattributes, getstate",
					"id" : "obj-142",
					"index" : 2,
					"maxclass" : "inlet",
					"numinlets" : 0,
					"numoutlets" : 1,
					"outlettype" : [ "" ],
					"patching_rect" : [ 471.25, 271.667236, 17.0, 17.0 ],
					"style" : ""
				}

			}
, 			{
				"box" : 				{
					"color" : [ 0.239216, 0.643137, 0.709804, 1.0 ],
					"fontname" : "Arial Bold",
					"fontsize" : 10.0,
					"id" : "obj-143",
					"linecount" : 2,
					"maxclass" : "newobj",
					"numinlets" : 1,
					"numoutlets" : 4,
					"outlettype" : [ "", "", "", "" ],
					"patching_rect" : [ 471.25, 303.667236, 91.0, 31.0 ],
					"restore" : 					{
						"Attack" : [ 0.03 ],
						"Gain" : [ 0.0 ],
						"HighEngine" : [ 1.0 ],
						"Ingain" : [ 30.0 ],
						"Outgain" : [ 0.0 ],
						"Ratio" : [ 1000.0 ],
						"Release" : [ 160.0 ],
						"Threshold" : [ 0.0 ]
					}
,
					"style" : "",
					"text" : "autopattr @autorestore 0",
					"varname" : "u664001754"
				}

			}
, 			{
				"box" : 				{
					"fontname" : "Arial Bold",
					"fontsize" : 10.0,
					"id" : "obj-144",
					"maxclass" : "comment",
					"numinlets" : 1,
					"numoutlets" : 0,
					"patching_rect" : [ 543.25, 414.667236, 54.0, 18.0 ],
					"style" : "",
					"text" : "Dumpout"
				}

			}
, 			{
				"box" : 				{
					"comment" : "Dumpout",
					"id" : "obj-145",
					"index" : 3,
					"maxclass" : "outlet",
					"numinlets" : 1,
					"numoutlets" : 0,
					"patching_rect" : [ 599.25, 414.667236, 18.0, 18.0 ],
					"style" : ""
				}

			}
, 			{
				"box" : 				{
					"id" : "obj-107",
					"maxclass" : "live.line",
					"numinlets" : 1,
					"numoutlets" : 0,
					"patching_rect" : [ 176.75, 386.667236, 5.0, 100.0 ],
					"presentation" : 1,
					"presentation_rect" : [ 230.0, 7.0, 8.0, 160.0 ]
				}

			}
, 			{
				"box" : 				{
					"id" : "obj-104",
					"maxclass" : "live.line",
					"numinlets" : 1,
					"numoutlets" : 0,
					"patching_rect" : [ 184.0, 386.667236, 5.0, 100.0 ],
					"presentation" : 1,
					"presentation_rect" : [ 171.0, 7.0, 8.0, 160.0 ]
				}

			}
, 			{
				"box" : 				{
					"comment" : "",
					"id" : "obj-36",
					"index" : 2,
					"maxclass" : "outlet",
					"numinlets" : 1,
					"numoutlets" : 0,
					"patching_rect" : [ 123.249992, 505.167236, 25.0, 25.0 ],
					"style" : ""
				}

			}
, 			{
				"box" : 				{
					"comment" : "",
					"id" : "obj-35",
					"index" : 1,
					"maxclass" : "outlet",
					"numinlets" : 1,
					"numoutlets" : 0,
					"patching_rect" : [ 94.5, 505.167236, 25.0, 25.0 ],
					"style" : ""
				}

			}
, 			{
				"box" : 				{
					"comment" : "",
					"id" : "obj-5",
					"index" : 1,
					"maxclass" : "inlet",
					"numinlets" : 0,
					"numoutlets" : 1,
					"outlettype" : [ "signal" ],
					"patching_rect" : [ 94.5, 64.0, 25.0, 25.0 ],
					"style" : ""
				}

			}
, 			{
				"box" : 				{
					"annotation" : "Outgain",
					"channels" : 1,
					"clip_size" : 1,
					"display_range" : [ -70.0, 30.0 ],
					"id" : "obj-14",
					"maxclass" : "live.gain~",
					"numinlets" : 1,
					"numoutlets" : 4,
					"outlettype" : [ "signal", "", "float", "list" ],
					"parameter_enable" : 1,
					"patching_rect" : [ 94.5, 386.667236, 46.0, 96.0 ],
					"presentation" : 1,
					"presentation_rect" : [ 182.5, 7.0, 40.0, 156.0 ],
					"prototypename" : "M4L.live.gain~.V.extended",
					"saved_attribute_attributes" : 					{
						"valueof" : 						{
							"parameter_mmax" : 20.0,
							"parameter_shortname" : "Outgain",
							"parameter_unitstyle" : 4,
							"parameter_type" : 0,
							"parameter_initial_enable" : 1,
							"parameter_mmin" : -127.0,
							"parameter_longname" : "Outgain",
							"parameter_initial" : [ -127 ]
						}

					}
,
					"varname" : "Outgain"
				}

			}
 ],
		"lines" : [ 			{
				"patchline" : 				{
					"destination" : [ "obj-14", 0 ],
					"order" : 0,
					"source" : [ "obj-1", 0 ]
				}

			}
, 			{
				"patchline" : 				{
					"destination" : [ "obj-28", 0 ],
					"order" : 1,
					"source" : [ "obj-1", 0 ]
				}

			}
, 			{
				"patchline" : 				{
					"destination" : [ "obj-24", 0 ],
					"source" : [ "obj-10", 0 ]
				}

			}
, 			{
				"patchline" : 				{
					"color" : [ 0.0, 0.0, 0.0, 0.05 ],
					"destination" : [ "obj-13", 0 ],
					"source" : [ "obj-11", 2 ]
				}

			}
, 			{
				"patchline" : 				{
					"destination" : [ "obj-143", 0 ],
					"source" : [ "obj-11", 5 ]
				}

			}
, 			{
				"patchline" : 				{
					"destination" : [ "obj-17", 0 ],
					"source" : [ "obj-11", 7 ]
				}

			}
, 			{
				"patchline" : 				{
					"destination" : [ "obj-40", 0 ],
					"source" : [ "obj-11", 0 ]
				}

			}
, 			{
				"patchline" : 				{
					"destination" : [ "obj-45", 0 ],
					"source" : [ "obj-11", 6 ]
				}

			}
, 			{
				"patchline" : 				{
					"color" : [ 0.0, 0.0, 0.0, 0.05 ],
					"destination" : [ "obj-6", 0 ],
					"source" : [ "obj-11", 1 ]
				}

			}
, 			{
				"patchline" : 				{
					"color" : [ 0.0, 0.0, 0.0, 0.05 ],
					"destination" : [ "obj-86", 0 ],
					"source" : [ "obj-11", 3 ]
				}

			}
, 			{
				"patchline" : 				{
					"color" : [ 0.0, 0.0, 0.0, 0.05 ],
					"destination" : [ "obj-87", 0 ],
					"source" : [ "obj-11", 4 ]
				}

			}
, 			{
				"patchline" : 				{
					"destination" : [ "obj-11", 6 ],
					"source" : [ "obj-118", 0 ]
				}

			}
, 			{
				"patchline" : 				{
					"color" : [ 0.0, 0.0, 0.0, 0.05 ],
					"destination" : [ "obj-11", 4 ],
					"source" : [ "obj-13", 3 ]
				}

			}
, 			{
				"patchline" : 				{
					"color" : [ 0.0, 0.0, 0.0, 0.05 ],
					"destination" : [ "obj-11", 3 ],
					"order" : 1,
					"source" : [ "obj-13", 1 ]
				}

			}
, 			{
				"patchline" : 				{
					"destination" : [ "obj-75", 0 ],
					"order" : 0,
					"source" : [ "obj-13", 1 ]
				}

			}
, 			{
				"patchline" : 				{
					"destination" : [ "obj-11", 5 ],
					"order" : 1,
					"source" : [ "obj-139", 1 ]
				}

			}
, 			{
				"patchline" : 				{
					"destination" : [ "obj-145", 0 ],
					"order" : 0,
					"source" : [ "obj-139", 1 ]
				}

			}
, 			{
				"patchline" : 				{
					"destination" : [ "obj-35", 0 ],
					"source" : [ "obj-14", 0 ]
				}

			}
, 			{
				"patchline" : 				{
					"destination" : [ "obj-36", 0 ],
					"source" : [ "obj-14", 1 ]
				}

			}
, 			{
				"patchline" : 				{
					"destination" : [ "obj-143", 0 ],
					"source" : [ "obj-142", 0 ]
				}

			}
, 			{
				"patchline" : 				{
					"destination" : [ "obj-139", 0 ],
					"source" : [ "obj-143", 3 ]
				}

			}
, 			{
				"patchline" : 				{
					"destination" : [ "obj-80", 0 ],
					"source" : [ "obj-143", 1 ]
				}

			}
, 			{
				"patchline" : 				{
					"destination" : [ "obj-22", 0 ],
					"source" : [ "obj-18", 0 ]
				}

			}
, 			{
				"patchline" : 				{
					"destination" : [ "obj-22", 0 ],
					"source" : [ "obj-19", 0 ]
				}

			}
, 			{
				"patchline" : 				{
					"destination" : [ "obj-25", 0 ],
					"source" : [ "obj-2", 0 ]
				}

			}
, 			{
				"patchline" : 				{
					"destination" : [ "obj-18", 0 ],
					"source" : [ "obj-20", 0 ]
				}

			}
, 			{
				"patchline" : 				{
					"destination" : [ "obj-19", 0 ],
					"source" : [ "obj-21", 0 ]
				}

			}
, 			{
				"patchline" : 				{
					"destination" : [ "obj-1", 0 ],
					"source" : [ "obj-22", 0 ]
				}

			}
, 			{
				"patchline" : 				{
					"destination" : [ "obj-22", 0 ],
					"source" : [ "obj-23", 0 ]
				}

			}
, 			{
				"patchline" : 				{
					"destination" : [ "obj-22", 0 ],
					"source" : [ "obj-24", 0 ]
				}

			}
, 			{
				"patchline" : 				{
					"destination" : [ "obj-22", 0 ],
					"source" : [ "obj-25", 0 ]
				}

			}
, 			{
				"patchline" : 				{
					"destination" : [ "obj-41", 0 ],
					"source" : [ "obj-28", 0 ]
				}

			}
, 			{
				"patchline" : 				{
					"destination" : [ "obj-26", 0 ],
					"source" : [ "obj-29", 0 ]
				}

			}
, 			{
				"patchline" : 				{
					"destination" : [ "obj-307", 0 ],
					"source" : [ "obj-306", 0 ]
				}

			}
, 			{
				"patchline" : 				{
					"destination" : [ "obj-284", 0 ],
					"source" : [ "obj-307", 0 ]
				}

			}
, 			{
				"patchline" : 				{
					"destination" : [ "obj-42", 1 ],
					"source" : [ "obj-34", 0 ]
				}

			}
, 			{
				"patchline" : 				{
					"destination" : [ "obj-11", 0 ],
					"source" : [ "obj-40", 0 ]
				}

			}
, 			{
				"patchline" : 				{
					"destination" : [ "obj-1", 0 ],
					"source" : [ "obj-42", 0 ]
				}

			}
, 			{
				"patchline" : 				{
					"destination" : [ "obj-306", 0 ],
					"source" : [ "obj-45", 0 ]
				}

			}
, 			{
				"patchline" : 				{
					"destination" : [ "obj-55", 0 ],
					"source" : [ "obj-48", 0 ]
				}

			}
, 			{
				"patchline" : 				{
					"destination" : [ "obj-29", 0 ],
					"order" : 1,
					"source" : [ "obj-5", 0 ]
				}

			}
, 			{
				"patchline" : 				{
					"destination" : [ "obj-42", 0 ],
					"order" : 0,
					"source" : [ "obj-5", 0 ]
				}

			}
, 			{
				"patchline" : 				{
					"destination" : [ "obj-22", 0 ],
					"source" : [ "obj-55", 0 ]
				}

			}
, 			{
				"patchline" : 				{
					"color" : [ 0.0, 0.0, 0.0, 0.05 ],
					"destination" : [ "obj-11", 1 ],
					"source" : [ "obj-6", 0 ]
				}

			}
, 			{
				"patchline" : 				{
					"color" : [ 0.0, 0.0, 0.0, 0.05 ],
					"destination" : [ "obj-11", 2 ],
					"source" : [ "obj-7", 1 ]
				}

			}
, 			{
				"patchline" : 				{
					"destination" : [ "obj-80", 0 ],
					"source" : [ "obj-75", 0 ]
				}

			}
, 			{
				"patchline" : 				{
					"destination" : [ "obj-23", 0 ],
					"source" : [ "obj-8", 0 ]
				}

			}
, 			{
				"patchline" : 				{
					"destination" : [ "obj-13", 0 ],
					"source" : [ "obj-80", 0 ]
				}

			}
, 			{
				"patchline" : 				{
					"color" : [ 0.0, 0.0, 0.0, 0.05 ],
					"destination" : [ "obj-11", 2 ],
					"source" : [ "obj-86", 1 ]
				}

			}
 ]
	}

}
